<?xml version="1.0" encoding="UTF-8"?>
<svg id="Layer_1" xmlns="http://www.w3.org/2000/svg" version="1.1" viewBox="0 0 2500 2500">
  <!-- Generator: Adobe Illustrator 29.2.1, SVG Export Plug-In . SVG Version: 2.1.0 Build 116)  -->
  <defs>
    <style>
      .st0 {
        fill: #fff;
      }
    </style>
  </defs>
  <path class="st0" d="M1591.4,423.7h-678c-298.2,21.7-463.2,184.9-483.1,483.1v678.1c21.7,308.2,184.9,473.1,483.1,483.1h678c298.2-21.7,473.1-184.9,483.1-483.1v-678.1c-21.7-298.2-184.9-473.1-483.1-483.1ZM1919.6,1573.3c-10,224.9-111.6,328.2-338.2,338.2h-656.4c-224.9-10-328.2-123.3-338.2-338.2v-656.4c10-224.9,111.6-328.2,338.2-338.2h656.4c226.6,11.7,329.9,113.3,338.2,338.2v656.4Z"/>
  <path class="st0" d="M1253.2,825.2c-236.6,0-421.5,184.9-421.5,421.5s184.9,421.5,421.5,421.5,421.5-184.9,421.5-421.5-184.9-421.5-421.5-421.5ZM1254.8,1523.3c-153.3,0-276.6-123.3-276.6-276.6s123.3-276.6,276.6-276.6,276.6,123.3,276.6,276.6-123.3,276.6-276.6,276.6Z"/>
  <path class="st0" d="M1797.9,805.2c0,61.6-51.6,103.3-103.3,103.3s-103.3-41.7-103.3-103.3,41.7-103.3,103.3-103.3,103.3,41.7,103.3,103.3Z"/>
</svg>