<?xml version="1.0" encoding="UTF-8"?>
<svg id="Layer_1" xmlns="http://www.w3.org/2000/svg" version="1.1" viewBox="0 0 2500 2500">
  <!-- Generator: Adobe Illustrator 29.2.1, SVG Export Plug-In . SVG Version: 2.1.0 Build 116)  -->
  <defs>
    <style>
      .st0 {
        fill: #fff;
      }
    </style>
  </defs>
  <path class="st0" d="M2026.2,889.7c-18.1-62.7-74.2-112.2-143.5-128.7-127-29.7-633.5-29.7-633.5-29.7,0,0-506.5,0-633.5,29.7-69.3,16.5-125.4,66-143.5,128.7-34.6,113.8-34.6,349.8-34.6,349.8,0,0,0,235.9,34.6,349.8,18.1,62.7,74.2,110.5,143.5,127,125.4,29.7,633.5,29.7,633.5,29.7,0,0,506.5,0,633.5-29.7,69.3-18.2,125.4-64.3,143.5-127,34.6-113.8,34.6-349.8,34.6-349.8,0,0,0-235.9-34.6-349.8ZM1082.5,1453.9v-428.9l424,214.5-424,214.5Z"/>
</svg>