<?xml version="1.0" encoding="UTF-8"?>
<svg id="Calque_1" xmlns="http://www.w3.org/2000/svg" version="1.1" viewBox="0 0 109.18 127.96">
  <!-- Generator: Adobe Illustrator 29.8.0, SVG Export Plug-In . SVG Version: 2.1.1 Build 160)  -->
  <defs>
    <style>
      .st0 {
        fill: #fffcf1;
      }

      .st1 {
        fill: #5ba1ff;
      }

      .st2 {
        fill: #322f29;
      }
    </style>
  </defs>
  <circle class="st0" cx="54.59" cy="61.05" r="54.59"/>
  <path class="st0" d="M44.9,37.3c3.63-.2,6.89.75,9.6,2.22,1.89-1.04,3.94-1.8,6.06-2.23l.38-.08.38-.04c6.08-.68,12.18,1.67,16.17,6.4,3.09,3.53,4.95,7.69,5.09,12.31.13,4.51-1.4,8.61-3.49,12.08l-.1.16-.11.16c-3.01,4.52-7.01,8.3-11.71,11.14-2.08,1.31-4.35,2.52-6.41,3.62-.53.29-1.05.56-1.55.83l-.2.11-.21.1c-1.59.75-3.15.97-4.37.97s-2.78-.21-4.37-.97c-4.43-2.1-8.34-4.58-11.9-7.15-5.93-4.06-10.01-10.4-11.37-17.6l-.06-.32-.03-.32c-1.05-9.63,5.28-18.11,14.28-20.85l1.23-.37h.9c.15-.02.4-.06.68-.09.29-.03.66-.07,1.11-.08h0Z"/>
  <path class="st2" d="M13.34,1.24c-1,5.8-3.22,11.47-12.91,14.37-.59.18-.56,1.17.04,1.3,10.91,2.52,11.52,8.4,12.76,14.61.29,1.44,1.99,1.4,2.33-.03,1.47-6.15,3.48-11.91,13.05-14.56.57-.16.59-1.1.03-1.28-8.23-2.74-11.13-8.58-12.68-14.49-.41-1.58-2.35-1.53-2.63.07h0Z"/>
  <path class="st2" d="M88.99,89.84c-1.22,7.05-3.91,13.95-15.64,17.47-.71.21-.68,1.42.05,1.59,13.23,3.07,13.96,10.22,15.47,17.77.35,1.75,2.41,1.7,2.83-.03,1.78-7.48,4.21-14.48,15.82-17.71.7-.19.72-1.33.03-1.56-9.98-3.33-13.49-10.43-15.37-17.62-.5-1.92-2.85-1.86-3.18.09h-.01Z"/>
  <path class="st1" d="M54.15,37.05c-5.37,0-9.72,4.35-9.72,9.72s4.35,9.72,9.72,9.72,9.72-4.35,9.72-9.72-4.35-9.72-9.72-9.72Z"/>
  <path class="st1" d="M43.78,61.68c-5.37,0-9.72,4.35-9.72,9.72v3.08c0,1.95,1.41,3.62,3.34,3.93,11.09,1.81,22.4,1.81,33.49,0,1.93-.31,3.34-1.98,3.34-3.93v-3.08c0-5.37-4.35-9.72-9.72-9.72h-.88c-.48,0-.95.08-1.41.22l-2.24.73c-3.79,1.24-7.88,1.24-11.67,0l-2.24-.73c-.45-.15-.93-.22-1.41-.22h-.88,0Z"/>
</svg>