<?xml version="1.0" encoding="UTF-8"?>
<svg id="Calque_1" data-name="Calque 1" xmlns="http://www.w3.org/2000/svg" viewBox="0 0 109.18 127.96">
  <defs>
    <style>
      .cls-1 {
        fill: #fffcf1;
      }

      .cls-2 {
        fill: #322f29;
      }
    </style>
  </defs>
  <circle class="cls-1" cx="54.59" cy="59.15" r="54.59"/>
  <path class="cls-1" d="M45.34,37.3c3.63-.2,6.89.75,9.6,2.22,1.89-1.04,3.94-1.8,6.06-2.23l.38-.08.38-.04c6.08-.68,12.18,1.67,16.17,6.4,3.09,3.53,4.95,7.69,5.09,12.31.13,4.51-1.4,8.61-3.49,12.08l-.1.16-.11.16c-3.01,4.52-7.01,8.3-11.71,11.14-2.08,1.31-4.35,2.52-6.41,3.62-.53.29-1.05.56-1.55.83l-.2.11-.21.1c-1.59.75-3.15.97-4.37.97s-2.78-.21-4.37-.97c-4.43-2.1-8.34-4.58-11.9-7.15-5.93-4.06-10.01-10.4-11.37-17.6l-.06-.32-.03-.32c-1.05-9.63,5.28-18.11,14.28-20.85l1.23-.37h.9c.15-.02.4-.06.68-.09.29-.03.66-.07,1.11-.08Z"/>
  <path class="cls-2" d="M13.78,1.24c-1,5.8-3.22,11.47-12.91,14.37-.59.18-.56,1.17.04,1.3,10.91,2.52,11.52,8.4,12.76,14.61.29,1.44,1.99,1.4,2.33-.03,1.47-6.15,3.48-11.91,13.05-14.56.57-.16.59-1.1.03-1.28-8.23-2.74-11.13-8.58-12.68-14.49-.41-1.58-2.35-1.53-2.63.07h0Z"/>
  <path class="cls-2" d="M89.43,89.84c-1.22,7.05-3.91,13.95-15.64,17.47-.71.21-.68,1.42.05,1.59,13.23,3.07,13.96,10.22,15.47,17.77.35,1.75,2.41,1.7,2.83-.03,1.78-7.48,4.21-14.48,15.82-17.71.7-.19.72-1.33.03-1.56-9.98-3.33-13.49-10.43-15.37-17.62-.5-1.92-2.85-1.86-3.18.09h0Z"/>
  <path class="cls-2" d="M61.05,35.46c0-.53-.33-1-.85-1.21-.51-.21-1.11-.1-1.51.26l-4.95,4.5c-7.37,6.7-13.61,14.44-18.47,22.94-.11.19-.18.41-.18.65,0,.73.62,1.32,1.39,1.32h12.01v18.92c0,.52.33.99.83,1.2.5.21,1.09.12,1.5-.23l2.22-1.91c7.76-6.68,14.34-14.47,19.5-23.1l1.37-2.29c.24-.41.24-.91-.01-1.31-.25-.4-.71-.65-1.2-.65h-11.64v-19.07Z"/>
</svg>