<?xml version="1.0" encoding="UTF-8"?>
<svg id="Calque_1" xmlns="http://www.w3.org/2000/svg" version="1.1" viewBox="0 0 86 86">
  <!-- Generator: Adobe Illustrator 29.8.0, SVG Export Plug-In . SVG Version: 2.1.1 Build 160)  -->
  <defs>
    <style>
      .st0 {
        fill: #fffcf1;
      }

      .st1 {
        fill: #de214e;
      }
    </style>
  </defs>
  <path class="st0" d="M43,0l6.46,10.53,10-7.25,1.94,12.2,12.01-2.88-2.88,12.01,12.2,1.94-7.25,10,10.53,6.46-10.53,6.46,7.25,10-12.2,1.94,2.88,12.01-12.01-2.88-1.94,12.2-10-7.25-6.46,10.53-6.46-10.53-10,7.25-1.94-12.2-12.01,2.88,2.88-12.01-12.2-1.94,7.25-10L0,43l10.53-6.46-7.25-10,12.2-1.94-2.88-12.01,12.01,2.88,1.94-12.2,10,7.25L43,0Z"/>
  <path class="st1" d="M33.4,27.25c2.78-.19,5.37.94,7.35,2.63.4.56.99,1.13,1.39,1.51.6.75.99.56,1.59-.19,1.79-2.07,4.37-3.57,7.16-4.14,3.38-.38,6.76.94,8.95,3.57,4.17,4.7,3.98,9.78.8,15.05-2.39,3.57-5.57,6.58-9.34,8.84-2.39,1.51-4.97,2.82-7.75,4.33-.4.19-.99.19-1.39,0-3.98-1.88-7.55-4.14-10.93-6.58-4.17-2.82-7.16-7.34-8.15-12.61-.6-5.46,2.98-10.54,8.55-12.23.6,0,1.19-.19,1.79-.19h-.02Z"/>
</svg>