<?xml version="1.0" encoding="UTF-8"?>
<svg id="Calque_1" xmlns="http://www.w3.org/2000/svg" version="1.1" viewBox="0 0 110.06 129.42">
  <!-- Generator: Adobe Illustrator 29.8.0, SVG Export Plug-In . SVG Version: 2.1.1 Build 160)  -->
  <defs>
    <style>
      .st0 {
        fill: #fffcf1;
      }

      .st1 {
        fill: #322f29;
      }

      .st2 {
        fill: #ff9d29;
      }
    </style>
  </defs>
  <circle class="st0" cx="55.47" cy="62.51" r="54.59"/>
  <path class="st2" d="M51.76,30.82h8.75l-.53,8.08c9.51.99,13.61,5.87,14.68,12.5l-10.87,2.13c-.99-4.57-2.89-6.93-8.36-6.93-4.87,0-7.15,1.68-7.15,4.57,0,2.59,1.29,4.5,10.27,6.1,14.14,2.51,17.19,7.85,17.19,14.48,0,7.69-4.79,12.49-15.82,13.33l.61,9.14h-8.75l.68-9.29c-11.41-1.07-15.51-6.86-16.35-13.64l10.42-2.21c1.06,5.49,4.94,7.92,10.57,7.92,5.1,0,7.6-1.68,7.6-4.57,0-3.12-2.13-4.8-10.72-6.25-12.62-1.98-16.5-6.86-16.5-14.4s4.87-12.11,14.9-12.95l-.61-8h-.01Z"/>
  <path class="st1" d="M89.05,1.23c-1,5.8-3.22,11.47-12.91,14.37-.59.18-.56,1.17.04,1.3,10.91,2.52,11.52,8.4,12.76,14.61.29,1.44,1.99,1.4,2.33-.03,1.47-6.15,3.48-11.91,13.05-14.56.57-.16.59-1.1.03-1.28-8.23-2.74-11.13-8.58-12.68-14.49-.41-1.58-2.35-1.53-2.63.07h0Z"/>
  <path class="st1" d="M16.16,91.3c-1.22,7.05-3.91,13.95-15.64,17.47-.71.21-.68,1.42.05,1.59,13.23,3.07,13.96,10.22,15.47,17.77.35,1.75,2.41,1.7,2.83-.03,1.78-7.48,4.21-14.48,15.82-17.71.7-.19.72-1.33.03-1.56-9.98-3.33-13.49-10.43-15.37-17.62-.5-1.92-2.85-1.86-3.18.09h0Z"/>
</svg>