<?xml version="1.0" encoding="UTF-8"?>
<svg id="Calque_1" data-name="Calque 1" xmlns="http://www.w3.org/2000/svg" viewBox="0 0 86.01 86.02">
  <defs>
    <style>
      .cls-1 {
        fill: #fffcf1;
      }

      .cls-2 {
        fill: #302d28;
      }
    </style>
  </defs>
  <path class="cls-1" d="M43,0l6.46,10.53,10-7.25,1.94,12.2,12.01-2.88-2.88,12.01,12.2,1.94-7.25,10,10.53,6.46-10.53,6.46,7.25,10-12.2,1.94,2.88,12.01-12.01-2.88-1.94,12.2-10-7.25-6.46,10.53-6.46-10.53-10,7.25-1.94-12.2-12.01,2.88,2.88-12.01-12.2-1.94,7.25-10L0,43l10.53-6.46-7.25-10,12.2-1.94-2.88-12.01,12.01,2.88,1.94-12.2,10,7.25L43,0Z"/>
  <path class="cls-2" d="M57.81,33.42v8.88c0,3.91-1.77,7.74-5.26,11.37-2.75,2.87-5.92,4.9-7.56,5.86-.43.25-.77.45-1.29.56-.21.05-.45.07-.69.07s-.48-.02-.69-.07c-.51-.11-.85-.31-1.29-.56h0c-1.64-.96-4.81-3-7.56-5.86-3.49-3.64-5.26-7.46-5.26-11.37v-8.88c0-1.06,0-1.77.35-2.47.31-.62.8-1.12,1.42-1.44.7-.36,1.41-.37,2.49-.38,2.29-.03,4.12-.13,5.62-.55,1.44-.4,2.6-1.09,3.76-2.25.64-.64,1.68-.64,2.33,0,1.16,1.16,2.32,1.85,3.76,2.25,1.5.42,3.34.52,5.62.55,1.08.01,1.79.02,2.49.38.62.32,1.11.82,1.42,1.44.35.7.35,1.4.35,2.47Z"/>
</svg>