<?xml version="1.0" encoding="UTF-8"?>
<svg id="Calque_1" xmlns="http://www.w3.org/2000/svg" version="1.1" viewBox="0 0 86 86">
  <!-- Generator: Adobe Illustrator 29.8.0, SVG Export Plug-In . SVG Version: 2.1.1 Build 160)  -->
  <defs>
    <style>
      .st0 {
        fill: #fffcf1;
      }

      .st1 {
        fill: #302d28;
        fill-rule: evenodd;
      }
    </style>
  </defs>
  <path class="st0" d="M43,0l6.46,10.53,10-7.25,1.94,12.2,12.01-2.88-2.88,12.01,12.2,1.94-7.25,10,10.53,6.46-10.53,6.46,7.25,10-12.2,1.94,2.88,12.01-12.01-2.88-1.94,12.2-10-7.25-6.46,10.53-6.46-10.53-10,7.25-1.94-12.2-12.01,2.88,2.88-12.01-12.2-1.94,7.25-10L0,43l10.53-6.46-7.25-10,12.2-1.94-2.88-12.01,12.01,2.88,1.94-12.2,10,7.25L43,0Z"/>
  <path class="st1" d="M82.04,16.73c2.17,0,3.93,1.74,3.94,3.89l.02,20.49c0,2.15-1.75,3.9-3.92,3.91-2.17,0-3.93-1.74-3.94-3.89v-11.08l-28.49,28.52c-.74.73-1.74,1.15-2.78,1.15s-2.05-.41-2.78-1.15l-14.85-14.8-21.54,21.38c-1.53,1.52-4.02,1.52-5.55,0-1.53-1.52-1.53-3.99,0-5.51l24.32-24.14c.74-.73,1.74-1.14,2.78-1.14s2.04.41,2.78,1.15l14.84,14.79,25.71-25.74-13.04-.04c-2.17,0-3.93-1.74-3.94-3.89,0-2.15,1.75-3.9,3.92-3.91l22.52.02h0Z"/>
</svg>