<?xml version="1.0" encoding="UTF-8"?>
<svg id="katman_1" data-name="katman 1" xmlns="http://www.w3.org/2000/svg" viewBox="0 0 213.05 213.19">
  <defs>
    <style>
      .cls-1 {
        fill: #fff;
      }

      .cls-2 {
        fill: #fa0f00;
      }
    </style>
  </defs>
  <rect class="cls-2" width="213.05" height="213.19"/>
  <path id="_256" data-name=" 256" class="cls-1" d="M170.99,167.94h-28.5c-2.5,0-4.8-1.4-5.8-3.8l-30.9-72.4c-.2-.7-1-1.1-1.7-.9-.4.1-.8.5-.9.9l-19.3,45.9c-.4.8,0,1.8.9,2.1.2.1.4.1.6.1h21.2c1.3,0,2.5.8,3,2l9.3,20.7c.8,1.9-.1,4.2-2,5-.5.2-1,.3-1.5.3H38.19c-1.9,0-3.5-1.6-3.5-3.5,0-.5.1-.9.3-1.4l49.1-116.9c1-2.5,3.5-4.2,6.2-4.1h28.3c2.7,0,5.2,1.6,6.2,4.1l49.4,116.9c.8,1.8-.1,3.9-1.8,4.6-.5.2-.9.3-1.4.4Z"/>
</svg>