<svg width="61" height="60" viewBox="0 0 61 60" fill="none" xmlns="http://www.w3.org/2000/svg">
<path d="M20.3083 6.25021C23.9403 6.05368 27.2027 7.00253 29.9092 8.46912C31.7962 7.4266 33.8464 6.66551 35.9701 6.2343L36.3482 6.15754L36.7317 6.11479C42.8098 5.43722 48.9138 7.78325 52.9049 12.5187C55.9991 16.0472 57.8552 20.2128 57.9919 24.8331C58.1254 29.3448 56.5954 33.4397 54.5001 36.9142L54.4022 37.0766L54.2969 37.2345C51.2856 41.7523 47.2907 45.5382 42.5885 48.3698C40.5056 49.6796 38.2398 50.891 36.1804 51.992C35.6471 52.2771 35.1277 52.5548 34.6289 52.8249L34.4262 52.9346L34.2178 53.0334C32.6304 53.7854 31.07 54 29.8488 54C28.6277 54 27.0673 53.7854 25.4799 53.0334C21.048 50.9336 17.1381 48.4565 13.579 45.8843C7.64628 41.8208 3.56428 35.4804 2.20848 28.2861L2.14894 27.9702L2.11406 27.6507C1.06296 18.023 7.39047 9.54543 16.3954 6.8028L17.6245 6.42846H18.523C18.6729 6.40492 18.9277 6.36605 19.2011 6.33367C19.4869 6.29982 19.8659 6.26345 20.3083 6.25021Z" fill="#FFFCF1"/>
<path d="M20.4015 14.2514C23.1845 14.0632 25.7686 15.1921 27.7565 16.8853C28.1541 17.4498 28.7504 18.0142 29.148 18.3905C29.7443 19.143 30.1419 18.9549 30.7383 18.2023C32.5273 16.1328 35.1115 14.6277 37.8945 14.0632C41.2738 13.687 44.6531 15.0039 46.8398 17.6379C51.0142 22.3414 50.8154 27.4212 47.6349 32.6891C45.2495 36.2638 42.0689 39.274 38.292 41.5317C35.9066 43.0368 33.3224 44.3538 30.5395 45.8589C30.1419 46.047 29.5455 46.047 29.148 45.8589C25.1723 43.9775 21.5942 41.7198 18.2149 39.274C14.0404 36.4519 11.0586 31.9365 10.0647 26.6686C9.46836 21.2126 13.0465 16.1328 18.6124 14.4395C19.2088 14.4395 19.8051 14.2514 20.4015 14.2514Z" fill="#322F29"/>
</svg>
