<?xml version="1.0" encoding="UTF-8"?>
<svg id="Calque_1" xmlns="http://www.w3.org/2000/svg" version="1.1" viewBox="0 0 24 24">
  <!-- Generator: Adobe Illustrator 29.8.0, SVG Export Plug-In . SVG Version: 2.1.1 Build 160)  -->
  <defs>
    <style>
      .st0 {
        fill: #fff;
      }
    </style>
  </defs>
  <path class="st0" d="M8.59,6.09c.99-.07,1.9.35,2.61.99.14.21.35.42.49.56.21.28.35.21.56-.07.64-.78,1.55-1.34,2.54-1.55,1.2-.14,2.4.35,3.17,1.34,1.48,1.76,1.41,3.67.28,5.64-.85,1.34-1.98,2.47-3.32,3.32-.85.56-1.76,1.06-2.75,1.62-.14.07-.35.07-.49,0-1.41-.71-2.68-1.55-3.88-2.47-1.48-1.06-2.54-2.75-2.89-4.73-.21-2.05,1.06-3.95,3.03-4.59.21,0,.42-.07.63-.07Z"/>
</svg>