<svg width="61" height="60" viewBox="0 0 61 60" fill="none" xmlns="http://www.w3.org/2000/svg">
<path d="M28.1004 2.40887C30.9214 -0.0532025 34.8188 -0.613938 38.1216 0.662394C41.4962 1.96652 44.2767 5.26974 44.2767 9.53608V17.6164H46.2824C49.3858 17.6164 52.6002 19.1064 54.5006 22.0625C56.4702 25.1261 56.5039 29.0284 54.5747 32.1276L53.3421 34.1077C48.207 42.3567 41.6786 49.7789 34.0216 56.11L32.0289 57.7577C29.1904 60.1047 25.3435 60.5971 22.089 59.2921C18.7639 57.9587 16.049 54.6759 16.049 50.4637V42.5183H13.7176C9.07693 42.5183 4 38.9376 4 32.9811C4 31.1836 4.51353 29.5114 5.363 28.1082C10.2016 19.9958 16.3754 12.6422 23.6466 6.29602L28.1004 2.40887Z" fill="#FFFCF1"/>
<path d="M36.3 9.15792C36.3 8.69373 36.0007 8.2744 35.5397 8.09256C35.0786 7.91073 34.5448 8.00154 34.1836 8.32327L29.7387 12.2823C23.1207 18.1769 17.5286 24.9858 13.1615 32.4666C13.0587 32.6348 13 32.8292 13 33.0363C13 33.6758 13.5596 34.1942 14.25 34.1942H25.025V50.8421C25.025 51.3006 25.3171 51.7159 25.7699 51.9012C26.2227 52.0865 26.7508 52.0069 27.1168 51.6981L29.1056 50.0199C36.0673 44.1455 41.9754 37.2822 46.6081 29.6874L47.8383 27.6707C48.057 27.3122 48.0537 26.8731 47.8296 26.5175C47.6056 26.1618 47.1945 25.9432 46.75 25.9432H36.3V9.15792Z" fill="#322F29"/>
</svg>
