<svg width="61" height="62" viewBox="0 0 61 62" fill="none" xmlns="http://www.w3.org/2000/svg">
<path d="M9.486 40.4625C3.87007 39.1574 2.09175 34.1426 2.00368 31.2359C1.91564 28.3297 3.3832 23.2341 8.88696 21.5804C14.0017 20.0435 16.2663 18.0654 17.4661 16.466C18.7752 14.7209 19.5556 12.4551 20.1452 9.03077C20.9823 4.16857 24.9716 0.145325 30.3578 0.00381682C35.6458 -0.135113 39.8011 3.5359 41.0162 8.20093C41.9179 11.6628 43.0419 14.3904 44.6721 16.529C46.1957 18.5277 48.4621 20.4118 52.3927 21.7278C57.5594 23.4577 59.06 28.2545 58.9982 31.1995C58.9363 34.1472 57.2209 38.9268 51.9183 40.4036C47.0282 41.7655 44.9322 43.6304 43.7504 45.2342C42.3535 47.13 41.4941 49.6295 40.5227 53.711C39.4792 58.0955 35.6879 61.9125 30.4381 61.9985C24.9599 62.0883 20.9736 58.081 20.0468 53.4274L19.9118 52.7484C19.0231 48.2775 18.6379 46.3396 17.5771 44.704C16.905 43.6677 15.3119 41.8163 9.486 40.4625Z" fill="#FFFCF1"/>
<path d="M28.895 10.6639C27.5475 18.4934 24.5703 26.1607 11.5712 30.0681C10.7812 30.3055 10.8214 31.6435 11.6249 31.8303C26.2706 35.235 27.0865 43.1824 28.7555 51.5658C29.1426 53.51 31.4282 53.4578 31.887 51.5292C33.863 43.2233 36.5535 35.4474 49.4075 31.8662C50.1782 31.6515 50.2037 30.3854 49.445 30.1313C38.3949 26.4301 34.5008 18.547 32.4221 10.5638C31.8672 8.43236 29.2686 8.49327 28.895 10.6639Z" fill="#322F29"/>
</svg>
