<?xml version="1.0" encoding="UTF-8"?>
<svg id="Calque_1" xmlns="http://www.w3.org/2000/svg" version="1.1" viewBox="0 0 236.69 236.45">
  <!-- Generator: Adobe Illustrator 29.8.1, SVG Export Plug-In . SVG Version: 2.1.1 Build 2)  -->
  <defs>
    <style>
      .st0 {
        fill: #fffcf1;
      }

      .st1 {
        fill: #322f29;
      }
    </style>
  </defs>
  <path class="st0" d="M219.29,98.7l-67.25,9.74,61.05-23.44c22.87-12.79,3.02-46.31-19-33-12.77,7.72-30.02,24.54-42.59,34.41-2.19,1.73-4.81,4.4-7.45,5.03-.72-.71,4.19-6.44,5.01-7.47,8.62-10.75,31.01-33.37,36.03-43.97,9.81-20.69-20.51-38.2-33.46-18.46l-25.58,63.9c3.42-23.13,8.53-46.17,10.91-69.39-4.28-22.38-36.19-21-38.01,1.91l10.08,67.49-24.46-63.03c-13.19-21.22-45.22-2.02-32.53,19.53l42,52.49-13.48-10.01c-8.61-6.98-34.82-31.62-42.97-34.03-21.25-6.27-34.09,22.33-15.46,34.46l63.9,25.58-69.48-11c-22.18,4.42-21.98,33.3.1,37.95l69.39-9.93-63.36,24.13c-21.57,14.4-1.78,45.74,20.29,32.29,12.94-7.89,29.93-24.42,42.61-34.39,2.19-1.73,4.81-4.4,7.45-5.03.72.71-5.13,7.39-6.01,8.47-9.92,12.07-21.85,24.58-30.95,37.05-1.63,2.23-3.86,4.63-4.82,7.18-8.14,21.54,20.69,36.36,33.65,17.65l25.13-63.36-10.41,67.15c2.75,23.78,34.78,23.72,38.32.26l-9.89-67.41,22.96,60.53c11.5,23.51,46.51,5.73,33.44-17.44l-41.4-53.09,49.49,41c22.08,14.77,42.67-14.01,23.24-30.24l-63.74-25.75c23.32,1.96,46.07,9.04,69.42,9.9,21.51-5.47,19.73-34.27-2.17-37.66ZM119.63,148.67c-16.87,0-30.55-13.68-30.55-30.55s13.68-30.55,30.55-30.55,30.56,13.68,30.56,30.55-13.68,30.55-30.56,30.55Z"/>
  <path class="st1" d="M150.19,118.12c0,16.87-13.68,30.55-30.56,30.55s-30.55-13.68-30.55-30.55,13.68-30.55,30.55-30.55,30.56,13.68,30.56,30.55Z"/>
  <path class="st0" d="M-110.09,222.65c-5.62-1.31-7.39-6.32-7.48-9.23-.09-2.91,1.38-8,6.88-9.66,5.11-1.54,7.38-3.52,8.58-5.11,1.31-1.75,2.09-4.01,2.68-7.44.84-4.86,4.83-8.89,10.21-9.03,5.29-.14,9.44,3.53,10.66,8.2.9,3.46,2.03,6.19,3.66,8.33,1.52,2,3.79,3.88,7.72,5.2,5.17,1.73,6.67,6.53,6.61,9.47-.06,2.95-1.78,7.73-7.08,9.2-4.89,1.36-6.99,3.23-8.17,4.83-1.4,1.9-2.26,4.4-3.23,8.48-1.04,4.38-4.83,8.2-10.08,8.29-5.48.09-9.46-3.92-10.39-8.57l-.14-.68c-.89-4.47-1.27-6.41-2.33-8.04-.67-1.04-2.27-2.89-8.09-4.24Z"/>
  <path class="st1" d="M-90.68,192.85c-1.35,7.83-4.32,15.5-17.32,19.4-.79.24-.75,1.58.05,1.76,14.65,3.4,15.46,11.35,17.13,19.74.39,1.94,2.67,1.89,3.13-.04,1.98-8.31,4.67-16.08,17.52-19.66.77-.21.8-1.48.04-1.73-11.05-3.7-14.94-11.58-17.02-19.57-.55-2.13-3.15-2.07-3.53.1Z"/>
</svg>