<?xml version="1.0" encoding="UTF-8"?>
<svg id="Calque_1" xmlns="http://www.w3.org/2000/svg" version="1.1" viewBox="0 0 218.04 219.54">
  <!-- Generator: Adobe Illustrator 29.8.1, SVG Export Plug-In . SVG Version: 2.1.1 Build 2)  -->
  <defs>
    <style>
      .st0 {
        fill: #fffcf1;
      }

      .st1 {
        fill: #322f29;
      }
    </style>
  </defs>
  <path class="st0" d="M181.11,110.87c18.91-7.69,42.61-14.58,35.71-40.71-7.43-28.17-37.64-20.51-56.7-9.79,4.27-16.03,16.89-29.14,7.81-46.32-7.72-14.62-28.22-18.48-41.15-8.51-8.5,6.56-12.8,22.9-16.68,32.83-2.61.47-1.54-.39-2.08-1.42-3.58-6.92-5.12-15.21-9.08-21.91-10.73-18.1-38.59-17.13-48.01,1.65-7.87,15.66,2.44,28.22,7.18,42.67-1.21.96-19.96-8.04-23.56-8.93-25.8-6.37-44.85,22.7-28.42,43.42,6.09,7.67,17.56,10.71,26.31,14.73,2.02.93,6.1.7,2.39,3.04-5.68,3.59-14.85,5.37-21.03,8.94-22.67,13.1-15.89,48.3,9.82,50.8,12.6,1.22,22.56-5.95,34-9.97-4.81,16.17-16.59,29.69-5.35,46.32,8.94,13.21,28.06,15.74,40.31,5.63,8.6-7.09,10.19-20.81,16.03-29.95,7.13,11.94,8.51,29.37,23.53,34.45,15.02,5.08,32.17-1.63,36.51-17.43,3.95-14.33-5.05-24.79-8.53-38.03,7.89,1.78,14.92,6.77,22.78,8.7,23.33,5.71,42.01-16.05,32.08-38.08-6.38-14.17-21.91-15.03-33.87-22.13ZM108.87,140.95c-17.13,0-31.02-13.9-31.02-31.03s13.89-31.03,31.02-31.03,31.03,13.89,31.03,31.03-13.89,31.03-31.03,31.03Z"/>
  <path class="st1" d="M139.9,109.92c0,17.14-13.89,31.03-31.03,31.03s-31.02-13.9-31.02-31.03,13.89-31.03,31.02-31.03,31.03,13.89,31.03,31.03Z"/>
  <path class="st0" d="M-117.09,172.88c-5.62-1.31-7.39-6.32-7.48-9.23-.09-2.91,1.38-8,6.88-9.66,5.11-1.54,7.38-3.52,8.58-5.11,1.31-1.75,2.09-4.01,2.68-7.44.84-4.86,4.83-8.89,10.21-9.03,5.29-.14,9.44,3.53,10.66,8.2.9,3.46,2.03,6.19,3.66,8.33,1.52,2,3.79,3.88,7.72,5.2,5.17,1.73,6.67,6.53,6.61,9.47-.06,2.95-1.78,7.73-7.08,9.2-4.89,1.36-6.99,3.23-8.17,4.83-1.4,1.9-2.26,4.4-3.23,8.48-1.04,4.38-4.83,8.2-10.08,8.29-5.48.09-9.46-3.92-10.39-8.57l-.14-.68c-.89-4.47-1.27-6.41-2.33-8.04-.67-1.04-2.27-2.89-8.09-4.24Z"/>
  <path class="st1" d="M-97.68,143.08c-1.35,7.83-4.32,15.5-17.32,19.4-.79.24-.75,1.58.05,1.76,14.65,3.4,15.46,11.35,17.13,19.74.39,1.94,2.67,1.89,3.13-.04,1.98-8.31,4.67-16.08,17.52-19.66.77-.21.8-1.48.04-1.73-11.05-3.7-14.94-11.58-17.02-19.57-.55-2.13-3.15-2.07-3.53.1Z"/>
</svg>