<?xml version="1.0" encoding="UTF-8"?>
<svg id="Calque_1" xmlns="http://www.w3.org/2000/svg" version="1.1" viewBox="0 0 783.2 786.2">
  <!-- Generator: Adobe Illustrator 29.4.0, SVG Export Plug-In . SVG Version: 2.1.0 Build 152)  -->
  <defs>
    <style>
      .st0 {
        isolation: isolate;
      }

      .st1 {
        fill: #fff;
      }
    </style>
  </defs>
  <g id="Calque_11">
    <g class="st0">
      <g class="st0">
        <g class="st0">
          <g class="st0">
            <g class="st0">
              <path class="st1" d="M688.9,565.7h-305.5c-77.7,0-109.1-29.8-109.1-125.6v-43c0-95,29.2-125,109.1-125h195.7v-19.4c0-27.8-12.5-42.3-38.2-42.3h-253.4v-63.2h293c79,0,108.3,31.3,108.3,125v293.7-.2h.1ZM579.2,502.5v-167.2h-159c-24.9,0-36.9,11.7-36.9,35.3v100.7c0,20.8,11.7,31.3,36.1,31.3h159.8Z"/>
            </g>
          </g>
        </g>
      </g>
    </g>
    <path class="st1" d="M203.6,588.6c0,22.8,11.7,34,34.8,34h150.6v63.9h-185.2c-79,0-108.3-30.6-108.3-114.5V147h108.3v441.5l-.2.2h0Z"/>
  </g>
</svg>