<?xml version="1.0" encoding="UTF-8"?>
<svg id="Calque_1" xmlns="http://www.w3.org/2000/svg" version="1.1" viewBox="0 0 41.23 41.33">
  <!-- Generator: Adobe Illustrator 29.7.1, SVG Export Plug-In . SVG Version: 2.1.1 Build 8)  -->
  <defs>
    <style>
      .st0 {
        fill: #fffcf1;
      }
    </style>
  </defs>
  <path class="st0" d="M15.27,4.59c-.88,6.38-2.81,12.63-11.27,15.81-.51.19-.49,1.28.03,1.44,9.52,2.77,10.06,9.25,11.14,16.08.25,1.58,1.74,1.54,2.04-.03,1.29-6.77,3.03-13.11,11.39-16.02.5-.17.52-1.21.02-1.41-7.19-3.02-9.72-9.44-11.07-15.95-.36-1.74-2.05-1.69-2.29.08Z"/>
  <path class="st0" d="M33.82,26.26c-.36,2.64-1.16,5.23-4.66,6.54-.21.08-.2.53.01.59,3.94,1.15,4.16,3.83,4.61,6.66.1.66.72.64.84-.01.53-2.8,1.26-5.42,4.72-6.63.21-.07.21-.5.01-.59-2.97-1.25-4.02-3.91-4.58-6.6-.15-.72-.85-.7-.95.03Z"/>
</svg>