<?xml version="1.0" encoding="UTF-8"?>
<svg id="Calque_1" xmlns="http://www.w3.org/2000/svg" version="1.1" viewBox="0 0 612.28 612.46">
  <!-- Generator: Adobe Illustrator 29.8.1, SVG Export Plug-In . SVG Version: 2.1.1 Build 2)  -->
  <defs>
    <style>
      .st0, .st1 {
        fill: #fff;
      }

      .st1 {
        stroke: #fff;
        stroke-miterlimit: 10;
        stroke-width: 20px;
      }

      .st2 {
        fill: #40b830;
      }
    </style>
  </defs>
  <path class="st2" d="M492.51,140.02c-73.24-82.07-188.55-108.19-289.61-61.27C64.04,143.23,17.61,317.23,103.17,443.93l-24.07,90.5,92.44-23.95c120.96,76.8,280.77,37.59,352.35-85.74,54.33-93.6,39.76-204.99-31.38-284.72h0ZM458.08,383.91c-2.32,49.45-50.55,68.6-94.02,60.06-70.97-13.92-141.47-72.96-180.66-131.83-22.53-33.85-38.82-80.23-16.73-118.62,12.5-21.73,25.18-30.67,50.91-28.07,9.68.98,11.55,5.77,15.37,13.63,9.12,18.8,15.84,40.54,24.15,59.87.74,8.53-6.01,17.46-11.04,23.96-3.78,4.89-14.79,13.9-13.81,19.78.98,5.83,18.23,29.57,22.87,35.22,18.37,22.37,54.51,48.08,81.6,58.4,8.35,3.18,10.38,1.63,16.39-4.35,8.13-8.08,14.59-19.69,22-28,7.9-8.85,13.58-4.39,22.66-.7,14.96,6.08,37.48,16.64,51.34,24.66,7.64,4.42,9.42,6.6,8.97,15.99h0Z"/>
  <path class="st0" d="M458.08,383.91c-2.32,49.45-50.55,68.6-94.02,60.06-70.97-13.92-141.47-72.96-180.66-131.83-22.53-33.85-38.82-80.23-16.73-118.62,12.5-21.73,25.18-30.67,50.91-28.07,9.68.98,11.55,5.77,15.37,13.63,9.12,18.8,15.84,40.54,24.15,59.87.74,8.53-6.01,17.46-11.04,23.96-3.78,4.89-14.79,13.9-13.81,19.78.98,5.83,18.23,29.57,22.87,35.22,18.37,22.37,54.51,48.08,81.6,58.4,8.35,3.18,10.38,1.63,16.39-4.35,8.13-8.08,14.59-19.69,22-28,7.9-8.85,13.58-4.39,22.66-.7,14.96,6.08,37.48,16.64,51.34,24.66,7.64,4.42,9.42,6.6,8.97,15.99h0Z"/>
  <g>
    <path class="st2" d="M496.24,136.69c-36.87-41.31-84.26-69.17-137.05-80.56-53.34-11.52-108.11-5.26-158.4,18.09-34.22,15.89-63.63,38.48-87.42,67.16-22.78,27.47-39.23,59.01-48.89,93.75-19.87,71.51-7.73,147.8,33.28,209.7l-25.69,96.59,98.63-25.56c29.63,18.48,61.96,30.56,96.12,35.91,13.23,2.08,26.48,3.11,39.72,3.11,20.43,0,40.82-2.46,60.96-7.38,33.13-8.1,63.8-22.41,91.14-42.53,28.34-20.86,51.75-47,69.57-77.72,54.42-93.75,41.87-207.8-31.97-290.56h0ZM523.89,424.74c-71.58,123.33-231.39,162.54-352.35,85.74l-92.44,23.95,24.07-90.5C17.61,317.23,64.04,143.23,202.9,78.75c101.06-46.92,216.37-20.8,289.61,61.27,71.14,79.73,85.71,191.12,31.38,284.72h0Z"/>
    <path class="st1" d="M496.24,136.69c-36.87-41.31-84.26-69.17-137.05-80.56-53.34-11.52-108.11-5.26-158.4,18.09-34.22,15.89-63.63,38.48-87.42,67.16-22.78,27.47-39.23,59.01-48.89,93.75-19.87,71.51-7.73,147.8,33.28,209.7l-25.69,96.59,98.63-25.56c29.63,18.48,61.96,30.56,96.12,35.91,13.23,2.08,26.48,3.11,39.72,3.11,20.43,0,40.82-2.46,60.96-7.38,33.13-8.1,63.8-22.41,91.14-42.53,28.34-20.86,51.75-47,69.57-77.72,54.42-93.75,41.87-207.8-31.97-290.56h0ZM452.72,496.92c-26.28,19.33-55.75,33.08-87.6,40.86-31.89,7.8-64.45,9.18-96.75,4.11-33.51-5.25-65.18-17.24-94.15-35.63l-1.83-1.16-86.26,22.34,22.46-84.42-1.28-1.89c-40.38-59.8-52.48-133.91-33.19-203.32,9.27-33.38,25.07-63.67,46.95-90.05,22.83-27.52,51.07-49.21,83.94-64.47,48.29-22.43,100.88-28.44,152.07-17.39,50.71,10.94,96.25,37.73,131.7,77.45,70.91,79.47,82.99,188.94,30.79,278.88-17.14,29.52-39.63,54.65-66.85,74.69h0ZM496.24,136.69c-36.87-41.31-84.26-69.17-137.05-80.56-53.34-11.52-108.11-5.26-158.4,18.09-34.22,15.89-63.63,38.48-87.42,67.16-22.78,27.47-39.23,59.01-48.89,93.75-19.87,71.51-7.73,147.8,33.28,209.7l-25.69,96.59,98.63-25.56c29.63,18.48,61.96,30.56,96.12,35.91,13.23,2.08,26.48,3.11,39.72,3.11,20.43,0,40.82-2.46,60.96-7.38,33.13-8.1,63.8-22.41,91.14-42.53,28.34-20.86,51.75-47,69.57-77.72,54.42-93.75,41.87-207.8-31.97-290.56h0ZM452.72,496.92c-26.28,19.33-55.75,33.08-87.6,40.86-31.89,7.8-64.45,9.18-96.75,4.11-33.51-5.25-65.18-17.24-94.15-35.63l-1.83-1.16-86.26,22.34,22.46-84.42-1.28-1.89c-40.38-59.8-52.48-133.91-33.19-203.32,9.27-33.38,25.07-63.67,46.95-90.05,22.83-27.52,51.07-49.21,83.94-64.47,48.29-22.43,100.88-28.44,152.07-17.39,50.71,10.94,96.25,37.73,131.7,77.45,70.91,79.47,82.99,188.94,30.79,278.88-17.14,29.52-39.63,54.65-66.85,74.69h0ZM496.24,136.69c-36.87-41.31-84.26-69.17-137.05-80.56-53.34-11.52-108.11-5.26-158.4,18.09-34.22,15.89-63.63,38.48-87.42,67.16-22.78,27.47-39.23,59.01-48.89,93.75-19.87,71.51-7.73,147.8,33.28,209.7l-25.69,96.59,98.63-25.56c29.63,18.48,61.96,30.56,96.12,35.91,13.23,2.08,26.48,3.11,39.72,3.11,20.43,0,40.82-2.46,60.96-7.38,33.13-8.1,63.8-22.41,91.14-42.53,28.34-20.86,51.75-47,69.57-77.72,54.42-93.75,41.87-207.8-31.97-290.56h0ZM452.72,496.92c-26.28,19.33-55.75,33.08-87.6,40.86-31.89,7.8-64.45,9.18-96.75,4.11-33.51-5.25-65.18-17.24-94.15-35.63l-1.83-1.16-86.26,22.34,22.46-84.42-1.28-1.89c-40.38-59.8-52.48-133.91-33.19-203.32,9.27-33.38,25.07-63.67,46.95-90.05,22.83-27.52,51.07-49.21,83.94-64.47,48.29-22.43,100.88-28.44,152.07-17.39,50.71,10.94,96.25,37.73,131.7,77.45,70.91,79.47,82.99,188.94,30.79,278.88-17.14,29.52-39.63,54.65-66.85,74.69h0Z"/>
    <path class="st2" d="M580.61,172.63c-27.59-56.44-72.1-104.17-125.35-134.39C410.69,12.95,360.88,0,309.1,0,293.22,0,277.16,1.22,261.01,3.67c-50.67,7.68-96.72,27.1-136.84,57.73-37.57,28.69-68.44,66.67-89.27,109.85C13.96,214.66,3.41,262.78,4.38,310.42c1.03,50.15,14.23,97.97,39.25,142.18L0,612.46l163.1-42.64c45.07,23.53,93.95,35.59,143.4,35.58,13.74,0,27.53-.93,41.28-2.8,63.85-8.7,122.69-37.09,170.17-82.11,50.18-47.59,81.72-106.79,91.22-171.21,8.77-59.42-1.11-120.5-28.56-176.65h0ZM458.64,504.97c-27.34,20.12-58.01,34.43-91.14,42.53-20.14,4.92-40.53,7.38-60.96,7.38-13.24,0-26.49-1.03-39.72-3.11-34.16-5.35-66.49-17.43-96.12-35.91l-98.63,25.56,25.69-96.59c-41.01-61.9-53.15-138.19-33.28-209.7,9.66-34.74,26.11-66.28,48.89-93.75,23.79-28.68,53.2-51.27,87.42-67.16,50.29-23.35,105.06-29.61,158.4-18.09,52.79,11.39,100.18,39.25,137.05,80.56,73.84,82.76,86.39,196.81,31.97,290.56-17.82,30.72-41.23,56.86-69.57,77.72h0Z"/>
  </g>
</svg>