<?xml version="1.0" encoding="UTF-8"?>
<svg id="Calque_1" data-name="Calque 1" xmlns="http://www.w3.org/2000/svg" viewBox="0 0 367 367.16">
  <defs>
    <style>
      .cls-1 {
        fill: #1d1d1b;
      }

      .cls-2 {
        fill: #fff;
      }
    </style>
  </defs>
  <rect class="cls-2" width="367" height="367.16"/>
  <g>
    <path class="cls-1" d="M167.39,190.15c-.71-.86-1.44-1.72-2.14-2.59h-87.84v107.1h87.97l.21-.26,1.12-1.36c14.37-17.22,28.77-34.47,43.15-51.69-14.14-17.09-28.33-34.16-42.47-51.2ZM138.35,261.92h-9.41v-40.14h9.41v40.14Z"/>
    <path class="cls-1" d="M250.7,218.2c-.05,3.16-.1,6.32-.18,9.51,13.43-.05,26.81-.08,40.22-.1h.1v27.57h-.1c-13.35-.03-26.68-.05-40.04-.08.03,3.19.03,6.38.05,9.57,13.3.03,26.63.08,39.96.1,0,10.04.03,20.07.03,30.08-24.07-.05-48.14-.13-72.21-.18h-42.26c14.11-16.88,28.17-33.77,42.26-50.65.78-.94,1.59-1.91,2.38-2.85-.78-.94-1.59-1.91-2.38-2.85-14.11-16.93-28.23-33.82-42.34-50.75,14.11.05,28.22.08,42.34.1l72.21.03h.1v30.42h-.1l-40.04.08Z"/>
    <path class="cls-1" d="M157.98,179.15c-16.44-.03-32.85-.03-49.26-.08,8.21-9.88,16.41-19.76,24.62-29.64,8.23,9.9,16.41,19.81,24.64,29.71Z"/>
    <path class="cls-1" d="M194.54,134.15c-2.38-2.85-4.73-5.67-7.11-8.52,2.85-3.37,5.67-6.74,8.52-10.14,8.26-9.85,16.46-19.71,24.57-29.53.76-.91,1.57-1.88,2.4-2.87.94-1.12,1.91-2.3,2.93-3.53,1.99-2.43,3.97-4.83,5.96-7.27-12.41-.03-24.85-.05-37.27-.08-25.14-.05-50.31-.13-75.45-.21-14.19-.05-28.41-.1-42.62-.18.1,35.75.18,71.5.26,107.23,6.85,0,13.69.03,20.54.03,12.02-14.43,24.07-28.9,36.07-43.33,12.02,14.48,24.02,28.93,36.04,43.41,8.39,0,16.78.03,25.17.03,5.54,0,11.11.03,16.67.03h20.91c-12.52-15.03-25.06-30.03-37.58-45.06ZM153.38,110.11h-40.14v-9.41h40.14v9.41Z"/>
    <path class="cls-1" d="M290.92,72.18v107.02h-47.85c-.71-.86-1.41-1.7-2.12-2.56-14.14-17.04-28.33-34.11-42.47-51.2,14.37-17.22,28.77-34.47,43.15-51.69l1.12-1.36.16-.21h48.01Z"/>
  </g>
</svg>