<?xml version="1.0" encoding="UTF-8"?>
<svg id="Calque_1" xmlns="http://www.w3.org/2000/svg" xmlns:xlink="http://www.w3.org/1999/xlink" version="1.1" viewBox="0 0 721.2 770.8">
  <!-- Generator: Adobe Illustrator 29.4.0, SVG Export Plug-In . SVG Version: 2.1.0 Build 152)  -->
  <defs>
    <style>
      .st0, .st1, .st2, .st3, .st4, .st5 {
        fill: none;
      }

      .st6 {
        fill: #6d6d6d;
      }

      .st7 {
        fill: url(#Dégradé_sans_nom_7);
      }

      .st8 {
        fill: url(#Dégradé_sans_nom_4);
      }

      .st9 {
        fill: url(#Dégradé_sans_nom_2);
      }

      .st10 {
        fill: url(#Dégradé_sans_nom_3);
      }

      .st10, .st11, .st12 {
        stroke-width: .5px;
      }

      .st10, .st11, .st12, .st3 {
        stroke: #fff;
      }

      .st10, .st11, .st12, .st13 {
        stroke-miterlimit: 10;
      }

      .st11 {
        fill: url(#Dégradé_sans_nom_5);
      }

      .st12 {
        fill: url(#Dégradé_sans_nom_8);
      }

      .st14 {
        fill: #171717;
      }

      .st15 {
        fill: #e5e5e5;
      }

      .st1 {
        stroke: #e5e5e5;
        stroke-width: 3px;
      }

      .st16 {
        isolation: isolate;
      }

      .st17 {
        fill: #696969;
      }

      .st18 {
        fill: #0096f1;
      }

      .st19 {
        clip-path: url(#clippath-1);
      }

      .st20 {
        clip-path: url(#clippath-3);
      }

      .st21 {
        clip-path: url(#clippath-4);
      }

      .st22 {
        clip-path: url(#clippath-2);
      }

      .st23 {
        clip-path: url(#clippath-6);
      }

      .st24 {
        clip-path: url(#clippath-5);
      }

      .st2 {
        stroke: #161518;
      }

      .st2, .st3 {
        stroke-width: 1.5px;
      }

      .st2, .st3, .st5 {
        stroke-linecap: round;
        stroke-linejoin: round;
      }

      .st4, .st25 {
        stroke: #f1f1f1;
      }

      .st26, .st25 {
        fill: #fff;
      }

      .st27 {
        fill: url(#Dégradé_sans_nom);
      }

      .st13 {
        fill: url(#Dégradé_sans_nom_6);
        stroke: #000;
      }

      .st5 {
        stroke: #696969;
        stroke-width: 1.2px;
      }

      .st28 {
        fill: #ed701d;
      }

      .st29 {
        fill: #fbfbfb;
      }

      .st30 {
        clip-path: url(#clippath);
      }

      .st31 {
        fill: #181818;
      }
    </style>
    <clipPath id="clippath">
      <rect class="st0" x="428.9" y="439.5" width="17.9" height="18"/>
    </clipPath>
    <clipPath id="clippath-1">
      <rect class="st0" x="428.7" y="528.6" width="17.9" height="18"/>
    </clipPath>
    <clipPath id="clippath-2">
      <polygon class="st0" points="580.8 667.4 609.7 654.1 615.1 665.9 586.1 679.2 580.8 667.4"/>
    </clipPath>
    <clipPath id="clippath-3">
      <rect class="st0" x="504.2" y="377" width="22" height="22.3"/>
    </clipPath>
    <clipPath id="clippath-4">
      <rect class="st0" x="504.2" y="377" width="22" height="22.3"/>
    </clipPath>
    <clipPath id="clippath-5">
      <rect class="st0" x="570.2" y="35.1" width="53" height="46" transform="translate(270.5 561.1) rotate(-62.6)"/>
    </clipPath>
    <linearGradient id="Dégradé_sans_nom" data-name="Dégradé sans nom" x1="177.9" y1="760.3" x2="212.9" y2="760.3" gradientTransform="translate(0 -686.9)" gradientUnits="userSpaceOnUse">
      <stop offset="0" stop-color="#000"/>
      <stop offset=".4" stop-color="#9b0601"/>
      <stop offset=".8" stop-color="#ed701d"/>
      <stop offset="1" stop-color="#dcb99a"/>
    </linearGradient>
    <linearGradient id="Dégradé_sans_nom_2" data-name="Dégradé sans nom 2" x1="105.8" y1="-1690.3" x2="129.4" y2="-1809.7" gradientTransform="translate(0 -1024) scale(1 -1)" gradientUnits="userSpaceOnUse">
      <stop offset="0" stop-color="#ffb200"/>
      <stop offset="1" stop-color="#ff861e"/>
    </linearGradient>
    <linearGradient id="Dégradé_sans_nom_3" data-name="Dégradé sans nom 3" x1="7.4" y1="1032.8" x2="227.4" y2="1032.8" gradientTransform="translate(0 -308)" gradientUnits="userSpaceOnUse">
      <stop offset="0" stop-color="#4f0000"/>
      <stop offset=".4" stop-color="#9b0601"/>
      <stop offset=".8" stop-color="#ed701d"/>
      <stop offset="1" stop-color="#dcb99a"/>
    </linearGradient>
    <linearGradient id="Dégradé_sans_nom_4" data-name="Dégradé sans nom 4" x1="585.4" y1="-1689.2" x2="609.1" y2="-1808.5" gradientTransform="translate(0 -1024) scale(1 -1)" gradientUnits="userSpaceOnUse">
      <stop offset="0" stop-color="#ffb200"/>
      <stop offset="1" stop-color="#ff861e"/>
    </linearGradient>
    <linearGradient id="Dégradé_sans_nom_5" data-name="Dégradé sans nom 5" x1="487.5" y1="1031.7" x2="706.5" y2="1031.7" gradientTransform="translate(0 -308)" gradientUnits="userSpaceOnUse">
      <stop offset="0" stop-color="#4f0000"/>
      <stop offset=".4" stop-color="#9b0601"/>
      <stop offset=".8" stop-color="#ed701d"/>
      <stop offset="1" stop-color="#dcb99a"/>
    </linearGradient>
    <clipPath id="clippath-6">
      <rect class="st0" x="511" y="714.7" width="18" height="18"/>
    </clipPath>
    <linearGradient id="Dégradé_sans_nom_6" data-name="Dégradé sans nom 6" x1="349.2" y1="1056.2" x2="364.1" y2="960.2" gradientTransform="translate(0 -686.9)" gradientUnits="userSpaceOnUse">
      <stop offset="0" stop-color="#000"/>
      <stop offset=".4" stop-color="#9b0601"/>
      <stop offset=".8" stop-color="#ed701d"/>
      <stop offset="1" stop-color="#dcb99a"/>
    </linearGradient>
    <linearGradient id="Dégradé_sans_nom_7" data-name="Dégradé sans nom 7" x1="345.8" y1="-1689.3" x2="369.6" y2="-1808.5" gradientTransform="translate(0 -1024) scale(1 -1)" gradientUnits="userSpaceOnUse">
      <stop offset="0" stop-color="#ffb200"/>
      <stop offset="1" stop-color="#ff861e"/>
    </linearGradient>
    <linearGradient id="Dégradé_sans_nom_8" data-name="Dégradé sans nom 8" x1="248.5" y1="1031.7" x2="466.5" y2="1031.7" gradientTransform="translate(0 -308)" gradientUnits="userSpaceOnUse">
      <stop offset="0" stop-color="#4f0000"/>
      <stop offset=".4" stop-color="#9b0601"/>
      <stop offset=".8" stop-color="#ed701d"/>
      <stop offset="1" stop-color="#dcb99a"/>
    </linearGradient>
  </defs>
  <g>
    <path class="st25" d="M429.5,420h147.6c13.2,0,24.1,12.8,24.1,28.5h0c0,15.7-10.8,28.5-24.1,28.5h-147.6c-13.2,0-24.1-12.8-24.1-28.5h0c0-15.7,10.8-28.5,24.1-28.5h0Z"/>
    <g class="st30">
      <path class="st2" d="M433.3,454.5l6.7-6.7c.3-.3.4-.4.6-.5h.5c.2,0,.3.2.6.5l3.2,3.2M436.7,445.9c0,.8-.7,1.5-1.5,1.5s-1.5-.7-1.5-1.5.7-1.5,1.5-1.5,1.5.7,1.5,1.5ZM445.3,448.5c0,4.1-3.4,7.5-7.5,7.5s-7.5-3.4-7.5-7.5,3.4-7.5,7.5-7.5,7.5,3.4,7.5,7.5Z"/>
    </g>
  </g>
  <g>
    <path class="st25" d="M428,509h119.7c12.5,0,22.8,12.8,22.8,28.5h0c0,15.7-10.2,28.5-22.8,28.5h-119.7c-12.5,0-22.8-12.8-22.8-28.5h0c0-15.7,10.2-28.5,22.8-28.5h0Z"/>
    <g class="st19">
      <path class="st2" d="M440.3,536c.3-.5.5-.9.7-1.3.7-1.7,0-3.6-1.7-4.4s-3.4,0-4.1,1.6c-1.4-1-3.3-.8-4.4.7-1,1.5-.7,3.5.7,4.6.7.5,1.9,1.2,3.2,1.9M440.8,537.4c-.3-1.7-1.8-2.9-3.6-2.6-1.8.3-3,2-2.8,3.8.2,1.4,1.3,4.8,1.7,6.1v.3h.5c1.3-.3,4.8-1,6.1-1.6,1.7-.7,2.5-2.5,1.9-4.3-.6-1.7-2.4-2.4-4.1-1.8h.3Z"/>
    </g>
  </g>
  <g>
    <path class="st26" d="M88.7,421.4h190.1c15.6,0,28.4,12.8,28.4,28.5h0c0,15.7-12.7,28.5-28.4,28.5H88.7c-15.6,0-28.4-12.8-28.4-28.5h0c0-15.7,12.7-28.5,28.4-28.5Z"/>
    <path class="st4" d="M88.7,421.4h190.1c15.6,0,28.4,12.8,28.4,28.5h0c0,15.7-12.7,28.5-28.4,28.5H88.7c-15.6,0-28.4-12.8-28.4-28.5h0c0-15.7,12.7-28.5,28.4-28.5Z"/>
    <g>
      <path class="st26" d="M88.7,428.9h190.1c11.5,0,20.9,9.4,20.9,21h0c0,11.6-9.4,21-20.9,21H88.7c-11.5,0-20.9-9.4-20.9-21h0c0-11.6,9.4-21,20.9-21Z"/>
      <path class="st2" d="M86,446.9c0-1.3,0-1.9.2-2.4.2-.4.6-.8,1-1,.5-.2,1.1-.2,2.4-.2h6.3c1.3,0,1.9,0,2.4.2.4.2.8.6,1,1,.2.5.2,1.1.2,2.4v6.3c0,1.3,0,1.9-.2,2.4-.2.4-.6.8-1,1-.5.2-1.1.2-2.4.2h-6.3c-1.3,0-1.9,0-2.4-.2-.4-.2-.8-.6-1-1-.2-.5-.2-1.1-.2-2.4v-6.3Z"/>
      <path class="st2" d="M90.5,448.1l-2.2,4.1h9l-3.4-5.6-1.9,2.6-1.5-1.1h0Z"/>
    </g>
  </g>
  <g>
    <path class="st26" d="M281.6,597.1h146.3c15.6,0,28.4,12.8,28.4,28.5h0c0,15.7-12.7,28.5-28.4,28.5h-146.3c-15.6,0-28.4-12.8-28.4-28.5h0c0-15.7,12.7-28.5,28.4-28.5h0Z"/>
    <path class="st4" d="M281.6,597.1h146.3c15.6,0,28.4,12.8,28.4,28.5h0c0,15.7-12.7,28.5-28.4,28.5h-146.3c-15.6,0-28.4-12.8-28.4-28.5h0c0-15.7,12.7-28.5,28.4-28.5h0Z"/>
    <g>
      <path class="st26" d="M281.6,604.6h146.3c11.5,0,20.9,9.4,20.9,21h0c0,11.6-9.4,21-20.9,21h-146.3c-11.5,0-20.9-9.4-20.9-21h0c0-11.6,9.4-21,20.9-21h0Z"/>
      <path class="st2" d="M285.5,627.9c-2.4,0-4.5,1.1-5.8,2.9-.3.4-.4.6-.4.8s0,.5.3.6c.2.2.5.2,1.1.2h9.9c.6,0,.8,0,1.1-.2.2,0,.3-.4.3-.6,0-.3,0-.5-.4-.8-1.3-1.8-3.5-2.9-5.8-2.9h-.3Z"/>
      <path class="st2" d="M285.5,625.7c1.9,0,3.4-1.5,3.4-3.4s-1.5-3.4-3.4-3.4-3.4,1.5-3.4,3.4,1.5,3.4,3.4,3.4Z"/>
      <path class="st14" d="M303.7,631.7v-11.6h7.2v1.5h-5.5v3.5h4.9v1.5h-4.9v5.1h-1.8,0ZM316,631.9c-.8,0-1.5-.2-2.1-.6s-1.1-.9-1.4-1.6c-.3-.7-.5-1.5-.5-2.4s.2-1.7.5-2.4.8-1.2,1.4-1.6c.6-.4,1.3-.6,2.1-.6s1.5.2,2.1.6,1.1.9,1.4,1.6c.3.7.5,1.5.5,2.4s-.2,1.7-.5,2.4-.8,1.2-1.4,1.6c-.6.4-1.3.6-2.1.6ZM316,630.5c.5,0,1,0,1.3-.4s.6-.7.8-1.1c.2-.5.3-1,.3-1.5s0-1.1-.3-1.5c-.2-.5-.4-.8-.8-1.1-.3-.3-.8-.4-1.3-.4s-1,0-1.3.4-.6.7-.8,1.1c-.2.5-.2,1-.2,1.5s0,1.1.2,1.5c.2.5.4.8.8,1.1s.8.4,1.3.4ZM323.5,620v11.6h-1.7v-11.6h1.7ZM327.5,620v11.6h-1.7v-11.6h1.7ZM333.5,631.9c-.8,0-1.5-.2-2.1-.6s-1.1-.9-1.4-1.6c-.3-.7-.5-1.5-.5-2.4s.2-1.7.5-2.4.8-1.2,1.4-1.6c.6-.4,1.3-.6,2.1-.6s1.5.2,2.1.6,1.1.9,1.4,1.6c.3.7.5,1.5.5,2.4s-.2,1.7-.5,2.4-.8,1.2-1.4,1.6c-.6.4-1.3.6-2.1.6ZM333.5,630.5c.5,0,1,0,1.3-.4s.6-.7.8-1.1c.2-.5.3-1,.3-1.5s0-1.1-.3-1.5c-.2-.5-.4-.8-.8-1.1-.3-.3-.8-.4-1.3-.4s-1,0-1.3.4-.6.7-.8,1.1c-.2.5-.2,1-.2,1.5s0,1.1.2,1.5c.2.5.4.8.8,1.1s.8.4,1.3.4ZM341.1,631.7l-2.6-8.7h1.8l1.7,6.4h0l1.7-6.4h1.8l1.7,6.4h0l1.7-6.4h1.8l-2.6,8.7h-1.7l-1.8-6.3h0l-1.8,6.3h-1.7ZM360.9,619.4l-3.8,13.9h-1.5l3.8-13.9h1.5ZM374.1,620h1.8v7.7c0,.8-.2,1.5-.6,2.2-.4.6-.9,1.1-1.6,1.5s-1.5.5-2.4.5-1.7-.2-2.4-.5c-.7-.4-1.2-.9-1.6-1.5s-.6-1.4-.6-2.2v-7.7h1.8v7.5c0,.5,0,1,.3,1.4s.6.7,1,1c.4.2.9.3,1.5.3s1.1,0,1.5-.3.8-.6,1-1,.3-.9.3-1.4v-7.5h0ZM380,626.5v5.2h-1.7v-8.7h1.6v1.4h0c.2-.5.5-.8.9-1.1s1-.4,1.6-.4,1.1,0,1.6.4c.4.2.8.6,1,1.1s.4,1.1.4,1.8v5.6h-1.7v-5.3c0-.6-.2-1.1-.5-1.5s-.8-.5-1.4-.5-.7,0-1.1.3c-.3.2-.5.4-.7.8-.2.3-.3.7-.3,1.2l.2-.3h.1ZM391.9,623v1.4h-4.9v-1.4h4.9ZM388.3,631.7v-9.7c0-.5,0-1,.4-1.4.2-.4.6-.6.9-.8.4-.2.8-.3,1.3-.3h1.4l-.4,1.4h-.8c-.4,0-.7,0-.9.3-.2.2-.3.5-.3.9v9.5h-1.7.1ZM397,631.9c-.8,0-1.5-.2-2.1-.6s-1.1-.9-1.4-1.6c-.3-.7-.5-1.5-.5-2.4s.2-1.7.5-2.4.8-1.2,1.4-1.6c.6-.4,1.3-.6,2.1-.6s1.5.2,2.1.6,1.1.9,1.4,1.6c.3.7.5,1.5.5,2.4s-.2,1.7-.5,2.4-.8,1.2-1.4,1.6-1.3.6-2.1.6ZM397,630.5c.5,0,1,0,1.3-.4s.6-.7.8-1.1c.2-.5.3-1,.3-1.5s0-1.1-.3-1.5c-.2-.5-.4-.8-.8-1.1-.3-.3-.8-.4-1.3-.4s-1,0-1.3.4-.6.7-.8,1.1c-.2.5-.2,1-.2,1.5s0,1.1.2,1.5c.2.5.4.8.8,1.1s.8.4,1.3.4ZM404.7,620v11.6h-1.7v-11.6h1.7ZM408.6,620v11.6h-1.7v-11.6h1.7ZM414.5,631.9c-.8,0-1.5-.2-2.1-.6s-1.1-.9-1.4-1.6c-.3-.7-.5-1.5-.5-2.4s.2-1.7.5-2.4.8-1.2,1.4-1.6c.6-.4,1.3-.6,2.1-.6s1.5.2,2.1.6,1.1.9,1.4,1.6c.3.7.5,1.5.5,2.4s-.2,1.7-.5,2.4-.8,1.2-1.4,1.6c-.6.4-1.3.6-2.1.6ZM414.5,630.5c.5,0,1,0,1.3-.4s.6-.7.8-1.1c.2-.5.3-1,.3-1.5s0-1.1-.3-1.5c-.2-.5-.4-.8-.8-1.1-.3-.3-.8-.4-1.3-.4s-1,0-1.3.4-.6.7-.8,1.1c-.2.5-.2,1-.2,1.5s0,1.1.2,1.5c.2.5.4.8.8,1.1s.8.4,1.3.4ZM422.1,631.7l-2.6-8.7h1.8l1.7,6.4h0l1.7-6.4h1.8l1.7,6.4h0l1.7-6.4h1.8l-2.6,8.7h-1.7l-1.8-6.3h0l-1.8,6.3h-1.7Z"/>
    </g>
  </g>
  <g>
    <path class="st26" d="M86.9,508.7h192.1c15.6,0,28.4,12.8,28.4,28.5h0c0,15.7-12.7,28.5-28.4,28.5H86.9c-15.6,0-28.4-12.8-28.4-28.5h0c0-15.7,12.7-28.5,28.4-28.5Z"/>
    <path class="st4" d="M86.9,508.7h192.1c15.6,0,28.4,12.8,28.4,28.5h0c0,15.7-12.7,28.5-28.4,28.5H86.9c-15.6,0-28.4-12.8-28.4-28.5h0c0-15.7,12.7-28.5,28.4-28.5Z"/>
    <g>
      <path class="st26" d="M86.9,516.2h192.1c11.5,0,20.9,9.4,20.9,21h0c0,11.6-9.4,21-20.9,21H86.9c-11.5,0-20.9-9.4-20.9-21h0c0-11.6,9.4-21,20.9-21Z"/>
      <path class="st2" d="M90.7,530.6c-3.2.3-5.8,3-5.8,6.3s0,1.4.3,2v.7s0,.2-.2.4l-1.2,2.3c-.2.3-.3.5-.2.6,0,0,0,.2.2.3h.7l3.8-.4h.5c.7.3,1.5.4,2.3.4,3.3,0,6.1-2.5,6.3-5.8M97,531.2c.9.9.9,2.3,0,3.2s-2.3.9-3.2,0-.9-2.3,0-3.2,2.3-.9,3.2,0Z"/>
    </g>
  </g>
  <g class="st22">
    <path class="st28" d="M613.3,663.3c-.4-.2-.9-.3-1.3-.5-3.6-2.1-7.3-2.2-11-1.5-1.3.2-2.6.9-3.7,1.7-3.1,2.3-5.6,5.2-7.3,8.7-.5,1-.8,2.2-.9,3.4.2-.3.5-.5.8-.8.7-.8,1.4-1.7,2.2-2.4.3-.3.8-.5,1.3-.7.2,0,.5,0,.6.2s0,.6,0,.6c-2,1.8-3.4,4.2-5,6.4-.6.8-1.1.9-1.8.3-1.7-1.6-3-3.5-3.9-5.6v-.4c1.9,0,2.3,2,3.8,3.1v-1.1c1.5-6.1,5.1-10.6,10.1-13.9.8-.5,1.7-.9,2.6-1.1,3.3-.9,6.7-.8,10,.4,1.1.4,2,1.1,3,1.8.4.2.6.7.9,1.1,0,.2-.2.3-.3.5l-.2-.2h.2,0Z"/>
  </g>
  <g>
    <g class="st20">
      <path d="M508.7,394.6c4.2-2.5,8.5-4.9,12.8-7.4,0,0,0-.3-.2-.4-1.8.3-3.6.5-5.3.8-1,.2-2.1.3-3.1.2-2.1,0-2.9-1.4-1.8-3.1.4-.5.8-1.2,1.4-1.6,2.6-2,5.3-3.9,7.9-6,.2-.2.4-.3.6-.4.2,0,.5,0,.6.2.2.2.3.6,0,.7-.4.4-.9.9-1.4,1.3-2.1,1.6-4.2,3.3-6.3,4.9-.6.4-1.1,1.2-1.9,2h2.3c2.7-.4,5.4-.9,8.1-1.3.6,0,1.2-.3,1.8-.2.5,0,1.2.4,1.5.7.5.5,0,1.2-.5,1.6s-1,.8-1.6,1.2c-3.4,2-6.8,4-10.2,6-.5.4-1.1.6-1.9,1.2,2.3,0,4-1.2,6.3-.4-.6.5-1,.9-1.4,1.1-3.4,1.5-7,2.5-10.6,3.2-1.5.4-2.4-.6-1.9-2,.2-.6.5-1.2,1-1.8,1.2-1.4,2.5-2.8,3.8-4.3.2-.3.8-.4,1-.4.6.2.5.7.2,1.2-.6.9-1.2,1.8-1.8,2.7h0l.4.3h.2Z"/>
    </g>
    <g class="st21">
      <path class="st28" d="M508.7,394.6c4.2-2.5,8.5-4.9,12.8-7.4,0,0,0-.3-.2-.4-1.8.3-3.6.5-5.3.8-1,.2-2.1.3-3.1.2-2.1,0-2.9-1.4-1.8-3.1.4-.5.8-1.2,1.4-1.6,2.6-2,5.3-3.9,7.9-6,.2-.2.4-.3.6-.4.2,0,.5,0,.6.2.2.2.3.6,0,.7-.4.4-.9.9-1.4,1.3-2.1,1.6-4.2,3.3-6.3,4.9-.6.4-1.1,1.2-1.9,2h2.3c2.7-.4,5.4-.9,8.1-1.3.6,0,1.2-.3,1.8-.2.5,0,1.2.4,1.5.7.5.5,0,1.2-.5,1.6s-1,.8-1.6,1.2c-3.4,2-6.8,4-10.2,6-.5.4-1.1.6-1.9,1.2,2.3,0,4-1.2,6.3-.4-.6.5-1,.9-1.4,1.1-3.4,1.5-7,2.5-10.6,3.2-1.5.4-2.4-.6-1.9-2,.2-.6.5-1.2,1-1.8,1.2-1.4,2.5-2.8,3.8-4.3.2-.3.8-.4,1-.4.6.2.5.7.2,1.2-.6.9-1.2,1.8-1.8,2.7h0l.4.3h.2Z"/>
    </g>
  </g>
  <g class="st24">
    <path class="st28" d="M591.6,80.9c.3,0,.4.2.5.2,8.4-.5,15.5-3.7,21-10.1,1.4-1.6,2.3-3.6,2.8-5.7,1.1-4.6-.9-9.1-4.9-11.5-2.1-1.3-4.3-2.1-6.8-1.9-.7.9-1.3,1.9-2,2.7-1.1,1.3-2.6,2.2-4.4,2.2s-2.4-.5-2.7-1.3c-.4-1.1,0-2.1,1-2.6,1.2-.8,2.5-1.4,3.8-2,.8-.4,1.8-.5,2.7-.7,1.4-4.2-1.5-7.8-6.8-8.5-.4.5-.9,1-1.3,1.5-1.8,1.7-3.9,2.6-6.3,2.2-1,0-1.9-.5-2.2-1.6-.2-.8.3-1.8,1.3-2.5,1.7-1.1,3.6-1.4,5.6-1.6h2c2.4-6.4-.8-13.6-7.5-14,.3-.4.4-.8.7-1s.8,0,1.1,0c3.3,1,5.9,2.8,7,6.1.9,2.5,1,5,.7,7.6v1.4c.4,0,.8.3,1.2.5,5.1,1.7,6.9,4.2,6.8,9.7.5,0,1.1.2,1.6.3,3.2.5,5.9,1.8,8.2,4.1,3.7,3.8,4.6,9,2.5,14-1.2,2.7-2.9,5-5.1,6.9-5.3,4.7-11.5,7.3-18.8,7.4h-1.1l-.3.2c1,.9,2.2,1.4,3.4,1.9,1.1.5,2.3,1,3.5,1.6-.6.8-1.2.9-1.9.8-.8-.2-1.7-.2-2.4-.6-1.9-.9-3.9-1.9-5.8-3-1.5-.9-1.5-1.9-.2-2.8,2.8-1.8,5.6-3.6,8.4-5.4.5-.3,1-.5,1.6-.8.3,1.1-.3,1.5-.8,1.9-2,1.4-3.8,2.8-5.8,4.3h-.3ZM587.4,43.2c2.6.9,4.9.2,6.1-1.9-2.2.2-4.2.3-6.1,1.9ZM596.5,54.8c2.3.6,4-.3,4.9-2.5-1.9.4-3.6.9-4.9,2.5Z"/>
  </g>
  <g>
    <g>
      <rect class="st26" x="167.6" y="46.4" width="376.6" height="174.6" rx="6.7" ry="6.7"/>
      <path class="st29" d="M167.9,53.9c0-4.4,3.6-8,8-8h360c4.4,0,8,3.6,8,8v107H167.9V53.9Z"/>
      <path class="st15" d="M166.9,53.9c0-5,4-9,9-9h360c5,0,9,4,9,9h-2c0-3.9-3.1-7-7-7H175.9c-3.9,0-7,3.1-7,7h-2ZM543.9,160.9H167.9h376ZM166.9,160.9V53.9c0-5,4-9,9-9v2c-3.9,0-7,3.1-7,7v107h-2ZM535.9,44.9c5,0,9,4,9,9v107h-2V53.9c0-3.9-3.1-7-7-7v-2Z"/>
      <path class="st27" d="M195.4,55.9h0c9.7,0,17.5,7.8,17.5,17.5h0c0,9.7-7.8,17.5-17.5,17.5h0c-9.7,0-17.5-7.8-17.5-17.5h0c0-9.7,7.8-17.5,17.5-17.5Z"/>
      <g>
        <path class="st18" d="M318,60.5l1.5-.8.9,1.4h1.7v1.7l1.4.9-.8,1.5.8,1.5-1.4.9v1.7h-1.7l-.9,1.4-1.5-.8-1.5.8-.9-1.4h-1.7v-1.7l-1.4-.9.8-1.5-.8-1.5,1.4-.9v-1.7h1.7l.9-1.4s1.5.8,1.5.8Z"/>
        <path class="st26" d="M317.4,66.9l-1.7-1.6.4-.4,1.3,1.2,2.6-2.5.4.4-3,2.9h0Z"/>
      </g>
      <path class="st17" d="M524.9,57.9h-2.9c-.7,0-1.3.2-1.7.3-.5.2-.9.4-1.2.8-.4.4-.6.8-.8,1.2s-.3,1-.3,1.7v5.8c0,.7.2,1.3.3,1.7.2.5.4.9.8,1.2.4.4.8.6,1.2.8.4.2,1,.3,1.7.3h5.8c.7,0,1.3-.2,1.7-.3.5-.2.9-.4,1.2-.8.4-.4.6-.8.8-1.2.2-.4.3-1,.3-1.7v-5.8c0-.7-.2-1.3-.3-1.7-.2-.5-.4-.9-.8-1.2-.4-.4-.8-.6-1.2-.8s-1-.3-1.7-.3h-2.9,0ZM524.9,59.2h2.8c.7,0,1.1,0,1.3.2.3,0,.6.3.8.5s.4.5.5.8c0,.2.2.6.2,1.3v5.6c0,.7,0,1.1-.2,1.3,0,.3-.3.6-.5.8s-.5.4-.8.5c-.2,0-.6.2-1.3.2h-5.6c-.7,0-1.1,0-1.3-.2-.3,0-.6-.3-.8-.5s-.4-.5-.5-.8c0-.2-.2-.6-.2-1.3v-5.6c0-.7,0-1.1.2-1.3,0-.3.3-.6.5-.8s.5-.4.8-.5c.2,0,.6-.2,1.3-.2h2.8"/>
      <path class="st17" d="M524.9,67.2c-1.3,0-2.3-1-2.3-2.3s1-2.3,2.3-2.3,2.3,1,2.3,2.3-1,2.3-2.3,2.3ZM524.9,61.3c-2,0-3.6,1.6-3.6,3.6s1.6,3.6,3.6,3.6,3.6-1.6,3.6-3.6-1.6-3.6-3.6-3.6h0ZM529.5,61.2c0,.5-.4.8-.8.8s-.8-.4-.8-.8.4-.8.8-.8.8.4.8.8"/>
      <path class="st15" d="M167.9,160.9v-1h-1v1h1ZM293.2,160.9h1v-1h-1v1ZM293.2,220.9v1h1v-1h-1ZM167.9,161.9h125.3v-2h-125.3v2h0ZM292.2,160.9v60h2v-60h-2ZM293.2,219.9h-117.3v2h117.3v-2ZM168.9,212.9v-52h-2v52h2ZM175.9,219.9c-3.9,0-7-3.1-7-7h-2c0,5,4,9,9,9v-2Z"/>
      <path class="st5" d="M215.6,185.9l6.7-6.7c.3-.3.4-.4.6-.5h.5c.2,0,.3.2.6.5l3.2,3.2M218.9,177.3c0,.8-.7,1.5-1.5,1.5s-1.5-.7-1.5-1.5.7-1.5,1.5-1.5,1.5.7,1.5,1.5ZM227.6,179.9c0,4.1-3.4,7.5-7.5,7.5s-7.5-3.4-7.5-7.5,3.4-7.5,7.5-7.5,7.5,3.4,7.5,7.5Z"/>
      <path class="st31" d="M239.6,175.4v9.5h-1.4v-8h0l-2.3,1.5v-1.4l2.4-1.5h1.4,0ZM245.4,185c-.4,0-.8,0-1.2-.2-.4-.1-.8-.4-1.1-.7s-.6-.8-.8-1.4c-.2-.6-.3-1.3-.3-2.2s0-1.6.2-2.2.4-1.2.7-1.6c.3-.4.7-.8,1.1-1,.4-.2.9-.3,1.5-.3s1.1.1,1.5.3.8.5,1.1.9.4.8.5,1.3h-1.4c0-.4-.3-.7-.6-1-.3-.2-.7-.4-1.1-.4-.7,0-1.2.3-1.6.9s-.6,1.4-.6,2.5h0c.2-.3.4-.5.6-.7.2-.2.5-.3.8-.4.3-.1.6-.2.9-.2.5,0,1,.1,1.5.4.4.3.8.6,1.1,1.1s.4,1,.4,1.6-.1,1.1-.4,1.6c-.3.5-.7.9-1.1,1.2-.5.3-1.1.4-1.7.4h0ZM245.4,183.8c.4,0,.7,0,1-.3.3-.2.5-.4.7-.7s.2-.6.2-1,0-.7-.2-1-.4-.5-.7-.7-.6-.3-1-.3-.5,0-.8.2c-.2.1-.4.2-.6.4-.2.2-.3.4-.4.6v.8c0,.3,0,.7.2,1s.4.5.7.7.6.3,1,.3h0Z"/>
      <rect class="st1" x="293.7" y="161.4" width="124.3" height="59"/>
      <path class="st5" d="M341.9,182.8c1.1.5,2,1.4,2.7,2.5.1.2.2.3.2.5,0,.3-.2.7-.4.8h-.6M340.4,179.5c1.1-.6,1.9-1.7,1.9-3s-.8-2.5-1.9-3M338.9,176.5c0,1.9-1.5,3.4-3.4,3.4s-3.4-1.5-3.4-3.4,1.5-3.4,3.4-3.4,3.4,1.5,3.4,3.4ZM330.3,185.1c1.2-1.8,3.1-3,5.2-3s4,1.2,5.2,3c.3.4.4.6.4.8s-.1.4-.3.6-.5.2-1,.2h-8.5c-.6,0-.8,0-1-.2-.2-.1-.3-.4-.3-.6,0-.3.1-.4.4-.8h-.1Z"/>
      <path class="st31" d="M356.9,175.4v9.5h-1.4v-8h0l-2.3,1.5v-1.4l2.4-1.5h1.4-.1ZM362.7,185.1c-.7,0-1.4-.2-1.9-.6s-.9-.9-1.2-1.7c-.3-.7-.4-1.6-.4-2.6s.1-1.9.4-2.6c.3-.7.7-1.3,1.2-1.7s1.1-.6,1.9-.6,1.3.2,1.9.6c.5.4.9.9,1.2,1.7.3.7.4,1.6.4,2.6s-.1,1.9-.4,2.6c-.3.7-.7,1.3-1.2,1.7s-1.1.6-1.9.6ZM362.7,183.8c.6,0,1.1-.3,1.5-.9s.5-1.5.5-2.7,0-1.4-.2-2c-.2-.5-.4-1-.7-1.2-.3-.3-.7-.4-1.1-.4-.6,0-1.1.3-1.5.9s-.5,1.5-.5,2.7,0,1.5.2,2,.4,1,.7,1.2c.3.3.7.4,1.1.4ZM367.6,183.1v-1.2l4.1-6.5h.9v1.7h-.6l-2.9,4.6h5.6v1.2h-7.1v.2h0ZM372.1,184.9v-9.4h1.4v9.5h-1.4ZM377.6,182.5v-1.7h.2l2.8-3h1.7l-3.2,3.4h-.2l-1.3,1.3h0ZM376.4,184.9v-9.5h1.4v9.5h-1.4ZM380.8,184.9l-2.5-3.4,1-1,3.3,4.3h-1.8Z"/>
      <path class="st15" d="M418.6,159.9h126.3l-2,2h-124.3v-2h0ZM544.9,212.9c0,5-4,9-9,9h-117.3v-2h117.3c3.9,0,7-3.1,7-7h2ZM418.6,220.9v-60,60ZM544.9,159.9v53c0,5-4,9-9,9v-2c3.9,0,7-3.1,7-7v-51l2-2Z"/>
      <path class="st5" d="M460.2,182.1c-2.4,0-4.5,1.1-5.8,2.9-.3.4-.4.6-.4.8s.1.5.3.6c.2.2.5.2,1.1.2h9.9c.6,0,.8,0,1.1-.2.2-.1.3-.4.3-.6,0-.3-.1-.5-.4-.8-1.3-1.8-3.5-2.9-5.8-2.9h-.3Z"/>
      <path class="st5" d="M460.2,179.9c1.9,0,3.4-1.5,3.4-3.4s-1.5-3.4-3.4-3.4-3.4,1.5-3.4,3.4,1.5,3.4,3.4,3.4Z"/>
      <path class="st31" d="M475.9,183.1v-1.2l4.1-6.5h.9v1.7h-.6l-2.9,4.6h5.6v1.2h-7.1v.2h0ZM480.4,184.9v-9.4h1.4v9.5h-1.4ZM485.9,175.4v.9c0,.3,0,.5-.1.8,0,.3-.2.6-.4.8-.2.3-.4.5-.6.7l-.7-.5c.2-.3.3-.5.5-.8.1-.3.2-.6.2-1v-.9h1.2-.1ZM489.9,185.1c-.7,0-1.4-.2-1.9-.6s-.9-.9-1.2-1.7c-.3-.7-.4-1.6-.4-2.6s.1-1.9.4-2.6.7-1.3,1.2-1.7,1.1-.6,1.9-.6,1.3.2,1.9.6c.5.4.9.9,1.2,1.7.3.7.4,1.6.4,2.6s-.1,1.9-.4,2.6-.7,1.3-1.2,1.7-1.1.6-1.9.6ZM489.9,183.8c.6,0,1.1-.3,1.5-.9s.5-1.5.5-2.7,0-1.4-.2-2c-.2-.5-.4-1-.7-1.2-.3-.3-.7-.4-1.1-.4-.6,0-1.1.3-1.5.9s-.5,1.5-.5,2.7,0,1.5.2,2,.4,1,.7,1.2c.3.3.7.4,1.1.4ZM498.3,185c-.4,0-.8,0-1.2-.2-.4-.1-.8-.4-1.1-.7s-.6-.8-.8-1.4c-.2-.6-.3-1.3-.3-2.2s0-1.6.2-2.2.4-1.2.7-1.6c.3-.4.7-.8,1.1-1s.9-.3,1.5-.3,1.1.1,1.5.3.8.5,1.1.9c.3.4.4.8.5,1.3h-1.4c0-.4-.3-.7-.6-1-.3-.2-.7-.4-1.1-.4-.7,0-1.2.3-1.6.9s-.6,1.4-.6,2.5h0c.2-.3.4-.5.6-.7s.5-.3.8-.4.6-.2.9-.2c.5,0,1,.1,1.5.4.4.3.8.6,1.1,1.1.3.5.4,1,.4,1.6s-.1,1.1-.4,1.6-.7.9-1.1,1.2c-.5.3-1.1.4-1.7.4h0ZM498.3,183.8c.4,0,.7,0,1-.3.3-.2.5-.4.7-.7s.2-.6.2-1,0-.7-.2-1-.4-.5-.7-.7c-.3-.2-.6-.3-1-.3s-.5,0-.8.2c-.2.1-.4.2-.6.4s-.3.4-.4.6c0,.2-.1.5-.1.8s0,.7.2,1,.4.5.7.7c.3.2.6.3,1,.3h0ZM506.6,185.1c-.7,0-1.4-.2-1.9-.6s-.9-.9-1.2-1.7c-.3-.7-.4-1.6-.4-2.6s.1-1.9.4-2.6.7-1.3,1.2-1.7,1.1-.6,1.9-.6,1.3.2,1.9.6c.5.4.9.9,1.2,1.7.3.7.4,1.6.4,2.6s-.1,1.9-.4,2.6-.7,1.3-1.2,1.7-1.1.6-1.9.6ZM506.6,183.8c.6,0,1.1-.3,1.5-.9s.5-1.5.5-2.7,0-1.4-.2-2c-.2-.5-.4-1-.7-1.2-.3-.3-.7-.4-1.1-.4-.6,0-1.1.3-1.5.9s-.5,1.5-.5,2.7,0,1.5.2,2,.4,1,.7,1.2c.3.3.7.4,1.1.4Z"/>
      <g id="Calque_111">
        <g class="st16">
          <g class="st16">
            <g class="st16">
              <g class="st16">
                <g class="st16">
                  <path class="st26" d="M205,79.2h-9.5c-2.4,0-3.4-.9-3.4-3.9v-1.3c0-3,.9-3.9,3.4-3.9h6.1v-.6c0-.9-.4-1.3-1.2-1.3h-7.9v-2h9.1c2.5,0,3.4,1,3.4,3.9v9.1h0ZM201.6,77.2v-5.2h-4.9c-.8,0-1.1.4-1.1,1.1v3.1c0,.6.4,1,1.1,1h5-.1Z"/>
                </g>
              </g>
            </g>
          </g>
        </g>
        <path class="st26" d="M189.9,79.9c0,.7.4,1.1,1.1,1.1h4.7v2h-5.8c-2.5,0-3.4-1-3.4-3.6v-13.2h3.4v13.7h0Z"/>
      </g>
    </g>
    <g class="st16">
      <g class="st16">
        <g class="st16">
          <g class="st16">
            <g class="st16">
              <g class="st16">
                <g class="st16">
                  <g class="st16">
                    <g class="st16">
                      <path d="M221.9,60h1.6v7.8h4.2v1.4h-5.8v-9.2Z"/>
                      <path d="M228.3,65.9h0c0-2.1,1.2-3.5,3.2-3.5s3.1,1.4,3.1,3.4v.5h-4.7c0,1.2.7,1.9,1.7,1.9s1.3-.4,1.5-.9h0s1.5,0,1.5,0h0c-.2,1.1-1.2,2.1-3,2.1s-3.2-1.3-3.2-3.5ZM229.9,65.2h3.2c-.1-1.1-.7-1.6-1.6-1.6s-1.5.6-1.6,1.6Z"/>
                      <path d="M235.5,68.2l3.5-4.5h0s-3.5,0-3.5,0v-1.2h5.3v1l-3.4,4.4h0s3.4,0,3.4,0v1.2h-5.4v-1Z"/>
                      <path d="M241.7,67.3h0c0-1.2.9-1.9,2.6-2h1.8v-.6c0-.7-.4-1.1-1.2-1.1s-1.2.3-1.3.8h0c0,0-1.5,0-1.5,0h0c0-1.3,1.1-2.2,2.8-2.2s2.8.9,2.8,2.2v4.6h-1.6v-1h0c-.4.7-1.1,1.1-2,1.1-1.3,0-2.3-.8-2.3-2ZM244.5,68.1c.9,0,1.6-.6,1.6-1.4v-.5h-1.5c-.8.1-1.2.5-1.2,1h0c0,.6.5.9,1.1.9Z"/>
                      <path d="M248.9,62.5h1.6v1.2h0c.2-.8.8-1.3,1.5-1.3s.4,0,.5,0v1.4c-.1,0-.4,0-.6,0-.9,0-1.4.6-1.4,1.6v3.9h-1.6v-6.7Z"/>
                      <path d="M252.8,65.8h0c0-2.2,1.1-3.5,2.8-3.5s1.7.5,2.1,1.3h0v-3.6h1.6v9.2h-1.6v-1.1h0c-.4.8-1.1,1.3-2.1,1.3-1.7,0-2.8-1.3-2.8-3.5ZM257.7,65.8h0c0-1.3-.7-2.2-1.7-2.2s-1.6.8-1.6,2.2h0c0,1.3.6,2.2,1.6,2.2s1.7-.8,1.7-2.2Z"/>
                      <path d="M266.1,60h1.8l3.3,9.2h-1.7l-.8-2.4h-3.4l-.8,2.4h-1.7l3.3-9.2ZM265.7,65.6h2.6l-1.3-3.9h0l-1.3,3.9Z"/>
                      <path d="M271.7,69.7h0c0,0,1.6,0,1.6,0h0c.2.4.7.7,1.5.7s1.6-.5,1.6-1.4v-1h0c-.4.7-1.1,1.2-2.1,1.2-1.7,0-2.8-1.3-2.8-3.4h0c0-2.1,1.1-3.4,2.8-3.4s1.7.5,2.1,1.3h0v-1.1h1.6v6.5c0,1.5-1.2,2.5-3.2,2.5s-2.9-.8-3.1-1.9ZM276.4,65.8h0c0-1.3-.7-2.1-1.6-2.1s-1.7.8-1.7,2.1h0c0,1.3.6,2.2,1.7,2.2s1.6-.8,1.6-2.1Z"/>
                      <path d="M279,65.9h0c0-2.1,1.2-3.5,3.2-3.5s3.1,1.4,3.1,3.4v.5h-4.7c0,1.2.7,1.9,1.7,1.9s1.3-.4,1.5-.9h0s1.5,0,1.5,0h0c-.2,1.1-1.2,2.1-3,2.1s-3.2-1.3-3.2-3.5ZM280.6,65.2h3.2c-.1-1.1-.7-1.6-1.6-1.6s-1.5.6-1.6,1.6Z"/>
                      <path d="M286.3,62.5h1.6v1.1h0c.3-.7,1-1.2,2.1-1.2,1.5,0,2.3,1,2.3,2.5v4.4h-1.6v-4c0-1-.4-1.5-1.3-1.5s-1.5.7-1.5,1.6v3.9h-1.6v-6.7Z"/>
                      <path d="M293.3,65.8h0c0-2.2,1.3-3.5,3.2-3.5s2.9,1.1,3,2.5h0c0,0-1.5,0-1.5,0h0c-.1-.7-.6-1.2-1.5-1.2s-1.6.8-1.6,2.2h0c0,1.4.6,2.2,1.6,2.2s1.3-.5,1.5-1.2h0c0,0,1.5,0,1.5,0h0c-.1,1.4-1.3,2.5-3,2.5s-3.2-1.3-3.2-3.5Z"/>
                      <path d="M300.5,71.4v-1.2c.1,0,.3,0,.5,0,.6,0,.9-.2,1.1-.7v-.3c0,0-2.3-6.7-2.3-6.7h1.7l1.6,5.4h0l1.6-5.4h1.7l-2.4,7c-.5,1.5-1.3,2-2.7,2s-.6,0-.8,0Z"/>
                    </g>
                  </g>
                </g>
              </g>
            </g>
          </g>
        </g>
      </g>
    </g>
    <g class="st16">
      <g class="st16">
        <g class="st16">
          <g class="st16">
            <g class="st16">
              <g class="st16">
                <g class="st16">
                  <g class="st16">
                    <g class="st16">
                      <path class="st6" d="M221,78.4h0c0-2.4,1.7-4.1,4.1-4.1s3.9,1.5,3.9,3.7h0c0,1.6-.7,2.5-1.7,2.5s-1-.3-1.2-.8h0c0,0,0,0,0,0-.2.6-.7.9-1.4.9-1,0-1.7-.8-1.7-2.1h0c0-1.2.7-2,1.7-2s1,.3,1.2.7h0v-.6h.9v2.3c0,.6.2.9.6.9s.8-.6.8-1.6h0c0-1.9-1.2-3-3.1-3s-3.2,1.4-3.2,3.4h0c0,2.2,1.4,3.3,3.4,3.3s1.3,0,1.6-.2v.8c-.5.2-1.1.2-1.7.2-2.5,0-4.2-1.5-4.2-4.1ZM225.9,78.4h0c0-.8-.4-1.2-.9-1.2s-.9.5-.9,1.2h0c0,.8.3,1.3.9,1.3s1-.5,1-1.3Z"/>
                      <path class="st6" d="M230,74.3h1.2v7h-1.2v-7Z"/>
                      <path class="st6" d="M232,78.7h0c0-1.6,1-2.7,2.4-2.7s2.4,1,2.4,2.6v.4h-3.6c0,.9.5,1.4,1.3,1.4s1-.3,1.1-.7h0s1.1,0,1.1,0h0c-.2.8-.9,1.7-2.3,1.7s-2.5-1-2.5-2.7ZM233.2,78.2h2.4c0-.8-.6-1.2-1.2-1.2s-1.1.4-1.2,1.2Z"/>
                      <path class="st6" d="M237.5,80.6l2.7-3.5h0s-2.7,0-2.7,0v-.9h4.1v.8l-2.6,3.4h0s2.6,0,2.6,0v.9h-4.1v-.7Z"/>
                      <path class="st6" d="M242.3,79.8h0c0-.9.7-1.5,2-1.6h1.4v-.4c0-.5-.3-.8-1-.8s-.9.3-1,.6h0s-1.1,0-1.1,0h0c0-1,.9-1.7,2.2-1.7s2.1.7,2.1,1.7v3.6h-1.2v-.8h0c-.3.5-.9.9-1.6.9-1,0-1.7-.6-1.7-1.6ZM244.4,80.5c.7,0,1.2-.5,1.2-1.1v-.4h-1.2c-.6.1-.9.4-.9.8h0c0,.4.4.7.9.7Z"/>
                      <path class="st6" d="M247.8,76.1h1.2v.9h0c.2-.6.6-1,1.2-1s.3,0,.4,0v1.1c-.1,0-.3,0-.5,0-.7,0-1.1.4-1.1,1.2v3h-1.2v-5.2Z"/>
                      <path class="st6" d="M250.9,78.7h0c0-1.7.8-2.7,2.1-2.7s1.3.4,1.6,1h0v-2.8h1.2v7h-1.2v-.9h0c-.3.6-.9,1-1.6,1-1.3,0-2.1-1-2.1-2.7ZM254.6,78.7h0c0-1-.5-1.7-1.3-1.7s-1.3.6-1.3,1.7h0c0,1,.5,1.7,1.3,1.7s1.3-.6,1.3-1.7Z"/>
                      <path class="st6" d="M257,77.9h3.1v1.1h-3.1v-1.1Z"/>
                      <path class="st6" d="M261,79.8h0c0-.9.7-1.5,2-1.6h1.4v-.4c0-.5-.3-.8-1-.8s-.9.3-1,.6h0s-1.1,0-1.1,0h0c0-1,.9-1.7,2.2-1.7s2.1.7,2.1,1.7v3.6h-1.2v-.8h0c-.3.5-.9.9-1.6.9-1,0-1.7-.6-1.7-1.6ZM263.1,80.5c.7,0,1.2-.5,1.2-1.1v-.4h-1.2c-.6.1-.9.4-.9.8h0c0,.4.4.7.9.7Z"/>
                      <path class="st6" d="M266.5,81.7h0s1.2,0,1.2,0h0c.1.3.5.6,1.2.6s1.2-.4,1.2-1.1v-.7h0c-.3.6-.9.9-1.6.9-1.3,0-2.1-1-2.1-2.6h0c0-1.6.8-2.6,2.2-2.6s1.3.4,1.6,1h0v-.9h1.2v5c0,1.2-.9,2-2.4,2s-2.2-.6-2.4-1.4ZM270.1,78.7h0c0-1-.5-1.6-1.3-1.6s-1.3.6-1.3,1.6h0c0,1,.5,1.7,1.3,1.7s1.3-.6,1.3-1.6Z"/>
                      <path class="st6" d="M272.1,78.7h0c0-1.6,1-2.7,2.4-2.7s2.4,1,2.4,2.6v.4h-3.6c0,.9.5,1.4,1.3,1.4s1-.3,1.1-.7h0s1.1,0,1.1,0h0c-.2.8-.9,1.7-2.3,1.7s-2.5-1-2.5-2.7ZM273.3,78.2h2.4c0-.8-.6-1.2-1.2-1.2s-1.1.4-1.2,1.2Z"/>
                      <path class="st6" d="M277.7,76.1h1.2v.8h0c.3-.6.8-.9,1.6-.9,1.1,0,1.8.7,1.8,1.9v3.3h-1.2v-3.1c0-.7-.3-1.2-1-1.2s-1.1.5-1.1,1.3v3h-1.2v-5.2Z"/>
                      <path class="st6" d="M283.1,78.7h0c0-1.7,1-2.7,2.5-2.7s2.2.9,2.3,1.9h0s-1.1,0-1.1,0h0c-.1-.5-.5-1-1.1-1s-1.3.6-1.3,1.7h0c0,1.1.5,1.7,1.3,1.7s1-.4,1.1-.9h0s1.1,0,1.1,0h0c0,1.1-1,1.9-2.3,1.9s-2.5-1-2.5-2.7Z"/>
                      <path class="st6" d="M288.7,83v-.9c0,0,.2,0,.4,0,.5,0,.7-.1.9-.6v-.2c0,0-1.8-5.2-1.8-5.2h1.3l1.2,4.1h0l1.2-4.1h1.3l-1.9,5.4c-.4,1.1-1,1.5-2.1,1.5s-.5,0-.6,0Z"/>
                    </g>
                  </g>
                </g>
              </g>
            </g>
          </g>
        </g>
      </g>
    </g>
  </g>
  <g>
    <path class="st9" d="M35.9,696.3h163c15.7,0,28.5,12.8,28.5,28.5h0c0,15.7-12.8,28.5-28.5,28.5H35.9c-15.7,0-28.5-12.8-28.5-28.5h0c0-15.7,12.8-28.5,28.5-28.5Z"/>
    <path class="st10" d="M35.9,696.3h163c15.7,0,28.5,12.8,28.5,28.5h0c0,15.7-12.8,28.5-28.5,28.5H35.9c-15.7,0-28.5-12.8-28.5-28.5h0c0-15.7,12.8-28.5,28.5-28.5Z"/>
    <path class="st3" d="M44.4,727.7c1.1.5,2,1.4,2.7,2.5,0,.2.2.3.2.5,0,.3-.2.7-.4.8h-.6M42.9,724.4c1.1-.6,1.9-1.7,1.9-3s-.8-2.5-1.9-3M41.4,721.4c0,1.9-1.5,3.4-3.4,3.4s-3.4-1.5-3.4-3.4,1.5-3.4,3.4-3.4,3.4,1.5,3.4,3.4ZM32.8,730c1.2-1.8,3.1-3,5.2-3s4,1.2,5.2,3c.3.4.4.6.4.8s0,.4-.3.6c-.2.2-.5.2-1,.2h-8.5c-.6,0-.8,0-1-.2-.2,0-.3-.4-.3-.6,0-.3,0-.4.4-.8h-.1Z"/>
  </g>
  <g>
    <path class="st8" d="M516,695.2h162c15.7,0,28.5,12.8,28.5,28.5h0c0,15.7-12.8,28.5-28.5,28.5h-162c-15.7,0-28.5-12.8-28.5-28.5h0c0-15.7,12.8-28.5,28.5-28.5Z"/>
    <path class="st11" d="M516,695.2h162c15.7,0,28.5,12.8,28.5,28.5h0c0,15.7-12.8,28.5-28.5,28.5h-162c-15.7,0-28.5-12.8-28.5-28.5h0c0-15.7,12.8-28.5,28.5-28.5Z"/>
    <g class="st23">
      <path class="st3" d="M517.8,723.7l1.5,1.5,3.4-3.4M516.5,717.6c.6,0,1.2-.3,1.6-.7,1.1-.9,2.7-.9,3.7,0,.5.4,1,.6,1.6.7,1.4,0,2.5,1.2,2.6,2.6,0,.6.3,1.2.7,1.6.9,1.1.9,2.7,0,3.7-.4.5-.6,1-.7,1.6,0,1.4-1.2,2.5-2.6,2.6-.6,0-1.2.3-1.6.7-1.1.9-2.7.9-3.7,0-.5-.4-1-.6-1.6-.7-1.4,0-2.5-1.2-2.6-2.6,0-.6-.3-1.2-.7-1.6-.9-1.1-.9-2.7,0-3.7.4-.5.6-1,.7-1.6,0-1.4,1.2-2.5,2.6-2.6Z"/>
    </g>
  </g>
  <g>
    <rect class="st13" x="311.7" y="276.3" width="89.8" height="90" rx="20" ry="20"/>
    <g id="Calque_2">
      <g class="st16">
        <g class="st16">
          <g class="st16">
            <g class="st16">
              <g class="st16">
                <g class="st16">
                  <g class="st16">
                    <g class="st16">
                      <g class="st16">
                        <path class="st26" d="M341.9,310h4.9v23.3h-4.9v-23.3Z"/>
                        <path class="st26" d="M357.3,310h5.7l8.1,23.3h-5.1l-1.8-5.6h-8.2l-1.8,5.6h-5.1l8.1-23.3ZM357.2,324h6l-2.9-9.5h0l-2.9,9.5Z"/>
                      </g>
                    </g>
                  </g>
                </g>
              </g>
            </g>
          </g>
        </g>
      </g>
    </g>
  </g>
  <g>
    <path class="st7" d="M277,695.2h161c15.7,0,28.5,12.8,28.5,28.5h0c0,15.7-12.8,28.5-28.5,28.5h-161c-15.7,0-28.5-12.8-28.5-28.5h0c0-15.7,12.8-28.5,28.5-28.5Z"/>
    <path class="st12" d="M277,695.2h161c15.7,0,28.5,12.8,28.5,28.5h0c0,15.7-12.8,28.5-28.5,28.5h-161c-15.7,0-28.5-12.8-28.5-28.5h0c0-15.7,12.8-28.5,28.5-28.5Z"/>
    <path class="st3" d="M286.2,718.5l-10.5,10.5M278.8,719.9c0,.8-.7,1.5-1.5,1.5s-1.5-.7-1.5-1.5.7-1.5,1.5-1.5,1.5.7,1.5,1.5ZM286.2,727.5c0,.8-.7,1.5-1.5,1.5s-1.5-.7-1.5-1.5.7-1.5,1.5-1.5,1.5.7,1.5,1.5Z"/>
  </g>
  <g class="st16">
    <g class="st16">
      <g class="st16">
        <g class="st16">
          <path class="st17" d="M181.8,108.6h-3v-1.5h7.7v1.5h-2.9v8.4h-1.8v-8.4Z"/>
          <path class="st17" d="M186.3,114.4v-4.7h1.7v4.3c0,1,.5,1.6,1.4,1.6s1.6-.7,1.6-1.8v-4.2h1.7v7.2h-1.7v-1.1h0c-.4.8-1.1,1.3-2.2,1.3-1.6,0-2.5-1-2.5-2.7Z"/>
          <path class="st17" d="M194.2,109.8h1.7v1.3h0c.2-.9.8-1.4,1.7-1.4s.4,0,.5,0v1.5c-.1,0-.4,0-.7,0-1,0-1.5.6-1.5,1.7v4.2h-1.7v-7.2Z"/>
          <path class="st17" d="M199,109.8h1.7v1.1h0c.4-.8,1.1-1.3,2.2-1.3,1.6,0,2.5,1,2.5,2.7v4.7h-1.7v-4.3c0-1-.5-1.6-1.4-1.6s-1.6.7-1.6,1.8v4.2h-1.7v-7.2Z"/>
          <path class="st17" d="M209.6,107.8c0-.5.4-.9,1-.9s.9.4.9.9-.4.9-.9.9-1-.4-1-.9ZM209.7,109.8h1.7v7.2h-1.7v-7.2Z"/>
          <path class="st17" d="M212.8,109.8h1.7v1.1h0c.4-.8,1.1-1.3,2.2-1.3,1.6,0,2.5,1,2.5,2.7v4.7h-1.7v-4.3c0-1-.5-1.6-1.4-1.6s-1.6.7-1.6,1.8v4.2h-1.7v-7.2Z"/>
          <path class="st17" d="M220.3,114.9h0c0,0,1.7,0,1.7,0h0c.1.7.6,1.1,1.5,1.1s1.3-.3,1.3-.9h0c0-.4-.3-.7-1-.9l-1.2-.3c-1.4-.3-2.1-1-2.1-2.1h0c0-1.3,1.2-2.2,2.9-2.2s2.9,1,2.9,2.2h0c0,0-1.6,0-1.6,0h0c0-.6-.5-1.1-1.3-1.1s-1.2.3-1.2.9h0c0,.4.3.7,1,.9l1.2.3c1.5.3,2.1.9,2.1,2h0c0,1.4-1.3,2.3-3,2.3s-3-.9-3.1-2.2Z"/>
          <path class="st17" d="M228,115v-4h-1v-1.3h1v-1.8h1.7v1.8h1.3v1.3h-1.3v3.8c0,.7.3.9.9.9s.3,0,.4,0v1.3c-.2,0-.5,0-.8,0-1.5,0-2.2-.6-2.2-2.1Z"/>
          <path class="st17" d="M231.9,114.9h0c0-1.3,1-2.1,2.8-2.2h1.9v-.6c0-.7-.5-1.2-1.3-1.2s-1.3.4-1.4.9h0c0,0-1.6,0-1.6,0h0c.1-1.4,1.2-2.3,3.1-2.3s3,1,3,2.4v5h-1.7v-1.1h0c-.4.8-1.2,1.2-2.2,1.2-1.4,0-2.4-.9-2.4-2.2ZM234.8,115.8c1,0,1.7-.6,1.7-1.5v-.5h-1.7c-.8.2-1.3.5-1.3,1.1h0c0,.6.5,1,1.2,1Z"/>
          <path class="st17" d="M239.5,117.5h0c0,0,1.7,0,1.7,0h0c.2.5.8.8,1.7.8s1.7-.6,1.7-1.5v-1h0c-.4.8-1.2,1.3-2.3,1.3-1.8,0-3-1.4-3-3.7h0c0-2.3,1.2-3.7,3-3.7s1.8.5,2.2,1.4h0v-1.2h1.7v7c0,1.6-1.3,2.7-3.4,2.7s-3.1-.9-3.3-2ZM244.6,113.3h0c0-1.4-.7-2.3-1.8-2.3s-1.8.9-1.8,2.3h0c0,1.4.7,2.3,1.8,2.3s1.8-.9,1.8-2.3Z"/>
          <path class="st17" d="M247.7,109.8h1.7v1.3h0c.2-.9.8-1.4,1.7-1.4s.4,0,.5,0v1.5c-.1,0-.4,0-.7,0-1,0-1.5.6-1.5,1.7v4.2h-1.7v-7.2Z"/>
          <path class="st17" d="M252.1,114.9h0c0-1.3,1-2.1,2.8-2.2h1.9v-.6c0-.7-.5-1.2-1.3-1.2s-1.3.4-1.4.9h0c0,0-1.6,0-1.6,0h0c.1-1.4,1.2-2.3,3.1-2.3s3,1,3,2.4v5h-1.7v-1.1h0c-.4.8-1.2,1.2-2.2,1.2-1.4,0-2.4-.9-2.4-2.2ZM255,115.8c1,0,1.7-.6,1.7-1.5v-.5h-1.7c-.8.2-1.3.5-1.3,1.1h0c0,.6.5,1,1.2,1Z"/>
          <path class="st17" d="M259.8,109.8h1.7v1.2h0c.3-.8,1.1-1.3,2-1.3s1.7.5,2,1.5h0c.3-.9,1.2-1.5,2.3-1.5s2.4,1,2.4,2.4v5h-1.7v-4.6c0-.9-.5-1.4-1.3-1.4s-1.4.6-1.4,1.5v4.5h-1.7v-4.6c0-.8-.5-1.3-1.3-1.3s-1.4.6-1.4,1.5v4.4h-1.7v-7.2Z"/>
          <path class="st17" d="M274.3,107.8c0-.5.4-.9,1-.9s.9.4.9.9-.4.9-.9.9-1-.4-1-.9ZM274.4,109.8h1.7v7.2h-1.7v-7.2Z"/>
          <path class="st17" d="M277.6,109.8h1.7v1.1h0c.4-.8,1.1-1.3,2.2-1.3,1.6,0,2.5,1,2.5,2.7v4.7h-1.7v-4.3c0-1-.5-1.6-1.4-1.6s-1.6.7-1.6,1.8v4.2h-1.7v-7.2Z"/>
          <path class="st17" d="M285.8,115v-4h-1v-1.3h1v-1.8h1.7v1.8h1.3v1.3h-1.3v3.8c0,.7.3.9.9.9s.3,0,.4,0v1.3c-.2,0-.5,0-.8,0-1.5,0-2.2-.6-2.2-2.1Z"/>
          <path class="st17" d="M289.6,113.4h0c0-2.3,1.4-3.8,3.5-3.8s3.5,1.4,3.5,3.8h0c0,2.4-1.4,3.8-3.5,3.8s-3.5-1.4-3.5-3.8ZM294.9,113.4h0c0-1.5-.7-2.4-1.8-2.4s-1.8.9-1.8,2.4h0c0,1.5.7,2.4,1.8,2.4s1.8-.9,1.8-2.4Z"/>
          <path class="st17" d="M300.2,114.9h0c0-1.3,1-2.1,2.8-2.2h1.9v-.6c0-.7-.5-1.2-1.3-1.2s-1.3.4-1.4.9h0c0,0-1.6,0-1.6,0h0c.1-1.4,1.2-2.3,3.1-2.3s3,1,3,2.4v5h-1.7v-1.1h0c-.4.8-1.2,1.2-2.2,1.2-1.4,0-2.4-.9-2.4-2.2ZM303.2,115.8c1,0,1.7-.6,1.7-1.5v-.5h-1.7c-.8.2-1.3.5-1.3,1.1h0c0,.6.5,1,1.2,1Z"/>
          <path class="st17" d="M311.2,111.1h-1v-1.3h1v-.7c0-1.4.7-2.1,2.2-2.1s.7,0,.9,0v1.2c-.1,0-.3,0-.5,0-.7,0-1,.3-1,.9v.6h1.5v1.3h-1.4v5.9h-1.7v-5.9Z"/>
          <path class="st17" d="M314.8,114.9h0c0-1.3,1-2.1,2.8-2.2h1.9v-.6c0-.7-.5-1.2-1.3-1.2s-1.3.4-1.4.9h0c0,0-1.6,0-1.6,0h0c.1-1.4,1.2-2.3,3.1-2.3s3,1,3,2.4v5h-1.7v-1.1h0c-.4.8-1.2,1.2-2.2,1.2-1.4,0-2.4-.9-2.4-2.2ZM317.7,115.8c1,0,1.7-.6,1.7-1.5v-.5h-1.7c-.8.2-1.3.5-1.3,1.1h0c0,.6.5,1,1.2,1Z"/>
          <path class="st17" d="M322.2,113.4h0c0-2.3,1.4-3.8,3.5-3.8s3.1,1.2,3.2,2.7h0c0,0-1.6,0-1.6,0h0c-.1-.8-.7-1.3-1.6-1.3s-1.8.9-1.8,2.4h0c0,1.5.7,2.4,1.8,2.4s1.4-.5,1.6-1.3h0c0,0,1.6,0,1.6,0h0c-.1,1.6-1.4,2.7-3.2,2.7s-3.5-1.4-3.5-3.8Z"/>
          <path class="st17" d="M330.4,115v-4h-1v-1.3h1v-1.8h1.7v1.8h1.3v1.3h-1.3v3.8c0,.7.3.9.9.9s.3,0,.4,0v1.3c-.2,0-.5,0-.8,0-1.5,0-2.2-.6-2.2-2.1Z"/>
          <path class="st17" d="M334.2,113.4h0c0-2.3,1.4-3.8,3.5-3.8s3.5,1.4,3.5,3.8h0c0,2.4-1.4,3.8-3.5,3.8s-3.5-1.4-3.5-3.8ZM339.5,113.4h0c0-1.5-.7-2.4-1.8-2.4s-1.8.9-1.8,2.4h0c0,1.5.7,2.4,1.8,2.4s1.8-.9,1.8-2.4Z"/>
          <path class="st17" d="M342.3,109.8h1.7v1.3h0c.2-.9.8-1.4,1.7-1.4s.4,0,.5,0v1.5c-.1,0-.4,0-.7,0-1,0-1.5.6-1.5,1.7v4.2h-1.7v-7.2Z"/>
          <path class="st17" d="M347.4,119.3v-1.3c.1,0,.3,0,.6,0,.6,0,1-.2,1.2-.8v-.3c.1,0-2.5-7.3-2.5-7.3h1.9l1.7,5.8h0l1.7-5.8h1.8l-2.6,7.5c-.6,1.6-1.4,2.2-2.9,2.2s-.7,0-.9,0Z"/>
          <path class="st17" d="M357.9,111.1h-1v-1.3h1v-.7c0-1.4.7-2.1,2.2-2.1s.7,0,.9,0v1.2c-.1,0-.3,0-.5,0-.7,0-1,.3-1,.9v.6h1.5v1.3h-1.4v5.9h-1.7v-5.9Z"/>
          <path class="st17" d="M361.3,113.4h0c0-2.3,1.4-3.8,3.5-3.8s3.5,1.4,3.5,3.8h0c0,2.4-1.4,3.8-3.5,3.8s-3.5-1.4-3.5-3.8ZM366.5,113.4h0c0-1.5-.7-2.4-1.8-2.4s-1.8.9-1.8,2.4h0c0,1.5.7,2.4,1.8,2.4s1.8-.9,1.8-2.4Z"/>
          <path class="st17" d="M369.4,109.8h1.7v1.3h0c.2-.9.8-1.4,1.7-1.4s.4,0,.5,0v1.5c-.1,0-.4,0-.7,0-1,0-1.5.6-1.5,1.7v4.2h-1.7v-7.2Z"/>
          <path class="st17" d="M382,115.8h0c-.4.8-1.2,1.3-2.3,1.3-1.8,0-3-1.4-3-3.8h0c0-2.3,1.2-3.8,3-3.8s1.8.5,2.2,1.4h0v-1.3h1.7v9.6h-1.7v-3.6ZM382,113.4h0c0-1.4-.7-2.3-1.8-2.3s-1.8.9-1.8,2.3h0c0,1.4.7,2.3,1.8,2.3s1.8-.9,1.8-2.3Z"/>
          <path class="st17" d="M385,114.4v-4.7h1.7v4.3c0,1,.5,1.6,1.4,1.6s1.6-.7,1.6-1.8v-4.2h1.7v7.2h-1.7v-1.1h0c-.4.8-1.1,1.3-2.2,1.3-1.6,0-2.5-1-2.5-2.7Z"/>
          <path class="st17" d="M392.6,114.9h0c0-1.3,1-2.1,2.8-2.2h1.9v-.6c0-.7-.5-1.2-1.3-1.2s-1.3.4-1.4.9h0c0,0-1.6,0-1.6,0h0c.1-1.4,1.2-2.3,3.1-2.3s3,1,3,2.4v5h-1.7v-1.1h0c-.4.8-1.2,1.2-2.2,1.2-1.4,0-2.4-.9-2.4-2.2ZM395.5,115.8c1,0,1.7-.6,1.7-1.5v-.5h-1.7c-.8.2-1.3.5-1.3,1.1h0c0,.6.5,1,1.2,1Z"/>
          <path class="st17" d="M400.3,107.1h1.7v9.9h-1.7v-9.9Z"/>
          <path class="st17" d="M403.4,107.8c0-.5.4-.9,1-.9s.9.4.9.9-.4.9-.9.9-1-.4-1-.9ZM403.5,109.8h1.7v7.2h-1.7v-7.2Z"/>
          <path class="st17" d="M407.2,111.1h-1v-1.3h1v-.7c0-1.4.7-2.1,2.2-2.1s.7,0,.9,0v1.2c-.1,0-.3,0-.5,0-.7,0-1,.3-1,.9v.6h1.5v1.3h-1.4v5.9h-1.7v-5.9Z"/>
          <path class="st17" d="M411.4,107.8c0-.5.4-.9,1-.9s.9.4.9.9-.4.9-.9.9-1-.4-1-.9ZM411.4,109.8h1.7v7.2h-1.7v-7.2Z"/>
          <path class="st17" d="M414.3,113.4h0c0-2.3,1.3-3.8,3.4-3.8s3.4,1.5,3.4,3.6v.5h-5.1c0,1.3.7,2,1.8,2s1.4-.5,1.6-.9h0s1.6,0,1.6,0h0c-.2,1.2-1.3,2.3-3.2,2.3s-3.5-1.4-3.5-3.7ZM416,112.7h3.4c-.1-1.1-.8-1.7-1.7-1.7s-1.6.6-1.7,1.7Z"/>
          <path class="st17" d="M421.8,113.4h0c0-2.3,1.2-3.8,3-3.8s1.9.5,2.3,1.4h0v-3.9h1.7v9.9h-1.7v-1.2h0c-.4.9-1.2,1.4-2.3,1.4-1.8,0-3-1.4-3-3.8ZM427.1,113.4h0c0-1.4-.7-2.3-1.8-2.3s-1.8.9-1.8,2.3h0c0,1.4.7,2.3,1.8,2.3s1.8-.9,1.8-2.3Z"/>
          <path class="st17" d="M433.1,107.1h1.7v9.9h-1.7v-9.9Z"/>
          <path class="st17" d="M436,113.4h0c0-2.3,1.3-3.8,3.4-3.8s3.4,1.5,3.4,3.6v.5h-5.1c0,1.3.7,2,1.8,2s1.4-.5,1.6-.9h0s1.6,0,1.6,0h0c-.2,1.2-1.3,2.3-3.2,2.3s-3.5-1.4-3.5-3.7ZM437.7,112.7h3.4c-.1-1.1-.8-1.7-1.7-1.7s-1.6.6-1.7,1.7Z"/>
          <path class="st17" d="M443.5,114.9h0c0-1.3,1-2.1,2.8-2.2h1.9v-.6c0-.7-.5-1.2-1.3-1.2s-1.3.4-1.4.9h0c0,0-1.6,0-1.6,0h0c.1-1.4,1.2-2.3,3.1-2.3s3,1,3,2.4v5h-1.7v-1.1h0c-.4.8-1.2,1.2-2.2,1.2-1.4,0-2.4-.9-2.4-2.2ZM446.5,115.8c1,0,1.7-.6,1.7-1.5v-.5h-1.7c-.8.2-1.3.5-1.3,1.1h0c0,.6.5,1,1.2,1Z"/>
          <path class="st17" d="M451,113.4h0c0-2.3,1.2-3.8,3-3.8s1.9.5,2.3,1.4h0v-3.9h1.7v9.9h-1.7v-1.2h0c-.4.9-1.2,1.4-2.3,1.4-1.8,0-3-1.4-3-3.8ZM456.2,113.4h0c0-1.4-.7-2.3-1.8-2.3s-1.8.9-1.8,2.3h0c0,1.4.7,2.3,1.8,2.3s1.8-.9,1.8-2.3Z"/>
          <path class="st17" d="M459.1,114.9h0c0,0,1.7,0,1.7,0h0c.1.7.6,1.1,1.5,1.1s1.3-.3,1.3-.9h0c0-.4-.3-.7-1-.9l-1.2-.3c-1.4-.3-2.1-1-2.1-2.1h0c0-1.3,1.2-2.2,2.9-2.2s2.9,1,2.9,2.2h0c0,0-1.6,0-1.6,0h0c0-.6-.5-1.1-1.3-1.1s-1.2.3-1.2.9h0c0,.4.3.7,1,.9l1.2.3c1.5.3,2.1.9,2.1,2h0c0,1.4-1.3,2.3-3,2.3s-3-.9-3.1-2.2Z"/>
          <path class="st17" d="M468.6,109.8h1.7l1.2,5.6h0l1.4-5.6h1.6l1.4,5.6h0l1.2-5.6h1.7l-2,7.2h-1.8l-1.4-5.3h0l-1.4,5.3h-1.8l-2-7.2Z"/>
          <path class="st17" d="M479.8,107.8c0-.5.4-.9,1-.9s.9.4.9.9-.4.9-.9.9-1-.4-1-.9ZM479.9,109.8h1.7v7.2h-1.7v-7.2Z"/>
          <path class="st17" d="M483.5,115v-4h-1v-1.3h1v-1.8h1.7v1.8h1.3v1.3h-1.3v3.8c0,.7.3.9.9.9s.3,0,.4,0v1.3c-.2,0-.5,0-.8,0-1.5,0-2.2-.6-2.2-2.1Z"/>
          <path class="st17" d="M487.7,107.1h1.7v3.8h0c.4-.9,1.1-1.4,2.2-1.4,1.6,0,2.6,1.1,2.6,2.9v4.5h-1.7v-4.2c0-1.1-.6-1.8-1.5-1.8s-1.6.7-1.6,1.8v4.2h-1.7v-9.9Z"/>
          <path class="st17" d="M498.4,109.8h1.7v1.1h0c.4-.8,1.1-1.3,2.2-1.3,1.6,0,2.5,1,2.5,2.7v4.7h-1.7v-4.3c0-1-.5-1.6-1.4-1.6s-1.6.7-1.6,1.8v4.2h-1.7v-7.2Z"/>
          <path class="st17" d="M506,113.4h0c0-2.3,1.4-3.8,3.5-3.8s3.5,1.4,3.5,3.8h0c0,2.4-1.4,3.8-3.5,3.8s-3.5-1.4-3.5-3.8ZM511.2,113.4h0c0-1.5-.7-2.4-1.8-2.4s-1.8.9-1.8,2.4h0c0,1.5.7,2.4,1.8,2.4s1.8-.9,1.8-2.4Z"/>
        </g>
      </g>
    </g>
    <g class="st16">
      <g class="st16">
        <g class="st16">
          <path class="st17" d="M179.2,127.8h1.7v1.3h0c.2-.9.8-1.4,1.7-1.4s.4,0,.5,0v1.5c-.1,0-.4,0-.7,0-1,0-1.5.6-1.5,1.7v4.2h-1.7v-7.2Z"/>
          <path class="st17" d="M184,125.8c0-.5.4-.9,1-.9s.9.4.9.9-.4.9-.9.9-1-.4-1-.9ZM184.1,127.8h1.7v7.2h-1.7v-7.2Z"/>
          <path class="st17" d="M186.9,132.9h0c0,0,1.7,0,1.7,0h0c.1.7.6,1.1,1.5,1.1s1.3-.3,1.3-.9h0c0-.4-.3-.7-1-.9l-1.2-.3c-1.4-.3-2.1-1-2.1-2.1h0c0-1.3,1.2-2.2,2.9-2.2s2.9,1,2.9,2.2h0c0,0-1.6,0-1.6,0h0c0-.6-.5-1.1-1.3-1.1s-1.2.3-1.2.9h0c0,.4.3.7,1,.9l1.2.3c1.5.3,2.1.9,2.1,2h0c0,1.4-1.3,2.3-3,2.3s-3-.9-3.1-2.2Z"/>
          <path class="st17" d="M194.2,125.1h1.7v5.6h0l2.7-3h2l-2.9,3.1,3,4.1h-2l-2.3-3.1-.6.6v2.5h-1.7v-9.9Z"/>
          <path class="st17" d="M201.5,133.4h1.6l-1,3.6h-1.2l.5-3.6Z"/>
          <path class="st17" d="M206.7,127.8h1.7v1.1h0c.4-.8,1.1-1.3,2.2-1.3,1.6,0,2.5,1,2.5,2.7v4.7h-1.7v-4.3c0-1-.5-1.6-1.4-1.6s-1.6.7-1.6,1.8v4.2h-1.7v-7.2Z"/>
          <path class="st17" d="M214.2,131.4h0c0-2.3,1.4-3.8,3.5-3.8s3.5,1.4,3.5,3.8h0c0,2.4-1.4,3.8-3.5,3.8s-3.5-1.4-3.5-3.8ZM219.5,131.4h0c0-1.5-.7-2.4-1.8-2.4s-1.8.9-1.8,2.4h0c0,1.5.7,2.4,1.8,2.4s1.8-.9,1.8-2.4Z"/>
          <path class="st17" d="M226.9,133.8h0v1.2h-1.7v-9.9h1.7v3.9h0c.4-.9,1.2-1.4,2.3-1.4,1.8,0,3,1.4,3,3.8h0c0,2.3-1.2,3.8-3,3.8s-1.8-.5-2.3-1.4ZM230.4,131.4h0c0-1.4-.7-2.3-1.8-2.3s-1.8.9-1.8,2.3h0c0,1.4.7,2.3,1.8,2.3s1.8-.9,1.8-2.3Z"/>
          <path class="st17" d="M233,132.9h0c0-1.3,1-2.1,2.8-2.2h1.9v-.6c0-.7-.5-1.2-1.3-1.2s-1.3.4-1.4.9h0c0,0-1.6,0-1.6,0h0c.1-1.4,1.2-2.3,3.1-2.3s3,1,3,2.4v5h-1.7v-1.1h0c-.4.8-1.2,1.2-2.2,1.2-1.4,0-2.4-.9-2.4-2.2ZM235.9,133.8c1,0,1.7-.6,1.7-1.5v-.5h-1.7c-.8.2-1.3.5-1.3,1.1h0c0,.6.5,1,1.2,1Z"/>
          <path class="st17" d="M240.7,127.8h1.7v1.1h0c.4-.8,1.1-1.3,2.2-1.3,1.6,0,2.5,1,2.5,2.7v4.7h-1.7v-4.3c0-1-.5-1.6-1.4-1.6s-1.6.7-1.6,1.8v4.2h-1.7v-7.2Z"/>
          <path class="st17" d="M251.4,130.2h2.9v-2.7h1.5v2.7h2.9v1.5h-2.9v2.7h-1.5v-2.7h-2.9v-1.5Z"/>
          <path class="st17" d="M262.8,130.2h0c0-3.3,1.5-5.2,4-5.2s3.2,1.1,3.5,2.5h0c0,0-1.8,0-1.8,0h0c-.3-.7-.9-1.2-1.8-1.2-1.6,0-2.2,1.5-2.3,3.4,0,.1,0,.2,0,.3h0c.4-.9,1.4-1.6,2.7-1.6,1.9,0,3.2,1.4,3.2,3.2h0c0,2-1.6,3.4-3.7,3.4s-4-1.5-4-5ZM266.8,133.7c1.1,0,2-.8,2-1.9h0c0-1.1-.8-1.9-2-1.9s-2,.8-2,1.9h0c0,1.1.9,2,2,2Z"/>
          <path class="st17" d="M271.8,130.1h0c0-3.2,1.5-5.1,3.9-5.1s3.9,2,3.9,5.1h0c0,3.2-1.5,5.1-3.9,5.1s-3.9-2-3.9-5.1ZM277.7,130.1h0c0-2.3-.8-3.7-2.1-3.7s-2.1,1.4-2.1,3.6h0c0,2.3.8,3.7,2.1,3.7s2.1-1.4,2.1-3.7Z"/>
          <path class="st17" d="M280.7,130.1h0c0-3.2,1.5-5.1,3.9-5.1s3.9,2,3.9,5.1h0c0,3.2-1.5,5.1-3.9,5.1s-3.9-2-3.9-5.1ZM286.7,130.1h0c0-2.3-.8-3.7-2.1-3.7s-2.1,1.4-2.1,3.6h0c0,2.3.8,3.7,2.1,3.7s2.1-1.4,2.1-3.7Z"/>
          <path class="st17" d="M292.5,127.8h1.7v1.2h0c.3-.8,1.1-1.3,2-1.3s1.7.5,2,1.5h0c.3-.9,1.2-1.5,2.3-1.5s2.4,1,2.4,2.4v5h-1.7v-4.6c0-.9-.5-1.4-1.3-1.4s-1.4.6-1.4,1.5v4.5h-1.7v-4.6c0-.8-.5-1.3-1.3-1.3s-1.4.6-1.4,1.5v4.4h-1.7v-7.2Z"/>
          <path class="st17" d="M304,132.9h0c0-1.3,1-2.1,2.8-2.2h1.9v-.6c0-.7-.5-1.2-1.3-1.2s-1.3.4-1.4.9h0c0,0-1.6,0-1.6,0h0c.1-1.4,1.2-2.3,3.1-2.3s3,1,3,2.4v5h-1.7v-1.1h0c-.4.8-1.2,1.2-2.2,1.2-1.4,0-2.4-.9-2.4-2.2ZM307,133.8c1,0,1.7-.6,1.7-1.5v-.5h-1.7c-.8.2-1.3.5-1.3,1.1h0c0,.6.5,1,1.2,1Z"/>
          <path class="st17" d="M311.7,127.8h1.7v1.1h0c.4-.8,1.1-1.3,2.2-1.3,1.6,0,2.5,1,2.5,2.7v4.7h-1.7v-4.3c0-1-.5-1.6-1.4-1.6s-1.6.7-1.6,1.8v4.2h-1.7v-7.2Z"/>
          <path class="st17" d="M319.3,132.9h0c0-1.3,1-2.1,2.8-2.2h1.9v-.6c0-.7-.5-1.2-1.3-1.2s-1.3.4-1.4.9h0c0,0-1.6,0-1.6,0h0c.1-1.4,1.2-2.3,3.1-2.3s3,1,3,2.4v5h-1.7v-1.1h0c-.4.8-1.2,1.2-2.2,1.2-1.4,0-2.4-.9-2.4-2.2ZM322.2,133.8c1,0,1.7-.6,1.7-1.5v-.5h-1.7c-.8.2-1.3.5-1.3,1.1h0c0,.6.5,1,1.2,1Z"/>
          <path class="st17" d="M326.9,135.5h0c0,0,1.7,0,1.7,0h0c.2.5.8.8,1.7.8s1.7-.6,1.7-1.5v-1h0c-.4.8-1.2,1.3-2.3,1.3-1.8,0-3-1.4-3-3.7h0c0-2.3,1.2-3.7,3-3.7s1.8.5,2.2,1.4h0v-1.2h1.7v7c0,1.6-1.3,2.7-3.4,2.7s-3.1-.9-3.3-2ZM332,131.3h0c0-1.4-.7-2.3-1.8-2.3s-1.8.9-1.8,2.3h0c0,1.4.7,2.3,1.8,2.3s1.8-.9,1.8-2.3Z"/>
          <path class="st17" d="M334.8,131.4h0c0-2.3,1.3-3.8,3.4-3.8s3.4,1.5,3.4,3.6v.5h-5.1c0,1.3.7,2,1.8,2s1.4-.5,1.6-.9h0s1.6,0,1.6,0h0c-.2,1.2-1.3,2.3-3.2,2.3s-3.5-1.4-3.5-3.7ZM336.5,130.7h3.4c-.1-1.1-.8-1.7-1.7-1.7s-1.6.6-1.7,1.7Z"/>
          <path class="st17" d="M342.3,131.4h0c0-2.3,1.2-3.8,3-3.8s1.9.5,2.3,1.4h0v-3.9h1.7v9.9h-1.7v-1.2h0c-.4.9-1.2,1.4-2.3,1.4-1.8,0-3-1.4-3-3.8ZM347.6,131.4h0c0-1.4-.7-2.3-1.8-2.3s-1.8.9-1.8,2.3h0c0,1.4.7,2.3,1.8,2.3s1.8-.9,1.8-2.3Z"/>
          <path class="st17" d="M353.3,132.9h0c0-1.3,1-2.1,2.8-2.2h1.9v-.6c0-.7-.5-1.2-1.3-1.2s-1.3.4-1.4.9h0c0,0-1.6,0-1.6,0h0c.1-1.4,1.2-2.3,3.1-2.3s3,1,3,2.4v5h-1.7v-1.1h0c-.4.8-1.2,1.2-2.2,1.2-1.4,0-2.4-.9-2.4-2.2ZM356.2,133.8c1,0,1.7-.6,1.7-1.5v-.5h-1.7c-.8.2-1.3.5-1.3,1.1h0c0,.6.5,1,1.2,1Z"/>
          <path class="st17" d="M360.7,131.4h0c0-2.3,1.4-3.8,3.5-3.8s3.1,1.2,3.2,2.7h0c0,0-1.6,0-1.6,0h0c-.1-.8-.7-1.3-1.6-1.3s-1.8.9-1.8,2.4h0c0,1.5.7,2.4,1.8,2.4s1.4-.5,1.6-1.3h0c0,0,1.6,0,1.6,0h0c-.1,1.6-1.4,2.7-3.2,2.7s-3.5-1.4-3.5-3.8Z"/>
          <path class="st17" d="M368.1,131.4h0c0-2.3,1.4-3.8,3.5-3.8s3.1,1.2,3.2,2.7h0c0,0-1.6,0-1.6,0h0c-.1-.8-.7-1.3-1.6-1.3s-1.8.9-1.8,2.4h0c0,1.5.7,2.4,1.8,2.4s1.4-.5,1.6-1.3h0c0,0,1.6,0,1.6,0h0c-.1,1.6-1.4,2.7-3.2,2.7s-3.5-1.4-3.5-3.8Z"/>
          <path class="st17" d="M375.5,131.4h0c0-2.3,1.4-3.8,3.5-3.8s3.5,1.4,3.5,3.8h0c0,2.4-1.4,3.8-3.5,3.8s-3.5-1.4-3.5-3.8ZM380.8,131.4h0c0-1.5-.7-2.4-1.8-2.4s-1.8.9-1.8,2.4h0c0,1.5.7,2.4,1.8,2.4s1.8-.9,1.8-2.4Z"/>
          <path class="st17" d="M383.6,132.4v-4.7h1.7v4.3c0,1,.5,1.6,1.4,1.6s1.6-.7,1.6-1.8v-4.2h1.7v7.2h-1.7v-1.1h0c-.4.8-1.1,1.3-2.2,1.3-1.6,0-2.5-1-2.5-2.7Z"/>
          <path class="st17" d="M391.4,127.8h1.7v1.1h0c.4-.8,1.1-1.3,2.2-1.3,1.6,0,2.5,1,2.5,2.7v4.7h-1.7v-4.3c0-1-.5-1.6-1.4-1.6s-1.6.7-1.6,1.8v4.2h-1.7v-7.2Z"/>
          <path class="st17" d="M399.7,133v-4h-1v-1.3h1v-1.8h1.7v1.8h1.3v1.3h-1.3v3.8c0,.7.3.9.9.9s.3,0,.4,0v1.3c-.2,0-.5,0-.8,0-1.5,0-2.2-.6-2.2-2.1Z"/>
          <path class="st17" d="M403.6,132.9h0c0,0,1.7,0,1.7,0h0c.1.7.6,1.1,1.5,1.1s1.3-.3,1.3-.9h0c0-.4-.3-.7-1-.9l-1.2-.3c-1.4-.3-2.1-1-2.1-2.1h0c0-1.3,1.2-2.2,2.9-2.2s2.9,1,2.9,2.2h0c0,0-1.6,0-1.6,0h0c0-.6-.5-1.1-1.3-1.1s-1.2.3-1.2.9h0c0,.4.3.7,1,.9l1.2.3c1.5.3,2.1.9,2.1,2h0c0,1.4-1.3,2.3-3,2.3s-3-.9-3.1-2.2Z"/>
          <path class="st17" d="M411,133.4h1.6l-1,3.6h-1.2l.5-3.6Z"/>
          <path class="st17" d="M415.6,127.8h1.7l1.2,5.6h0l1.4-5.6h1.6l1.4,5.6h0l1.2-5.6h1.7l-2,7.2h-1.8l-1.4-5.3h0l-1.4,5.3h-1.8l-2-7.2Z"/>
          <path class="st17" d="M426.9,125.1h1.7v3.8h0c.4-.9,1.1-1.4,2.2-1.4,1.6,0,2.6,1.1,2.6,2.9v4.5h-1.7v-4.2c0-1.1-.6-1.8-1.5-1.8s-1.6.7-1.6,1.8v4.2h-1.7v-9.9Z"/>
          <path class="st17" d="M434.8,137.3v-1.3c.1,0,.3,0,.6,0,.6,0,1-.2,1.2-.8v-.3c.1,0-2.5-7.3-2.5-7.3h1.9l1.7,5.8h0l1.7-5.8h1.8l-2.6,7.5c-.6,1.6-1.4,2.2-2.9,2.2s-.7,0-.9,0Z"/>
          <path class="st17" d="M444.8,127.8h1.7v1.1h0c.4-.8,1.1-1.3,2.2-1.3,1.6,0,2.5,1,2.5,2.7v4.7h-1.7v-4.3c0-1-.5-1.6-1.4-1.6s-1.6.7-1.6,1.8v4.2h-1.7v-7.2Z"/>
          <path class="st17" d="M452.3,131.4h0c0-2.3,1.4-3.8,3.5-3.8s3.5,1.4,3.5,3.8h0c0,2.4-1.4,3.8-3.5,3.8s-3.5-1.4-3.5-3.8ZM457.6,131.4h0c0-1.5-.7-2.4-1.8-2.4s-1.8.9-1.8,2.4h0c0,1.5.7,2.4,1.8,2.4s1.8-.9,1.8-2.4Z"/>
          <path class="st17" d="M460.9,133v-4h-1v-1.3h1v-1.8h1.7v1.8h1.3v1.3h-1.3v3.8c0,.7.3.9.9.9s.3,0,.4,0v1.3c-.2,0-.5,0-.8,0-1.5,0-2.2-.6-2.2-2.1Z"/>
          <path class="st17" d="M468,137.3v-1.3c.1,0,.3,0,.6,0,.6,0,1-.2,1.2-.8v-.3c.1,0-2.5-7.3-2.5-7.3h1.9l1.7,5.8h0l1.7-5.8h1.8l-2.6,7.5c-.6,1.6-1.4,2.2-2.9,2.2s-.7,0-.9,0Z"/>
          <path class="st17" d="M474.7,131.4h0c0-2.3,1.4-3.8,3.5-3.8s3.5,1.4,3.5,3.8h0c0,2.4-1.4,3.8-3.5,3.8s-3.5-1.4-3.5-3.8ZM479.9,131.4h0c0-1.5-.7-2.4-1.8-2.4s-1.8.9-1.8,2.4h0c0,1.5.7,2.4,1.8,2.4s1.8-.9,1.8-2.4Z"/>
          <path class="st17" d="M482.7,132.4v-4.7h1.7v4.3c0,1,.5,1.6,1.4,1.6s1.6-.7,1.6-1.8v-4.2h1.7v7.2h-1.7v-1.1h0c-.4.8-1.1,1.3-2.2,1.3-1.6,0-2.5-1-2.5-2.7Z"/>
          <path class="st17" d="M492.4,131.4c0-1,.3-1.6,1.3-2.1.8-.5,1.1-.9,1.1-1.6h0c0-.7-.6-1.3-1.4-1.3s-1.4.5-1.5,1.3h0c0,0-1.6,0-1.6,0h0c0-1.6,1.2-2.8,3.2-2.8s3.1,1.1,3.1,2.6h0c0,1-.5,1.8-1.4,2.3-.9.5-1.1.9-1.1,1.6v.3h-1.6v-.5ZM492.2,134.1c0-.5.4-1,1-1s1,.4,1,1-.4,1-1,1-1-.4-1-1Z"/>
        </g>
      </g>
    </g>
  </g>
  <g class="st16">
    <g class="st16">
      <g class="st16">
        <g class="st16">
          <path class="st17" d="M316.3,204.9h0c0-.1,1.8-.1,1.8-.1h0c.1,1,1.1,1.6,2.4,1.6s2.2-.6,2.2-1.5h0c0-.8-.5-1.2-1.9-1.5l-1.1-.2c-2.1-.4-3.1-1.4-3.1-3h0c0-1.9,1.6-3.1,3.9-3.1s3.8,1.2,3.9,3h0c0,.1-1.8.1-1.8.1h0c-.1-1-.9-1.6-2.1-1.6-1.2,0-2,.6-2,1.4h0c0,.8.6,1.2,1.9,1.5l1.1.2c2.2.5,3.2,1.3,3.2,3h0c0,2-1.6,3.2-4.1,3.2s-4-1.1-4.1-3Z"/>
          <path class="st17" d="M325.8,205.1v-5h1.8v4.7c0,1.1.5,1.7,1.6,1.7s1.7-.8,1.7-1.9v-4.5h1.8v7.8h-1.8v-1.2h0c-.4.8-1.2,1.4-2.4,1.4-1.7,0-2.7-1.1-2.7-2.9Z"/>
          <path class="st17" d="M336.1,206.5h0v1.3h-1.8v-10.6h1.8v4.1h0c.4-.9,1.3-1.5,2.4-1.5,1.9,0,3.2,1.5,3.2,4h0c0,2.5-1.2,4-3.2,4s-2-.6-2.4-1.5ZM339.9,203.9h0c0-1.6-.7-2.5-1.9-2.5s-1.9,1-1.9,2.5h0c0,1.5.8,2.5,1.9,2.5s1.9-1,1.9-2.5Z"/>
          <path class="st17" d="M342.6,205.5h0c0,0,1.8,0,1.8,0h0c.1.7.6,1.1,1.6,1.1s1.4-.4,1.4-.9h0c0-.5-.3-.7-1.1-.9l-1.3-.3c-1.5-.3-2.2-1.1-2.2-2.2h0c0-1.4,1.2-2.4,3.1-2.4s3.1,1.1,3.1,2.4h0c0,0-1.7,0-1.7,0h0c0-.7-.6-1.1-1.4-1.1s-1.3.4-1.3.9h0c0,.5.3.7,1.1.9l1.3.3c1.6.4,2.2,1,2.2,2.1h0c0,1.5-1.4,2.5-3.3,2.5s-3.2-1-3.4-2.4Z"/>
          <path class="st17" d="M350,203.9h0c0-2.5,1.5-4,3.7-4s3.3,1.3,3.4,2.8h0c0,0-1.7,0-1.7,0h0c-.2-.8-.7-1.4-1.7-1.4s-1.9,1-1.9,2.6h0c0,1.6.7,2.6,1.9,2.6s1.5-.5,1.7-1.4h0c0,0,1.7,0,1.7,0h0c-.1,1.7-1.5,2.9-3.4,2.9s-3.8-1.6-3.8-4Z"/>
          <path class="st17" d="M358.3,200h1.8v1.3h0c.2-.9.9-1.5,1.8-1.5s.4,0,.6,0v1.6c-.2,0-.4-.1-.7-.1-1,0-1.7.7-1.7,1.8v4.5h-1.8v-7.8Z"/>
          <path class="st17" d="M363.4,197.9c0-.6.4-1,1-1s1,.4,1,1-.4,1-1,1-1-.5-1-1ZM363.5,200h1.8v7.8h-1.8v-7.8Z"/>
          <path class="st17" d="M368.8,206.5h0v1.3h-1.8v-10.6h1.8v4.1h0c.4-.9,1.3-1.5,2.4-1.5,1.9,0,3.2,1.5,3.2,4h0c0,2.5-1.2,4-3.2,4s-2-.6-2.4-1.5ZM372.5,203.9h0c0-1.6-.7-2.5-1.9-2.5s-1.9,1-1.9,2.5h0c0,1.5.8,2.5,1.9,2.5s1.9-1,1.9-2.5Z"/>
          <path class="st17" d="M375.2,203.9h0c0-2.5,1.4-4.1,3.6-4.1s3.6,1.6,3.6,3.9v.6h-5.4c0,1.4.8,2.2,2,2.2s1.5-.5,1.7-1h0c0,0,1.7,0,1.7,0h0c-.2,1.3-1.4,2.5-3.4,2.5s-3.7-1.5-3.7-4ZM377.1,203.1h3.6c-.1-1.2-.8-1.8-1.8-1.8s-1.7.7-1.8,1.8Z"/>
          <path class="st17" d="M383.7,200h1.8v1.3h0c.2-.9.9-1.5,1.8-1.5s.4,0,.6,0v1.6c-.2,0-.4-.1-.7-.1-1,0-1.7.7-1.7,1.8v4.5h-1.8v-7.8Z"/>
          <path class="st17" d="M388.5,205.5h0c0,0,1.8,0,1.8,0h0c.1.7.6,1.1,1.6,1.1s1.4-.4,1.4-.9h0c0-.5-.3-.7-1.1-.9l-1.3-.3c-1.5-.3-2.2-1.1-2.2-2.2h0c0-1.4,1.2-2.4,3.1-2.4s3.1,1.1,3.1,2.4h0c0,0-1.7,0-1.7,0h0c0-.7-.6-1.1-1.4-1.1s-1.3.4-1.3.9h0c0,.5.3.7,1.1.9l1.3.3c1.6.4,2.2,1,2.2,2.1h0c0,1.5-1.4,2.5-3.3,2.5s-3.2-1-3.4-2.4Z"/>
        </g>
      </g>
    </g>
  </g>
  <g class="st16">
    <g class="st16">
      <g class="st16">
        <g class="st16">
          <path class="st17" d="M187.4,197.7h4.1c2.1,0,3.6,1.4,3.6,3.5h0c0,2.1-1.5,3.5-3.6,3.5h-2.2v3.5h-1.9v-10.6ZM189.3,199.3v4h1.7c1.4,0,2.1-.7,2.1-2h0c0-1.3-.8-2-2.1-2h-1.7Z"/>
          <path class="st17" d="M196.3,205.6v-5h1.8v4.7c0,1.1.5,1.7,1.6,1.7s1.7-.8,1.7-1.9v-4.5h1.8v7.8h-1.8v-1.2h0c-.4.8-1.2,1.4-2.4,1.4-1.7,0-2.7-1.1-2.7-2.9Z"/>
          <path class="st17" d="M206.6,207h0v1.3h-1.8v-10.6h1.8v4.1h0c.4-.9,1.3-1.5,2.4-1.5,1.9,0,3.2,1.5,3.2,4h0c0,2.5-1.2,4-3.2,4s-2-.6-2.4-1.5ZM210.3,204.4h0c0-1.6-.7-2.5-1.9-2.5s-1.9,1-1.9,2.5h0c0,1.5.8,2.5,1.9,2.5s1.9-1,1.9-2.5Z"/>
          <path class="st17" d="M213.4,197.7h1.8v10.6h-1.8v-10.6Z"/>
          <path class="st17" d="M216.8,198.4c0-.6.4-1,1-1s1,.4,1,1-.4,1-1,1-1-.5-1-1ZM216.9,200.5h1.8v7.8h-1.8v-7.8Z"/>
          <path class="st17" d="M219.9,204.4h0c0-2.5,1.5-4,3.7-4s3.3,1.3,3.4,2.8h0c0,0-1.7,0-1.7,0h0c-.2-.8-.7-1.4-1.7-1.4s-1.9,1-1.9,2.6h0c0,1.6.7,2.6,1.9,2.6s1.5-.5,1.7-1.4h0c0,0,1.7,0,1.7,0h0c-.1,1.7-1.5,2.9-3.4,2.9s-3.8-1.6-3.8-4Z"/>
          <path class="st17" d="M227.9,206.1h0c0-1.4,1.1-2.2,3-2.3h2v-.7c0-.8-.5-1.3-1.4-1.3s-1.4.4-1.5,1h0c0,0-1.7,0-1.7,0h0c.1-1.5,1.3-2.5,3.3-2.5s3.2,1,3.2,2.6v5.3h-1.8v-1.2h0c-.4.8-1.3,1.3-2.3,1.3-1.6,0-2.6-1-2.6-2.3ZM231,207c1,0,1.8-.7,1.8-1.6v-.6h-1.8c-.9.2-1.4.6-1.4,1.2h0c0,.6.5,1,1.3,1Z"/>
          <path class="st17" d="M236.6,206.2v-4.3h-1.1v-1.4h1.1v-2h1.9v2h1.4v1.4h-1.4v4.1c0,.8.3,1,1,1s.3,0,.4,0v1.4c-.2,0-.5,0-.9,0-1.6,0-2.4-.7-2.4-2.3Z"/>
          <path class="st17" d="M241.1,198.4c0-.6.4-1,1-1s1,.4,1,1-.4,1-1,1-1-.5-1-1ZM241.2,200.5h1.8v7.8h-1.8v-7.8Z"/>
          <path class="st17" d="M244.3,204.4h0c0-2.5,1.5-4,3.8-4s3.8,1.5,3.8,4h0c0,2.5-1.5,4.1-3.8,4.1s-3.8-1.5-3.8-4ZM249.9,204.4h0c0-1.6-.7-2.6-1.9-2.6s-1.9.9-1.9,2.5h0c0,1.6.7,2.6,1.9,2.6s1.9-.9,1.9-2.6Z"/>
          <path class="st17" d="M252.9,200.5h1.8v1.2h0c.4-.8,1.2-1.4,2.4-1.4,1.7,0,2.7,1.1,2.7,2.9v5h-1.8v-4.7c0-1.1-.5-1.7-1.6-1.7s-1.7.8-1.7,1.9v4.5h-1.8v-7.8Z"/>
          <path class="st17" d="M261,206h0c0,0,1.8,0,1.8,0h0c.1.7.6,1.1,1.6,1.1s1.4-.4,1.4-.9h0c0-.5-.3-.7-1.1-.9l-1.3-.3c-1.5-.3-2.2-1.1-2.2-2.2h0c0-1.4,1.2-2.4,3.1-2.4s3.1,1.1,3.1,2.4h0c0,0-1.7,0-1.7,0h0c0-.7-.6-1.1-1.4-1.1s-1.3.4-1.3.9h0c0,.5.3.7,1.1.9l1.3.3c1.6.4,2.2,1,2.2,2.1h0c0,1.5-1.4,2.5-3.3,2.5s-3.2-1-3.4-2.4Z"/>
        </g>
      </g>
    </g>
  </g>
  <g class="st16">
    <g class="st16">
      <g class="st16">
        <g class="st16">
          <path class="st17" d="M444.6,204.9h0c0-.1,1.8-.1,1.8-.1h0c.1,1,1.1,1.6,2.4,1.6s2.2-.6,2.2-1.5h0c0-.8-.5-1.2-1.9-1.5l-1.1-.2c-2.1-.4-3.1-1.4-3.1-3h0c0-1.9,1.6-3.1,3.9-3.1s3.8,1.2,3.9,3h0c0,.1-1.8.1-1.8.1h0c-.1-1-.9-1.6-2.1-1.6-1.2,0-2,.6-2,1.4h0c0,.8.6,1.2,1.9,1.5l1.1.2c2.2.5,3.2,1.3,3.2,3h0c0,2-1.6,3.2-4.1,3.2s-4-1.1-4.1-3Z"/>
          <path class="st17" d="M454.1,205.1v-5h1.8v4.7c0,1.1.5,1.7,1.6,1.7s1.7-.8,1.7-1.9v-4.5h1.8v7.8h-1.8v-1.2h0c-.4.8-1.2,1.4-2.4,1.4-1.7,0-2.7-1.1-2.7-2.9Z"/>
          <path class="st17" d="M464.4,206.5h0v1.3h-1.8v-10.6h1.8v4.1h0c.4-.9,1.3-1.5,2.4-1.5,1.9,0,3.2,1.5,3.2,4h0c0,2.5-1.2,4-3.2,4s-2-.6-2.4-1.5ZM468.2,203.9h0c0-1.6-.7-2.5-1.9-2.5s-1.9,1-1.9,2.5h0c0,1.5.8,2.5,1.9,2.5s1.9-1,1.9-2.5Z"/>
          <path class="st17" d="M470.9,205.5h0c0,0,1.8,0,1.8,0h0c.1.7.6,1.1,1.6,1.1s1.4-.4,1.4-.9h0c0-.5-.3-.7-1.1-.9l-1.3-.3c-1.5-.3-2.2-1.1-2.2-2.2h0c0-1.4,1.2-2.4,3.1-2.4s3.1,1.1,3.1,2.4h0c0,0-1.7,0-1.7,0h0c0-.7-.6-1.1-1.4-1.1s-1.3.4-1.3.9h0c0,.5.3.7,1.1.9l1.3.3c1.6.4,2.2,1,2.2,2.1h0c0,1.5-1.4,2.5-3.3,2.5s-3.2-1-3.4-2.4Z"/>
          <path class="st17" d="M478.3,203.9h0c0-2.5,1.5-4,3.7-4s3.3,1.3,3.4,2.8h0c0,0-1.7,0-1.7,0h0c-.2-.8-.7-1.4-1.7-1.4s-1.9,1-1.9,2.6h0c0,1.6.7,2.6,1.9,2.6s1.5-.5,1.7-1.4h0c0,0,1.7,0,1.7,0h0c-.1,1.7-1.5,2.9-3.4,2.9s-3.8-1.6-3.8-4Z"/>
          <path class="st17" d="M486.6,200h1.8v1.3h0c.2-.9.9-1.5,1.8-1.5s.4,0,.6,0v1.6c-.2,0-.4-.1-.7-.1-1,0-1.7.7-1.7,1.8v4.5h-1.8v-7.8Z"/>
          <path class="st17" d="M491.7,197.9c0-.6.4-1,1-1s1,.4,1,1-.4,1-1,1-1-.5-1-1ZM491.8,200h1.8v7.8h-1.8v-7.8Z"/>
          <path class="st17" d="M495.1,200h1.8v1.3h0c.4-.9,1.3-1.5,2.4-1.5,2,0,3.2,1.5,3.2,4h0c0,2.5-1.2,4-3.2,4s-2-.6-2.4-1.5h0v3.9h-1.8v-10.3ZM500.8,203.9h0c0-1.6-.7-2.5-1.9-2.5s-1.9,1-1.9,2.5h0c0,1.5.8,2.5,1.9,2.5s1.9-1,1.9-2.5Z"/>
          <path class="st17" d="M504.3,205.7v-4.3h-1.1v-1.4h1.1v-2h1.9v2h1.4v1.4h-1.4v4.1c0,.8.3,1,1,1s.3,0,.4,0v1.4c-.2,0-.5,0-.9,0-1.6,0-2.4-.7-2.4-2.3Z"/>
          <path class="st17" d="M508.8,197.9c0-.6.4-1,1-1s1,.4,1,1-.4,1-1,1-1-.5-1-1ZM508.9,200h1.8v7.8h-1.8v-7.8Z"/>
          <path class="st17" d="M511.9,203.9h0c0-2.5,1.5-4,3.8-4s3.8,1.5,3.8,4h0c0,2.5-1.5,4.1-3.8,4.1s-3.8-1.5-3.8-4ZM517.6,203.9h0c0-1.6-.7-2.6-1.9-2.6s-1.9.9-1.9,2.5h0c0,1.6.7,2.6,1.9,2.6s1.9-.9,1.9-2.6Z"/>
          <path class="st17" d="M520.6,200h1.8v1.2h0c.4-.8,1.2-1.4,2.4-1.4,1.7,0,2.7,1.1,2.7,2.9v5h-1.8v-4.7c0-1.1-.5-1.7-1.6-1.7s-1.7.8-1.7,1.9v4.5h-1.8v-7.8Z"/>
        </g>
      </g>
    </g>
  </g>
  <g class="st16">
    <g class="st16">
      <g class="st16">
        <g class="st16">
          <path d="M110.3,444.1h2v11h5.9v1.7h-7.9v-12.7Z"/>
          <path d="M119.5,445c0-.6.5-1.1,1.1-1.1s1.1.5,1.1,1.1-.5,1.1-1.1,1.1-1.1-.5-1.1-1.1ZM119.7,447.6h1.9v9.2h-1.9v-9.2Z"/>
          <path d="M123.6,444.1h1.9v7.4h0l3.7-3.9h2.2l-3.8,4,3.9,5.3h-2.2l-3.1-4.1-.8.8v3.3h-1.9v-12.7Z"/>
          <path d="M131.8,452.2h0c0-2.9,1.7-4.8,4.3-4.8s4.2,1.9,4.2,4.6v.6h-6.5c0,1.7,1,2.8,2.5,2.8s1.9-.6,2.1-1.3h0c0,0,1.8,0,1.8,0h0c-.3,1.6-1.7,2.9-4,2.9s-4.4-1.9-4.4-4.8ZM133.7,451.3h4.6c-.2-1.6-1.1-2.4-2.3-2.4s-2.2.8-2.3,2.4Z"/>
          <path d="M145.3,447.6h1.9v1.6h0c.6-1.1,1.6-1.8,2.9-1.8,2.4,0,3.9,1.8,3.9,4.8h0c0,3-1.5,4.8-3.8,4.8s-2.4-.7-2.9-1.7h0v4.6h-1.9v-12.3ZM152.1,452.2h0c0-2-.9-3.2-2.4-3.2s-2.5,1.2-2.5,3.2h0c0,1.9,1,3.2,2.5,3.2s2.4-1.2,2.4-3.2Z"/>
          <path d="M155.5,453.5v-6h1.9v5.6c0,1.4.7,2.2,2,2.2s2.2-1,2.2-2.4v-5.4h1.9v9.2h-1.9v-1.4h0c-.5.9-1.4,1.6-2.8,1.6-2,0-3.2-1.3-3.2-3.4Z"/>
          <path d="M167.3,455.2h0v1.6h-1.9v-12.7h1.9v5h0c.6-1.1,1.6-1.7,2.9-1.7,2.3,0,3.8,1.8,3.8,4.8h0c0,3-1.5,4.8-3.9,4.8s-2.4-.7-2.9-1.7ZM172.1,452.2h0c0-2-.9-3.2-2.4-3.2s-2.5,1.2-2.5,3.2h0c0,1.9,1,3.2,2.5,3.2s2.4-1.2,2.4-3.2Z"/>
          <path d="M175.6,444.1h1.9v12.7h-1.9v-12.7Z"/>
          <path d="M179.4,445c0-.6.5-1.1,1.1-1.1s1.1.5,1.1,1.1-.5,1.1-1.1,1.1-1.1-.5-1.1-1.1ZM179.5,447.6h1.9v9.2h-1.9v-9.2Z"/>
          <path d="M183,452.2h0c0-2.9,1.7-4.8,4.4-4.8s3.8,1.5,4,3.3h0c0,0-1.8,0-1.8,0h0c-.2-1-.9-1.7-2.1-1.7s-2.4,1.2-2.4,3.2h0c0,2,1,3.2,2.4,3.2s1.9-.7,2.1-1.7h0c0,0,1.8,0,1.8,0h0c-.2,1.9-1.7,3.3-4,3.3s-4.4-1.9-4.4-4.8Z"/>
          <path d="M192.3,454.2h0c0-1.6,1.2-2.6,3.4-2.7h2.5v-.8c0-1-.7-1.6-1.8-1.6s-1.8.5-1.9,1.3h0c0,0-1.8,0-1.8,0h0c.1-1.7,1.5-2.9,3.8-2.9s3.7,1.2,3.7,3v6.4h-1.9v-1.5h0c-.5,1-1.6,1.6-2.8,1.6-1.8,0-3.1-1.1-3.1-2.8ZM195.9,455.4c1.3,0,2.3-.9,2.3-2.1v-.7h-2.3c-1.1.2-1.8.7-1.8,1.5h0c0,.8.7,1.3,1.7,1.3Z"/>
          <path d="M202.6,454.4v-5.3h-1.3v-1.5h1.3v-2.4h1.9v2.4h1.7v1.5h-1.7v5.2c0,.9.4,1.2,1.2,1.2s.4,0,.5,0v1.5c-.2,0-.6,0-1,0-1.8,0-2.7-.8-2.7-2.6Z"/>
          <path d="M207.7,445c0-.6.5-1.1,1.1-1.1s1.1.5,1.1,1.1-.5,1.1-1.1,1.1-1.1-.5-1.1-1.1ZM207.9,447.6h1.9v9.2h-1.9v-9.2Z"/>
          <path d="M211.3,452.2h0c0-3,1.7-4.8,4.4-4.8s4.4,1.8,4.4,4.8h0c0,3-1.7,4.8-4.4,4.8s-4.4-1.8-4.4-4.8ZM218.2,452.2h0c0-2-1-3.2-2.5-3.2s-2.4,1.2-2.4,3.2h0c0,2.1,1,3.2,2.5,3.2s2.4-1.2,2.4-3.2Z"/>
          <path d="M221.6,447.6h1.9v1.4h0c.5-.9,1.4-1.6,2.8-1.6,2,0,3.2,1.3,3.2,3.4v6h-1.9v-5.6c0-1.4-.7-2.2-2-2.2s-2.2,1-2.2,2.4v5.4h-1.9v-9.2Z"/>
          <path d="M231,454.2h0c0,0,1.9,0,1.9,0h0c.2.9.8,1.4,2,1.4s1.8-.5,1.8-1.2h0c0-.6-.3-.9-1.3-1.2l-1.5-.3c-1.8-.4-2.6-1.2-2.6-2.6h0c0-1.7,1.4-2.8,3.6-2.8s3.5,1.2,3.6,2.8h0c0,.1-1.8.1-1.8.1h0c-.1-.9-.7-1.4-1.8-1.4s-1.7.5-1.7,1.2h0c0,.6.4,1,1.4,1.2l1.5.3c1.9.4,2.6,1.2,2.6,2.5h0c0,1.7-1.6,2.9-3.8,2.9s-3.7-1.1-3.9-2.8Z"/>
        </g>
      </g>
    </g>
  </g>
  <g class="st16">
    <g class="st16">
      <g class="st16">
        <g class="st16">
          <path d="M457.9,442.9h2l2.4,9.9h0l2.7-9.9h1.9l2.7,9.9h0l2.4-9.9h2l-3.4,12.7h-1.9l-2.7-9.6h0l-2.7,9.6h-1.9l-3.4-12.7Z"/>
          <path d="M473.8,453h0c0-1.6,1.2-2.6,3.4-2.7h2.5v-.8c0-1-.7-1.6-1.8-1.6s-1.8.5-1.9,1.3h0c0,0-1.8,0-1.8,0h0c.1-1.7,1.5-2.9,3.8-2.9s3.7,1.2,3.7,3v6.4h-1.9v-1.5h0c-.5,1-1.6,1.6-2.8,1.6-1.8,0-3.1-1.1-3.1-2.8ZM477.4,454.2c1.3,0,2.3-.9,2.3-2.1v-.7h-2.3c-1.1.2-1.8.7-1.8,1.5h0c0,.8.7,1.3,1.7,1.3Z"/>
          <path d="M484,453.2v-5.3h-1.3v-1.5h1.3v-2.4h1.9v2.4h1.7v1.5h-1.7v5.2c0,.9.4,1.2,1.2,1.2s.4,0,.5,0v1.5c-.2,0-.6,0-1,0-1.8,0-2.7-.8-2.7-2.6Z"/>
          <path d="M488.6,451h0c0-2.9,1.7-4.8,4.4-4.8s3.8,1.5,4,3.3h0c0,0-1.8,0-1.8,0h0c-.2-1-.9-1.7-2.1-1.7s-2.4,1.2-2.4,3.2h0c0,2,1,3.2,2.4,3.2s1.9-.7,2.1-1.7h0c0,0,1.8,0,1.8,0h0c-.2,1.9-1.7,3.3-4,3.3s-4.4-1.9-4.4-4.8Z"/>
          <path d="M498.4,442.9h1.9v5h0c.5-1.1,1.5-1.7,2.9-1.7,2,0,3.3,1.5,3.3,3.7v5.7h-1.9v-5.4c0-1.5-.8-2.4-2.1-2.4s-2.2,1-2.2,2.4v5.4h-1.9v-12.7Z"/>
          <path d="M511.6,453h0c0,0,1.9,0,1.9,0h0c.2.9.8,1.4,2,1.4s1.8-.5,1.8-1.2h0c0-.6-.3-.9-1.3-1.2l-1.5-.3c-1.8-.4-2.6-1.2-2.6-2.6h0c0-1.7,1.4-2.8,3.6-2.8s3.5,1.2,3.6,2.8h0c0,.1-1.8.1-1.8.1h0c-.1-.9-.7-1.4-1.8-1.4s-1.7.5-1.7,1.2h0c0,.6.4,1,1.4,1.2l1.5.3c1.9.4,2.6,1.2,2.6,2.5h0c0,1.7-1.6,2.9-3.8,2.9s-3.7-1.1-3.9-2.8Z"/>
          <path d="M521.2,453.2v-5.3h-1.3v-1.5h1.3v-2.4h1.9v2.4h1.7v1.5h-1.7v5.2c0,.9.4,1.2,1.2,1.2s.4,0,.5,0v1.5c-.2,0-.6,0-1,0-1.8,0-2.7-.8-2.7-2.6Z"/>
          <path d="M525.8,451h0c0-3,1.7-4.8,4.4-4.8s4.4,1.8,4.4,4.8h0c0,3-1.7,4.8-4.4,4.8s-4.4-1.8-4.4-4.8ZM532.6,451h0c0-2-1-3.2-2.5-3.2s-2.4,1.2-2.4,3.2h0c0,2.1,1,3.2,2.5,3.2s2.4-1.2,2.4-3.2Z"/>
          <path d="M536,446.4h1.9v1.6h0c.3-1.1,1.1-1.8,2.1-1.8s.5,0,.7,0v1.8c-.1,0-.5-.1-.9-.1-1.2,0-2,.8-2,2.2v5.5h-1.9v-9.2Z"/>
          <path d="M541.8,443.8c0-.6.5-1.1,1.1-1.1s1.1.5,1.1,1.1-.5,1.1-1.1,1.1-1.1-.5-1.1-1.1ZM542,446.4h1.9v9.2h-1.9v-9.2Z"/>
          <path d="M545.5,451h0c0-2.9,1.7-4.8,4.3-4.8s4.2,1.9,4.2,4.6v.6h-6.5c0,1.7,1,2.8,2.5,2.8s1.9-.6,2.1-1.3h0c0,0,1.8,0,1.8,0h0c-.3,1.6-1.7,2.9-4,2.9s-4.4-1.9-4.4-4.8ZM547.4,450.1h4.6c-.2-1.6-1.1-2.4-2.3-2.4s-2.2.8-2.3,2.4Z"/>
          <path d="M555,453h0c0,0,1.9,0,1.9,0h0c.2.9.8,1.4,2,1.4s1.8-.5,1.8-1.2h0c0-.6-.3-.9-1.3-1.2l-1.5-.3c-1.8-.4-2.6-1.2-2.6-2.6h0c0-1.7,1.4-2.8,3.6-2.8s3.5,1.2,3.6,2.8h0c0,.1-1.8.1-1.8.1h0c-.1-.9-.7-1.4-1.8-1.4s-1.7.5-1.7,1.2h0c0,.6.4,1,1.4,1.2l1.5.3c1.9.4,2.6,1.2,2.6,2.5h0c0,1.7-1.6,2.9-3.8,2.9s-3.7-1.1-3.9-2.8Z"/>
        </g>
      </g>
    </g>
  </g>
  <g class="st16">
    <g class="st16">
      <g class="st16">
        <g class="st16">
          <path d="M105.9,530.5h2l2.4,9.9h0l2.7-9.9h1.9l2.7,9.9h0l2.4-9.9h2l-3.4,12.7h-1.9l-2.7-9.6h0l-2.7,9.6h-1.9l-3.4-12.7Z"/>
          <path d="M121.9,538.6h0c0-2.9,1.7-4.8,4.3-4.8s4.2,1.9,4.2,4.6v.6h-6.5c0,1.7,1,2.8,2.5,2.8s1.9-.6,2.1-1.3h0c0,0,1.8,0,1.8,0h0c-.3,1.6-1.7,2.9-4,2.9s-4.4-1.9-4.4-4.8ZM123.9,537.7h4.6c-.2-1.6-1.1-2.4-2.3-2.4s-2.2.8-2.3,2.4Z"/>
          <path d="M131.9,530.5h1.9v12.7h-1.9v-12.7Z"/>
          <path d="M135.3,538.6h0c0-2.9,1.7-4.8,4.4-4.8s3.8,1.5,4,3.3h0c0,0-1.8,0-1.8,0h0c-.2-1-.9-1.7-2.1-1.7s-2.4,1.2-2.4,3.2h0c0,2,1,3.2,2.4,3.2s1.9-.7,2.1-1.7h0c0,0,1.8,0,1.8,0h0c-.2,1.9-1.7,3.3-4,3.3s-4.4-1.9-4.4-4.8Z"/>
          <path d="M144.6,538.6h0c0-3,1.7-4.8,4.4-4.8s4.4,1.8,4.4,4.8h0c0,3-1.7,4.8-4.4,4.8s-4.4-1.8-4.4-4.8ZM151.5,538.6h0c0-2-1-3.2-2.5-3.2s-2.4,1.2-2.4,3.2h0c0,2.1,1,3.2,2.5,3.2s2.4-1.2,2.4-3.2Z"/>
          <path d="M154.9,534h1.9v1.4h0c.4-1,1.3-1.6,2.5-1.6s2.2.7,2.6,1.8h0c.5-1.1,1.6-1.8,2.9-1.8s3,1.2,3,3.1v6.4h-1.9v-5.9c0-1.2-.6-1.9-1.8-1.9s-1.9.8-1.9,2v5.8h-1.9v-6c0-1.1-.7-1.8-1.7-1.8s-1.9.9-1.9,2.1v5.7h-1.9v-9.2Z"/>
          <path d="M169.3,538.6h0c0-2.9,1.7-4.8,4.3-4.8s4.2,1.9,4.2,4.6v.6h-6.5c0,1.7,1,2.8,2.5,2.8s1.9-.6,2.1-1.3h0c0,0,1.8,0,1.8,0h0c-.3,1.6-1.7,2.9-4,2.9s-4.4-1.9-4.4-4.8ZM171.2,537.7h4.6c-.2-1.6-1.1-2.4-2.3-2.4s-2.2.8-2.3,2.4Z"/>
          <path d="M182.9,534h1.9v1.4h0c.4-1,1.3-1.6,2.5-1.6s2.2.7,2.6,1.8h0c.5-1.1,1.6-1.8,2.9-1.8s3,1.2,3,3.1v6.4h-1.9v-5.9c0-1.2-.6-1.9-1.8-1.9s-1.9.8-1.9,2v5.8h-1.9v-6c0-1.1-.7-1.8-1.7-1.8s-1.9.9-1.9,2.1v5.7h-1.9v-9.2Z"/>
          <path d="M197.3,538.6h0c0-2.9,1.7-4.8,4.3-4.8s4.2,1.9,4.2,4.6v.6h-6.5c0,1.7,1,2.8,2.5,2.8s1.9-.6,2.1-1.3h0c0,0,1.8,0,1.8,0h0c-.3,1.6-1.7,2.9-4,2.9s-4.4-1.9-4.4-4.8ZM199.2,537.7h4.6c-.2-1.6-1.1-2.4-2.3-2.4s-2.2.8-2.3,2.4Z"/>
          <path d="M206.8,540.6h0c0,0,1.9,0,1.9,0h0c.2.9.8,1.4,2,1.4s1.8-.5,1.8-1.2h0c0-.6-.3-.9-1.3-1.2l-1.5-.3c-1.8-.4-2.6-1.2-2.6-2.6h0c0-1.7,1.4-2.8,3.6-2.8s3.5,1.2,3.6,2.8h0c0,.1-1.8.1-1.8.1h0c-.1-.9-.7-1.4-1.8-1.4s-1.7.5-1.7,1.2h0c0,.6.4,1,1.4,1.2l1.5.3c1.9.4,2.6,1.2,2.6,2.5h0c0,1.7-1.6,2.9-3.8,2.9s-3.7-1.1-3.9-2.8Z"/>
          <path d="M215.5,540.6h0c0,0,1.9,0,1.9,0h0c.2.9.8,1.4,2,1.4s1.8-.5,1.8-1.2h0c0-.6-.3-.9-1.3-1.2l-1.5-.3c-1.8-.4-2.6-1.2-2.6-2.6h0c0-1.7,1.4-2.8,3.6-2.8s3.5,1.2,3.6,2.8h0c0,.1-1.8.1-1.8.1h0c-.1-.9-.7-1.4-1.8-1.4s-1.7.5-1.7,1.2h0c0,.6.4,1,1.4,1.2l1.5.3c1.9.4,2.6,1.2,2.6,2.5h0c0,1.7-1.6,2.9-3.8,2.9s-3.7-1.1-3.9-2.8Z"/>
          <path d="M224.2,540.6h0c0-1.6,1.2-2.6,3.4-2.7h2.5v-.8c0-1-.7-1.6-1.8-1.6s-1.8.5-1.9,1.3h0c0,0-1.8,0-1.8,0h0c.1-1.7,1.5-2.9,3.8-2.9s3.7,1.2,3.7,3v6.4h-1.9v-1.5h0c-.5,1-1.6,1.6-2.8,1.6-1.8,0-3.1-1.1-3.1-2.8ZM227.8,541.8c1.3,0,2.3-.9,2.3-2.1v-.7h-2.3c-1.1.2-1.8.7-1.8,1.5h0c0,.8.7,1.3,1.7,1.3Z"/>
          <path d="M233.8,543.9h0c0,0,1.9,0,1.9,0h0c.3.7,1.1,1.1,2.2,1.1s2.3-.8,2.3-2.1v-1.3h0c-.5,1-1.6,1.6-2.9,1.6-2.3,0-3.8-1.8-3.8-4.7h0c0-2.9,1.5-4.7,3.9-4.7s2.3.7,2.9,1.7h0v-1.6h1.9v9c0,2.1-1.6,3.5-4.2,3.5s-3.9-1.1-4.2-2.5ZM240.3,538.5h0c0-1.9-1-3.1-2.4-3.1s-2.4,1.2-2.4,3.1h0c0,1.9.9,3.1,2.4,3.1s2.4-1.2,2.4-3.1Z"/>
          <path d="M243.7,538.6h0c0-2.9,1.7-4.8,4.3-4.8s4.2,1.9,4.2,4.6v.6h-6.5c0,1.7,1,2.8,2.5,2.8s1.9-.6,2.1-1.3h0c0,0,1.8,0,1.8,0h0c-.3,1.6-1.7,2.9-4,2.9s-4.4-1.9-4.4-4.8ZM245.6,537.7h4.6c-.2-1.6-1.1-2.4-2.3-2.4s-2.2.8-2.3,2.4Z"/>
        </g>
      </g>
    </g>
  </g>
  <g class="st16">
    <g class="st16">
      <g class="st16">
        <g class="st16">
          <path d="M459.1,530.5h2v11h5.9v1.7h-7.9v-12.7Z"/>
          <path d="M468.3,531.4c0-.6.5-1.1,1.1-1.1s1.1.5,1.1,1.1-.5,1.1-1.1,1.1-1.1-.5-1.1-1.1ZM468.5,534h1.9v9.2h-1.9v-9.2Z"/>
          <path d="M472.4,530.5h1.9v7.4h0l3.7-3.9h2.2l-3.8,4,3.9,5.3h-2.2l-3.1-4.1-.8.8v3.3h-1.9v-12.7Z"/>
          <path d="M480.6,538.6h0c0-2.9,1.7-4.8,4.3-4.8s4.2,1.9,4.2,4.6v.6h-6.5c0,1.7,1,2.8,2.5,2.8s1.9-.6,2.1-1.3h0c0,0,1.8,0,1.8,0h0c-.3,1.6-1.7,2.9-4,2.9s-4.4-1.9-4.4-4.8ZM482.5,537.7h4.6c-.2-1.6-1.1-2.4-2.3-2.4s-2.2.8-2.3,2.4Z"/>
          <path d="M493.7,540.6h0c0,0,1.9,0,1.9,0h0c.2.9.8,1.4,2,1.4s1.8-.5,1.8-1.2h0c0-.6-.3-.9-1.3-1.2l-1.5-.3c-1.8-.4-2.6-1.2-2.6-2.6h0c0-1.7,1.4-2.8,3.6-2.8s3.5,1.2,3.6,2.8h0c0,.1-1.8.1-1.8.1h0c-.1-.9-.7-1.4-1.8-1.4s-1.7.5-1.7,1.2h0c0,.6.4,1,1.4,1.2l1.5.3c1.9.4,2.6,1.2,2.6,2.5h0c0,1.7-1.6,2.9-3.8,2.9s-3.7-1.1-3.9-2.8Z"/>
          <path d="M503.4,540.8v-5.3h-1.3v-1.5h1.3v-2.4h1.9v2.4h1.7v1.5h-1.7v5.2c0,.9.4,1.2,1.2,1.2s.4,0,.5,0v1.5c-.2,0-.6,0-1,0-1.8,0-2.7-.8-2.7-2.6Z"/>
          <path d="M508,538.6h0c0-3,1.7-4.8,4.4-4.8s4.4,1.8,4.4,4.8h0c0,3-1.7,4.8-4.4,4.8s-4.4-1.8-4.4-4.8ZM514.8,538.6h0c0-2-1-3.2-2.5-3.2s-2.4,1.2-2.4,3.2h0c0,2.1,1,3.2,2.5,3.2s2.4-1.2,2.4-3.2Z"/>
          <path d="M518.2,534h1.9v1.6h0c.3-1.1,1.1-1.8,2.1-1.8s.5,0,.7,0v1.8c-.1,0-.5-.1-.9-.1-1.2,0-2,.8-2,2.2v5.5h-1.9v-9.2Z"/>
          <path d="M524,531.4c0-.6.5-1.1,1.1-1.1s1.1.5,1.1,1.1-.5,1.1-1.1,1.1-1.1-.5-1.1-1.1ZM524.2,534h1.9v9.2h-1.9v-9.2Z"/>
          <path d="M527.6,538.6h0c0-2.9,1.7-4.8,4.3-4.8s4.2,1.9,4.2,4.6v.6h-6.5c0,1.7,1,2.8,2.5,2.8s1.9-.6,2.1-1.3h0c0,0,1.8,0,1.8,0h0c-.3,1.6-1.7,2.9-4,2.9s-4.4-1.9-4.4-4.8ZM529.6,537.7h4.6c-.2-1.6-1.1-2.4-2.3-2.4s-2.2.8-2.3,2.4Z"/>
          <path d="M537.2,540.6h0c0,0,1.9,0,1.9,0h0c.2.9.8,1.4,2,1.4s1.8-.5,1.8-1.2h0c0-.6-.3-.9-1.3-1.2l-1.5-.3c-1.8-.4-2.6-1.2-2.6-2.6h0c0-1.7,1.4-2.8,3.6-2.8s3.5,1.2,3.6,2.8h0c0,.1-1.8.1-1.8.1h0c-.1-.9-.7-1.4-1.8-1.4s-1.7.5-1.7,1.2h0c0,.6.4,1,1.4,1.2l1.5.3c1.9.4,2.6,1.2,2.6,2.5h0c0,1.7-1.6,2.9-3.8,2.9s-3.7-1.1-3.9-2.8Z"/>
        </g>
      </g>
    </g>
  </g>
  <g class="st16">
    <g class="st16">
      <g class="st16">
        <g class="st16">
          <path class="st26" d="M61.5,718.8h1.8l6.5,9.4h0v-9.4h2v12.7h-1.8l-6.5-9.4h0v9.4h-2v-12.7Z"/>
          <path class="st26" d="M73.5,726.9h0c0-2.9,1.7-4.8,4.3-4.8s4.2,1.9,4.2,4.6v.6h-6.5c0,1.7,1,2.8,2.5,2.8s1.9-.6,2.1-1.3h0c0,0,1.8,0,1.8,0h0c-.3,1.6-1.7,2.9-4,2.9s-4.4-1.9-4.4-4.8ZM75.4,726h4.6c-.2-1.6-1.1-2.4-2.3-2.4s-2.2.8-2.3,2.4Z"/>
          <path class="st26" d="M82.7,722.3h1.9l1.7,7.3h0l1.9-7.3h1.8l1.9,7.3h0l1.7-7.3h1.9l-2.5,9.2h-2l-1.9-6.9h0l-1.9,6.9h-2l-2.5-9.2Z"/>
          <path class="st26" d="M100,728.9h0c0,0,1.9,0,1.9,0h0c.2.9.8,1.4,2,1.4s1.8-.5,1.8-1.2h0c0-.6-.3-.9-1.3-1.2l-1.5-.3c-1.8-.4-2.6-1.2-2.6-2.6h0c0-1.7,1.4-2.8,3.6-2.8s3.5,1.2,3.6,2.8h0c0,.1-1.8.1-1.8.1h0c-.1-.9-.7-1.4-1.8-1.4s-1.7.5-1.7,1.2h0c0,.6.4,1,1.4,1.2l1.5.3c1.9.4,2.6,1.2,2.6,2.5h0c0,1.7-1.6,2.9-3.8,2.9s-3.7-1.1-3.9-2.8Z"/>
          <path class="st26" d="M109.1,728.2v-6h1.9v5.6c0,1.4.7,2.2,2,2.2s2.2-1,2.2-2.4v-5.4h1.9v9.2h-1.9v-1.4h0c-.5.9-1.4,1.6-2.8,1.6-2,0-3.2-1.3-3.2-3.4Z"/>
          <path class="st26" d="M120.9,729.9h0v1.6h-1.9v-12.7h1.9v5h0c.6-1.1,1.6-1.7,2.9-1.7,2.3,0,3.8,1.8,3.8,4.8h0c0,3-1.5,4.8-3.9,4.8s-2.4-.7-2.9-1.7ZM125.7,726.9h0c0-2-.9-3.2-2.4-3.2s-2.5,1.2-2.5,3.2h0c0,1.9,1,3.2,2.5,3.2s2.4-1.2,2.4-3.2Z"/>
          <path class="st26" d="M128.8,728.9h0c0,0,1.9,0,1.9,0h0c.2.9.8,1.4,2,1.4s1.8-.5,1.8-1.2h0c0-.6-.3-.9-1.3-1.2l-1.5-.3c-1.8-.4-2.6-1.2-2.6-2.6h0c0-1.7,1.4-2.8,3.6-2.8s3.5,1.2,3.6,2.8h0c0,.1-1.8.1-1.8.1h0c-.1-.9-.7-1.4-1.8-1.4s-1.7.5-1.7,1.2h0c0,.6.4,1,1.4,1.2l1.5.3c1.9.4,2.6,1.2,2.6,2.5h0c0,1.7-1.6,2.9-3.8,2.9s-3.7-1.1-3.9-2.8Z"/>
          <path class="st26" d="M137.4,726.9h0c0-2.9,1.7-4.8,4.4-4.8s3.8,1.5,4,3.3h0c0,0-1.8,0-1.8,0h0c-.2-1-.9-1.7-2.1-1.7s-2.4,1.2-2.4,3.2h0c0,2,1,3.2,2.4,3.2s1.9-.7,2.1-1.7h0c0,0,1.8,0,1.8,0h0c-.2,1.9-1.7,3.3-4,3.3s-4.4-1.9-4.4-4.8Z"/>
          <path class="st26" d="M147.1,722.3h1.9v1.6h0c.3-1.1,1.1-1.8,2.1-1.8s.5,0,.7,0v1.8c-.1,0-.5-.1-.9-.1-1.2,0-2,.8-2,2.2v5.5h-1.9v-9.2Z"/>
          <path class="st26" d="M153,719.7c0-.6.5-1.1,1.1-1.1s1.1.5,1.1,1.1-.5,1.1-1.1,1.1-1.1-.5-1.1-1.1ZM153.1,722.3h1.9v9.2h-1.9v-9.2Z"/>
          <path class="st26" d="M159,729.9h0v1.6h-1.9v-12.7h1.9v5h0c.6-1.1,1.6-1.7,2.9-1.7,2.3,0,3.8,1.8,3.8,4.8h0c0,3-1.5,4.8-3.9,4.8s-2.4-.7-2.9-1.7ZM163.8,726.9h0c0-2-.9-3.2-2.4-3.2s-2.5,1.2-2.5,3.2h0c0,1.9,1,3.2,2.5,3.2s2.4-1.2,2.4-3.2Z"/>
          <path class="st26" d="M166.8,726.9h0c0-2.9,1.7-4.8,4.3-4.8s4.2,1.9,4.2,4.6v.6h-6.5c0,1.7,1,2.8,2.5,2.8s1.9-.6,2.1-1.3h0c0,0,1.8,0,1.8,0h0c-.3,1.6-1.7,2.9-4,2.9s-4.4-1.9-4.4-4.8ZM168.7,726h4.6c-.2-1.6-1.1-2.4-2.3-2.4s-2.2.8-2.3,2.4Z"/>
          <path class="st26" d="M176.7,722.3h1.9v1.6h0c.3-1.1,1.1-1.8,2.1-1.8s.5,0,.7,0v1.8c-.1,0-.5-.1-.9-.1-1.2,0-2,.8-2,2.2v5.5h-1.9v-9.2Z"/>
          <path class="st26" d="M182.2,728.9h0c0,0,1.9,0,1.9,0h0c.2.9.8,1.4,2,1.4s1.8-.5,1.8-1.2h0c0-.6-.3-.9-1.3-1.2l-1.5-.3c-1.8-.4-2.6-1.2-2.6-2.6h0c0-1.7,1.4-2.8,3.6-2.8s3.5,1.2,3.6,2.8h0c0,.1-1.8.1-1.8.1h0c-.1-.9-.7-1.4-1.8-1.4s-1.7.5-1.7,1.2h0c0,.6.4,1,1.4,1.2l1.5.3c1.9.4,2.6,1.2,2.6,2.5h0c0,1.7-1.6,2.9-3.8,2.9s-3.7-1.1-3.9-2.8Z"/>
        </g>
      </g>
    </g>
  </g>
  <g class="st16">
    <g class="st16">
      <g class="st16">
        <g class="st16">
          <path class="st26" d="M301.1,716.6h2.3l4.1,10.1h0l4.1-10.1h2.3v12.7h-1.8v-9.4h0l-3.8,9.4h-1.5l-3.8-9.4h0v9.4h-1.8v-12.7Z"/>
          <path class="st26" d="M315.6,724.7h0c0-3,1.7-4.8,4.4-4.8s4.4,1.8,4.4,4.8h0c0,3-1.7,4.8-4.4,4.8s-4.4-1.8-4.4-4.8ZM322.4,724.7h0c0-2-1-3.2-2.5-3.2s-2.4,1.2-2.4,3.2h0c0,2.1,1,3.2,2.5,3.2s2.4-1.2,2.4-3.2Z"/>
          <path class="st26" d="M325.8,720.1h1.9v1.6h0c.3-1.1,1.1-1.8,2.1-1.8s.5,0,.7,0v1.8c-.1,0-.5-.1-.9-.1-1.2,0-2,.8-2,2.2v5.5h-1.9v-9.2Z"/>
          <path class="st26" d="M330.9,724.7h0c0-2.9,1.7-4.8,4.3-4.8s4.2,1.9,4.2,4.6v.6h-6.5c0,1.7,1,2.8,2.5,2.8s1.9-.6,2.1-1.3h0c0,0,1.8,0,1.8,0h0c-.3,1.6-1.7,2.9-4,2.9s-4.4-1.9-4.4-4.8ZM332.8,723.8h4.6c-.2-1.6-1.1-2.4-2.3-2.4s-2.2.8-2.3,2.4Z"/>
          <path class="st26" d="M344.1,724.7h0c0-2.9,1.7-4.8,4.3-4.8s4.2,1.9,4.2,4.6v.6h-6.5c0,1.7,1,2.8,2.5,2.8s1.9-.6,2.1-1.3h0c0,0,1.8,0,1.8,0h0c-.3,1.6-1.7,2.9-4,2.9s-4.4-1.9-4.4-4.8ZM346,723.8h4.6c-.2-1.6-1.1-2.4-2.3-2.4s-2.2.8-2.3,2.4Z"/>
          <path class="st26" d="M354,720.1h1.9v1.4h0c.5-.9,1.4-1.6,2.8-1.6,2,0,3.2,1.3,3.2,3.4v6h-1.9v-5.6c0-1.4-.7-2.2-2-2.2s-2.2,1-2.2,2.4v5.4h-1.9v-9.2Z"/>
          <path class="st26" d="M363.7,730h0c0,0,1.9,0,1.9,0h0c.3.7,1.1,1.1,2.2,1.1s2.3-.8,2.3-2.1v-1.3h0c-.5,1-1.6,1.6-2.9,1.6-2.3,0-3.8-1.8-3.8-4.7h0c0-2.9,1.5-4.7,3.9-4.7s2.3.7,2.9,1.7h0v-1.6h1.9v9c0,2.1-1.6,3.5-4.2,3.5s-3.9-1.1-4.2-2.5ZM370.2,724.6h0c0-1.9-1-3.1-2.4-3.1s-2.4,1.2-2.4,3.1h0c0,1.9.9,3.1,2.4,3.1s2.4-1.2,2.4-3.1Z"/>
          <path class="st26" d="M373.6,726.7h0c0-1.6,1.2-2.6,3.4-2.7h2.5v-.8c0-1-.7-1.6-1.8-1.6s-1.8.5-1.9,1.3h0c0,0-1.8,0-1.8,0h0c.1-1.7,1.5-2.9,3.8-2.9s3.7,1.2,3.7,3v6.4h-1.9v-1.5h0c-.5,1-1.6,1.6-2.8,1.6-1.8,0-3.1-1.1-3.1-2.8ZM377.2,727.9c1.3,0,2.3-.9,2.3-2.1v-.7h-2.3c-1.1.2-1.8.7-1.8,1.5h0c0,.8.7,1.3,1.7,1.3Z"/>
          <path class="st26" d="M383.2,730h0c0,0,1.9,0,1.9,0h0c.3.7,1.1,1.1,2.2,1.1s2.3-.8,2.3-2.1v-1.3h0c-.5,1-1.6,1.6-2.9,1.6-2.3,0-3.8-1.8-3.8-4.7h0c0-2.9,1.5-4.7,3.9-4.7s2.3.7,2.9,1.7h0v-1.6h1.9v9c0,2.1-1.6,3.5-4.2,3.5s-3.9-1.1-4.2-2.5ZM389.7,724.6h0c0-1.9-1-3.1-2.4-3.1s-2.4,1.2-2.4,3.1h0c0,1.9.9,3.1,2.4,3.1s2.4-1.2,2.4-3.1Z"/>
          <path class="st26" d="M393,724.7h0c0-2.9,1.7-4.8,4.3-4.8s4.2,1.9,4.2,4.6v.6h-6.5c0,1.7,1,2.8,2.5,2.8s1.9-.6,2.1-1.3h0c0,0,1.8,0,1.8,0h0c-.3,1.6-1.7,2.9-4,2.9s-4.4-1.9-4.4-4.8ZM395,723.8h4.6c-.2-1.6-1.1-2.4-2.3-2.4s-2.2.8-2.3,2.4Z"/>
          <path class="st26" d="M402.9,720.1h1.9v1.4h0c.4-1,1.3-1.6,2.5-1.6s2.2.7,2.6,1.8h0c.5-1.1,1.6-1.8,2.9-1.8s3,1.2,3,3.1v6.4h-1.9v-5.9c0-1.2-.6-1.9-1.8-1.9s-1.9.8-1.9,2v5.8h-1.9v-6c0-1.1-.7-1.8-1.7-1.8s-1.9.9-1.9,2.1v5.7h-1.9v-9.2Z"/>
          <path class="st26" d="M417.4,724.7h0c0-2.9,1.7-4.8,4.3-4.8s4.2,1.9,4.2,4.6v.6h-6.5c0,1.7,1,2.8,2.5,2.8s1.9-.6,2.1-1.3h0c0,0,1.8,0,1.8,0h0c-.3,1.6-1.7,2.9-4,2.9s-4.4-1.9-4.4-4.8ZM419.3,723.8h4.6c-.2-1.6-1.1-2.4-2.3-2.4s-2.2.8-2.3,2.4Z"/>
          <path class="st26" d="M427.3,720.1h1.9v1.4h0c.5-.9,1.4-1.6,2.8-1.6,2,0,3.2,1.3,3.2,3.4v6h-1.9v-5.6c0-1.4-.7-2.2-2-2.2s-2.2,1-2.2,2.4v5.4h-1.9v-9.2Z"/>
          <path class="st26" d="M437.6,726.9v-5.3h-1.3v-1.5h1.3v-2.4h1.9v2.4h1.7v1.5h-1.7v5.2c0,.9.4,1.2,1.2,1.2s.4,0,.5,0v1.5c-.2,0-.6,0-1,0-1.8,0-2.7-.8-2.7-2.6Z"/>
        </g>
      </g>
    </g>
  </g>
  <g class="st16">
    <g class="st16">
      <g class="st16">
        <g class="st16">
          <path class="st26" d="M542.6,723h0c0-4,2.3-6.6,5.9-6.6s5.9,2.5,5.9,6.5h0c0,2.4-.8,4.3-2.2,5.4l1.7,2.3h-2l-1.1-1.5c-.7.2-1.4.4-2.3.4-3.7,0-5.9-2.5-5.9-6.5ZM549.7,727.6l-1.6-2.2h2l1,1.4c.9-.8,1.3-2.2,1.3-3.8h0c0-3-1.5-4.8-3.9-4.8s-3.9,1.8-3.9,4.8h0c0,3,1.5,4.8,3.9,4.8s.8,0,1.2-.2Z"/>
          <path class="st26" d="M556.1,726v-6h1.9v5.6c0,1.4.7,2.2,2,2.2s2.2-1,2.2-2.4v-5.4h1.9v9.2h-1.9v-1.4h0c-.5.9-1.4,1.6-2.8,1.6-2,0-3.2-1.3-3.2-3.4Z"/>
          <path class="st26" d="M565.6,726.7h0c0-1.6,1.2-2.6,3.4-2.7h2.5v-.8c0-1-.7-1.6-1.8-1.6s-1.8.5-1.9,1.3h0c0,0-1.8,0-1.8,0h0c.1-1.7,1.5-2.9,3.8-2.9s3.7,1.2,3.7,3v6.4h-1.9v-1.5h0c-.5,1-1.6,1.6-2.8,1.6-1.8,0-3.1-1.1-3.1-2.8ZM569.2,727.9c1.3,0,2.3-.9,2.3-2.1v-.7h-2.3c-1.1.2-1.8.7-1.8,1.5h0c0,.8.7,1.3,1.7,1.3Z"/>
          <path class="st26" d="M575.3,716.6h1.9v12.7h-1.9v-12.7Z"/>
          <path class="st26" d="M579.1,717.5c0-.6.5-1.1,1.1-1.1s1.1.5,1.1,1.1-.5,1.1-1.1,1.1-1.1-.5-1.1-1.1ZM579.3,720.1h1.9v9.2h-1.9v-9.2Z"/>
          <path class="st26" d="M583.7,721.6h-1.3v-1.5h1.3v-1c0-1.8.8-2.6,2.7-2.6s.8,0,1.1,0v1.4c-.2,0-.4,0-.7,0-.9,0-1.3.4-1.3,1.2v.9h1.9v1.5h-1.8v7.7h-1.9v-7.7Z"/>
          <path class="st26" d="M588.8,717.5c0-.6.5-1.1,1.1-1.1s1.1.5,1.1,1.1-.5,1.1-1.1,1.1-1.1-.5-1.1-1.1ZM589,720.1h1.9v9.2h-1.9v-9.2Z"/>
          <path class="st26" d="M592.4,724.7h0c0-2.9,1.7-4.8,4.3-4.8s4.2,1.9,4.2,4.6v.6h-6.5c0,1.7,1,2.8,2.5,2.8s1.9-.6,2.1-1.3h0c0,0,1.8,0,1.8,0h0c-.3,1.6-1.7,2.9-4,2.9s-4.4-1.9-4.4-4.8ZM594.4,723.8h4.6c-.2-1.6-1.1-2.4-2.3-2.4s-2.2.8-2.3,2.4Z"/>
          <path class="st26" d="M601.9,724.7h0c0-3,1.5-4.8,3.8-4.8s2.4.7,2.9,1.7h0v-5h1.9v12.7h-1.9v-1.6h0c-.6,1.1-1.6,1.7-2.9,1.7-2.4,0-3.9-1.9-3.9-4.8ZM608.8,724.7h0c0-1.9-1-3.2-2.4-3.2s-2.4,1.2-2.4,3.2h0c0,2,.9,3.2,2.4,3.2s2.4-1.2,2.4-3.2Z"/>
          <path class="st26" d="M616.3,716.6h1.9v12.7h-1.9v-12.7Z"/>
          <path class="st26" d="M619.8,724.7h0c0-2.9,1.7-4.8,4.3-4.8s4.2,1.9,4.2,4.6v.6h-6.5c0,1.7,1,2.8,2.5,2.8s1.9-.6,2.1-1.3h0c0,0,1.8,0,1.8,0h0c-.3,1.6-1.7,2.9-4,2.9s-4.4-1.9-4.4-4.8ZM621.7,723.8h4.6c-.2-1.6-1.1-2.4-2.3-2.4s-2.2.8-2.3,2.4Z"/>
          <path class="st26" d="M629.3,726.7h0c0-1.6,1.2-2.6,3.4-2.7h2.5v-.8c0-1-.7-1.6-1.8-1.6s-1.8.5-1.9,1.3h0c0,0-1.8,0-1.8,0h0c.1-1.7,1.5-2.9,3.8-2.9s3.7,1.2,3.7,3v6.4h-1.9v-1.5h0c-.5,1-1.6,1.6-2.8,1.6-1.8,0-3.1-1.1-3.1-2.8ZM632.9,727.9c1.3,0,2.3-.9,2.3-2.1v-.7h-2.3c-1.1.2-1.8.7-1.8,1.5h0c0,.8.7,1.3,1.7,1.3Z"/>
          <path class="st26" d="M638.6,724.7h0c0-3,1.5-4.8,3.8-4.8s2.4.7,2.9,1.7h0v-5h1.9v12.7h-1.9v-1.6h0c-.6,1.1-1.6,1.7-2.9,1.7-2.4,0-3.9-1.9-3.9-4.8ZM645.4,724.7h0c0-1.9-1-3.2-2.4-3.2s-2.4,1.2-2.4,3.2h0c0,2,.9,3.2,2.4,3.2s2.4-1.2,2.4-3.2Z"/>
          <path class="st26" d="M648.8,726.7h0c0,0,1.9,0,1.9,0h0c.2.9.8,1.4,2,1.4s1.8-.5,1.8-1.2h0c0-.6-.3-.9-1.3-1.2l-1.5-.3c-1.8-.4-2.6-1.2-2.6-2.6h0c0-1.7,1.4-2.8,3.6-2.8s3.5,1.2,3.6,2.8h0c0,.1-1.8.1-1.8.1h0c-.1-.9-.7-1.4-1.8-1.4s-1.7.5-1.7,1.2h0c0,.6.4,1,1.4,1.2l1.5.3c1.9.4,2.6,1.2,2.6,2.5h0c0,1.7-1.6,2.9-3.8,2.9s-3.7-1.1-3.9-2.8Z"/>
        </g>
      </g>
    </g>
  </g>
  <g class="st16">
    <g class="st16">
      <g class="st16">
        <g class="st16">
          <path class="st28" d="M486.6,15.4l.2-1.1c0-.4.2-.7.3-1,.1-.2.4-.5.8-.8.4-.3,1-.7,1.7-1.3,1.9-1.3,3.4-2,4.4-2s.5,0,.7.2c.1.1.2.4.2.7s0,.5-.3.9c-.2.4-.5,1-.9,1.9s-.9,1.6-1.2,2.3c-.3.6-.6,1.2-1,1.8-.4.6-.6,1.1-.7,1.3-.1.2-.2.4-.2.5s0,.2.1.3c0,0,.2.1.3.1s.4,0,.6-.3c.2-.2.6-.6,1.2-1.2.3-.3.6-.7,1-1.1s.8-.9,1.3-1.6,1-1.2,1.4-1.8c.3-.3.5-.7.7-.9s.4-.5.6-.6c.2-.1.3-.2.4-.2s.2,0,.4.3l.2.3c.2.2.3.4.3.5s-.2.6-.7,1.4c-.5.8-.9,1.5-1.2,2.1-.3.6-.8,1.5-1.3,2.6s-1.1,2.4-1.5,3.8c1.3-1,2.2-1.7,2.7-2s.8-.5,1.1-.5.2,0,.2.2,0,.3-.2.5c-.1.2-.3.5-.6.7-.2.3-.6.6-1.1,1.1-.5.5-1,1-1.6,1.6-.4.4-.7.8-1,1.2s-.6.8-.8,1.1c-.2.3-.3.4-.5.4-.2,0-.4,0-.6-.1-.2-.2-.3-.4-.3-.8s.1-.8.4-1.5c.2-.8.6-1.7,1.1-2.9.3-.7.6-1.3.9-2s.7-1.3,1.1-2c.4-.7.8-1.4,1.2-2.1s.7-1.2,1-1.7c-.7.9-1.3,1.7-1.9,2.5-.6.8-1.4,1.7-2.1,2.5s-1.6,1.7-2.4,2.5c-.4.3-.6.6-.8.7-.2.1-.4.2-.6.2s-.3,0-.5-.2-.3-.2-.4-.4-.1-.3-.1-.5c0-.3,0-.5.1-.7,0-.2.2-.5.4-.9.9-1.8,1.5-3,1.9-3.7,1.4-2.3,2.2-3.6,2.2-3.9s0-.2,0-.2c0,0-.1,0-.2,0-.2,0-.4,0-.7.2s-.6.4-1,.7c-.4.3-.9.7-1.4,1.1-.6.4-1.1.9-1.7,1.2-.2.2-.5.3-.8.6s-.5.3-.5.3c0,0-.1,0-.1-.1s0-.3,0-.5Z"/>
          <path class="st28" d="M504.1,19.1v.7c-.4.4-.8.7-1,.8-.3.1-.6.2-1.1.2-.8,1-1.6,1.5-2.2,1.5s-.7-.1-1-.4c-.3-.2-.5-.6-.7-1-.2-.4-.3-.9-.3-1.4s.1-.9.4-1.4c.3-.5.6-1,1.1-1.4s.9-.8,1.4-1.1c.5-.3,1-.4,1.4-.4s.5,0,.7.1.3.2.3.4,0,.3-.2.4c.2,0,.4.1.5.3,0,.1.1.3.1.7s0,.7-.2,1.2-.3.9-.6,1.3l.2.2h.1c.1,0,.2,0,.3,0s.2-.1.3-.2c0,0,.3-.2.6-.4ZM502.1,16.5c-.5.3-1,.6-1.4.9-.4.3-.7.5-1,.8-.3.3-.4.5-.5.8-.2.7-.2,1.1-.2,1.2,0,.4.3.6.9.6s.7-.2,1.4-.7c-.1-.3-.2-.6-.2-.9,0-.4,0-.8.3-1.3.2-.4.4-.9.8-1.5Z"/>
          <path class="st28" d="M508.7,18.5c-.9,1.2-1.7,2.1-2.2,2.7-.5.5-.9.8-1.2.8s-.5-.1-.7-.3c-.2-.2-.4-.5-.5-.8-.1-.3-.2-.7-.2-1.1s0-.5,0-.7.1-.4.3-.7.3-.5.5-.8.5-.6.8-1c.2-.2.4-.4.5-.6.1-.2.3-.3.4-.3s.3,0,.6,0,.4,0,.6,0c.2,0,.3.1.3.2,0,.1,0,.3-.3.6-.2.3-.5.7-.9,1.1-.4.4-.9.9-1.5,1.3-.1.4-.2.7-.2.9s.1.4.3.4.2,0,.4-.2c.2-.1.5-.4.9-.8.4-.4.8-.7,1.2-1,.3-.2.5-.6.9-1,.3-.4.6-.8.8-1,.5-.5.8-.8,1-1s.3-.2.5-.2.3,0,.3.1c0,0,0,.3,0,.6s0,.2,0,.3c0,0,0,.2-.2.3,0,.1-.2.4-.5.7-.2.4-.5.8-.9,1.3-.2.3-.3.5-.5.9s-.2.5-.2.7c0,.3.1.5.4.5s.5,0,.8-.3.7-.5,1.3-1v.7c-.8.7-1.3,1.2-1.7,1.5-.4.3-.7.6-.9.7-.3.2-.5.2-.8.2-.5,0-.8-.3-.8-1s0-.6.2-1c.2-.4.4-1,.8-1.8Z"/>
          <path class="st28" d="M511.7,19.9v-.6c.4-.4.6-.8.8-1.1-.2,0-.4-.2-.5-.3,0-.1-.1-.3-.1-.5s0-.5.3-.9.4-.7.7-1c.3-.3.5-.5.8-.6,0,0,.2,0,.3,0,.1,0,.2,0,.2.2s-.1.3-.3.7c1.3-.2,2.2-.3,2.5-.3s.2,0,.3,0c.1,0,.2.2.3.4,0,.2.1.4.1.6s0,.3-.2.4c-.1.2-.3.4-.6.7-.3.4-.6.8-.9,1.2s-.4.8-.4,1,.2.5.6.5,1.1-.4,2.1-1.2v.7c-.5.6-1,1-1.3,1.3s-.7.6-1,.8c-.3.2-.6.3-.8.3s-.5-.1-.7-.4c-.2-.3-.3-.6-.3-1.1s0-.6.2-1c.1-.4.4-.7.6-1.2.3-.4.6-.8.9-1.3-.2,0-.4,0-.6.1-.2,0-.5,0-.7.1s-.4,0-.6.1c-.4.8-1,1.5-1.8,2.2Z"/>
          <path class="st28" d="M524.4,17.4c1-.9,1.9-1.6,2.9-2,.9-.4,1.7-.7,2.2-.7s.3,0,.4.2.2.2.3.4.1.3.1.3c0,.1,0,.2-.1.3,0,0-.3.1-.5.2,0,.1.1.2.2.4,0,.2.1.3.2.4s0,.2,0,.3c0,.2-.2.4-.5.9-.3.4-.5.7-.7.9s-.2.4-.2.7c0,.5.2.7.7.7s1.2-.4,2.1-1.3v.6c-1.6,1.8-2.8,2.7-3.5,2.7s-.4,0-.5-.2-.2-.4-.2-.7c0-.5.2-1.3.6-2.2-1,1.1-1.7,1.8-2.1,2.3-.5.4-.8.7-1.1.7s-.3-.1-.5-.4-.4-.6-.6-1-.2-.8-.2-1.2,0-.6,0-.8.2-.4.3-.6c.2-.2.4-.5.8-.8ZM529.1,16.3c-1.7.8-2.9,1.4-3.6,2-.7.5-1.1,1.1-1.1,1.7s0,.4.1.5c0,.1.2.2.3.2s.2,0,.4-.1c.7-.4,1.3-.9,1.9-1.6s1.2-1.5,2-2.6Z"/>
          <path class="st28" d="M537.2,19.1v.7c-.7.7-1.3,1.2-1.7,1.6s-.8.7-1.2.9-.8.3-1.1.3-.7-.1-1-.4c-.3-.3-.5-.7-.7-1.1-.2-.5-.3-.9-.3-1.5s0-.8.3-1.2.6-.8,1.1-1.3c.7-.7,1.3-1.2,1.9-1.5.6-.4,1-.5,1.3-.5s.4,0,.6.2c.2.2.2.4.2.6s-.1.5-.3.9-.5.7-.7,1c-.3.3-.5.4-.6.4s-.3,0-.3-.3c0,0,0-.1,0-.1,0,0,0,0,0-.1,0,0,0-.1,0-.1,0,0-.1,0-.2,0-.7.5-1.1.8-1.3,1-.2.2-.4.4-.6.6-.1.2-.2.4-.2.6,0,.4.1.7.4.9.2.2.6.4,1,.4s.9-.2,1.5-.5,1.3-.8,2-1.4Z"/>
          <path class="st28" d="M543.1,19.1v.7c-.7.7-1.3,1.2-1.7,1.6s-.8.7-1.2.9-.8.3-1.1.3-.7-.1-1-.4c-.3-.3-.5-.7-.7-1.1-.2-.5-.3-.9-.3-1.5s0-.8.3-1.2.6-.8,1.1-1.3c.7-.7,1.3-1.2,1.9-1.5.6-.4,1-.5,1.3-.5s.4,0,.6.2c.2.2.2.4.2.6s-.1.5-.3.9-.5.7-.7,1c-.3.3-.5.4-.6.4s-.3,0-.3-.3c0,0,0-.1,0-.1,0,0,0,0,0-.1,0,0,0-.1,0-.1,0,0-.1,0-.2,0-.7.5-1.1.8-1.3,1-.2.2-.4.4-.6.6-.1.2-.2.4-.2.6,0,.4.1.7.4.9.2.2.6.4,1,.4s.9-.2,1.5-.5,1.3-.8,2-1.4Z"/>
          <path class="st28" d="M549.3,19.1v.7c-.4.4-.8.7-1,.8-.3.1-.6.2-1.1.2-.8,1-1.6,1.5-2.2,1.5s-.7-.1-1-.4c-.3-.2-.5-.6-.7-1-.2-.4-.3-.9-.3-1.4s.1-.9.4-1.4c.3-.5.6-1,1.1-1.4s.9-.8,1.4-1.1c.5-.3,1-.4,1.4-.4s.5,0,.7.1.3.2.3.4,0,.3-.2.4c.2,0,.4.1.5.3,0,.1.1.3.1.7s0,.7-.2,1.2-.3.9-.6,1.3l.2.2h.1c.1,0,.2,0,.3,0s.2-.1.3-.2c0,0,.3-.2.6-.4ZM547.3,16.5c-.5.3-1,.6-1.4.9-.4.3-.7.5-1,.8-.3.3-.4.5-.5.8-.2.7-.2,1.1-.2,1.2,0,.4.3.6.9.6s.7-.2,1.4-.7c-.1-.3-.2-.6-.2-.9,0-.4,0-.8.3-1.3.2-.4.4-.9.8-1.5Z"/>
          <path class="st28" d="M553.9,18.5c-.9,1.2-1.7,2.1-2.2,2.7-.5.5-.9.8-1.2.8s-.5-.1-.7-.3c-.2-.2-.4-.5-.5-.8-.1-.3-.2-.7-.2-1.1s0-.5,0-.7.1-.4.3-.7.3-.5.5-.8.5-.6.8-1c.2-.2.4-.4.5-.6.1-.2.3-.3.4-.3s.3,0,.6,0,.4,0,.6,0c.2,0,.3.1.3.2,0,.1,0,.3-.3.6-.2.3-.5.7-.9,1.1-.4.4-.9.9-1.5,1.3-.1.4-.2.7-.2.9s.1.4.3.4.2,0,.4-.2c.2-.1.5-.4.9-.8.4-.4.8-.7,1.2-1,.3-.2.5-.6.9-1,.3-.4.6-.8.8-1,.5-.5.8-.8,1-1s.3-.2.5-.2.3,0,.3.1c0,0,0,.3,0,.6s0,.2,0,.3c0,0,0,.2-.2.3,0,.1-.2.4-.5.7-.2.4-.5.8-.9,1.3-.2.3-.3.5-.5.9s-.2.5-.2.7c0,.3.1.5.4.5s.5,0,.8-.3.7-.5,1.3-1v.7c-.8.7-1.3,1.2-1.7,1.5-.4.3-.7.6-.9.7-.3.2-.5.2-.8.2-.5,0-.8-.3-.8-1s0-.6.2-1c.2-.4.4-1,.8-1.8Z"/>
          <path class="st28" d="M563.6,17.4c-1.1,1.3-1.7,2.2-1.7,2.7s.1.4.3.4.4,0,.7-.3.8-.6,1.4-1.1v.7c-.9.9-1.6,1.6-2.1,2-.5.4-.9.6-1.2.6-.5,0-.8-.4-.8-1.1s0-.4,0-.6c0-.2.2-.4.3-.6.1-.2.3-.5.5-.9s.5-.9.8-1.4c-.4.2-.8.6-1.4,1.1-.4.4-.7.7-.9,1s-.5.7-.8,1.1c-.3.4-.5.6-.6.8-.1.1-.3.2-.4.2-.2,0-.4-.2-.6-.7s-.3-.9-.3-1.5,0-.6.1-.8c0-.2.2-.5.5-.9.4-.7.8-1.2,1.2-1.5.3-.3.6-.5.9-.5s.4,0,.5.1.2.2.2.3,0,.1,0,.2,0,.1-.1.2-.2.2-.3.3c-1,1.1-1.5,1.9-1.5,2.2s0,.3.2.3.2-.1.5-.4.5-.6.9-1c.4-.4.8-.8,1.3-1.3.5-.4,1-.9,1.7-1.3.3-.2.6-.4.9-.4s.2.1.3.4c.1.3.2.6.2.9s-.1.4-.4.7Z"/>
          <path class="st28" d="M567.7,14.1h.4c.3-.6.7-1.1.9-1.3.3-.3.6-.4,1-.4s.5,0,.5.2-.1.3-.4.6c-.3.3-.5.6-.6.9.2,0,.4,0,.6,0,.2,0,.3,0,.4,0-.4.7-.8,1.4-1.4,2.1-.2,0-.3,0-.5,0-.1,0-.2,0-.4,0s-.3,0-.5,0c-.4.6-.6,1.1-.9,1.5-.2.4-.4.9-.5,1.2s-.2.7-.2,1.1.2.7.5.7.6-.1,1-.4.9-.7,1.6-1.2v.7c-1.8,1.9-3.1,2.9-3.9,2.9s-.5-.1-.7-.3c-.2-.2-.3-.5-.3-.9s0-.5.2-.9c.1-.3.3-.8.5-1.5,0,0-.2.2-.3.2,0,0-.2.1-.2.2s-.1.1-.2.2-.2.1-.2.2v-.7c.7-.6,1.5-1.6,2.5-3,0,0-.2,0-.3,0,0,0-.2,0-.3,0-.4,0-.7,0-.9,0,0,0-.2,0-.2,0s-.1,0-.1,0,0,0,0,0c0-.2.1-.5.4-1,.2-.4.4-.6.6-.8.2-.2.4-.3.7-.4.3,0,.7,0,1.2,0Z"/>
        </g>
      </g>
    </g>
  </g>
  <g class="st16">
    <g class="st16">
      <g class="st16">
        <g class="st16">
          <path class="st28" d="M544.6,368.8c-.8,0-1.4,0-1.7,0-.6,0-1.3,0-2.3,0-.2.2-.5.5-.8.8-.3.3-.6.6-.8.9-.3.3-.5.5-.7.7-.2.2-.4.3-.5.5-.7.7-1.2,1.2-1.4,1.4-.2.2-.4.4-.7.6-.2.2-.5.3-.7.3s-.3-.1-.3-.3.2-.6.5-1.1c.3-.5.7-.9,1.1-1.3s.7-.5,1-.5.2,0,.3,0l1.9-2c-.2,0-.5,0-.9,0-.4,0-.6,0-.8,0-.1,0-.2-.2-.2-.3,0-.3.3-.7.9-1.3.3-.3.6-.5.9-.6.3,0,.8-.1,1.6-.1-.5,0-.8.1-1,.2-.2,0-.3.2-.3.4h.5c.2,0,.4,0,.6,0,.3,0,.4,0,.6,0,1.1-1,2-1.9,2.9-2.7.9-.8,1.8-1.5,2.8-2.2s2-1.3,3.1-1.9c.2.3.3.6.3.9s0,.5-.2.9-.5,1-1.1,1.9-1.1,1.9-1.6,2.9c.2,0,.3,0,.5,0,.1,0,.2,0,.4,0,.4,0,.6,0,.7,0,0,0,.1,0,.1.2s0,.1-.2.3c-.1.1-.3.4-.5.7s-.5.6-.7.9h-1.4c-.8,1.5-1.1,2.4-1.1,2.5,0,.3.1.4.4.4s.7-.3,1.7-.9v.5c-.6.4-1,.7-1.3,1-.3.2-.6.4-.8.6-.2.2-.4.3-.6.3-.2,0-.4.1-.5.1s-.4,0-.6-.3c-.2-.2-.3-.5-.3-.8s0-.4.2-.6c.1-.3.2-.5.4-.8s.4-.9,1-1.8ZM542.8,366.6h3.2c.4-.7.7-1.2.9-1.6.2-.4.5-.8.8-1.3.3-.5.5-.8.7-1.2.2-.3.4-.7.7-1.1-.5.3-.9.6-1.4,1s-1,.8-1.7,1.3c-.6.5-1.2,1-1.6,1.4-.5.4-1,.9-1.5,1.4Z"/>
          <path class="st28" d="M553.6,369.1c-.9,1.2-1.7,2.1-2.2,2.7-.5.5-.9.8-1.2.8s-.5-.1-.7-.3c-.2-.2-.4-.5-.5-.8-.1-.3-.2-.7-.2-1.1s0-.5,0-.7.1-.4.3-.7.3-.5.5-.8.5-.6.8-1c.2-.2.4-.4.5-.6.1-.2.3-.3.4-.3s.3,0,.6,0,.4,0,.6,0c.2,0,.3.1.3.2,0,.1,0,.3-.3.6-.2.3-.5.7-.9,1.1-.4.4-.9.9-1.5,1.3-.1.4-.2.7-.2.9s.1.4.3.4.2,0,.4-.2c.2-.1.5-.4.9-.8.4-.4.8-.7,1.2-1,.3-.2.5-.6.9-1,.3-.4.6-.8.8-1,.5-.5.8-.8,1-1s.3-.2.5-.2.3,0,.3.1c0,0,0,.3,0,.6s0,.2,0,.3c0,0,0,.2-.2.3,0,.1-.2.4-.5.7-.2.4-.5.8-.9,1.3-.2.3-.3.5-.5.9s-.2.5-.2.7c0,.3.1.5.4.5s.5,0,.8-.3.7-.5,1.3-1v.7c-.8.7-1.3,1.2-1.7,1.5-.4.3-.7.6-.9.7-.3.2-.5.2-.8.2-.5,0-.8-.3-.8-1s0-.6.2-1c.2-.4.4-1,.8-1.8Z"/>
          <path class="st28" d="M560.1,364.7h.4c.3-.6.7-1.1.9-1.3.3-.3.6-.4,1-.4s.5,0,.5.2-.1.3-.4.6c-.3.3-.5.6-.6.9.2,0,.4,0,.6,0,.2,0,.3,0,.4,0-.4.7-.8,1.4-1.4,2.1-.2,0-.3,0-.5,0-.1,0-.2,0-.4,0s-.3,0-.5,0c-.4.6-.6,1.1-.9,1.5-.2.4-.4.9-.5,1.2s-.2.7-.2,1.1.2.7.5.7.6-.1,1-.4.9-.7,1.6-1.2v.7c-1.8,1.9-3.1,2.9-3.9,2.9s-.5-.1-.7-.3c-.2-.2-.3-.5-.3-.9s0-.5.2-.9c.1-.3.3-.8.5-1.5,0,0-.2.2-.3.2,0,0-.2.1-.2.2s-.1.1-.2.2-.2.1-.2.2v-.7c.7-.6,1.5-1.6,2.5-3,0,0-.2,0-.3,0,0,0-.2,0-.3,0-.4,0-.7,0-.9,0,0,0-.2,0-.2,0s-.1,0-.1,0,0,0,0,0c0-.2.1-.5.4-1,.2-.4.4-.6.6-.8.2-.2.4-.3.7-.4.3,0,.7,0,1.2,0Z"/>
          <path class="st28" d="M568,369.7v.7c-.4.4-.8.7-1,.8-.3.1-.6.2-1.1.2-.8,1-1.6,1.5-2.2,1.5s-.7-.1-1-.4c-.3-.2-.5-.6-.7-1-.2-.4-.3-.9-.3-1.4s.1-.9.4-1.4c.3-.5.6-1,1.1-1.4s.9-.8,1.4-1.1c.5-.3,1-.4,1.4-.4s.5,0,.7.1.3.2.3.4,0,.3-.2.4c.2,0,.4.1.5.3,0,.1.1.3.1.7s0,.7-.2,1.2-.3.9-.6,1.3l.2.2h.1c.1,0,.2,0,.3,0s.2-.1.3-.2c0,0,.3-.2.6-.4ZM566,367.1c-.5.3-1,.6-1.4.9-.4.3-.7.5-1,.8-.3.3-.4.5-.5.8-.2.7-.2,1.1-.2,1.2,0,.4.3.6.9.6s.7-.2,1.4-.7c-.1-.3-.2-.6-.2-.9,0-.4,0-.8.3-1.3.2-.4.4-.9.8-1.5Z"/>
          <path class="st28" d="M572.4,371.1c.9-.8,1.7-1.5,2.3-2.1s1.2-1.1,1.5-1.4c.4-.3.7-.6,1-.9.3-.2.5-.4.5-.4.1,0,.3.1.4.5s.2.6.2.8-.2.4-.6.9c-.4.5-.7.8-.9,1.1s-.3.6-.3.9,0,.3.2.4.3.2.4.2.4,0,.7-.3.7-.5,1.2-1v.7c-.6.5-1.1,1-1.5,1.4-.5.4-.9.7-1.2.9s-.6.3-.9.3-.4,0-.5-.2-.2-.3-.2-.6,0-.4.1-.7.2-.5.4-.8c.2-.3.4-.7.6-1.1.3-.4.5-.8.7-1.2-.7.5-1.3,1.1-1.8,1.6-.5.5-.9.9-1.3,1.3-.3.4-.6.7-.8.9-.4.4-.7.6-1,.6s-.5-.2-.5-.7.1-.5.4-1,.6-1.1,1.1-1.9c0,0,0-.1,0-.2s0-.2-.2-.2-.4.1-.6.4c-.3.3-.8.8-1.6,1.7-.2.2-.5.6-.7.9-.3.4-.5.6-.6.8s-.2.2-.4.2c-.2,0-.5-.2-.7-.6-.2-.4-.3-.9-.3-1.5s0-.8.2-1c.1-.3.3-.7.6-1.1.4-.6.8-1.1,1.1-1.4.3-.3.6-.4.9-.4s.3,0,.5.1c.1,0,.2.2.2.3s-.1.4-.4.7c-.2.3-.5.6-.9,1-.2.2-.4.4-.6.7s-.3.5-.3.6c0,.2,0,.3.2.3s.4-.2.8-.7.9-1,1.5-1.5,1-1,1.5-1.3.8-.5,1.2-.5.4,0,.5.2.2.3.2.5,0,.4-.3.8-.5.8-.9,1.4c-.4.5-.9,1.2-1.5,2Z"/>
          <path class="st28" d="M580.1,368c1-.9,1.9-1.6,2.9-2,.9-.4,1.7-.7,2.2-.7s.3,0,.4.2.2.2.3.4.1.3.1.3c0,.1,0,.2-.1.3,0,0-.3.1-.5.2,0,.1.1.2.2.4,0,.2.1.3.2.4s0,.2,0,.3c0,.2-.2.4-.5.9-.3.4-.5.7-.7.9s-.2.4-.2.7c0,.5.2.7.7.7s1.2-.4,2.1-1.3v.6c-1.6,1.8-2.8,2.7-3.5,2.7s-.4,0-.5-.2-.2-.4-.2-.7c0-.5.2-1.3.6-2.2-1,1.1-1.7,1.8-2.1,2.3-.5.4-.8.7-1.1.7s-.3-.1-.5-.4-.4-.6-.6-1-.2-.8-.2-1.2,0-.6,0-.8.2-.4.3-.6c.2-.2.4-.5.8-.8ZM584.8,366.9c-1.7.8-2.9,1.4-3.6,2-.7.5-1.1,1.1-1.1,1.7s0,.4.1.5c0,.1.2.2.3.2s.2,0,.4-.1c.7-.4,1.3-.9,1.9-1.6s1.2-1.5,2-2.6Z"/>
          <path class="st28" d="M590.5,364.7h.4c.3-.6.7-1.1.9-1.3.3-.3.6-.4,1-.4s.5,0,.5.2-.1.3-.4.6c-.3.3-.5.6-.6.9.2,0,.4,0,.6,0,.2,0,.3,0,.4,0-.4.7-.8,1.4-1.4,2.1-.2,0-.3,0-.5,0-.1,0-.2,0-.4,0s-.3,0-.5,0c-.4.6-.6,1.1-.9,1.5-.2.4-.4.9-.5,1.2s-.2.7-.2,1.1.2.7.5.7.6-.1,1-.4.9-.7,1.6-1.2v.7c-1.8,1.9-3.1,2.9-3.9,2.9s-.5-.1-.7-.3c-.2-.2-.3-.5-.3-.9s0-.5.2-.9c.1-.3.3-.8.5-1.5,0,0-.2.2-.3.2,0,0-.2.1-.2.2s-.1.1-.2.2-.2.1-.2.2v-.7c.7-.6,1.5-1.6,2.5-3,0,0-.2,0-.3,0,0,0-.2,0-.3,0-.4,0-.7,0-.9,0,0,0-.2,0-.2,0s-.1,0-.1,0,0,0,0,0c0-.2.1-.5.4-1,.2-.4.4-.6.6-.8.2-.2.4-.3.7-.4.3,0,.7,0,1.2,0Z"/>
          <path class="st28" d="M593.7,370.1v.2c0,.4,0,.7.3.9.2.2.4.3.7.3s.6,0,1-.2.7-.3,1-.6c.3-.2.8-.6,1.2-1v.6c-.7.9-1.4,1.6-2.1,2s-1.3.7-2,.7-1-.2-1.4-.7c-.3-.4-.5-1.1-.5-1.8s.2-1.3.5-1.9c.3-.6.8-1.1,1.6-1.8.5-.4,1-.7,1.5-1s.9-.3,1.3-.3.5,0,.7.2c.2.1.3.3.3.6,0,.4-.2.8-.5,1.2-.3.4-.8.8-1.4,1.2-.6.4-1.4.8-2.3,1.2ZM593.8,369.4c.6-.2,1.1-.5,1.5-.8.4-.3.7-.7.9-1,.2-.3.3-.5.3-.7s0-.2-.2-.2-.3,0-.6.2-.5.3-.8.6c-.3.2-.5.5-.7.8s-.4.7-.4,1.1Z"/>
          <path class="st28" d="M602.4,369.7c-.6.7-1.1,1.2-1.5,1.7-.5.5-.8.8-1.1,1s-.5.3-.6.3c-.2,0-.4-.1-.6-.4-.2-.3-.4-.6-.5-1-.2-.4-.2-.9-.2-1.3,0-.6.3-1.3.9-1.9.6-.6,1.3-1.2,2.1-1.6s1.4-.6,1.8-.6.6.2.9.6c.5-1,1-2,1.4-2.8.5-.8.8-1.4,1.1-1.8.3-.4.5-.6.7-.6s.3,0,.4.2c.1.1.2.3.2.5,0,.3-.2.9-.7,1.7-.5.8-1,1.6-1.5,2.4-.5.8-.9,1.6-1.2,2.3-.3.8-.5,1.5-.5,2.1s.2.9.6.9.5-.1.9-.4c.3-.3.8-.7,1.5-1.3v.7c-1.4,1.8-2.5,2.7-3.3,2.7s-.5-.1-.7-.4c-.1-.2-.2-.6-.2-1s0-1.3.2-2ZM603.1,367.4c-.6.2-1.3.5-2,.9s-1.3.7-1.4.9c-.1.1-.3.4-.4.7-.1.4-.2.6-.2.8s0,.2,0,.3c0,0,.1.1.2.1s.2,0,.3-.1.3-.2.6-.5c.3-.2.4-.4.5-.4.1,0,.4-.3.7-.6s.7-.6.8-.8.3-.4.4-.6c.1-.2.2-.5.3-.7Z"/>
          <path class="st28" d="M613,368c1-.9,1.9-1.6,2.9-2,.9-.4,1.7-.7,2.2-.7s.3,0,.4.2.2.2.3.4.1.3.1.3c0,.1,0,.2-.1.3,0,0-.3.1-.5.2,0,.1.1.2.2.4,0,.2.1.3.2.4s0,.2,0,.3c0,.2-.2.4-.5.9-.3.4-.5.7-.7.9s-.2.4-.2.7c0,.5.2.7.7.7s1.2-.4,2.1-1.3v.6c-1.6,1.8-2.8,2.7-3.5,2.7s-.4,0-.5-.2-.2-.4-.2-.7c0-.5.2-1.3.6-2.2-1,1.1-1.7,1.8-2.1,2.3-.5.4-.8.7-1.1.7s-.3-.1-.5-.4-.4-.6-.6-1-.2-.8-.2-1.2,0-.6,0-.8.2-.4.3-.6c.2-.2.4-.5.8-.8ZM617.7,366.9c-1.7.8-2.9,1.4-3.6,2-.7.5-1.1,1.1-1.1,1.7s0,.4.1.5c0,.1.2.2.3.2s.2,0,.4-.1c.7-.4,1.3-.9,1.9-1.6s1.2-1.5,2-2.6Z"/>
          <path class="st28" d="M625.9,369.7v.7c-.7.7-1.3,1.2-1.7,1.6s-.8.7-1.2.9-.8.3-1.1.3-.7-.1-1-.4c-.3-.3-.5-.7-.7-1.1-.2-.5-.3-.9-.3-1.5s0-.8.3-1.2.6-.8,1.1-1.3c.7-.7,1.3-1.2,1.9-1.5.6-.4,1-.5,1.3-.5s.4,0,.6.2c.2.2.2.4.2.6s-.1.5-.3.9-.5.7-.7,1c-.3.3-.5.4-.6.4s-.3,0-.3-.3c0,0,0-.1,0-.1,0,0,0,0,0-.1,0,0,0-.1,0-.1,0,0-.1,0-.2,0-.7.5-1.1.8-1.3,1-.2.2-.4.4-.6.6-.1.2-.2.4-.2.6,0,.4.1.7.4.9.2.2.6.4,1,.4s.9-.2,1.5-.5,1.3-.8,2-1.4Z"/>
          <path class="st28" d="M629.3,364.7h.4c.3-.6.7-1.1.9-1.3.3-.3.6-.4,1-.4s.5,0,.5.2-.1.3-.4.6c-.3.3-.5.6-.6.9.2,0,.4,0,.6,0,.2,0,.3,0,.4,0-.4.7-.8,1.4-1.4,2.1-.2,0-.3,0-.5,0-.1,0-.2,0-.4,0s-.3,0-.5,0c-.4.6-.6,1.1-.9,1.5-.2.4-.4.9-.5,1.2s-.2.7-.2,1.1.2.7.5.7.6-.1,1-.4.9-.7,1.6-1.2v.7c-1.8,1.9-3.1,2.9-3.9,2.9s-.5-.1-.7-.3c-.2-.2-.3-.5-.3-.9s0-.5.2-.9c.1-.3.3-.8.5-1.5,0,0-.2.2-.3.2,0,0-.2.1-.2.2s-.1.1-.2.2-.2.1-.2.2v-.7c.7-.6,1.5-1.6,2.5-3,0,0-.2,0-.3,0,0,0-.2,0-.3,0-.4,0-.7,0-.9,0,0,0-.2,0-.2,0s-.1,0-.1,0,0,0,0,0c0-.2.1-.5.4-1,.2-.4.4-.6.6-.8.2-.2.4-.3.7-.4.3,0,.7,0,1.2,0Z"/>
          <path class="st28" d="M635.5,369.7v.7c-.6.8-1.2,1.4-1.8,1.8s-1,.6-1.4.6-.9-.3-1.2-.8c-.3-.6-.4-1.2-.4-1.8s0-.5,0-.7c0-.2.1-.4.2-.6,0-.1.2-.4.4-.7.9-1.4,1.8-2.2,2.5-2.2s.6.2.6.5-.1.5-.4,1c-.3.4-.5.8-.7.9-.6.5-.9.9-1.1,1.1-.2.2-.3.5-.3.7s0,.4.3.6.4.2.7.2.6-.1,1-.3c.4-.2.8-.6,1.4-1.1ZM634.9,365.4c-.2,0-.3,0-.5-.2s-.2-.3-.2-.5c0-.3.1-.6.4-1s.6-.5.8-.5.4,0,.5.2c.1.1.2.3.2.5s-.1.6-.4.9c-.3.3-.6.5-.9.5Z"/>
          <path class="st28" d="M641.7,369.7v.7c-.4.4-.8.7-1,.8-.3.1-.6.2-1.1.2-.8,1-1.6,1.5-2.2,1.5s-.7-.1-1-.4c-.3-.2-.5-.6-.7-1-.2-.4-.3-.9-.3-1.4s.1-.9.4-1.4c.3-.5.6-1,1.1-1.4s.9-.8,1.4-1.1c.5-.3,1-.4,1.4-.4s.5,0,.7.1.3.2.3.4,0,.3-.2.4c.2,0,.4.1.5.3,0,.1.1.3.1.7s0,.7-.2,1.2-.3.9-.6,1.3l.2.2h.1c.1,0,.2,0,.3,0s.2-.1.3-.2c0,0,.3-.2.6-.4ZM639.7,367.1c-.5.3-1,.6-1.4.9-.4.3-.7.5-1,.8-.3.3-.4.5-.5.8-.2.7-.2,1.1-.2,1.2,0,.4.3.6.9.6s.7-.2,1.4-.7c-.1-.3-.2-.6-.2-.9,0-.4,0-.8.3-1.3.2-.4.4-.9.8-1.5Z"/>
          <path class="st28" d="M648.3,368c-1.1,1.3-1.7,2.2-1.7,2.7s.1.4.3.4.4,0,.7-.3.8-.6,1.4-1.1v.7c-.9.9-1.6,1.6-2.1,2-.5.4-.9.6-1.2.6-.5,0-.8-.4-.8-1.1s0-.4,0-.6c0-.2.2-.4.3-.6.1-.2.3-.5.5-.9s.5-.9.8-1.4c-.4.2-.8.6-1.4,1.1-.4.4-.7.7-.9,1s-.5.7-.8,1.1c-.3.4-.5.6-.6.8-.1.1-.3.2-.4.2-.2,0-.4-.2-.6-.7s-.3-.9-.3-1.5,0-.6.1-.8c0-.2.2-.5.5-.9.4-.7.8-1.2,1.2-1.5.3-.3.6-.5.9-.5s.4,0,.5.1.2.2.2.3,0,.1,0,.2,0,.1-.1.2-.2.2-.3.3c-1,1.1-1.5,1.9-1.5,2.2s0,.3.2.3.2-.1.5-.4.5-.6.9-1c.4-.4.8-.8,1.3-1.3.5-.4,1-.9,1.7-1.3.3-.2.6-.4.9-.4s.2.1.3.4c.1.3.2.6.2.9s-.1.4-.4.7Z"/>
          <path class="st28" d="M649,370v-.2c1.7-1.8,2.8-3,3.5-3.7.1-.8.5-1.2,1-1.2s.3,0,.4.1v.2c0,0,0,.2,0,.3s0,.4.1.7c0,.3.2.6.2.8,0,.2,0,.5,0,.8,0,.4,0,.8-.3,1.2s-.5.8-.8,1.1-.8.7-1.4,1.1c.2,0,.4,0,.6,0,.3,0,.6,0,.9-.2.3-.1.6-.3.9-.5s.7-.5,1.1-.9v.7c-.8.8-1.6,1.4-2.2,1.9-.7.4-1.2.6-1.7.6s-1.2-.3-1.7-.8c-.3-.3-.5-.6-.6-.9,0-.3-.1-.7-.1-1.2ZM652.6,368.5l-.2-1.4c-.4.5-1.3,1.3-2.6,2.6.4,0,.7.2.8.3.1.1.3.4.6.8.4-.2.8-.4,1-.7.2-.3.4-.7.4-1.3s0-.1,0-.2c0,0,0-.1,0-.2Z"/>
        </g>
      </g>
    </g>
  </g>
  <g class="st16">
    <g class="st16">
      <g class="st16">
        <g class="st16">
          <path class="st28" d="M629.2,658.5l-3.7-1.8c-.9,1.3-1.5,2.1-1.6,2.5,0,.3-.3.5-.5.7-.3.2-.5.3-.6.3-.3,0-.5-.1-.5-.4s.2-.6.6-1.2c.4-.7.9-1.5,1.6-2.4-.4-.2-.6-.3-.7-.3,0,0-.1-.2-.1-.3s.1-.4.3-.7c.2-.3.3-.5.4-.6,0,0,.2-.2.3-.2.1,0,.3,0,.4-.1s.5,0,1.2-.1c.5-.7,1.1-1.4,1.7-2.3.6-.8,1.1-1.4,1.4-1.9-1,.1-1.7.3-2.1.3-.4,0-.8.2-1.1.2-.3,0-.5.1-.6.1s-.2.1-.2.2,0,.1.2.1c.1,0,.3,0,.5,0s.4,0,.5,0c.1,0,.2,0,.2.1s0,.1-.2.1c-.2,0-.6,0-1.3,0-.4,0-.8,0-1,0s-.5,0-.6,0-.3,0-.4-.1c0,0-.1-.2-.1-.4s0-.3.2-.6c.1-.3.3-.6.5-.9.2-.3.5-.5.8-.7.3-.2.8-.4,1.5-.6.7-.2,1.5-.4,2.3-.5.9-.1,1.7-.2,2.5-.2s1,0,1.5,0c.5,0,.9.1,1.3.2.4,0,.7.2.9.3.6.2,1,.5,1.4.9.3.4.5.8.5,1.3s0,.9-.2,1.4c-.2.4-.4.8-.7,1.2-.3.4-.7.7-1.2.9-.4.2-1,.4-1.7.6-.8.2-1.7.4-2.8.5-1.1.2-2.3.3-3.6.3,1,.4,1.9.7,2.8,1.1s1.6.7,2.2.9,1.1.5,1.4.7c.5.2.8.4.9.5.1.1.2.3.3.4,0,.2,0,.5,0,.9s0,.8,0,1c0,.2-.2.3-.4.3s-.2,0-.5-.2c-.2-.1-.6-.3-1-.6-.4-.2-.8-.5-1.2-.7s-.9-.5-1.7-.9ZM630,649.7s0,0,0,.1c0,0,0,0,0,.2,0,.2,0,.4-.2.6-.1.2-.3.5-.4.7-.2.3-.4.6-.8,1.1-.4.5-.7.9-1,1.3,1.4-.3,2.5-.5,3.5-.8s1.8-.5,2.4-.7,1.1-.5,1.4-.8c.3-.3.5-.6.5-.8s-.3-.6-1-.8c-.7-.2-1.5-.3-2.4-.3s-.4,0-.6,0c-.2,0-.5,0-.8,0s-.5,0-.6,0Z"/>
          <path class="st28" d="M636.4,656.7v.2c0,.4,0,.7.3.9.2.2.4.3.7.3s.6,0,1-.2.7-.3,1-.6c.3-.2.8-.6,1.2-1v.6c-.7.9-1.4,1.6-2.1,2s-1.3.7-2,.7-1-.2-1.4-.7c-.3-.4-.5-1.1-.5-1.8s.2-1.3.5-1.9c.3-.6.8-1.1,1.6-1.8.5-.4,1-.7,1.5-1s.9-.3,1.3-.3.5,0,.7.2c.2.1.3.3.3.6,0,.4-.2.8-.5,1.2-.3.4-.8.8-1.4,1.2-.6.4-1.4.8-2.3,1.2ZM636.5,656c.6-.2,1.1-.5,1.5-.8.4-.3.7-.7.9-1,.2-.3.3-.5.3-.7s0-.2-.2-.2-.3,0-.6.2-.5.3-.8.6c-.3.2-.5.5-.7.8s-.4.7-.4,1.1Z"/>
          <path class="st28" d="M641.9,654.6c1-.9,2-1.6,2.9-2,.9-.4,1.7-.7,2.2-.7s.3,0,.4.2.2.2.3.4.1.3.1.3c0,.1,0,.2-.1.3,0,0-.2.1-.5.2,0,.1.1.2.2.4,0,.2.1.3.2.4s0,.2,0,.3c0,.2-.2.4-.5.9-.3.4-.5.7-.7.9s-.2.4-.2.7c0,.5.2.7.7.7s1.2-.4,2.1-1.3v.6c-1.6,1.8-2.8,2.7-3.5,2.7s-.4,0-.5-.2-.2-.4-.2-.7c0-.5.2-1.3.6-2.2-1,1.1-1.7,1.8-2.1,2.3-.5.4-.8.7-1.1.7s-.3-.1-.5-.4-.4-.6-.6-1-.2-.8-.2-1.2,0-.6,0-.8.2-.4.3-.6c.2-.2.4-.5.8-.8ZM646.5,653.5c-1.7.8-2.9,1.4-3.6,2-.7.5-1.1,1.1-1.1,1.7s0,.4.1.5c0,.1.2.2.3.2s.2,0,.4-.1c.7-.4,1.3-.9,1.9-1.6s1.2-1.5,2-2.6Z"/>
          <path class="st28" d="M653.5,656.2v.7c-1.4,1.8-2.5,2.7-3.3,2.7s-.8-.3-1.1-.8-.4-1.2-.4-2,.2-1.5.5-2.4.7-1.8,1.3-2.8c.5-.9,1.1-1.8,1.6-2.5.6-.7,1.1-1.2,1.6-1.5.2-.1.3-.2.5-.2s.2,0,.3.2c0,.1,0,.3,0,.6,0,.9-.4,2-1.1,3.3-.7,1.3-1.8,2.7-3.1,4,0,.3,0,.6,0,.8,0,.4,0,.8.3,1,.2.3.4.4.7.4s.3,0,.5-.2c.2-.1.4-.3.6-.5.2-.2.6-.6,1.2-1.1ZM650.6,654.5c.3-.3.7-.7,1-1.1.3-.4.6-.9.9-1.4.3-.5.5-.9.7-1.3.2-.4.2-.7.2-.9s0-.2-.2-.2-.1,0-.2.1c-.4.3-.8,1-1.3,1.9-.5.9-.8,1.9-1.1,2.9Z"/>
          <path class="st28" d="M658.9,657.1v-.6c.4-.4.6-.8.8-1.1-.2,0-.4-.2-.5-.3,0-.1-.1-.3-.1-.5s0-.5.3-.9.4-.7.7-1c.3-.3.5-.5.8-.6,0,0,.2,0,.3,0,.1,0,.2,0,.2.2s-.1.3-.3.7c1.3-.2,2.2-.3,2.5-.3s.2,0,.3,0c.1,0,.2.2.3.4,0,.2.1.4.1.6s0,.3-.2.4c-.1.2-.3.4-.6.7-.3.4-.6.8-.9,1.2s-.4.8-.4,1,.2.5.6.5,1.1-.4,2.1-1.2v.7c-.5.6-1,1-1.3,1.3s-.7.6-1,.8c-.3.2-.6.3-.8.3s-.5-.1-.7-.4c-.2-.3-.3-.6-.3-1.1s0-.6.2-1c.1-.4.4-.7.6-1.2.3-.4.6-.8.9-1.3-.2,0-.4,0-.6.1-.2,0-.5,0-.7.1s-.4,0-.6.1c-.4.8-1,1.5-1.8,2.2Z"/>
          <path class="st28" d="M666.4,656.7v.2c0,.4,0,.7.3.9.2.2.4.3.7.3s.6,0,1-.2.7-.3,1-.6c.3-.2.8-.6,1.2-1v.6c-.7.9-1.4,1.6-2.1,2s-1.3.7-2,.7-1-.2-1.4-.7c-.3-.4-.5-1.1-.5-1.8s.2-1.3.5-1.9c.3-.6.8-1.1,1.6-1.8.5-.4,1-.7,1.5-1s.9-.3,1.3-.3.5,0,.7.2c.2.1.3.3.3.6,0,.4-.2.8-.5,1.2-.3.4-.8.8-1.4,1.2-.6.4-1.4.8-2.3,1.2ZM666.5,656c.6-.2,1.1-.5,1.5-.8.4-.3.7-.7.9-1,.2-.3.3-.5.3-.7s0-.2-.2-.2-.3,0-.6.2-.5.3-.8.6c-.3.2-.5.5-.7.8s-.4.7-.4,1.1Z"/>
          <path class="st28" d="M670.7,656.6v-.2c1.7-1.8,2.8-3,3.5-3.7.1-.8.5-1.2,1-1.2s.3,0,.4.1v.2c0,0,0,.2,0,.3s0,.4.1.7c0,.3.2.6.2.8,0,.2,0,.5,0,.8,0,.4,0,.8-.3,1.2s-.5.8-.8,1.1-.8.7-1.4,1.1c.2,0,.4,0,.6,0,.3,0,.6,0,.9-.2.3-.1.6-.3.9-.5s.7-.5,1.1-.9v.7c-.8.8-1.6,1.4-2.2,1.9-.7.4-1.2.6-1.7.6s-1.2-.3-1.7-.8c-.3-.3-.5-.6-.6-.9,0-.3-.1-.7-.1-1.2ZM674.3,655.1l-.2-1.4c-.4.5-1.3,1.3-2.6,2.6.4,0,.7.2.8.3.1.1.3.4.6.8.4-.2.8-.4,1-.7.2-.3.4-.7.4-1.3s0-.1,0-.2c0,0,0-.1,0-.2Z"/>
          <path class="st28" d="M681.5,655.7c-.9,1.2-1.7,2.1-2.2,2.7-.5.5-.9.8-1.2.8s-.5-.1-.7-.3c-.2-.2-.4-.5-.5-.8-.1-.3-.2-.7-.2-1.1s0-.5,0-.7.1-.4.3-.7.3-.5.5-.8.5-.6.8-1c.2-.2.4-.4.5-.6.1-.2.3-.3.4-.3s.3,0,.6,0,.4,0,.6,0c.2,0,.3.1.3.2,0,.1,0,.3-.3.6-.2.3-.5.7-.9,1.1-.4.4-.9.9-1.5,1.3-.1.4-.2.7-.2.9s.1.4.3.4.2,0,.4-.2c.2-.1.5-.4.9-.8.4-.4.8-.7,1.2-1,.3-.2.5-.6.9-1,.3-.4.6-.8.8-1,.5-.5.8-.8,1-1s.3-.2.5-.2.3,0,.3.1c0,0,0,.3,0,.6s0,.2,0,.3c0,0,0,.2-.2.3,0,.1-.2.4-.5.7-.2.4-.5.8-.9,1.3-.2.3-.3.5-.5.9s-.2.5-.2.7c0,.3.1.5.4.5s.5,0,.8-.3.7-.5,1.3-1v.7c-.8.7-1.3,1.2-1.7,1.5-.4.3-.7.6-.9.7-.3.2-.5.2-.8.2-.5,0-.8-.3-.8-1s0-.6.2-1c.2-.4.4-1,.8-1.8Z"/>
          <path class="st28" d="M689.3,656.2v.7c-1.4,1.8-2.5,2.7-3.3,2.7s-.8-.3-1.1-.8-.4-1.2-.4-2,.2-1.5.5-2.4.7-1.8,1.3-2.8c.5-.9,1.1-1.8,1.6-2.5.6-.7,1.1-1.2,1.6-1.5.2-.1.3-.2.5-.2s.2,0,.3.2c0,.1,0,.3,0,.6,0,.9-.4,2-1.1,3.3-.7,1.3-1.8,2.7-3.1,4,0,.3,0,.6,0,.8,0,.4,0,.8.3,1,.2.3.4.4.7.4s.3,0,.5-.2c.2-.1.4-.3.6-.5.2-.2.6-.6,1.2-1.1ZM686.4,654.5c.3-.3.7-.7,1-1.1.3-.4.6-.9.9-1.4.3-.5.5-.9.7-1.3.2-.4.2-.7.2-.9s0-.2-.2-.2-.1,0-.2.1c-.4.3-.8,1-1.3,1.9-.5.9-.8,1.9-1.1,2.9Z"/>
          <path class="st28" d="M692.6,651.3h.4c.3-.6.7-1.1.9-1.3.3-.3.6-.4,1-.4s.5,0,.5.2-.1.3-.4.6c-.3.3-.5.6-.6.9.2,0,.4,0,.6,0,.2,0,.3,0,.4,0-.4.7-.8,1.4-1.4,2.1-.2,0-.3,0-.5,0-.1,0-.2,0-.4,0s-.3,0-.5,0c-.4.6-.6,1.1-.9,1.5-.2.4-.4.9-.5,1.2s-.2.7-.2,1.1.2.7.5.7.6-.1,1-.4.9-.7,1.6-1.2v.7c-1.8,1.9-3.1,2.9-3.9,2.9s-.5-.1-.7-.3c-.2-.2-.3-.5-.3-.9s0-.5.2-.9c.1-.3.3-.8.5-1.5,0,0-.2.2-.3.2,0,0-.2.1-.2.2s-.1.1-.2.2-.2.1-.2.2v-.7c.7-.6,1.5-1.6,2.5-3,0,0-.2,0-.3,0,0,0-.2,0-.3,0-.4,0-.7,0-.9,0,0,0-.2,0-.2,0s-.1,0-.1,0,0,0,0,0c0-.2.1-.5.4-1,.2-.4.4-.6.6-.8.2-.2.4-.3.7-.4.3,0,.7,0,1.2,0Z"/>
          <path class="st28" d="M694.2,656.6v-.2c1.7-1.8,2.8-3,3.5-3.7.1-.8.5-1.2,1-1.2s.3,0,.4.1v.2c0,0,0,.2,0,.3s0,.4.1.7c0,.3.2.6.2.8,0,.2,0,.5,0,.8,0,.4,0,.8-.3,1.2s-.5.8-.8,1.1-.8.7-1.4,1.1c.2,0,.4,0,.6,0,.3,0,.6,0,.9-.2.3-.1.6-.3.9-.5s.7-.5,1.1-.9v.7c-.8.8-1.6,1.4-2.2,1.9-.7.4-1.2.6-1.7.6s-1.2-.3-1.7-.8c-.3-.3-.5-.6-.6-.9,0-.3-.1-.7-.1-1.2ZM697.8,655.1l-.2-1.4c-.4.5-1.3,1.3-2.6,2.6.4,0,.7.2.8.3.1.1.3.4.6.8.4-.2.8-.4,1-.7.2-.3.4-.7.4-1.3s0-.1,0-.2c0,0,0-.1,0-.2Z"/>
        </g>
      </g>
    </g>
  </g>
</svg>