<svg width="50" height="20" viewBox="0 0 50 20" fill="none" xmlns="http://www.w3.org/2000/svg">
<g clip-path="url(#clip0_3968_707)">
<path d="M9.83479 2.5785C9.26391 3.25404 8.35049 3.78687 7.43708 3.71075C7.3229 2.79734 7.77009 1.82683 8.2934 1.2274C8.86429 0.532826 9.86334 0.038059 10.6721 0C10.7672 0.951475 10.3962 1.88392 9.83479 2.5785ZM10.6626 3.89153C9.34003 3.81541 8.20777 4.6432 7.5798 4.6432C6.94231 4.6432 5.98132 3.92959 4.9347 3.94862C3.57409 3.96765 2.30863 4.73834 1.61405 5.96575C0.186839 8.42055 1.24298 12.0552 2.62261 14.0533C3.29816 15.0428 4.10692 16.1275 5.17257 16.0894C6.18113 16.0514 6.58075 15.4329 7.79864 15.4329C9.02604 15.4329 9.37809 16.0894 10.4437 16.0704C11.5474 16.0514 12.242 15.0809 12.9176 14.0913C13.6883 12.9686 14.0023 11.8744 14.0213 11.8173C14.0023 11.7983 11.89 10.9895 11.8709 8.55376C11.8519 6.5176 13.536 5.5471 13.6121 5.49001C12.6607 4.08183 11.1764 3.92959 10.6626 3.89153ZM18.3029 1.13225V15.9657H20.6055V10.8944H23.7929C26.7044 10.8944 28.7501 8.89629 28.7501 6.00381C28.7501 3.11132 26.7425 1.13225 23.869 1.13225H18.3029ZM20.6055 3.07326H23.2601C25.2582 3.07326 26.4 4.13892 26.4 6.01332C26.4 7.88773 25.2582 8.96289 23.2506 8.96289H20.6055V3.07326ZM32.9556 16.0799C34.4019 16.0799 35.7435 15.3473 36.3524 14.1865H36.4V15.9657H38.5313V8.5823C38.5313 6.44148 36.8186 5.06185 34.183 5.06185C31.7377 5.06185 29.9299 6.46051 29.8633 8.38249H31.9376C32.1088 7.46908 32.9556 6.86965 34.1164 6.86965C35.5246 6.86965 36.3143 7.52617 36.3143 8.73454V9.55281L33.4409 9.72407C30.7672 9.88582 29.321 10.98 29.321 12.883C29.321 14.8049 30.8148 16.0799 32.9556 16.0799ZM33.5741 14.3197C32.3467 14.3197 31.5665 13.7298 31.5665 12.8259C31.5665 11.8934 32.3181 11.3511 33.7549 11.2655L36.3143 11.1037V11.941C36.3143 13.3302 35.1345 14.3197 33.5741 14.3197ZM41.3762 20C43.6217 20 44.6778 19.1437 45.6007 16.5461L49.6445 5.20457H47.3039L44.5922 13.9677H44.5446L41.8329 5.20457H39.4257L43.3267 16.0038L43.1174 16.6603C42.7653 17.7736 42.1945 18.2017 41.1764 18.2017C40.9956 18.2017 40.6435 18.1827 40.5008 18.1637V19.9429C40.634 19.981 41.2049 20 41.3762 20Z" fill="#FCF8F1"/>
</g>
<defs>
<clipPath id="clip0_3968_707">
<rect width="48.7155" height="20" fill="white" transform="translate(0.929688)"/>
</clipPath>
</defs>
</svg>
