<svg width="42" height="20" viewBox="0 0 42 20" fill="none" xmlns="http://www.w3.org/2000/svg">
<g clip-path="url(#clip0_3968_709)">
<path d="M19.8473 10.34V15.2219H18.2725V3.14844H22.3669C23.3643 3.14844 24.3092 3.51589 25.0441 4.19831C25.779 4.82823 26.1465 5.77311 26.1465 6.77048C26.1465 7.76786 25.779 8.66025 25.0441 9.34266C24.3092 10.0251 23.4168 10.3925 22.3669 10.3925L19.8473 10.34ZM19.8473 4.61825V8.81773H22.4719C23.0494 8.81773 23.6268 8.60776 23.9942 8.18781C24.8341 7.40041 24.8341 6.08807 24.0467 5.30067L23.9942 5.24818C23.5743 4.82823 23.0494 4.56576 22.4719 4.61825H19.8473Z" fill="#FCF8F1"/>
<path d="M29.7685 6.71875C30.9234 6.71875 31.8158 7.03371 32.4982 7.66363C33.1806 8.29355 33.4956 9.13345 33.4956 10.1833V15.2227H32.0258V14.0678H31.9733C31.3433 15.0127 30.4509 15.4852 29.4011 15.4852C28.5087 15.4852 27.7213 15.2227 27.0914 14.6978C26.5139 14.1728 26.1465 13.4379 26.1465 12.6505C26.1465 11.8106 26.4614 11.1282 27.0914 10.6033C27.7213 10.0783 28.6137 9.86836 29.6635 9.86836C30.6084 9.86836 31.3433 10.0258 31.9208 10.3933V10.0258C31.9208 9.5009 31.7108 8.97597 31.2908 8.66101C30.8709 8.29355 30.346 8.08358 29.7685 8.08358C28.8761 8.08358 28.1937 8.45103 27.7213 9.18594L26.3565 8.34605C27.1964 7.24368 28.2987 6.71875 29.7685 6.71875ZM27.7738 12.703C27.7738 13.123 27.9838 13.4904 28.2987 13.7004C28.6662 13.9628 29.0861 14.1203 29.5061 14.1203C30.136 14.1203 30.7659 13.8579 31.2383 13.3854C31.7633 12.913 32.0258 12.3355 32.0258 11.7056C31.5533 11.3382 30.8709 11.1282 29.9785 11.1282C29.3486 11.1282 28.8236 11.2857 28.4037 11.6006C27.9838 11.8631 27.7738 12.2306 27.7738 12.703Z" fill="#FCF8F1"/>
<path d="M41.9993 6.98047L36.8024 18.8965H35.2276L37.1699 14.7495L33.7578 7.03296H35.4376L37.9048 12.9647H37.9573L40.372 7.03296H41.9993V6.98047Z" fill="#FCF8F1"/>
<path d="M13.6003 9.29037C13.6003 8.81793 13.5478 8.34549 13.4953 7.87305H6.93359V10.5502H10.6606C10.5031 11.3901 10.0307 12.1775 9.2958 12.65V14.3822H11.553C12.8654 13.1749 13.6003 11.3901 13.6003 9.29037Z" fill="#FCF8F1"/>
<path d="M6.93348 16.0621C8.82325 16.0621 10.3981 15.4322 11.5529 14.3823L9.29569 12.65C8.66577 13.07 7.87837 13.3325 6.93348 13.3325C5.14871 13.3325 3.5739 12.1251 3.04897 10.4453H0.739258V12.2301C1.94661 14.5923 4.30881 16.0621 6.93348 16.0621Z" fill="#FCF8F1"/>
<path d="M3.04895 10.4463C2.73399 9.60642 2.73399 8.66154 3.04895 7.76915V5.98438H0.739242C-0.258133 7.92663 -0.258133 10.2363 0.739242 12.2311L3.04895 10.4463Z" fill="#FCF8F1"/>
<path d="M6.93372 4.93366C7.9311 4.93366 8.87598 5.30111 9.61089 5.98352L11.6056 3.98877C10.3458 2.83392 8.66601 2.1515 6.98622 2.204C4.36155 2.204 1.94685 3.67381 0.791992 6.03602L3.1017 7.82079C3.57414 6.141 5.14895 4.93366 6.93372 4.93366Z" fill="#FCF8F1"/>
</g>
<defs>
<clipPath id="clip0_3968_709">
<rect width="41.9948" height="20" fill="white" transform="translate(0.00488281)"/>
</clipPath>
</defs>
</svg>
