<svg width="40" height="30" viewBox="0 0 40 30" fill="none" xmlns="http://www.w3.org/2000/svg">
<path d="M28.791 17.7816H31.2694C31.3402 17.7816 31.5055 17.758 31.5763 17.758C32.0483 17.6636 32.4496 17.2387 32.4496 16.6486C32.4496 16.0821 32.0483 15.6572 31.5763 15.5392C31.5055 15.5156 31.3638 15.5156 31.2694 15.5156H28.791V17.7816Z" fill="#FCF8F1"/>
<path d="M30.9865 2.13281C28.6261 2.13281 26.6906 4.04472 26.6906 6.42871V10.8898H32.7568C32.8984 10.8898 33.0636 10.8898 33.1817 10.9134C34.5507 10.9843 35.5656 11.6924 35.5656 12.9198C35.5656 13.8875 34.8811 14.7137 33.6065 14.8789V14.9261C34.9991 15.0205 36.0613 15.7994 36.0613 17.0032C36.0613 18.3014 34.8811 19.1512 33.3233 19.1512H26.667V27.8846H32.9692C35.3296 27.8846 37.2651 25.9727 37.2651 23.5887V2.13281H30.9865Z" fill="#FCF8F1"/>
<path d="M32.1428 13.2026C32.1428 12.6361 31.7415 12.2585 31.2694 12.1877C31.2222 12.1877 31.1042 12.1641 31.0334 12.1641H28.791V14.2412H31.0334C31.1042 14.2412 31.2458 14.2412 31.2694 14.2176C31.7415 14.1468 32.1428 13.7691 32.1428 13.2026Z" fill="#FCF8F1"/>
<path d="M7.24138 2.13281C4.88099 2.13281 2.94548 4.04472 2.94548 6.42871V17.0268C4.14927 17.6169 5.40028 17.9946 6.65128 17.9946C8.13832 17.9946 8.94085 17.0976 8.94085 15.8702V10.8662H12.6231V15.8466C12.6231 17.7822 11.4193 19.3636 7.33579 19.3636C4.85739 19.3636 2.92188 18.8207 2.92188 18.8207V27.861H9.2241C11.5845 27.861 13.52 25.9491 13.52 23.5651V2.13281H7.24138Z" fill="#FCF8F1"/>
<path d="M19.1133 2.13281C16.7529 2.13281 14.8174 4.04472 14.8174 6.42871V12.0464C15.9032 11.1259 17.7915 10.5358 20.8364 10.6774C22.465 10.7482 24.2117 11.1967 24.2117 11.1967V13.0142C23.3384 12.5657 22.2998 12.1644 20.9544 12.07C18.6412 11.9048 17.2486 13.0378 17.2486 15.0205C17.2486 17.0268 18.6412 18.1598 20.9544 17.971C22.2998 17.8766 23.3384 17.4517 24.2117 17.0268V18.8443C24.2117 18.8443 22.4886 19.2928 20.8364 19.3636C17.7915 19.5052 15.9032 18.9151 14.8174 17.9946V27.9082H21.1196C23.48 27.9082 25.4155 25.9963 25.4155 23.6123V2.13281H19.1133Z" fill="#FCF8F1"/>
</svg>
