<svg width="77" height="18" viewBox="0 0 77 18" fill="none" xmlns="http://www.w3.org/2000/svg">
<g clip-path="url(#clip0_3968_678)">
<path d="M13.554 0.5H9.80421C9.80421 3.57715 8.39175 6.38526 5.93675 8.23492L4.45703 9.34471L10.2078 17.1805H14.9328L9.63606 9.96686C12.1415 7.47824 13.554 4.11523 13.554 0.5Z" fill="#FCF8F1"/>
<path d="M3.98617 0.5H0.152344V17.1805H3.98617V0.5Z" fill="#FCF8F1"/>
<path d="M19.6582 0.5H16.043V17.1805H19.6582V0.5Z" fill="#FCF8F1"/>
<path d="M51.371 5.32812C49.9922 5.32812 48.6806 5.7485 47.8062 6.94237V5.64761H44.376V17.1827H47.8567V11.1293C47.8567 9.38055 49.0337 8.52298 50.4462 8.52298C51.9596 8.52298 52.8339 9.43099 52.8339 11.1125V17.1995H56.281V9.85137C56.281 7.16096 54.1455 5.32812 51.371 5.32812Z" fill="#FCF8F1"/>
<path d="M30.5876 5.64761V6.38747C29.6123 5.71487 28.4353 5.32812 27.1574 5.32812C23.7943 5.32812 21.0703 8.05216 21.0703 11.4152C21.0703 14.7782 23.7943 17.5022 27.1574 17.5022C28.4353 17.5022 29.6123 17.1155 30.5876 16.4429V17.1827H34.0347V5.64761H30.5876ZM27.4432 14.3746C25.7113 14.3746 24.3156 13.0462 24.3156 11.4152C24.3156 9.78411 25.7113 8.45572 27.4432 8.45572C29.1752 8.45572 30.5708 9.78411 30.5708 11.4152C30.5708 13.0462 29.1752 14.3746 27.4432 14.3746Z" fill="#FCF8F1"/>
<path d="M39.3817 7.14107V5.64453H35.8506V17.1796H39.3986V11.7988C39.3986 9.98281 41.3659 9.00754 42.7279 9.00754C42.7447 9.00754 42.7616 9.00754 42.7616 9.00754V5.64453C41.3659 5.64453 40.0712 6.24987 39.3817 7.14107Z" fill="#FCF8F1"/>
<path d="M67.0085 5.64761V6.38747C66.0332 5.71487 64.8562 5.32812 63.5783 5.32812C60.2152 5.32812 57.4912 8.05216 57.4912 11.4152C57.4912 14.7782 60.2152 17.5022 63.5783 17.5022C64.8562 17.5022 66.0332 17.1155 67.0085 16.4429V17.1827H70.4556V5.64761H67.0085ZM63.8641 14.3746C62.1322 14.3746 60.7365 13.0462 60.7365 11.4152C60.7365 9.78411 62.1322 8.45572 63.8641 8.45572C65.5961 8.45572 66.9917 9.78411 66.9917 11.4152C67.0085 13.0462 65.5961 14.3746 63.8641 14.3746Z" fill="#FCF8F1"/>
<path d="M73.129 5.98388C73.129 5.81573 73.0113 5.71484 72.8263 5.71484H72.5068V6.58923H72.6582V6.26974H72.8263L72.9608 6.58923H73.129L72.9777 6.23611C73.0786 6.18566 73.129 6.10159 73.129 5.98388ZM72.8263 6.1184H72.6582V5.84936H72.8263C72.9272 5.84936 72.9777 5.89981 72.9777 5.98388C72.9777 6.06796 72.944 6.1184 72.8263 6.1184Z" fill="#FCF8F1"/>
<path d="M72.7751 5.34375C72.3211 5.34375 71.9512 5.71368 71.9512 6.16769C71.968 6.62169 72.3211 6.99162 72.7751 6.99162C73.2291 6.99162 73.599 6.62169 73.599 6.16769C73.599 5.71368 73.2291 5.34375 72.7751 5.34375ZM72.7751 6.84029C72.4052 6.84029 72.1193 6.53762 72.1193 6.16769C72.1193 5.79776 72.422 5.49509 72.7751 5.49509C73.145 5.49509 73.4309 5.79776 73.4309 6.16769C73.4309 6.53762 73.1282 6.84029 72.7751 6.84029Z" fill="#FCF8F1"/>
<path d="M74.1389 13.0957C72.945 13.0957 71.9697 14.071 71.9697 15.2648C71.9697 16.4587 72.945 17.434 74.1389 17.434C75.3327 17.434 76.308 16.4587 76.308 15.2648C76.308 14.0542 75.3327 13.0957 74.1389 13.0957Z" fill="#FCF8F1"/>
</g>
<defs>
<clipPath id="clip0_3968_678">
<rect width="76.1553" height="17" fill="white" transform="translate(0.152344 0.5)"/>
</clipPath>
</defs>
</svg>
