<svg width="40" height="30" viewBox="0 0 40 30" fill="none" xmlns="http://www.w3.org/2000/svg">
<path fill-rule="evenodd" clip-rule="evenodd" d="M11.5161 26.7453V28.3322V29.9193H10.8205V29.5339C10.5999 29.8198 10.2652 29.9991 9.8102 29.9991C8.91316 29.9991 8.20997 29.3021 8.20997 28.3322C8.20997 27.3632 8.91316 26.6655 9.8102 26.6655C10.2652 26.6655 10.5999 26.8448 10.8205 27.1307V26.7453H11.5161ZM9.8967 27.3161C9.29462 27.3161 8.92616 27.7744 8.92616 28.3322C8.92616 28.8902 9.29462 29.3485 9.8967 29.3485C10.472 29.3485 10.8604 28.9099 10.8604 28.3322C10.8604 27.7547 10.472 27.3161 9.8967 27.3161ZM35.0208 28.3322C35.0208 27.7744 35.3892 27.3161 35.9913 27.3161C36.5674 27.3161 36.955 27.7547 36.955 28.3322C36.955 28.9099 36.5674 29.3485 35.9913 29.3485C35.3892 29.3485 35.0208 28.8902 35.0208 28.3322ZM37.6115 25.4707V28.3322V29.9193H36.9152V29.5339C36.6945 29.8198 36.3598 29.9991 35.9048 29.9991C35.0078 29.9991 34.3046 29.3021 34.3046 28.3322C34.3046 27.3632 35.0078 26.6655 35.9048 26.6655C36.3598 26.6655 36.6945 26.8448 36.9152 27.1307V25.4707H37.6115ZM20.15 27.2835C20.5981 27.2835 20.8861 27.5623 20.9597 28.0534H19.2997C19.374 27.5951 19.6543 27.2835 20.15 27.2835ZM18.5704 28.3322C18.5704 27.3427 19.2261 26.6655 20.1638 26.6655C21.06 26.6655 21.6759 27.3427 21.6827 28.3322C21.6827 28.425 21.6759 28.5117 21.669 28.5976H19.2936C19.3939 29.1691 19.8022 29.3751 20.2503 29.3751C20.5712 29.3751 20.9129 29.255 21.181 29.043L21.5219 29.5544C21.1335 29.8797 20.6923 29.9991 20.2105 29.9991C19.253 29.9991 18.5704 29.3417 18.5704 28.3322ZM28.5625 28.3322C28.5625 27.7744 28.9309 27.3161 29.533 27.3161C30.1082 27.3161 30.4967 27.7547 30.4967 28.3322C30.4967 28.9099 30.1082 29.3485 29.533 29.3485C28.9309 29.3485 28.5625 28.8902 28.5625 28.3322ZM31.1524 26.7453V28.3322V29.9193H30.4568V29.5339C30.2355 29.8198 29.9015 29.9991 29.4464 29.9991C28.5494 29.9991 27.8462 29.3021 27.8462 28.3322C27.8462 27.3632 28.5494 26.6655 29.4464 26.6655C29.9015 26.6655 30.2355 26.8448 30.4568 27.1307V26.7453H31.1524ZM24.6342 28.3322C24.6342 29.2953 25.3099 29.9991 26.3409 29.9991C26.8228 29.9991 27.1437 29.8927 27.4916 29.6205L27.1575 29.0627C26.8964 29.2489 26.622 29.3485 26.3203 29.3485C25.7649 29.3417 25.3567 28.9433 25.3567 28.3322C25.3567 27.7213 25.7649 27.3229 26.3203 27.3161C26.622 27.3161 26.8964 27.4157 27.1575 27.6019L27.4916 27.044C27.1437 26.7719 26.8228 26.6655 26.3409 26.6655C25.3099 26.6655 24.6342 27.3693 24.6342 28.3322ZM32.7587 27.1307C32.9395 26.8517 33.2007 26.6655 33.6021 26.6655C33.743 26.6655 33.9438 26.6922 34.0977 26.7521L33.8833 27.4028C33.7361 27.3427 33.589 27.3229 33.4482 27.3229C32.9931 27.3229 32.7656 27.6148 32.7656 28.14V29.9193H32.0693V26.7453H32.7587V27.1307ZM14.9564 26.9976C14.6215 26.7788 14.1604 26.6655 13.6517 26.6655C12.8413 26.6655 12.3196 27.0508 12.3196 27.6817C12.3196 28.1993 12.7081 28.5185 13.4235 28.6181L13.7521 28.6644C14.1336 28.7177 14.3137 28.8172 14.3137 28.9965C14.3137 29.2421 14.0593 29.3819 13.5844 29.3819C13.1025 29.3819 12.7548 29.2292 12.5203 29.0497L12.1925 29.5871C12.574 29.8661 13.0558 29.9991 13.5775 29.9991C14.5013 29.9991 15.0367 29.5673 15.0367 28.9631C15.0367 28.4052 14.6154 28.1134 13.9191 28.0139L13.5912 27.9667C13.2903 27.9271 13.0489 27.8679 13.0489 27.6551C13.0489 27.4225 13.2764 27.2835 13.6579 27.2835C14.0662 27.2835 14.4614 27.4362 14.6553 27.5556L14.9564 26.9976ZM23.0885 27.1307C23.2685 26.8517 23.5297 26.6655 23.931 26.6655C24.072 26.6655 24.2727 26.6922 24.4266 26.7521L24.2121 27.4028C24.0651 27.3427 23.918 27.3229 23.7771 27.3229C23.3221 27.3229 23.0946 27.6148 23.0946 28.14V29.9193H22.399V26.7453H23.0885V27.1307ZM17.9951 26.7453H16.8576V25.7823H16.1544V26.7453H15.5056V27.3761H16.1544V28.8241C16.1544 29.5606 16.4424 29.9991 17.2651 29.9991C17.5669 29.9991 17.9147 29.9064 18.1353 29.7536L17.9346 29.1622C17.727 29.2816 17.4995 29.3417 17.3188 29.3417C16.9709 29.3417 16.8576 29.1288 16.8576 28.8103V27.3761H17.9951V26.7453ZM7.59479 27.9271V29.9193H6.89159V28.1529C6.89159 27.6148 6.66411 27.3161 6.18916 27.3161C5.72721 27.3161 5.40624 27.6087 5.40624 28.1598V29.9193H4.70305V28.1529C4.70305 27.6148 4.46944 27.3161 4.00749 27.3161C3.53178 27.3161 3.22392 27.6087 3.22392 28.1598V29.9193H2.52148V26.7453H3.2178V27.1367C3.47902 26.7651 3.81299 26.6655 4.15459 26.6655C4.6433 26.6655 4.99114 26.8784 5.21174 27.2302C5.5066 26.7849 5.92793 26.6586 6.33626 26.6655C7.11295 26.6724 7.59479 27.177 7.59479 27.9271Z" fill="#FCF8F1"/>
<path d="M25.2676 21.3541H14.7256V2.55664H25.2676V21.3541Z" fill="#919191"/>
<path d="M15.3944 11.9548C15.3944 8.14161 17.1938 4.74494 19.9959 2.55603C17.9468 0.955377 15.3607 0 12.5502 0C5.89655 0 0.50293 5.35227 0.50293 11.9548C0.50293 18.5573 5.89655 23.9095 12.5502 23.9095C15.3607 23.9095 17.9468 22.9541 19.9959 21.3535C17.1938 19.1646 15.3944 15.7679 15.3944 11.9548Z" fill="#747474"/>
<path d="M39.4899 11.9548C39.4899 18.5573 34.0963 23.9095 27.4427 23.9095C24.6321 23.9095 22.046 22.9541 19.9961 21.3535C22.799 19.1646 24.5984 15.7679 24.5984 11.9548C24.5984 8.14161 22.799 4.74494 19.9961 2.55603C22.046 0.955377 24.6321 0 27.4427 0C34.0963 0 39.4899 5.35227 39.4899 11.9548Z" fill="#B2B2B2"/>
</svg>
