<svg width="40" height="30" viewBox="0 0 40 30" fill="none" xmlns="http://www.w3.org/2000/svg">
<g clip-path="url(#clip0_3968_662)">
<path d="M25.3643 21.3028H14.9287V2.54883H25.3643V21.3028Z" fill="#7E7E7E"/>
<path d="M15.5907 11.9264C15.5907 8.12208 17.3719 4.73329 20.1458 2.54942C18.1173 0.952469 15.5574 -0.000699997 12.7752 -0.000699997C6.18871 -0.000699997 0.849609 5.33916 0.849609 11.9264C0.849609 18.5137 6.18871 23.8535 12.7752 23.8535C15.5574 23.8535 18.1173 22.9003 20.1458 21.3034C17.3719 19.1195 15.5907 15.7307 15.5907 11.9264Z" fill="#747474"/>
<path d="M39.4424 11.9264C39.4424 18.5137 34.1033 23.8535 27.5168 23.8535C24.7347 23.8535 22.1747 22.9003 20.1455 21.3034C22.9201 19.1195 24.7013 15.7307 24.7013 11.9264C24.7013 8.12208 22.9201 4.73329 20.1455 2.54942C22.1747 0.952469 24.7347 -0.000699997 27.5168 -0.000699997C34.1033 -0.000699997 39.4424 5.33916 39.4424 11.9264Z" fill="#989898"/>
<path d="M28.8948 26.6021C29.0335 26.6021 29.2329 26.6287 29.3854 26.6886L29.173 27.3377C29.0275 27.2778 28.8819 27.2581 28.7423 27.2581C28.2919 27.2581 28.0667 27.5492 28.0667 28.0725V29.8484H27.3774V26.6818H28.0599V27.0662C28.2388 26.7879 28.4974 26.6021 28.8948 26.6021ZM26.3484 27.3111H25.2224V28.742C25.2224 29.0597 25.3346 29.2721 25.6796 29.2721C25.8586 29.2721 26.0838 29.2122 26.2885 29.0931L26.4872 29.6823C26.2688 29.8347 25.9245 29.928 25.6265 29.928C24.8114 29.928 24.527 29.4905 24.527 28.7549V27.3111H23.884V26.6818H24.527V25.721H25.2224V26.6818H26.3484V27.3111ZM17.5303 27.9868C17.6038 27.5295 17.8814 27.2179 18.372 27.2179C18.8156 27.2179 19.1007 27.4962 19.1735 27.9868H17.5303ZM19.8893 28.2651C19.8825 27.2778 19.2728 26.6021 18.3849 26.6021C17.4575 26.6021 16.8084 27.2778 16.8084 28.2651C16.8084 29.2713 17.484 29.9272 18.4319 29.9272C18.9089 29.9272 19.3456 29.8082 19.7301 29.4836L19.3919 28.9733C19.1272 29.1856 18.789 29.3047 18.4713 29.3047C18.0277 29.3047 17.6236 29.0992 17.5242 28.5297H19.8757C19.8825 28.4433 19.8893 28.3576 19.8893 28.2651ZM22.9164 27.4901C22.7246 27.3703 22.334 27.2179 21.9299 27.2179C21.5523 27.2179 21.327 27.3574 21.327 27.5894C21.327 27.801 21.5651 27.8609 21.8631 27.9003L22.1877 27.9466C22.877 28.0467 23.294 28.3379 23.294 28.8944C23.294 29.4973 22.764 29.928 21.8503 29.928C21.3331 29.928 20.8561 29.7953 20.4785 29.517L20.8031 28.9801C21.0351 29.1591 21.3801 29.3115 21.8571 29.3115C22.3272 29.3115 22.579 29.1727 22.579 28.927C22.579 28.7488 22.4 28.6488 22.0224 28.5964L21.6978 28.5502C20.9888 28.4501 20.6044 28.1324 20.6044 27.616C20.6044 26.9866 21.1215 26.6021 21.9231 26.6021C22.4266 26.6021 22.8838 26.7151 23.2144 26.9335L22.9164 27.4901ZM31.413 27.2565C31.2712 27.2565 31.14 27.2816 31.018 27.3309C30.8966 27.3809 30.7912 27.4507 30.7025 27.5401C30.6138 27.6296 30.544 27.7373 30.4932 27.8624C30.4424 27.9875 30.4174 28.1255 30.4174 28.2757C30.4174 28.4266 30.4424 28.5638 30.4932 28.6889C30.544 28.8141 30.6138 28.9217 30.7025 29.0112C30.7912 29.1007 30.8966 29.1705 31.018 29.2205C31.14 29.2706 31.2712 29.2948 31.413 29.2948C31.5548 29.2948 31.6868 29.2706 31.8081 29.2205C31.9302 29.1705 32.0363 29.1007 32.1251 29.0112C32.2153 28.9217 32.2851 28.8141 32.3366 28.6889C32.3874 28.5638 32.4124 28.4266 32.4124 28.2757C32.4124 28.1255 32.3874 27.9875 32.3366 27.8624C32.2851 27.7373 32.2153 27.6296 32.1251 27.5401C32.0363 27.4507 31.9302 27.3809 31.8081 27.3309C31.6868 27.2816 31.5548 27.2565 31.413 27.2565ZM31.413 26.6021C31.6587 26.6021 31.8862 26.6446 32.0955 26.7303C32.3048 26.8152 32.486 26.9327 32.6384 27.0821C32.7916 27.2315 32.9106 27.4082 32.9971 27.6114C33.0835 27.8154 33.1268 28.0368 33.1268 28.2757C33.1268 28.5145 33.0835 28.736 32.9971 28.9399C32.9106 29.1432 32.7916 29.3206 32.6384 29.47C32.486 29.6194 32.3048 29.7361 32.0955 29.8218C31.8862 29.9068 31.6587 29.9492 31.413 29.9492C31.1673 29.9492 30.9399 29.9068 30.7306 29.8218C30.5213 29.7361 30.3416 29.6194 30.1899 29.47C30.0382 29.3206 29.9192 29.1432 29.8328 28.9399C29.7463 28.736 29.7031 28.5145 29.7031 28.2757C29.7031 28.0368 29.7463 27.8154 29.8328 27.6114C29.9192 27.4082 30.0382 27.2315 30.1899 27.0821C30.3416 26.9327 30.5213 26.8152 30.7306 26.7303C30.9399 26.6446 31.1673 26.6021 31.413 26.6021ZM13.5053 28.2651C13.5053 27.7085 13.87 27.2512 14.4661 27.2512C15.0355 27.2512 15.42 27.6888 15.42 28.2651C15.42 28.8414 15.0355 29.2781 14.4661 29.2781C13.87 29.2781 13.5053 28.8216 13.5053 28.2651ZM16.0691 28.2651V26.6818H15.3805V27.0662C15.1614 26.7811 14.8308 26.6021 14.3804 26.6021C13.4924 26.6021 12.7971 27.2975 12.7971 28.2651C12.7971 29.2319 13.4924 29.928 14.3804 29.928C14.8308 29.928 15.1614 29.749 15.3805 29.4639V29.8484H16.0691V28.2651ZM12.1874 29.8484V27.8609C12.1874 27.1125 11.7104 26.609 10.9423 26.6021C10.5381 26.5953 10.1203 26.7212 9.82912 27.1655C9.61074 26.8145 9.26571 26.6021 8.78193 26.6021C8.44449 26.6021 8.11312 26.7015 7.85454 27.0723V26.6818H7.16602V29.8484H7.86137V28.0929C7.86137 27.5432 8.1662 27.2512 8.63634 27.2512C9.09358 27.2512 9.32562 27.5492 9.32562 28.0861V29.8484H10.021V28.0929C10.021 27.5432 10.3395 27.2512 10.7959 27.2512C11.2668 27.2512 11.492 27.5492 11.492 28.0861V29.8484H12.1874Z" fill="#FCF8F1"/>
</g>
<defs>
<clipPath id="clip0_3968_662">
<rect width="38.593" height="30" fill="white" transform="translate(0.849609)"/>
</clipPath>
</defs>
</svg>
