<svg width="90" height="30" viewBox="0 0 90 30" fill="none" xmlns="http://www.w3.org/2000/svg">
<g clip-path="url(#clip0_3968_641)">
<mask id="mask0_3968_641" style="mask-type:luminance" maskUnits="userSpaceOnUse" x="-48" y="-16" width="186" height="61">
<path d="M-47.9922 44.707H137.135V-15.4297H-47.9922V44.707Z" fill="white"/>
</mask>
<g mask="url(#mask0_3968_641)">
<path d="M18.4067 5.84872C17.4562 4.76538 15.7381 4.30093 13.5402 4.30093H7.16111C6.94353 4.30081 6.73305 4.37836 6.56755 4.5196C6.40206 4.66085 6.2924 4.85652 6.25833 5.07141L3.60335 21.9183C3.59104 21.9964 3.59581 22.0763 3.61735 22.1524C3.63889 22.2286 3.67668 22.2991 3.72811 22.3592C3.77954 22.4194 3.84339 22.4676 3.91527 22.5007C3.98714 22.5338 4.06533 22.5508 4.14445 22.5508H8.08263L9.07172 16.2773L9.04106 16.4737C9.07448 16.2593 9.1834 16.0638 9.34819 15.9225C9.51299 15.7813 9.72281 15.7035 9.93987 15.7033H11.8113C15.4877 15.7033 18.3664 14.21 19.2073 9.89024C19.2323 9.76248 19.2539 9.63814 19.2726 9.51663C19.5224 7.92001 19.2709 6.83326 18.4073 5.84929" fill="#FCF8F1"/>
<path d="M66.6184 13.8666C66.3777 15.4473 65.1706 15.4473 64.0032 15.4473H63.3389L63.8051 12.4959C63.8334 12.3177 63.9867 12.1865 64.1673 12.1865H64.4722C65.2671 12.1865 66.0177 12.1865 66.405 12.639C66.636 12.9099 66.7059 13.3119 66.6184 13.8666ZM66.1103 9.74218H61.7065C61.5607 9.74225 61.4196 9.7943 61.3087 9.889C61.1977 9.9837 61.1242 10.1148 61.1012 10.2589L59.3218 21.5505C59.3136 21.6028 59.3168 21.6563 59.3313 21.7073C59.3457 21.7583 59.371 21.8055 59.4054 21.8458C59.4398 21.8861 59.4825 21.9185 59.5306 21.9407C59.5787 21.9629 59.6311 21.9745 59.684 21.9746H61.9438C62.1545 21.9746 62.3339 21.8213 62.3668 21.6135L62.8722 18.4112C62.9187 18.1142 63.1754 17.8945 63.4763 17.8945H64.8697C67.7711 17.8945 69.4449 16.4915 69.8821 13.7087C70.0791 12.4925 69.89 11.5364 69.3205 10.867C68.6943 10.1311 67.5843 9.74161 66.1108 9.74161" fill="#FCF8F1"/>
<path d="M35.2084 13.8654C34.9676 15.4462 33.7605 15.4462 32.5926 15.4462H31.9283L32.3944 12.4948C32.4228 12.3165 32.5761 12.1854 32.7567 12.1854H33.0616C33.8565 12.1854 34.6071 12.1854 34.9943 12.6379C35.226 12.9087 35.2958 13.3107 35.2084 13.8654ZM34.7002 9.74103H30.2964C29.9955 9.74103 29.7389 9.9602 29.6918 10.2577L27.9117 21.5493C27.9034 21.6017 27.9066 21.6552 27.921 21.7063C27.9354 21.7573 27.9607 21.8046 27.9951 21.8449C28.0295 21.8852 28.0723 21.9176 28.1204 21.9398C28.1686 21.962 28.221 21.9735 28.274 21.9735H30.3771C30.678 21.9735 30.9341 21.7543 30.9812 21.4568L31.4621 18.4106C31.5087 18.1131 31.7653 17.8939 32.0662 17.8939H33.4596C36.361 17.8939 38.0348 16.4903 38.472 13.7076C38.6691 12.4914 38.48 11.5352 37.9105 10.8658C37.2842 10.13 36.1742 9.74047 34.7008 9.74047M44.9244 17.9195C44.72 19.1243 43.7644 19.9334 42.5442 19.9334C41.9327 19.9334 41.4427 19.7364 41.1281 19.3639C40.8159 18.9948 40.6989 18.4685 40.7977 17.8831C40.9873 16.6885 41.9594 15.8538 43.1608 15.8538C43.7598 15.8538 44.2453 16.0526 44.5667 16.4284C44.8897 16.8072 45.0169 17.3363 44.9244 17.9195ZM47.8633 13.8143H45.7545C45.6668 13.8142 45.582 13.8455 45.5154 13.9024C45.4487 13.9594 45.4047 14.0383 45.3911 14.1249L45.2991 14.7143L45.1515 14.5008C44.695 13.8382 43.677 13.6162 42.6606 13.6162C40.331 13.6162 38.3409 15.382 37.9536 17.8576C37.7521 19.0936 38.0382 20.2741 38.7389 21.0979C39.3822 21.8548 40.3003 22.1699 41.3944 22.1699C43.2727 22.1699 44.314 20.9639 44.314 20.9639L44.2198 21.5499C44.2115 21.6023 44.2146 21.6559 44.2291 21.707C44.2435 21.758 44.2688 21.8053 44.3033 21.8457C44.3378 21.886 44.3806 21.9184 44.4289 21.9405C44.4771 21.9627 44.5295 21.9741 44.5826 21.974H46.4813C46.7822 21.974 47.0388 21.7554 47.086 21.4573L48.2261 14.2391C48.2343 14.1866 48.231 14.133 48.2165 14.0819C48.202 14.0309 48.1766 13.9836 48.1421 13.9433C48.1076 13.903 48.0647 13.8706 48.0165 13.8484C47.9682 13.8263 47.9158 13.8149 47.8627 13.8149" fill="#FCF8F1"/>
<path d="M76.3346 17.9195C76.1302 19.1243 75.1746 19.9334 73.9544 19.9334C73.3429 19.9334 72.8529 19.7364 72.5384 19.3639C72.2261 18.9948 72.1091 18.4685 72.2079 17.8831C72.3975 16.6885 73.369 15.8538 74.571 15.8538C75.1701 15.8538 75.6555 16.0526 75.9769 16.4284C76.3 16.8072 76.4271 17.3363 76.3346 17.9195ZM79.2735 13.8143H77.1647C77.077 13.8142 76.9922 13.8455 76.9256 13.9024C76.8589 13.9594 76.8149 14.0383 76.8013 14.1249L76.7093 14.7143L76.5617 14.5008C76.1052 13.8382 75.0872 13.6162 74.0708 13.6162C71.7417 13.6162 69.7517 15.382 69.3639 17.8576C69.1623 19.0936 69.449 20.2741 70.1497 21.0979C70.793 21.8548 71.7111 22.1699 72.8052 22.1699C74.684 22.1699 75.7254 20.9639 75.7254 20.9639L75.6311 21.5499C75.6226 21.6022 75.6256 21.6558 75.6399 21.7069C75.6542 21.7579 75.6794 21.8053 75.7138 21.8456C75.7482 21.886 75.791 21.9184 75.8392 21.9405C75.8873 21.9627 75.9398 21.9741 75.9928 21.974H77.8909C78.1918 21.974 78.4485 21.7554 78.4962 21.4573L79.6363 14.2391C79.6445 14.1866 79.6412 14.133 79.6267 14.0819C79.6122 14.0309 79.5868 13.9836 79.5523 13.9433C79.5178 13.903 79.4749 13.8706 79.4267 13.8484C79.3784 13.8263 79.326 13.8149 79.2729 13.8149" fill="#FCF8F1"/>
<path d="M59.0945 13.8153H56.9744C56.7717 13.8153 56.5826 13.9158 56.4691 14.0839L53.545 18.39L52.3055 14.2519C52.2677 14.1257 52.1902 14.015 52.0845 13.9363C51.9789 13.8575 51.8507 13.8149 51.7189 13.8147H49.6357C49.5773 13.8148 49.5197 13.8287 49.4678 13.8555C49.4159 13.8822 49.3711 13.9209 49.3371 13.9684C49.3031 14.016 49.2809 14.0709 49.2725 14.1287C49.264 14.1865 49.2694 14.2455 49.2882 14.3008L51.6219 21.1517L49.4268 24.249C49.388 24.304 49.3651 24.3685 49.3605 24.4357C49.3559 24.5028 49.3698 24.5699 49.4007 24.6296C49.4316 24.6894 49.4784 24.7395 49.5359 24.7745C49.5933 24.8095 49.6593 24.8281 49.7266 24.8281H51.8444C52.0443 24.8281 52.2322 24.7299 52.3469 24.5652L59.3955 14.3916C59.4337 14.3366 59.4562 14.2722 59.4604 14.2053C59.4647 14.1385 59.4505 14.0717 59.4195 14.0123C59.3885 13.9529 59.3418 13.9032 59.2845 13.8684C59.2272 13.8337 59.1615 13.8153 59.0945 13.8153Z" fill="#FCF8F1"/>
<path d="M81.7585 10.0522L79.9507 21.5505C79.9425 21.6029 79.9458 21.6564 79.9602 21.7074C79.9747 21.7585 80 21.8057 80.0345 21.846C80.069 21.8863 80.1118 21.9187 80.1599 21.9409C80.2081 21.9631 80.2605 21.9746 80.3135 21.9746H82.131C82.4319 21.9746 82.6886 21.7554 82.7357 21.4579L84.518 10.1657C84.5263 10.1133 84.5231 10.0597 84.5087 10.0087C84.4943 9.95762 84.4689 9.91029 84.4344 9.86997C84.4 9.82965 84.3571 9.79729 84.3089 9.77513C84.2607 9.75297 84.2082 9.74153 84.1552 9.74161H82.1214C82.0338 9.74138 81.9491 9.77253 81.8825 9.8294C81.816 9.88628 81.772 9.96568 81.7585 10.0522Z" fill="#FCF8F1"/>
<path d="M18.4067 5.84872C17.4562 4.76538 15.7381 4.30093 13.5402 4.30093H7.16111C6.94353 4.30081 6.73305 4.37836 6.56755 4.5196C6.40206 4.66085 6.2924 4.85652 6.25833 5.07141L3.60335 21.9183C3.59104 21.9964 3.59581 22.0763 3.61735 22.1524C3.63889 22.2286 3.67668 22.2991 3.72811 22.3592C3.77954 22.4194 3.84339 22.4676 3.91527 22.5007C3.98714 22.5338 4.06533 22.5508 4.14445 22.5508H8.08263L9.07172 16.2773L9.04106 16.4737C9.07448 16.2593 9.1834 16.0638 9.34819 15.9225C9.51299 15.7813 9.72281 15.7035 9.93987 15.7033H11.8113C15.4877 15.7033 18.3664 14.21 19.2073 9.89024C19.2323 9.76248 19.2539 9.63814 19.2726 9.51663C19.5224 7.92001 19.2709 6.83326 18.4073 5.84929" fill="#FCF8F1"/>
<path d="M10.1337 9.53821C10.1636 9.35044 10.2594 9.17945 10.4039 9.05593C10.5484 8.93241 10.7323 8.86445 10.9224 8.86424H15.9235C16.5157 8.86424 17.0681 8.90285 17.5729 8.98348C17.8489 9.02787 18.1219 9.08893 18.3905 9.16631C18.6956 9.25206 18.9907 9.36968 19.2712 9.5172C19.5221 7.92001 19.27 6.83383 18.4064 5.84929C17.4554 4.76651 15.7378 4.30206 13.5399 4.30206H7.16022C6.94284 4.30222 6.73263 4.37988 6.56737 4.5211C6.40211 4.66232 6.29262 4.85785 6.25857 5.07255L3.60246 21.9177C3.59007 21.9958 3.59476 22.0758 3.61623 22.1519C3.63769 22.2281 3.67541 22.2987 3.72679 22.3588C3.77817 22.419 3.84198 22.4673 3.91383 22.5005C3.98569 22.5336 4.06387 22.5508 4.14299 22.5508H8.08174L9.07083 16.2767L10.1337 9.53821Z" fill="#FCF8F1"/>
<path d="M19.2721 9.51657C19.2526 9.6415 19.2309 9.76605 19.2068 9.89018C18.3659 14.2093 15.4872 15.7032 11.8108 15.7032H9.93881C9.7218 15.7034 9.51198 15.7811 9.34726 15.9224C9.18254 16.0637 9.07376 16.2592 9.04057 16.4737L8.08215 22.5502L7.80961 24.274C7.79877 24.3424 7.8029 24.4124 7.82172 24.4791C7.84054 24.5457 7.87359 24.6075 7.9186 24.6602C7.96362 24.7129 8.01952 24.7552 8.08245 24.7842C8.14538 24.8132 8.21386 24.8282 8.28314 24.8281H11.603C11.9959 24.8281 12.3298 24.542 12.3917 24.1542L12.424 23.985L13.0497 20.0195L13.0895 19.8004C13.1192 19.6124 13.2151 19.4413 13.3597 19.3178C13.5044 19.1942 13.6884 19.1264 13.8787 19.1264H14.3755C17.5915 19.1264 20.1096 17.8205 20.8455 14.0413C21.1521 12.4628 20.9931 11.1439 20.1812 10.2178C19.9233 9.93068 19.6153 9.69305 19.2721 9.51657Z" fill="#BBBBB8"/>
<path d="M18.3909 9.16717C18.2626 9.12913 18.1303 9.09506 17.9941 9.06497C17.8578 9.03488 17.717 9.00819 17.5728 8.98548C17.0674 8.90315 16.5155 8.86454 15.9228 8.86454H10.9223C10.7319 8.86431 10.5478 8.93219 10.4031 9.0559C10.2585 9.17962 10.1629 9.351 10.1336 9.53907L9.0707 16.2787L9.04004 16.4746C9.07323 16.2601 9.182 16.0646 9.34673 15.9233C9.51145 15.782 9.72126 15.7043 9.93828 15.7041H11.8103C15.4867 15.7041 18.3654 14.2108 19.2063 9.8911C19.2313 9.76335 19.2523 9.63957 19.2716 9.5175C19.0495 9.4013 18.8182 9.30368 18.58 9.22565C18.5181 9.20521 18.4551 9.18648 18.3909 9.16717Z" fill="#E8E8E4"/>
</g>
</g>
<defs>
<clipPath id="clip0_3968_641">
<rect width="89.1429" height="30" fill="white"/>
</clipPath>
</defs>
</svg>
