<svg width="83" height="16" viewBox="0 0 83 16" fill="none" xmlns="http://www.w3.org/2000/svg">
<g clip-path="url(#clip0_3968_699)">
<path d="M14.3268 0.503906C14.8782 1.38357 15.1267 2.28963 15.1267 3.43418C15.1267 7.08467 11.9006 11.8269 9.2823 15.1569H3.30183L0.90332 1.30317L6.13987 0.82293L7.40799 10.6807C8.59291 8.81609 10.0551 5.88585 10.0551 3.88803C10.0551 2.79449 9.86118 2.04965 9.55806 1.43636L14.3268 0.503906Z" fill="#FCF8F1"/>
<path d="M21.1142 6.60439C22.0779 6.60439 24.5038 6.17857 24.5038 4.84668C24.5038 4.20714 24.0357 3.88812 23.484 3.88812C22.5189 3.88812 21.2523 5.00612 21.1142 6.60439ZM21.0038 9.24218C21.0038 10.8685 21.94 11.5065 23.1811 11.5065C24.5326 11.5065 25.8266 11.1875 27.5085 10.3618L26.875 14.5172C25.69 15.0764 23.8431 15.4496 22.0505 15.4496C17.5034 15.4496 15.876 12.7859 15.876 9.45575C15.876 5.13961 18.5232 0.556641 23.9809 0.556641C26.9857 0.556641 28.6659 2.18279 28.6659 4.44711C28.6662 8.09749 23.816 9.21578 21.0038 9.24218Z" fill="#FCF8F1"/>
<path d="M43.7777 3.70192C43.7777 4.23466 43.6942 5.00739 43.6107 5.51239L42.0396 15.1038H36.9406L38.3739 6.31153C38.4011 6.07305 38.4846 5.59296 38.4846 5.32658C38.4846 4.687 38.071 4.52744 37.5737 4.52744C36.9131 4.52744 36.251 4.82019 35.8101 5.03394L34.1843 15.104H29.0566L31.3992 0.74389H35.8373L35.8934 1.89007C36.9405 1.22413 38.3191 0.503906 40.2752 0.503906C42.8669 0.503632 43.7777 1.78287 43.7777 3.70192Z" fill="#FCF8F1"/>
<path d="M58.9154 2.12864C60.3758 1.11729 61.7548 0.556641 63.6559 0.556641C66.274 0.556641 67.1848 1.83588 67.1848 3.75493C67.1848 4.2877 67.1013 5.06043 67.0183 5.56543L65.4487 15.1569H60.3483L61.8091 6.17872C61.8359 5.93871 61.8926 5.64596 61.8926 5.46026C61.8926 4.74015 61.4788 4.58045 60.9815 4.58045C60.3483 4.58045 59.7151 4.84683 59.245 5.08695L57.6195 15.157H52.5206L53.9811 6.17883C54.0079 5.93886 54.063 5.64611 54.063 5.46041C54.063 4.7403 53.6488 4.5806 53.1534 4.5806C52.4915 4.5806 51.8308 4.87334 51.3898 5.0871L49.7627 15.1572H44.6367L46.9792 0.797034H51.363L51.5008 1.99586C52.5206 1.27742 53.898 0.557187 55.7448 0.557187C57.3439 0.55664 58.3905 1.22272 58.9154 2.12864Z" fill="#FCF8F1"/>
<path d="M77.3326 6.30992C77.3326 5.13763 77.029 4.33838 76.1202 4.33838C74.1081 4.33838 73.6946 7.77485 73.6946 9.53283C73.6946 10.8665 74.0809 11.6919 74.9897 11.6919C76.8916 11.6919 77.3326 8.06775 77.3326 6.30992ZM68.5127 9.32061C68.5127 4.79207 70.993 0.554688 76.6994 0.554688C80.9993 0.554688 82.5712 3.00636 82.5712 6.39034C82.5712 10.8663 80.1177 15.5017 74.2735 15.5017C69.946 15.5017 68.5127 12.7572 68.5127 9.32061Z" fill="#FCF8F1"/>
</g>
<defs>
<clipPath id="clip0_3968_699">
<rect width="81.6667" height="15" fill="white" transform="translate(0.90332 0.5)"/>
</clipPath>
</defs>
</svg>
