<svg width="60" height="20" viewBox="0 0 60 20" fill="none" xmlns="http://www.w3.org/2000/svg">
<g clip-path="url(#clip0_3968_668)">
<path d="M26.052 19.1546H21.332L24.2842 0.900391H29.0039L26.052 19.1546Z" fill="#FCF8F1"/>
<path d="M43.1645 1.34747C42.2335 0.978119 40.7569 0.570312 38.931 0.570312C34.2699 0.570312 30.9876 3.05586 30.9675 6.60945C30.9287 9.23128 33.3175 10.6875 35.1041 11.5617C36.9302 12.455 37.5509 13.0381 37.5509 13.8343C37.5324 15.0572 36.0754 15.6209 34.7164 15.6209C32.832 15.6209 31.8223 15.3303 30.2879 14.6499L29.6663 14.3583L29.0059 18.456C30.1129 18.9603 32.1524 19.4078 34.2699 19.4275C39.2224 19.4275 42.4467 16.9804 42.4849 13.1935C42.5037 11.1154 41.2424 9.5232 38.523 8.22209C36.8721 7.38686 35.8611 6.82368 35.8611 5.96909C35.8805 5.1922 36.7162 4.39646 38.5797 4.39646C40.1142 4.35749 41.2416 4.72632 42.0957 5.09541L42.5226 5.28925L43.1645 1.34747Z" fill="#FCF8F1"/>
<path d="M49.4373 12.6878C49.826 11.6391 51.3218 7.5804 51.3218 7.5804C51.3021 7.61938 51.7097 6.51237 51.9428 5.83278L52.2726 7.40567C52.2726 7.40567 53.1664 11.7751 53.3605 12.6878C52.6229 12.6878 50.3696 12.6878 49.4373 12.6878ZM55.2635 0.900391H51.6126C50.4868 0.900391 49.6314 1.23025 49.1457 2.41495L42.1348 19.1543H47.0873C47.0873 19.1543 47.9026 16.9013 48.0779 16.4161C48.6212 16.4161 53.439 16.4161 54.1379 16.4161C54.2734 17.057 54.7011 19.1543 54.7011 19.1543H59.0714L55.2635 0.900391Z" fill="#FCF8F1"/>
<path d="M17.3905 0.900391L12.7681 13.348L12.263 10.8235C11.4084 7.91052 8.72823 4.74564 5.7373 3.17197L9.97126 19.1352H14.9625L22.3815 0.900391H17.3905Z" fill="#FCF8F1"/>
<path d="M8.47634 0.900391H0.882377L0.804688 1.26922C6.72845 2.78404 10.6516 6.43545 12.2635 10.8243L10.6127 2.43482C10.3409 1.26896 9.50566 0.938848 8.47634 0.900391Z" fill="#FCF8F1"/>
</g>
<defs>
<clipPath id="clip0_3968_668">
<rect width="58.2661" height="18.8571" fill="white" transform="translate(0.802734 0.572266)"/>
</clipPath>
</defs>
</svg>
