<?xml version="1.0" encoding="UTF-8"?>
<svg id="Calque_1" xmlns="http://www.w3.org/2000/svg" version="1.1" viewBox="0 0 272 161">
  <!-- Generator: Adobe Illustrator 29.8.0, SVG Export Plug-In . SVG Version: 2.1.1 Build 160)  -->
  <defs>
    <style>
      .st0 {
        font-size: 7px;
      }

      .st0, .st1, .st2 {
        font-family: SFProDisplay-Medium, 'SF Pro Display';
        font-weight: 500;
      }

      .st1, .st2 {
        font-size: 9px;
      }

      .st3 {
        fill: #f97316;
      }

      .st4 {
        stroke-miterlimit: 10;
      }

      .st4, .st5 {
        fill: none;
        stroke: #f97316;
      }

      .st6, .st2 {
        fill: #848484;
      }

      .st7 {
        fill: #fff;
      }

      .st5 {
        stroke-linecap: round;
        stroke-linejoin: round;
      }
    </style>
  </defs>
  <g>
    <rect class="st7" x=".5" y=".5" width="271" height="73.97" rx="11.5" ry="11.5"/>
    <path class="st6" d="M260,1c6.07,0,11,4.93,11,11v50.97c0,6.07-4.93,11-11,11H12c-6.07,0-11-4.93-11-11V12C1,5.93,5.93,1,12,1h248M260,0H12C5.4,0,0,5.4,0,12v50.97c0,6.6,5.4,12,12,12h248c6.6,0,12-5.4,12-12V12c0-6.6-5.4-12-12-12h0Z"/>
  </g>
  <g>
    <rect class="st7" x=".5" y="86.53" width="271" height="73.97" rx="11.5" ry="11.5"/>
    <path class="st6" d="M260,87.03c6.07,0,11,4.93,11,11v50.97c0,6.07-4.93,11-11,11H12c-6.07,0-11-4.93-11-11v-50.97c0-6.07,4.93-11,11-11h248M260,86.03H12c-6.6,0-12,5.4-12,12v50.97c0,6.6,5.4,12,12,12h248c6.6,0,12-5.4,12-12v-50.97c0-6.6-5.4-12-12-12h0Z"/>
  </g>
  <text class="st1" transform="translate(15.83 16.94)"><tspan x="0" y="0">Welcome DM</tspan></text>
  <g>
    <path class="st5" d="M11.19,16.9c-.36.15-.76.22-1.18.22-1.81,0-3.27-1.45-3.27-3.26s1.47-3.26,3.27-3.26,3.26,1.45,3.26,3.26c0,.41-.07.81-.22,1.16h0v.04"/>
    <path class="st5" d="M13.06,15.03c0,.23,0,.59.13,1.02.21.7.56,1.05.45,1.19-.12.15-.56-.19-1.33-.33-.46-.07-.86-.05-1.11,0"/>
  </g>
  <g>
    <rect class="st4" x="196" y="7.99" width="61.36" height="11.77" rx="5.89" ry="5.89"/>
    <path d="M201.8,17.64c-.1,0-.19-.04-.26-.1-.11-.1-.14-.25-.1-.39l.29-.88c.11-.32.16-.48.24-.64.07-.15.16-.29.26-.42.11-.15.23-.27.47-.5l.23.23h0s-.23-.23-.23-.23l.34-.34h0s3.92-3.92,3.92-3.92c.44-.44,1.16-.44,1.6,0,.44.44.44,1.16,0,1.6l-3.98,3.98s0,0,0,0l-.33.33c-.21.21-.32.32-.45.42-.12.09-.24.17-.37.24-.15.08-.29.13-.57.24l-.92.35s-.09.03-.14.03ZM202.93,15.54s-.07.08-.09.11c-.07.09-.13.19-.18.3-.06.12-.11.26-.2.55l-.04.13.17-.07c.25-.1.38-.15.48-.2.09-.05.18-.11.26-.17.02-.02.04-.03.06-.05h-.08c-.21,0-.38-.17-.38-.38v-.21ZM203.68,15.38h.47l3.87-3.87c.15-.15.15-.39,0-.53-.15-.15-.39-.15-.53,0l-3.81,3.81v.6Z"/>
    <text class="st0" transform="translate(212.31 16.08)"><tspan x="0" y="0">Customize</tspan></text>
  </g>
  <path class="st3" d="M10.83,107.31c-.15-.11-.25-.28-.26-.47l-.22-3.7c-.08-.05-.17-.11-.26-.17l-1.08,1.53c-.2.28-.59.35-.87.15s-.35-.59-.15-.87l1.08-1.53c-.09-.07-.17-.13-.25-.19l-3.56,1.03c-.25.07-.53-.02-.68-.24-.15-.22-.15-.5,0-.72l1.78-2.51c.09-.13.15-.21.24-.3.08-.08.17-.14.27-.19.11-.06.21-.09.36-.13l1.37-.39c.07-.1.15-.21.23-.33l1.4-1.98s.02-.03.03-.05c0,0,0,0,0,0,0,0,0,0,0-.01.07-.1.13-.18.21-.25.09-.08.19-.15.3-.2.12-.06.23-.08.39-.12l3.28-.76c.17-.04.36,0,.5.1s.24.26.26.44l.37,3.35c.02.17.03.28.02.41-.01.12-.04.24-.09.35-.04.1-.1.18-.17.29,0,0,0,0,0,.01,0,0,0,0,0,0-.01.02-.02.03-.03.05l-1.4,1.98c-.08.12-.16.23-.23.33l.08,1.42c0,.16.02.26,0,.38-.02.11-.05.22-.09.32-.05.12-.11.2-.2.33l-1.78,2.51c-.15.22-.43.31-.68.24-.07-.02-.13-.05-.19-.09ZM7.45,100.23s-.05.06-.08.11l-.75,1.06,1.39-.4c-.1-.29-.14-.59-.11-.9l-.33.09s-.1.03-.13.04ZM11.62,103.55l.09,1.44.75-1.06s.06-.08.07-.11c0-.03,0-.08,0-.13l-.02-.34c-.28.13-.58.19-.88.2ZM12.53,103.84h0s0,0,0,0ZM7.44,100.23s0,0,0,0c0,0,0,0,0,0ZM7.46,100.22s0,0,0,0c0,0,0,0,0,0ZM12.54,103.81s0,0,0,0c0,0,0,0,0,0ZM10.93,97.46l-1.08,1.53c-.42.59-.67.95-.7,1.17-.03.2,0,.39.1.57.07.13.25.29.54.51l.72-1.01c.2-.28.59-.35.87-.15s.35.59.15.87l-.72,1.01c.3.2.51.32.66.34.2.03.39,0,.57-.1.2-.1.45-.46.87-1.05l1.08-1.53-3.05-2.16ZM12.05,96.73l2.25,1.6-.23-2.07-2.03.47Z"/>
  <text class="st1" transform="translate(17.75 103.37)"><tspan x="0" y="0">DM prospecting</tspan></text>
  <g>
    <rect class="st4" x="196" y="93.72" width="61.36" height="11.77" rx="5.89" ry="5.89"/>
    <path d="M201.8,103.37c-.1,0-.19-.04-.26-.1-.11-.1-.14-.25-.1-.39l.29-.88c.11-.32.16-.48.24-.64.07-.15.16-.29.26-.42.11-.15.23-.27.47-.5l.23.23h0s-.23-.23-.23-.23l.34-.34h0s3.92-3.92,3.92-3.92c.44-.44,1.16-.44,1.6,0,.44.44.44,1.16,0,1.6l-3.98,3.98s0,0,0,0l-.33.33c-.21.21-.32.32-.45.42-.12.09-.24.17-.37.24-.15.08-.29.13-.57.24l-.92.35s-.09.03-.14.03ZM202.93,101.28s-.07.08-.09.11c-.07.09-.13.19-.18.3-.06.12-.11.26-.2.55l-.04.13.17-.07c.25-.1.38-.15.48-.2.09-.05.18-.11.26-.17.02-.02.04-.03.06-.05h-.08c-.21,0-.38-.17-.38-.38v-.21ZM203.68,101.11h.47l3.87-3.87c.15-.15.15-.39,0-.53-.15-.15-.39-.15-.53,0l-3.81,3.81v.6Z"/>
    <text class="st0" transform="translate(212.31 101.82)"><tspan x="0" y="0">Customize</tspan></text>
  </g>
  <text class="st2" transform="translate(18.33 126.5)"><tspan x="0" y="0">Message sent to people who do not follow you, to prospect </tspan><tspan x="0" y="10.8">and create opportunities. </tspan></text>
  <text class="st2" transform="translate(18.92 42.83)"><tspan x="0" y="0">Automatic message sent to new subscribers to welcome </tspan><tspan x="0" y="10.8">them and start a conversation. </tspan></text>
</svg>