<?xml version="1.0" encoding="UTF-8"?>
<svg id="Calque_1" xmlns="http://www.w3.org/2000/svg" xmlns:xlink="http://www.w3.org/1999/xlink" version="1.1" viewBox="0 0 276 164">
  <!-- Generator: Adobe Illustrator 29.8.0, SVG Export Plug-In . SVG Version: 2.1.1 Build 160)  -->
  <defs>
    <style>
      .st0, .st1, .st2, .st3 {
        fill: none;
      }

      .st4 {
        fill: #242429;
      }

      .st5 {
        fill: #0198fd;
      }

      .st6 {
        fill: #d9d9d9;
      }

      .st7 {
        fill: #f97316;
      }

      .st8 {
        clip-path: url(#clippath-1);
      }

      .st9 {
        clip-path: url(#clippath-2);
      }

      .st10 {
        fill: #fff;
      }

      .st11 {
        fill: #8d8d8d;
      }

      .st12 {
        clip-path: url(#clippath);
      }

      .st1 {
        stroke: url(#Dégradé_sans_nom_3);
      }

      .st1, .st2, .st3 {
        stroke-width: .75px;
      }

      .st2 {
        stroke: url(#Dégradé_sans_nom_2);
      }

      .st3 {
        stroke: url(#Dégradé_sans_nom);
      }
    </style>
    <clipPath id="clippath">
      <path class="st0" d="M15,0h0C22.73,0,29,6.27,29,14s-6.27,14-14,14S1,21.73,1,14,7.27,0,15,0Z"/>
    </clipPath>
    <linearGradient id="Dégradé_sans_nom" data-name="Dégradé sans nom" x1="1" y1="163.89" x2="29" y2="135.89" gradientTransform="translate(0 163.89) scale(1 -1)" gradientUnits="userSpaceOnUse">
      <stop offset="0" stop-color="#a06df6"/>
      <stop offset=".25" stop-color="#d174cd"/>
      <stop offset=".5" stop-color="#ff76af"/>
      <stop offset=".75" stop-color="#fd918f"/>
      <stop offset="1" stop-color="#fcab73"/>
    </linearGradient>
    <clipPath id="clippath-1">
      <path class="st0" d="M15,47h0c7.73,0,14,6.27,14,14s-6.27,14-14,14-14-6.27-14-14,6.27-14,14-14Z"/>
    </clipPath>
    <linearGradient id="Dégradé_sans_nom_2" data-name="Dégradé sans nom 2" x1="1" y1="116.89" x2="29" y2="88.89" gradientTransform="translate(0 163.89) scale(1 -1)" gradientUnits="userSpaceOnUse">
      <stop offset="0" stop-color="#a06df6"/>
      <stop offset=".25" stop-color="#d174cd"/>
      <stop offset=".5" stop-color="#ff76af"/>
      <stop offset=".75" stop-color="#fd918f"/>
      <stop offset="1" stop-color="#fcab73"/>
    </linearGradient>
    <clipPath id="clippath-2">
      <path class="st0" d="M15,94h0c7.73,0,14,6.27,14,14s-6.27,14-14,14-14-6.27-14-14,6.27-14,14-14Z"/>
    </clipPath>
    <linearGradient id="Dégradé_sans_nom_3" data-name="Dégradé sans nom 3" x1="1" y1="69.89" x2="29" y2="41.89" gradientTransform="translate(0 163.89) scale(1 -1)" gradientUnits="userSpaceOnUse">
      <stop offset="0" stop-color="#a06df6"/>
      <stop offset=".25" stop-color="#d174cd"/>
      <stop offset=".5" stop-color="#ff76af"/>
      <stop offset=".75" stop-color="#fd918f"/>
      <stop offset="1" stop-color="#fcab73"/>
    </linearGradient>
  </defs>
  <g class="st12">
    <g>
      <circle class="st6" cx="15" cy="14" r="14"/>
      <rect class="st0" x="1" y="0" width="28" height="28"/>
    </g>
  </g>
  <path class="st3" d="M15,.38h0c7.52,0,13.62,6.1,13.62,13.62h0c0,7.52-6.1,13.62-13.62,13.62h0c-7.52,0-13.62-6.1-13.62-13.62h0C1.38,6.48,7.48.38,15,.38Z"/>
  <path class="st10" d="M38.61,10.13c-.63,0-1.18-.14-1.64-.43-.45-.29-.8-.69-1.05-1.2s-.37-1.09-.37-1.75.12-1.25.38-1.76c.25-.51.6-.91,1.06-1.2.45-.29.99-.43,1.61-.43.5,0,.94.09,1.33.28.39.18.7.44.94.77.24.33.38.71.43,1.15h-1.24c-.07-.31-.22-.57-.47-.79-.24-.22-.57-.33-.97-.33-.36,0-.67.09-.93.28-.26.18-.47.45-.62.79-.15.34-.22.74-.22,1.21s.07.89.22,1.24c.14.35.35.62.61.81.27.19.58.29.94.29.24,0,.46-.04.66-.13.2-.09.37-.22.5-.39.14-.17.23-.37.29-.61h1.24c-.05.42-.18.8-.41,1.13-.23.33-.54.59-.92.78-.38.19-.83.29-1.35.29ZM48.02,3.45l-2.37,6.55h-1.36l-2.38-6.55h1.37l1.66,5.04h.07l1.65-5.04h1.37ZM50.26,1.27v8.73h-1.27V1.27h1.27ZM53.64,10.14c-.41,0-.79-.08-1.12-.23-.34-.16-.6-.38-.8-.68-.19-.3-.29-.66-.29-1.09,0-.37.07-.67.21-.91.14-.24.33-.43.58-.57.24-.14.51-.24.81-.32.3-.07.6-.12.91-.16.39-.05.71-.08.95-.11.24-.03.42-.08.53-.15.11-.07.17-.18.17-.33v-.03c0-.37-.11-.66-.32-.87-.21-.2-.52-.31-.93-.31s-.77.1-1.01.29c-.24.19-.41.4-.51.63l-1.2-.27c.14-.4.35-.72.62-.96.28-.25.59-.43.95-.54.36-.11.73-.17,1.13-.17.26,0,.54.03.83.09.3.06.57.17.83.33.26.16.47.39.63.69.16.3.25.69.25,1.16v4.35h-1.24v-.89h-.05c-.08.16-.21.33-.37.49-.16.16-.38.29-.63.4-.26.11-.57.16-.93.16ZM53.91,9.12c.35,0,.65-.07.9-.21.25-.14.44-.32.58-.55.13-.23.2-.47.2-.73v-.84s-.13.09-.26.13c-.13.04-.27.07-.44.1-.16.03-.33.05-.48.07-.16.02-.29.04-.39.05-.25.03-.47.08-.68.16-.2.07-.36.18-.49.32-.12.14-.18.32-.18.55,0,.32.12.55.35.72.23.16.53.24.89.24ZM61.07,12.59c-.52,0-.97-.07-1.34-.2-.37-.14-.68-.32-.91-.54-.24-.22-.41-.47-.53-.74l1.1-.45c.08.12.18.26.31.4.13.14.31.26.53.36.22.1.51.15.86.15.48,0,.88-.12,1.2-.35.32-.23.47-.61.47-1.12v-1.29h-.08c-.08.14-.19.29-.33.46-.14.17-.34.32-.59.44s-.58.19-.98.19c-.52,0-.98-.12-1.4-.36-.41-.24-.74-.6-.98-1.08-.24-.48-.36-1.06-.36-1.76s.12-1.29.35-1.79c.24-.5.57-.88.98-1.14.41-.27.88-.4,1.41-.4.41,0,.73.07.98.2.25.13.44.29.58.47.14.18.25.34.33.47h.09v-1.06h1.25v6.69c0,.56-.13,1.02-.39,1.38-.26.36-.62.63-1.06.8-.44.17-.94.26-1.5.26ZM61.05,8.85c.37,0,.68-.09.93-.26.26-.17.45-.42.58-.74.13-.32.2-.71.2-1.16s-.07-.83-.2-1.16c-.13-.34-.32-.6-.58-.78-.25-.19-.57-.29-.94-.29s-.7.1-.96.3c-.26.2-.45.46-.58.8-.13.34-.19.72-.19,1.13s.07.81.2,1.13c.13.32.32.58.58.76.26.18.58.27.95.27ZM68.31,10.13c-.64,0-1.2-.14-1.67-.41-.46-.28-.82-.67-1.07-1.17-.25-.51-.38-1.1-.38-1.78s.12-1.26.38-1.77c.25-.51.61-.91,1.06-1.2.45-.29.99-.43,1.59-.43.37,0,.73.06,1.07.18.35.12.66.31.93.58.28.26.49.6.65,1.02.16.41.24.92.24,1.51v.45h-5.2v-.95h3.95c0-.34-.07-.63-.2-.89-.14-.26-.33-.47-.58-.62-.24-.15-.53-.23-.86-.23-.36,0-.67.09-.94.26-.26.17-.47.4-.61.68-.14.28-.21.58-.21.91v.75c0,.44.08.81.23,1.12.16.31.37.54.65.7.28.16.6.24.98.24.24,0,.46-.03.66-.1.2-.07.37-.18.52-.32.14-.14.26-.31.33-.52l1.21.22c-.1.36-.27.67-.52.93-.25.26-.56.47-.93.62-.37.14-.8.22-1.27.22ZM72.29,10V3.45h1.23v1.04h.07c.12-.35.33-.63.63-.83.3-.2.65-.31,1.03-.31.08,0,.17,0,.28,0,.11,0,.2.01.26.02v1.22c-.05-.01-.14-.03-.27-.05-.13-.02-.26-.03-.39-.03-.3,0-.57.06-.81.19-.23.12-.42.3-.55.52-.14.22-.2.47-.2.76v4h-1.27Z"/>
  <path class="st11" d="M43.21,20.11h-1.33c-.05-.28-.15-.53-.29-.75-.14-.22-.31-.4-.51-.55-.2-.15-.43-.26-.68-.34-.25-.08-.51-.12-.79-.12-.5,0-.95.13-1.35.38-.39.25-.71.62-.94,1.11-.23.49-.34,1.09-.34,1.79s.11,1.31.34,1.8c.23.49.54.86.94,1.11.4.25.85.38,1.34.38.28,0,.54-.04.78-.11.25-.08.48-.19.68-.34.2-.15.37-.33.51-.54.14-.22.24-.46.29-.74h1.33c-.07.43-.21.83-.41,1.19-.2.36-.46.67-.78.93-.32.26-.68.46-1.08.6-.41.14-.85.21-1.33.21-.76,0-1.43-.18-2.02-.54-.59-.36-1.06-.88-1.4-1.55-.34-.67-.51-1.47-.51-2.4s.17-1.73.51-2.4c.34-.67.81-1.18,1.4-1.54.59-.36,1.26-.54,2.02-.54.46,0,.89.07,1.3.2.4.13.77.32,1.09.58.32.25.59.56.8.93.21.36.35.78.43,1.25ZM45.71,22.11v3.89h-1.27v-8.73h1.26v3.25h.08c.15-.35.39-.63.7-.84.32-.21.73-.31,1.24-.31.45,0,.84.09,1.18.28.34.18.6.46.78.83.19.36.28.82.28,1.36v4.16h-1.27v-4.01c0-.48-.12-.85-.37-1.12-.25-.27-.59-.4-1.03-.4-.3,0-.57.06-.81.19-.24.13-.42.32-.56.56-.13.24-.2.54-.2.89ZM51.42,26v-6.55h1.23v1.04h.07c.12-.35.33-.63.63-.83.3-.2.65-.31,1.03-.31.08,0,.17,0,.28,0,.11,0,.2.01.26.02v1.22c-.05-.01-.14-.03-.27-.05-.13-.02-.26-.03-.39-.03-.3,0-.57.06-.81.19-.23.12-.42.3-.55.52-.14.22-.2.47-.2.76v4h-1.27ZM55.78,26v-6.55h1.27v6.55h-1.27ZM56.43,18.44c-.22,0-.41-.07-.57-.22-.16-.15-.23-.33-.23-.54s.08-.39.23-.54c.16-.15.35-.23.57-.23s.41.08.57.23c.16.15.24.33.24.54s-.08.39-.24.54c-.16.15-.35.22-.57.22ZM63.44,21.05l-1.15.2c-.05-.15-.12-.29-.23-.42-.1-.13-.24-.24-.42-.33-.18-.09-.4-.13-.66-.13-.36,0-.66.08-.9.24-.24.16-.36.36-.36.62,0,.22.08.39.24.53.16.13.42.24.78.33l1.04.24c.6.14,1.05.35,1.35.64.3.29.44.67.44,1.13,0,.39-.11.74-.34,1.05-.22.3-.54.54-.94.72-.4.17-.87.26-1.39.26-.73,0-1.33-.16-1.79-.47-.46-.32-.75-.76-.85-1.34l1.23-.19c.08.32.23.56.47.73.24.16.55.24.93.24.42,0,.75-.09,1-.26.25-.18.38-.39.38-.64,0-.2-.08-.38-.23-.52-.15-.14-.38-.24-.69-.32l-1.11-.24c-.61-.14-1.06-.36-1.36-.66-.29-.3-.43-.69-.43-1.15,0-.39.11-.72.32-1.01.22-.29.51-.52.89-.68.38-.16.82-.25,1.31-.25.71,0,1.26.15,1.67.46.41.3.67.71.81,1.22ZM67.76,26v-8.73h1.32v7.59h3.95v1.13h-5.27ZM76.1,26.14c-.41,0-.79-.08-1.12-.23-.34-.16-.6-.38-.8-.68-.19-.3-.29-.66-.29-1.09,0-.37.07-.67.21-.91.14-.24.33-.43.58-.57s.51-.24.81-.32c.3-.07.6-.12.91-.16.39-.05.71-.08.95-.11.24-.03.42-.08.53-.15.11-.07.17-.18.17-.33v-.03c0-.37-.11-.66-.32-.86-.21-.2-.52-.31-.93-.31s-.77.1-1.01.29c-.24.19-.41.4-.51.63l-1.2-.27c.14-.4.35-.72.62-.96.28-.25.59-.43.95-.54.36-.11.73-.17,1.13-.17.26,0,.54.03.83.09.3.06.57.17.83.33.26.16.47.39.63.69.16.3.25.69.25,1.16v4.35h-1.24v-.89h-.05c-.08.16-.21.33-.37.49-.16.16-.38.29-.63.4-.26.11-.57.16-.93.16ZM76.38,25.12c.35,0,.65-.07.9-.21.25-.14.44-.32.58-.55.13-.23.2-.47.2-.73v-.84s-.13.09-.26.13c-.13.04-.27.07-.44.1-.16.03-.33.05-.48.07-.16.02-.29.04-.39.05-.25.03-.47.08-.68.16-.2.07-.36.18-.49.32-.12.14-.18.32-.18.55,0,.32.12.55.35.72.23.16.53.24.89.24ZM83.53,28.59c-.52,0-.97-.07-1.34-.2-.37-.14-.68-.32-.91-.54-.24-.22-.41-.47-.53-.74l1.1-.45c.08.12.18.26.31.4.13.14.31.26.53.36.22.1.51.15.87.15.48,0,.88-.12,1.2-.35.32-.23.47-.61.47-1.12v-1.29h-.08c-.08.14-.19.29-.33.46-.14.17-.34.32-.59.44s-.58.19-.98.19c-.52,0-.98-.12-1.4-.36-.41-.24-.74-.6-.98-1.08-.24-.48-.36-1.06-.36-1.76s.12-1.29.35-1.79c.24-.5.57-.88.98-1.14.41-.27.88-.4,1.41-.4.41,0,.73.07.98.2.25.13.44.29.58.47.14.18.25.34.33.47h.09v-1.06h1.25v6.69c0,.56-.13,1.02-.39,1.38s-.62.63-1.06.8c-.44.17-.94.26-1.5.26ZM83.52,24.85c.37,0,.68-.09.93-.26.26-.17.45-.42.58-.74.13-.32.2-.71.2-1.16s-.07-.83-.2-1.16c-.13-.34-.32-.6-.58-.78-.25-.19-.57-.29-.94-.29s-.7.1-.96.3c-.26.2-.45.46-.58.8-.13.34-.19.72-.19,1.13s.07.81.2,1.13c.13.32.32.58.58.76.26.18.58.27.95.27ZM90.78,26.13c-.64,0-1.2-.14-1.67-.41-.46-.28-.82-.67-1.07-1.17-.25-.51-.38-1.1-.38-1.78s.12-1.26.38-1.77c.25-.51.61-.91,1.06-1.2.45-.29.99-.43,1.59-.43.37,0,.73.06,1.07.18.35.12.66.31.93.58.28.26.49.6.65,1.02.16.41.24.92.24,1.51v.45h-5.2v-.95h3.95c0-.34-.07-.63-.2-.89-.14-.26-.33-.47-.58-.62-.24-.15-.53-.23-.86-.23-.36,0-.67.09-.94.26-.26.17-.47.4-.61.68-.14.28-.21.58-.21.91v.75c0,.44.08.81.23,1.12.16.31.37.54.65.7.28.16.6.24.98.24.24,0,.46-.03.66-.1.2-.07.37-.18.52-.32.14-.14.26-.31.33-.52l1.21.22c-.1.36-.27.67-.52.93-.25.26-.56.47-.93.62-.37.14-.8.22-1.27.22ZM94.76,26v-6.55h1.23v1.04h.07c.12-.35.33-.63.63-.83.3-.2.65-.31,1.03-.31.08,0,.17,0,.28,0,.11,0,.2.01.26.02v1.22c-.05-.01-.14-.03-.27-.05-.13-.02-.26-.03-.39-.03-.3,0-.57.06-.81.19-.23.12-.42.3-.55.52-.14.22-.2.47-.2.76v4h-1.27Z"/>
  <rect class="st5" x="205" y="3" width="71" height="22" rx="4" ry="4"/>
  <path class="st10" d="M213.8,18v-7.27h4.51v.94h-3.41v2.22h3.09v.94h-3.09v3.17h-1.1ZM221.27,18.11c-.51,0-.96-.12-1.34-.35-.38-.23-.68-.56-.89-.98-.21-.42-.32-.91-.32-1.48s.1-1.06.32-1.48c.21-.42.51-.75.89-.99.38-.23.83-.35,1.34-.35s.96.12,1.34.35c.38.23.68.56.89.99s.32.92.32,1.48-.11,1.06-.32,1.48-.51.75-.89.98c-.38.23-.83.35-1.34.35ZM221.27,17.22c.33,0,.61-.09.82-.26.22-.18.38-.41.48-.7.11-.29.16-.61.16-.96s-.05-.67-.16-.96c-.1-.29-.26-.53-.48-.71-.22-.18-.49-.27-.82-.27s-.61.09-.83.27c-.22.18-.38.41-.49.71-.1.29-.16.61-.16.96s.05.67.16.96c.11.29.27.52.49.7.22.18.5.26.83.26ZM225.86,10.73v7.27h-1.06v-7.27h1.06ZM228.15,10.73v7.27h-1.06v-7.27h1.06ZM231.68,18.11c-.51,0-.96-.12-1.34-.35-.38-.23-.68-.56-.89-.98-.21-.42-.32-.91-.32-1.48s.1-1.06.32-1.48c.21-.42.51-.75.89-.99.38-.23.83-.35,1.34-.35s.96.12,1.34.35.68.56.89.99c.21.42.32.92.32,1.48s-.11,1.06-.32,1.48c-.21.42-.51.75-.89.98-.38.23-.83.35-1.34.35ZM231.68,17.22c.33,0,.61-.09.82-.26.22-.18.38-.41.48-.7.11-.29.16-.61.16-.96s-.05-.67-.16-.96c-.1-.29-.27-.53-.48-.71-.22-.18-.49-.27-.82-.27s-.61.09-.83.27c-.22.18-.38.41-.49.71-.1.29-.16.61-.16.96s.05.67.16.96c.11.29.27.52.49.7.22.18.5.26.83.26ZM236.22,18l-1.61-5.45h1.1l1.07,4.01h.05l1.07-4.01h1.1l1.07,3.99h.05l1.06-3.99h1.1l-1.6,5.45h-1.08l-1.11-3.94h-.08l-1.11,3.94h-1.08ZM245.62,18v-7.27h1.06v2.7h.06c.06-.11.15-.24.27-.39.12-.15.28-.28.48-.39.21-.11.48-.17.82-.17.44,0,.83.11,1.18.33.35.22.62.54.81.96.2.42.3.92.3,1.51s-.1,1.09-.29,1.52c-.2.42-.47.74-.81.97-.34.22-.74.34-1.18.34-.33,0-.6-.06-.81-.17-.21-.11-.37-.24-.49-.39-.12-.15-.21-.28-.27-.4h-.09v.85h-1.04ZM246.66,15.27c0,.38.06.72.17,1.01.11.29.27.51.48.68.21.16.47.24.77.24s.58-.08.8-.25c.21-.17.37-.4.48-.69.11-.29.17-.62.17-.98s-.05-.68-.16-.97c-.11-.29-.27-.51-.48-.68-.21-.17-.48-.25-.8-.25s-.57.08-.78.24c-.21.16-.37.38-.48.66-.11.28-.16.62-.16.99ZM253.18,18.12c-.35,0-.66-.06-.94-.19-.28-.13-.5-.32-.66-.56-.16-.25-.24-.55-.24-.91,0-.31.06-.56.18-.76.12-.2.28-.36.48-.47.2-.12.43-.2.68-.26.25-.06.5-.1.76-.14.33-.04.59-.07.8-.09.2-.03.35-.07.44-.12.09-.06.14-.15.14-.28v-.02c0-.31-.09-.55-.26-.72-.17-.17-.43-.26-.77-.26s-.64.08-.85.24c-.2.16-.35.33-.42.52l-1-.23c.12-.33.29-.6.52-.8.23-.21.49-.36.79-.45.3-.09.61-.14.94-.14.22,0,.45.03.69.08.25.05.48.14.69.28.22.14.39.33.53.58.14.25.21.57.21.97v3.62h-1.04v-.75h-.04c-.07.14-.17.27-.31.4-.14.13-.31.24-.53.33-.22.09-.47.13-.77.13ZM253.41,17.27c.29,0,.54-.06.75-.17.21-.12.37-.27.48-.45.11-.19.17-.39.17-.61v-.7s-.11.07-.22.11c-.11.03-.23.06-.37.08-.14.02-.27.04-.4.06-.13.02-.24.03-.33.04-.21.03-.4.07-.57.13-.17.06-.3.15-.4.27-.1.11-.15.27-.15.45,0,.26.1.46.29.6.19.13.44.2.74.2ZM259.39,18.11c-.53,0-.98-.12-1.36-.36-.38-.24-.67-.57-.87-1-.2-.42-.3-.91-.3-1.46s.1-1.04.31-1.47c.21-.43.5-.76.88-1,.38-.24.83-.36,1.34-.36.41,0,.78.08,1.11.23.32.15.59.36.79.64.2.27.32.6.36.96h-1.03c-.06-.26-.19-.48-.39-.66-.2-.18-.47-.28-.81-.28-.3,0-.56.08-.78.23-.22.15-.39.37-.52.66-.12.28-.18.62-.18,1.01s.06.74.18,1.03c.12.29.29.51.51.67.22.16.48.24.79.24.2,0,.38-.04.55-.11.17-.08.3-.18.42-.32.11-.14.19-.31.24-.5h1.03c-.04.35-.15.67-.35.94-.19.28-.45.49-.77.65-.32.16-.7.24-1.13.24ZM263.54,16.15v-1.3s.18,0,.18,0l2.17-2.31h1.27l-2.48,2.63h-.17l-.98.98ZM262.56,18v-7.27h1.06v7.27h-1.06ZM266.01,18l-1.95-2.59.73-.74,2.52,3.33h-1.3Z"/>
  <g class="st8">
    <g>
      <circle class="st6" cx="15" cy="61" r="14"/>
      <rect class="st0" x="1" y="47" width="28" height="28"/>
    </g>
  </g>
  <path class="st2" d="M15,47.38h0c7.52,0,13.62,6.1,13.62,13.62h0c0,7.52-6.1,13.62-13.62,13.62h0c-7.52,0-13.62-6.1-13.62-13.62h0c0-7.52,6.1-13.62,13.62-13.62Z"/>
  <path class="st10" d="M38.61,57.13c-.63,0-1.18-.14-1.64-.43-.45-.29-.8-.69-1.05-1.2-.24-.51-.37-1.09-.37-1.75s.12-1.25.38-1.76c.25-.51.6-.91,1.06-1.2.45-.29.99-.43,1.61-.43.5,0,.94.09,1.33.28.39.18.7.44.94.77.24.33.38.71.43,1.15h-1.24c-.07-.31-.22-.57-.47-.79-.24-.22-.57-.33-.97-.33-.36,0-.67.09-.93.28-.26.18-.47.45-.62.79-.15.34-.22.74-.22,1.21s.07.89.22,1.24c.14.35.35.61.61.81.27.19.58.29.94.29.24,0,.46-.04.66-.13.2-.09.37-.22.5-.39.14-.17.23-.37.29-.61h1.24c-.05.42-.18.8-.41,1.13-.23.33-.54.59-.92.78-.38.19-.83.29-1.35.29ZM44.33,57.14c-.41,0-.79-.08-1.12-.23-.34-.16-.6-.38-.8-.68-.19-.3-.29-.66-.29-1.09,0-.37.07-.67.21-.91.14-.24.33-.43.58-.57.24-.14.51-.24.81-.32.3-.07.6-.12.91-.16.39-.05.71-.08.95-.11.24-.03.42-.08.53-.15.11-.07.17-.18.17-.33v-.03c0-.37-.11-.66-.32-.86-.21-.2-.52-.31-.93-.31s-.77.1-1.01.29c-.24.19-.41.4-.51.63l-1.2-.27c.14-.4.35-.72.62-.96.28-.25.59-.43.95-.54.36-.11.73-.17,1.13-.17.26,0,.54.03.83.09.3.06.57.17.83.33.26.16.47.39.63.69.16.3.25.69.25,1.16v4.35h-1.24v-.89h-.05c-.08.16-.21.33-.37.49-.16.16-.38.29-.64.4-.26.11-.57.16-.93.16ZM44.61,56.12c.35,0,.65-.07.9-.21.25-.14.44-.32.58-.55.13-.23.2-.47.2-.73v-.84s-.13.09-.26.13c-.13.04-.27.07-.44.1-.16.03-.33.05-.48.07-.16.02-.29.04-.39.05-.25.03-.47.08-.68.16-.2.07-.36.18-.49.32-.12.14-.18.32-.18.55,0,.32.12.55.35.72.23.16.53.24.89.24ZM50.29,53.11v3.89h-1.27v-6.55h1.22v1.07h.08c.15-.35.39-.62.71-.84.32-.21.73-.32,1.22-.32.45,0,.84.09,1.17.28.34.18.6.46.78.83.18.37.28.82.28,1.36v4.16h-1.27v-4.01c0-.47-.12-.85-.37-1.11-.25-.27-.59-.4-1.02-.4-.3,0-.56.06-.79.19-.23.13-.41.32-.54.56-.13.24-.2.54-.2.89ZM58.71,57.13c-.63,0-1.18-.14-1.64-.43-.45-.29-.8-.69-1.05-1.2-.24-.51-.37-1.09-.37-1.75s.12-1.25.38-1.76c.25-.51.6-.91,1.06-1.2.45-.29.99-.43,1.61-.43.5,0,.94.09,1.33.28.39.18.7.44.94.77.24.33.38.71.43,1.15h-1.24c-.07-.31-.22-.57-.47-.79-.24-.22-.57-.33-.97-.33-.36,0-.67.09-.93.28-.26.18-.47.45-.62.79-.15.34-.22.74-.22,1.21s.07.89.22,1.24c.14.35.35.61.61.81.27.19.58.29.94.29.24,0,.46-.04.66-.13.2-.09.37-.22.5-.39.14-.17.23-.37.29-.61h1.24c-.05.42-.18.8-.41,1.13-.23.33-.54.59-.92.78-.38.19-.83.29-1.35.29ZM62.52,57v-6.55h1.23v1.04h.07c.12-.35.33-.63.63-.83.3-.2.65-.31,1.03-.31.08,0,.17,0,.28,0,.11,0,.2.01.26.02v1.22c-.05-.01-.14-.03-.27-.05-.13-.02-.26-.03-.39-.03-.3,0-.57.06-.81.19-.23.12-.42.3-.55.52-.14.22-.2.47-.2.76v4h-1.27ZM66.88,57v-6.55h1.27v6.55h-1.27ZM67.53,49.44c-.22,0-.41-.07-.57-.22-.16-.15-.23-.33-.23-.54s.08-.39.23-.54c.16-.15.35-.23.57-.23s.41.08.57.23c.16.15.24.33.24.54s-.08.39-.24.54c-.16.15-.35.22-.57.22ZM72.08,57.13c-.53,0-1-.13-1.41-.4-.41-.27-.74-.66-.97-1.16-.23-.51-.35-1.11-.35-1.82s.12-1.31.35-1.82c.24-.5.57-.89.98-1.15.41-.27.88-.4,1.41-.4.41,0,.73.07.98.2.25.13.44.29.58.47.14.18.25.34.32.47h.08v-3.24h1.27v8.73h-1.24v-1.02h-.11c-.08.14-.19.3-.33.48-.14.18-.34.34-.59.47-.25.13-.57.2-.97.2ZM72.36,56.04c.37,0,.68-.1.93-.29.26-.2.45-.47.58-.81.13-.35.2-.75.2-1.21s-.07-.85-.2-1.19-.32-.61-.58-.8c-.25-.19-.57-.29-.94-.29s-.7.1-.96.3-.45.47-.58.81c-.13.34-.19.73-.19,1.16s.07.83.2,1.18c.13.35.32.63.58.83.26.2.58.3.95.3ZM79.72,57.13c-.64,0-1.2-.14-1.67-.41-.46-.28-.82-.67-1.07-1.17-.25-.51-.38-1.1-.38-1.78s.12-1.26.38-1.77c.25-.51.61-.91,1.06-1.2.45-.29.99-.43,1.59-.43.37,0,.73.06,1.07.18.35.12.66.31.93.58.28.26.49.6.65,1.02.16.41.24.92.24,1.51v.45h-5.2v-.95h3.95c0-.34-.07-.63-.2-.89-.14-.26-.33-.47-.58-.62-.24-.15-.53-.23-.86-.23-.36,0-.67.09-.94.26-.26.17-.47.4-.61.68-.14.28-.21.58-.21.91v.75c0,.44.08.81.23,1.12.16.31.37.54.65.7.28.16.6.24.98.24.24,0,.46-.03.66-.1.2-.07.37-.18.52-.32.14-.14.26-.31.33-.52l1.21.22c-.1.36-.27.67-.52.93-.25.26-.56.47-.93.62-.37.14-.8.22-1.27.22ZM88.61,52.05l-1.15.2c-.05-.15-.12-.29-.23-.42-.1-.13-.24-.24-.42-.33-.18-.09-.4-.13-.66-.13-.36,0-.66.08-.9.24-.24.16-.36.37-.36.62,0,.22.08.39.24.53.16.13.42.24.78.33l1.04.24c.6.14,1.05.35,1.35.64.3.29.44.67.44,1.13,0,.39-.11.74-.34,1.05-.22.3-.54.54-.94.72-.4.17-.87.26-1.39.26-.73,0-1.33-.16-1.79-.47-.46-.32-.75-.76-.85-1.34l1.23-.19c.08.32.23.56.47.73.24.16.55.24.93.24.42,0,.75-.09,1-.26.25-.18.38-.39.38-.64,0-.2-.08-.38-.23-.52-.15-.14-.38-.24-.69-.32l-1.11-.24c-.61-.14-1.06-.36-1.36-.66-.29-.3-.43-.69-.43-1.15,0-.39.11-.72.32-1.01.22-.29.51-.52.89-.68.38-.16.82-.25,1.31-.25.71,0,1.26.15,1.67.46.41.3.67.71.81,1.22ZM89.9,57v-6.55h1.27v6.55h-1.27ZM90.54,49.44c-.22,0-.41-.07-.57-.22-.16-.15-.23-.33-.23-.54s.08-.39.23-.54c.16-.15.35-.23.57-.23s.41.08.57.23c.16.15.24.33.24.54s-.08.39-.24.54c-.16.15-.35.22-.57.22ZM95.39,59.59c-.52,0-.97-.07-1.34-.2-.37-.14-.68-.32-.91-.54-.24-.22-.41-.47-.53-.74l1.1-.45c.08.12.18.26.31.4.13.14.31.26.53.36.22.1.51.15.86.15.48,0,.88-.12,1.2-.35.32-.23.47-.61.47-1.12v-1.29h-.08c-.08.14-.19.29-.33.46-.14.17-.34.32-.59.44s-.58.19-.98.19c-.52,0-.98-.12-1.4-.36-.41-.24-.74-.6-.98-1.08-.24-.48-.36-1.06-.36-1.76s.12-1.29.35-1.79c.24-.5.57-.88.98-1.14.41-.27.89-.4,1.41-.4.41,0,.73.07.98.2.25.13.44.29.58.47.14.18.25.34.33.47h.09v-1.06h1.25v6.69c0,.56-.13,1.02-.39,1.38-.26.36-.61.63-1.06.8-.44.17-.94.26-1.5.26ZM95.38,55.85c.37,0,.68-.09.93-.26.26-.17.45-.42.58-.74.13-.32.2-.71.2-1.16s-.07-.83-.2-1.16c-.13-.34-.32-.6-.58-.78-.25-.19-.57-.29-.94-.29s-.7.1-.96.3c-.26.2-.45.46-.58.8-.13.34-.19.72-.19,1.13s.07.81.2,1.13c.13.32.32.58.58.76.26.18.58.27.95.27ZM101.09,53.11v3.89h-1.27v-6.55h1.22v1.07h.08c.15-.35.39-.62.71-.84.32-.21.73-.32,1.22-.32.45,0,.84.09,1.17.28.34.18.6.46.78.83.18.37.28.82.28,1.36v4.16h-1.27v-4.01c0-.47-.12-.85-.37-1.11-.25-.27-.59-.4-1.02-.4-.3,0-.56.06-.79.19-.23.13-.41.32-.54.56-.13.24-.2.54-.2.89Z"/>
  <path class="st11" d="M35.96,73v-8.73h1.32v3.79h4.35v-3.79h1.32v8.73h-1.32v-3.81h-4.35v3.81h-1.32ZM48.67,70.29v-3.83h1.28v6.55h-1.25v-1.13h-.07c-.15.35-.39.64-.72.87-.33.23-.74.35-1.23.35-.42,0-.79-.09-1.12-.28-.32-.19-.57-.46-.76-.83-.18-.37-.27-.82-.27-1.36v-4.16h1.27v4.01c0,.45.12.8.37,1.07.25.26.57.4.96.4.24,0,.48-.06.71-.18.24-.12.44-.3.59-.54.16-.24.24-.55.23-.92ZM52.69,64.27v8.73h-1.27v-8.73h1.27ZM54.97,75.45c-.19,0-.36-.02-.52-.05-.16-.03-.27-.06-.35-.09l.31-1.04c.23.06.44.09.62.08.18,0,.34-.08.48-.2.14-.13.27-.34.38-.63l.16-.43-2.39-6.63h1.36l1.66,5.08h.07l1.66-5.08h1.37l-2.7,7.42c-.12.34-.28.63-.48.87-.19.24-.42.42-.69.54-.27.12-.58.18-.93.18ZM62.44,73.14c-.41,0-.79-.08-1.12-.23-.34-.16-.6-.38-.8-.68-.19-.3-.29-.66-.29-1.09,0-.37.07-.67.21-.91.14-.24.33-.43.58-.57s.51-.24.81-.32c.3-.07.6-.12.91-.16.39-.05.71-.08.95-.11.24-.03.42-.08.53-.15.11-.07.17-.18.17-.33v-.03c0-.37-.11-.66-.32-.87-.21-.2-.52-.31-.93-.31s-.77.1-1.01.29c-.24.19-.41.4-.51.63l-1.2-.27c.14-.4.35-.72.62-.96.28-.25.59-.43.95-.54.36-.11.73-.17,1.13-.17.26,0,.54.03.83.09.3.06.57.17.83.33.26.16.47.39.63.69.16.3.25.69.25,1.16v4.35h-1.24v-.89h-.05c-.08.16-.21.33-.37.49-.16.16-.38.29-.63.4-.26.11-.57.16-.93.16ZM62.72,72.12c.35,0,.65-.07.9-.21.25-.14.44-.32.58-.55.13-.23.2-.47.2-.73v-.84s-.13.09-.26.13c-.13.04-.27.07-.44.1-.16.03-.33.05-.48.07-.16.02-.29.04-.39.05-.25.03-.47.08-.68.16-.2.07-.36.18-.49.32-.12.14-.18.32-.18.55,0,.32.12.55.35.72.23.16.53.24.89.24ZM70.17,73v-8.73h1.32v3.79h4.35v-3.79h1.32v8.73h-1.32v-3.81h-4.35v3.81h-1.32ZM80.64,73.14c-.41,0-.79-.08-1.12-.23-.34-.16-.6-.38-.8-.68-.19-.3-.29-.66-.29-1.09,0-.37.07-.67.21-.91.14-.24.33-.43.58-.57.24-.14.51-.24.81-.32.3-.07.6-.12.91-.16.39-.05.71-.08.95-.11.24-.03.42-.08.53-.15.11-.07.17-.18.17-.33v-.03c0-.37-.11-.66-.32-.87-.21-.2-.52-.31-.93-.31s-.77.1-1.01.29c-.24.19-.41.4-.51.63l-1.2-.27c.14-.4.35-.72.62-.96.28-.25.59-.43.95-.54.36-.11.73-.17,1.13-.17.26,0,.54.03.83.09.3.06.57.17.83.33.26.16.47.39.63.69.16.3.25.69.25,1.16v4.35h-1.24v-.89h-.05c-.08.16-.21.33-.37.49-.16.16-.38.29-.63.4-.26.11-.57.16-.93.16ZM80.91,72.12c.35,0,.65-.07.9-.21.25-.14.44-.32.58-.55.13-.23.2-.47.2-.73v-.84s-.13.09-.26.13c-.13.04-.27.07-.44.1-.16.03-.33.05-.48.07-.16.02-.29.04-.39.05-.25.03-.47.08-.68.16-.2.07-.36.18-.49.32-.12.14-.18.32-.18.55,0,.32.12.55.35.72.23.16.53.24.89.24ZM86.6,69.11v3.89h-1.27v-6.55h1.22v1.07h.08c.15-.35.39-.62.71-.84.32-.21.73-.32,1.22-.32.45,0,.84.09,1.17.28.34.18.6.46.78.83.18.37.28.82.28,1.36v4.16h-1.27v-4.01c0-.47-.12-.85-.37-1.11-.25-.27-.59-.4-1.02-.4-.3,0-.56.06-.79.19-.23.13-.41.32-.54.56-.13.24-.2.54-.2.89ZM93.53,64.27v8.73h-1.27v-8.73h1.27ZM95,73v-6.55h1.27v6.55h-1.27ZM95.65,65.44c-.22,0-.41-.07-.57-.22-.16-.15-.23-.33-.23-.54s.08-.39.23-.54c.16-.15.35-.23.57-.23s.41.08.57.23c.16.15.24.33.24.54s-.08.39-.24.54c-.16.15-.35.22-.57.22Z"/>
  <rect class="st5" x="205" y="50" width="71" height="22" rx="4" ry="4"/>
  <path class="st10" d="M213.8,65v-7.27h4.51v.94h-3.41v2.22h3.09v.94h-3.09v3.17h-1.1ZM221.27,65.11c-.51,0-.96-.12-1.34-.35-.38-.23-.68-.56-.89-.98-.21-.42-.32-.91-.32-1.48s.1-1.06.32-1.48c.21-.42.51-.75.89-.99.38-.23.83-.35,1.34-.35s.96.12,1.34.35c.38.23.68.56.89.99.21.42.32.92.32,1.48s-.11,1.06-.32,1.48-.51.75-.89.98c-.38.23-.83.35-1.34.35ZM221.27,64.22c.33,0,.61-.09.82-.26.22-.18.38-.41.48-.7.11-.29.16-.61.16-.96s-.05-.67-.16-.96c-.1-.29-.26-.53-.48-.71-.22-.18-.49-.27-.82-.27s-.61.09-.83.27c-.22.18-.38.41-.49.71-.1.29-.16.61-.16.96s.05.67.16.96c.11.29.27.52.49.7.22.18.5.26.83.26ZM225.86,57.73v7.27h-1.06v-7.27h1.06ZM228.15,57.73v7.27h-1.06v-7.27h1.06ZM231.68,65.11c-.51,0-.96-.12-1.34-.35-.38-.23-.68-.56-.89-.98-.21-.42-.32-.91-.32-1.48s.1-1.06.32-1.48c.21-.42.51-.75.89-.99.38-.23.83-.35,1.34-.35s.96.12,1.34.35c.38.23.68.56.89.99.21.42.32.92.32,1.48s-.11,1.06-.32,1.48c-.21.42-.51.75-.89.98s-.83.35-1.34.35ZM231.68,64.22c.33,0,.61-.09.82-.26.22-.18.38-.41.48-.7.11-.29.16-.61.16-.96s-.05-.67-.16-.96c-.1-.29-.27-.53-.48-.71-.22-.18-.49-.27-.82-.27s-.61.09-.83.27c-.22.18-.38.41-.49.71-.1.29-.16.61-.16.96s.05.67.16.96c.11.29.27.52.49.7.22.18.5.26.83.26ZM236.22,65l-1.61-5.45h1.1l1.07,4.01h.05l1.07-4.01h1.1l1.07,3.99h.05l1.06-3.99h1.1l-1.6,5.45h-1.08l-1.11-3.94h-.08l-1.11,3.94h-1.08ZM245.62,65v-7.27h1.06v2.7h.06c.06-.11.15-.24.27-.39.12-.15.28-.28.48-.39.21-.11.48-.17.82-.17.44,0,.83.11,1.18.33.35.22.62.54.81.96.2.42.3.92.3,1.51s-.1,1.09-.29,1.52c-.2.42-.47.74-.81.97-.34.22-.74.34-1.18.34-.33,0-.6-.06-.81-.17-.21-.11-.37-.24-.49-.39-.12-.15-.21-.28-.27-.4h-.09v.85h-1.04ZM246.66,62.27c0,.38.06.72.17,1.01.11.29.27.51.48.68.21.16.47.24.77.24s.58-.08.8-.25c.21-.17.37-.4.48-.69.11-.29.17-.62.17-.98s-.05-.68-.16-.97c-.11-.29-.27-.51-.48-.68-.21-.17-.48-.25-.8-.25s-.57.08-.78.24c-.21.16-.37.38-.48.66-.11.28-.16.62-.16.99ZM253.18,65.12c-.35,0-.66-.06-.94-.19-.28-.13-.5-.32-.66-.56-.16-.25-.24-.55-.24-.91,0-.31.06-.56.18-.76.12-.2.28-.36.48-.47.2-.12.43-.2.68-.26.25-.06.5-.1.76-.13.33-.04.59-.07.8-.09.2-.03.35-.07.44-.12.09-.06.14-.15.14-.28v-.02c0-.31-.09-.55-.26-.72-.17-.17-.43-.26-.77-.26s-.64.08-.85.24c-.2.16-.35.33-.42.52l-1-.23c.12-.33.29-.6.52-.8.23-.21.49-.36.79-.45.3-.09.61-.14.94-.14.22,0,.45.03.69.08.25.05.48.14.69.28.22.14.39.33.53.58.14.25.21.57.21.97v3.62h-1.04v-.75h-.04c-.07.14-.17.27-.31.4-.14.13-.31.24-.53.33-.22.09-.47.13-.77.13ZM253.41,64.27c.29,0,.54-.06.75-.17.21-.12.37-.27.48-.45.11-.19.17-.39.17-.61v-.7s-.11.07-.22.11c-.11.03-.23.06-.37.08-.14.02-.27.04-.4.06-.13.02-.24.03-.33.04-.21.03-.4.07-.57.13-.17.06-.3.15-.4.27-.1.11-.15.27-.15.45,0,.26.1.46.29.6.19.13.44.2.74.2ZM259.39,65.11c-.53,0-.98-.12-1.36-.36-.38-.24-.67-.57-.87-1-.2-.42-.3-.91-.3-1.46s.1-1.04.31-1.47c.21-.43.5-.76.88-1,.38-.24.83-.36,1.34-.36.41,0,.78.08,1.11.23.32.15.59.36.79.64.2.27.32.6.36.96h-1.03c-.06-.26-.19-.48-.39-.66-.2-.18-.47-.28-.81-.28-.3,0-.56.08-.78.23-.22.15-.39.37-.52.66-.12.28-.18.62-.18,1.01s.06.74.18,1.03c.12.29.29.51.51.67.22.16.48.24.79.24.2,0,.38-.04.55-.11.17-.08.3-.18.42-.32.11-.14.19-.31.24-.5h1.03c-.04.35-.15.67-.35.94-.19.28-.45.49-.77.65-.32.16-.7.24-1.13.24ZM263.54,63.15v-1.3s.18,0,.18,0l2.17-2.31h1.27l-2.48,2.63h-.17l-.98.98ZM262.56,65v-7.27h1.06v7.27h-1.06ZM266.01,65l-1.95-2.59.73-.74,2.52,3.33h-1.3Z"/>
  <g class="st9">
    <g>
      <circle class="st6" cx="15" cy="108" r="14"/>
      <rect class="st0" x="1" y="94" width="28" height="28"/>
    </g>
  </g>
  <path class="st1" d="M15,94.38h0c7.52,0,13.62,6.1,13.62,13.62h0c0,7.52-6.1,13.62-13.62,13.62h0c-7.52,0-13.62-6.1-13.62-13.62h0c0-7.52,6.1-13.62,13.62-13.62Z"/>
  <path class="st10" d="M37.13,100.11v3.89h-1.27v-6.55h1.22v1.07h.08c.15-.35.39-.62.71-.84.32-.21.73-.32,1.22-.32.45,0,.84.09,1.17.28.34.18.6.46.78.83.18.37.28.82.28,1.36v4.16h-1.27v-4.01c0-.47-.12-.85-.37-1.11-.25-.27-.59-.4-1.02-.4-.3,0-.56.06-.79.19-.23.13-.41.32-.54.56-.13.24-.2.54-.2.89ZM42.79,104v-6.55h1.27v6.55h-1.27ZM43.43,96.44c-.22,0-.41-.07-.57-.22-.16-.15-.23-.33-.23-.54s.08-.39.23-.54c.16-.15.35-.23.57-.23s.41.08.57.23c.16.15.24.33.24.54s-.08.39-.24.54c-.16.15-.35.22-.57.22ZM46.71,101.78v-1.56s.21,0,.21,0l2.61-2.77h1.53l-2.97,3.15h-.2l-1.17,1.17ZM45.54,104v-8.73h1.27v8.73h-1.27ZM49.67,104l-2.34-3.11.88-.89,3.03,4h-1.56ZM56.65,104v1.08h-5.54v-1.08h5.54ZM61.91,97.45l-2.37,6.55h-1.36l-2.38-6.55h1.37l1.66,5.04h.07l1.65-5.04h1.37ZM62.86,104v-6.55h1.27v6.55h-1.27ZM63.51,96.44c-.22,0-.41-.07-.57-.22-.16-.15-.23-.33-.23-.54s.08-.39.23-.54c.16-.15.35-.23.57-.23s.41.08.57.23c.16.15.24.33.24.54s-.08.39-.24.54c-.16.15-.35.22-.57.22ZM66.78,101.78v-1.56s.21,0,.21,0l2.61-2.77h1.53l-2.97,3.15h-.2l-1.17,1.17ZM65.61,104v-8.73h1.27v8.73h-1.27ZM69.75,104l-2.34-3.11.88-.89,3.03,4h-1.56ZM74.54,104.13c-.61,0-1.15-.14-1.61-.42-.46-.28-.81-.67-1.07-1.18-.25-.51-.38-1.1-.38-1.77s.13-1.27.38-1.78c.25-.51.61-.9,1.07-1.18.46-.28.99-.42,1.61-.42s1.15.14,1.61.42c.46.28.81.68,1.07,1.18.25.51.38,1.1.38,1.78s-.13,1.27-.38,1.77c-.25.51-.61.9-1.07,1.18-.46.28-.99.42-1.61.42ZM74.54,103.06c.4,0,.73-.1.99-.31.26-.21.45-.49.58-.84.13-.35.19-.74.19-1.15s-.06-.8-.19-1.15c-.12-.35-.32-.64-.58-.85-.26-.21-.59-.32-.99-.32s-.73.11-1,.32c-.26.21-.46.5-.58.85-.12.35-.19.73-.19,1.15s.06.81.19,1.15c.13.35.32.63.58.84.26.21.6.31,1,.31ZM80.05,100.11v3.89h-1.27v-6.55h1.22v1.07h.08c.15-.35.39-.62.71-.84.32-.21.73-.32,1.22-.32.45,0,.84.09,1.17.28.34.18.6.46.78.83.18.37.28.82.28,1.36v4.16h-1.27v-4.01c0-.47-.12-.85-.37-1.11-.25-.27-.59-.4-1.02-.4-.3,0-.56.06-.79.19-.23.13-.41.32-.54.56-.13.24-.2.54-.2.89ZM88.15,104.13c-.53,0-1-.14-1.41-.4-.41-.27-.74-.66-.97-1.16-.23-.51-.35-1.11-.35-1.82s.12-1.31.35-1.82c.24-.5.57-.89.98-1.15.41-.27.89-.4,1.41-.4.41,0,.73.07.98.2.25.13.44.29.58.47.14.18.25.34.32.47h.08v-3.24h1.27v8.73h-1.24v-1.02h-.11c-.08.14-.19.3-.33.48-.14.18-.34.33-.59.47-.25.13-.57.2-.97.2ZM88.44,103.04c.37,0,.68-.1.93-.29.26-.2.45-.47.58-.81.13-.35.2-.75.2-1.21s-.07-.85-.2-1.19c-.13-.34-.32-.61-.58-.8-.25-.19-.57-.29-.94-.29s-.7.1-.96.3c-.26.2-.45.47-.58.81-.13.34-.19.73-.19,1.16s.07.83.2,1.18c.13.35.32.63.58.83.26.2.58.3.95.3Z"/>
  <path class="st11" d="M43,111.27v8.73h-1.21l-4.44-6.4h-.08v6.4h-1.32v-8.73h1.22l4.44,6.41h.08v-6.41h1.3ZM44.58,120v-6.54h1.27v6.54h-1.27ZM45.22,112.44c-.22,0-.41-.07-.57-.22-.16-.15-.23-.33-.23-.54s.08-.39.23-.54c.16-.15.35-.23.57-.23s.41.08.57.23c.16.15.24.33.24.54s-.08.39-.24.54c-.16.15-.35.22-.57.22ZM48.5,117.78v-1.56s.21,0,.21,0l2.61-2.77h1.53l-2.97,3.15h-.2l-1.17,1.17ZM47.33,120v-8.73h1.27v8.73h-1.27ZM51.46,120l-2.34-3.11.88-.89,3.03,4h-1.56ZM57.57,111.27l2.43,7.11h.1l2.43-7.11h1.42l-3.14,8.73h-1.52l-3.14-8.73h1.42ZM64.87,120v-6.54h1.27v6.54h-1.27ZM65.51,112.44c-.22,0-.41-.07-.57-.22-.16-.15-.23-.33-.23-.54s.08-.39.23-.54c.16-.15.35-.23.57-.23s.41.08.57.23c.16.15.24.33.24.54s-.08.39-.24.54c-.16.15-.35.22-.57.22ZM68.79,117.78v-1.56s.21,0,.21,0l2.61-2.77h1.53l-2.97,3.15h-.2l-1.17,1.17ZM67.62,120v-8.73h1.27v8.73h-1.27ZM71.75,120l-2.34-3.11.88-.89,3.03,4h-1.56ZM76.54,120.13c-.61,0-1.15-.14-1.61-.42s-.81-.67-1.07-1.18c-.25-.51-.38-1.1-.38-1.77s.13-1.27.38-1.78c.25-.51.61-.9,1.07-1.18s.99-.42,1.61-.42,1.15.14,1.61.42c.46.28.81.68,1.07,1.18.25.51.38,1.1.38,1.78s-.13,1.27-.38,1.77c-.25.51-.61.9-1.07,1.18-.46.28-.99.42-1.61.42ZM76.55,119.06c.4,0,.73-.1.99-.31.26-.21.45-.49.58-.84.13-.35.19-.74.19-1.15s-.06-.8-.19-1.15c-.12-.35-.32-.63-.58-.85-.26-.21-.59-.32-.99-.32s-.73.11-1,.32c-.26.21-.46.5-.58.85-.12.35-.19.73-.19,1.15s.06.81.19,1.15c.13.35.32.63.58.84.26.21.6.31,1,.31ZM82.05,116.11v3.89h-1.27v-6.54h1.22v1.06h.08c.15-.35.39-.62.71-.83.32-.21.73-.32,1.22-.32.45,0,.84.09,1.17.28.34.18.6.46.78.83.18.37.28.82.28,1.36v4.16h-1.27v-4.01c0-.47-.12-.85-.37-1.11-.25-.27-.59-.4-1.02-.4-.3,0-.56.06-.79.19-.23.13-.41.32-.54.56-.13.25-.2.54-.2.89ZM90.16,120.13c-.53,0-1-.14-1.41-.4-.41-.27-.74-.66-.97-1.16-.23-.51-.35-1.11-.35-1.82s.12-1.31.35-1.81c.24-.5.57-.89.98-1.16.41-.27.89-.4,1.41-.4.41,0,.73.07.98.2.25.13.44.29.58.47.14.18.25.34.32.47h.08v-3.24h1.27v8.73h-1.24v-1.02h-.11c-.08.14-.19.3-.33.48-.14.18-.34.33-.59.47-.25.13-.57.2-.97.2ZM90.44,119.04c.37,0,.68-.1.93-.29.26-.2.45-.47.58-.81.13-.35.2-.75.2-1.21s-.07-.85-.2-1.19c-.13-.34-.32-.61-.58-.8-.25-.19-.57-.28-.94-.28s-.7.1-.96.3-.45.47-.58.81c-.13.34-.19.73-.19,1.16s.07.83.2,1.18c.13.35.32.63.58.83.26.2.58.3.95.3Z"/>
  <rect class="st5" x="205" y="97" width="71" height="22" rx="4" ry="4"/>
  <path class="st10" d="M213.8,112v-7.27h4.51v.94h-3.41v2.22h3.09v.94h-3.09v3.17h-1.1ZM221.27,112.11c-.51,0-.96-.12-1.34-.35-.38-.24-.68-.56-.89-.98-.21-.42-.32-.91-.32-1.48s.1-1.06.32-1.48c.21-.42.51-.75.89-.99.38-.23.83-.35,1.34-.35s.96.12,1.34.35c.38.23.68.56.89.99.21.42.32.92.32,1.48s-.11,1.06-.32,1.48c-.21.42-.51.75-.89.98-.38.23-.83.35-1.34.35ZM221.27,111.22c.33,0,.61-.09.82-.26.22-.18.38-.41.48-.7.11-.29.16-.61.16-.96s-.05-.67-.16-.96c-.1-.29-.26-.53-.48-.71-.22-.18-.49-.27-.82-.27s-.61.09-.83.27c-.22.18-.38.41-.49.71-.1.29-.16.61-.16.96s.05.67.16.96c.11.29.27.53.49.7.22.17.5.26.83.26ZM225.86,104.73v7.27h-1.06v-7.27h1.06ZM228.15,104.73v7.27h-1.06v-7.27h1.06ZM231.68,112.11c-.51,0-.96-.12-1.34-.35-.38-.24-.68-.56-.89-.98-.21-.42-.32-.91-.32-1.48s.1-1.06.32-1.48c.21-.42.51-.75.89-.99.38-.23.83-.35,1.34-.35s.96.12,1.34.35c.38.23.68.56.89.99.21.42.32.92.32,1.48s-.11,1.06-.32,1.48c-.21.42-.51.75-.89.98-.38.23-.83.35-1.34.35ZM231.68,111.22c.33,0,.61-.09.82-.26.22-.18.38-.41.48-.7.11-.29.16-.61.16-.96s-.05-.67-.16-.96c-.1-.29-.27-.53-.48-.71-.22-.18-.49-.27-.82-.27s-.61.09-.83.27c-.22.18-.38.41-.49.71-.1.29-.16.61-.16.96s.05.67.16.96c.11.29.27.53.49.7.22.17.5.26.83.26ZM236.22,112l-1.61-5.46h1.1l1.07,4.01h.05l1.07-4.01h1.1l1.07,3.99h.05l1.06-3.99h1.1l-1.6,5.46h-1.08l-1.11-3.94h-.08l-1.11,3.94h-1.08ZM245.62,112v-7.27h1.06v2.7h.06c.06-.11.15-.25.27-.39.12-.15.28-.28.48-.39.21-.11.48-.17.82-.17.44,0,.83.11,1.18.33.35.22.62.54.81.96.2.42.3.92.3,1.51s-.1,1.1-.29,1.52c-.2.42-.47.74-.81.97-.34.23-.74.34-1.18.34-.33,0-.6-.06-.81-.17-.21-.11-.37-.24-.49-.39-.12-.15-.21-.28-.27-.4h-.09v.85h-1.04ZM246.66,109.27c0,.38.06.72.17,1.01.11.29.27.51.48.68.21.16.47.24.77.24s.58-.08.8-.25c.21-.17.37-.4.48-.69.11-.29.17-.62.17-.98s-.05-.68-.16-.97c-.11-.29-.27-.51-.48-.68-.21-.17-.48-.25-.8-.25s-.57.08-.78.24c-.21.16-.37.38-.48.66-.11.28-.16.62-.16,1ZM253.18,112.12c-.35,0-.66-.06-.94-.19-.28-.13-.5-.32-.66-.57-.16-.25-.24-.55-.24-.9,0-.31.06-.56.18-.76.12-.2.28-.36.48-.47.2-.12.43-.2.68-.26.25-.06.5-.1.76-.13.33-.04.59-.07.8-.09.2-.03.35-.07.44-.12.09-.06.14-.15.14-.28v-.03c0-.31-.09-.55-.26-.72-.17-.17-.43-.25-.77-.25s-.64.08-.85.24c-.2.16-.35.33-.42.52l-1-.23c.12-.33.29-.6.52-.8.23-.21.49-.36.79-.45.3-.09.61-.14.94-.14.22,0,.45.03.69.08.25.05.48.14.69.28.22.13.39.33.53.58.14.25.21.57.21.97v3.62h-1.04v-.75h-.04c-.07.14-.17.27-.31.4-.14.13-.31.24-.53.33-.22.09-.47.13-.77.13ZM253.41,111.27c.29,0,.54-.06.75-.17.21-.12.37-.27.48-.45.11-.19.17-.39.17-.61v-.7s-.11.07-.22.11c-.11.03-.23.06-.37.08-.14.02-.27.04-.4.06-.13.02-.24.03-.33.04-.21.03-.4.07-.57.13-.17.06-.3.15-.4.27-.1.11-.15.27-.15.46,0,.26.1.46.29.6.19.13.44.2.74.2ZM259.39,112.11c-.53,0-.98-.12-1.36-.36-.38-.24-.67-.57-.87-1-.2-.42-.3-.91-.3-1.46s.1-1.04.31-1.47c.21-.43.5-.76.88-1s.83-.36,1.34-.36c.41,0,.78.08,1.11.23.32.15.59.36.79.64.2.28.32.6.36.96h-1.03c-.06-.26-.19-.48-.39-.66-.2-.18-.47-.28-.81-.28-.3,0-.56.08-.78.23-.22.15-.39.37-.52.66-.12.28-.18.62-.18,1.01s.06.74.18,1.03c.12.29.29.51.51.67.22.16.48.24.79.24.2,0,.38-.04.55-.11.17-.08.3-.18.42-.32.11-.14.19-.31.24-.5h1.03c-.04.35-.15.67-.35.94-.19.28-.45.49-.77.65-.32.16-.7.24-1.13.24ZM263.54,110.15v-1.3s.18,0,.18,0l2.17-2.31h1.27l-2.48,2.63h-.17l-.98.98ZM262.56,112v-7.27h1.06v7.27h-1.06ZM266.01,112l-1.95-2.59.73-.74,2.52,3.33h-1.3Z"/>
  <rect class="st4" x="1" y="141" width="275" height="23" rx="4" ry="4"/>
  <path class="st7" d="M75.85,155.28v-4.8h.96v4.8h-.96ZM73.93,153.35v-.95h4.8v.95h-4.8ZM82.56,156.6c-.45,0-.85-.08-1.2-.26-.35-.17-.63-.41-.85-.71-.21-.3-.32-.64-.34-1.03h1.07c.03.31.16.57.42.77.25.2.55.3.9.3.28,0,.53-.06.74-.19.22-.13.39-.31.51-.54.13-.23.19-.49.19-.78s-.06-.56-.19-.79-.3-.41-.53-.55c-.22-.13-.48-.2-.77-.2-.22,0-.44.04-.66.11-.22.08-.4.18-.54.3l-1.01-.15.41-3.66h4v.94h-3.09l-.23,2.04h.04c.14-.14.33-.25.56-.34.24-.09.49-.14.76-.14.44,0,.84.11,1.18.32.35.21.62.5.82.86.2.36.3.78.3,1.25,0,.47-.1.89-.32,1.26-.21.37-.51.66-.89.87-.38.21-.81.32-1.3.32ZM88.69,156.62c-.56,0-1.04-.15-1.44-.44-.4-.29-.7-.72-.91-1.28-.21-.56-.32-1.24-.32-2.03s.11-1.46.32-2.02c.21-.56.52-.99.92-1.28.4-.29.88-.44,1.43-.44s1.03.15,1.43.44c.4.29.7.72.91,1.28.21.56.32,1.23.32,2.02s-.11,1.47-.32,2.03c-.21.56-.51.99-.91,1.28-.4.29-.88.44-1.43.44ZM88.69,155.67c.49,0,.88-.24,1.15-.72.28-.48.42-1.18.42-2.08,0-.6-.06-1.11-.19-1.53-.13-.42-.31-.74-.54-.95-.23-.22-.51-.33-.84-.33-.49,0-.87.24-1.15.73-.28.48-.42,1.18-.42,2.08,0,.61.06,1.12.19,1.54.13.42.31.73.54.95.23.21.52.32.85.32ZM94.95,156.62c-.56,0-1.04-.15-1.44-.44-.4-.29-.7-.72-.91-1.28-.21-.56-.32-1.24-.32-2.03s.11-1.46.32-2.02c.21-.56.52-.99.92-1.28.4-.29.88-.44,1.43-.44s1.03.15,1.43.44c.4.29.7.72.91,1.28.21.56.32,1.23.32,2.02s-.11,1.47-.32,2.03c-.21.56-.51.99-.91,1.28-.4.29-.88.44-1.43.44ZM94.95,155.67c.49,0,.88-.24,1.15-.72.28-.48.42-1.18.42-2.08,0-.6-.06-1.11-.19-1.53-.13-.42-.31-.74-.54-.95-.23-.22-.51-.33-.84-.33-.49,0-.87.24-1.15.73-.28.48-.42,1.18-.42,2.08,0,.61.06,1.12.19,1.54.13.42.31.73.54.95.23.21.52.32.85.32ZM101.22,156.5v-7.27h4.51v.94h-3.41v2.22h3.09v.94h-3.09v3.17h-1.1ZM108.69,156.61c-.51,0-.96-.12-1.34-.35-.38-.24-.68-.56-.89-.98-.21-.42-.32-.91-.32-1.48s.1-1.06.32-1.49c.21-.42.51-.75.89-.99.38-.23.83-.35,1.34-.35s.96.12,1.34.35c.38.23.68.56.89.99s.32.92.32,1.49-.11,1.05-.32,1.48c-.21.42-.51.75-.89.98-.38.23-.83.35-1.34.35ZM108.69,155.72c.33,0,.61-.09.82-.26.22-.17.38-.41.48-.7.11-.29.16-.61.16-.96s-.05-.67-.16-.96c-.1-.29-.26-.53-.48-.71-.22-.18-.49-.27-.82-.27s-.61.09-.83.27c-.22.18-.38.41-.49.71-.1.29-.16.61-.16.96s.05.67.16.96c.11.29.27.53.49.7.22.18.5.26.83.26ZM113.28,149.23v7.27h-1.06v-7.27h1.06ZM115.57,149.23v7.27h-1.06v-7.27h1.06ZM119.09,156.61c-.51,0-.96-.12-1.34-.35-.38-.24-.68-.56-.89-.98-.21-.42-.32-.91-.32-1.48s.1-1.06.32-1.49c.21-.42.51-.75.89-.99.38-.23.83-.35,1.34-.35s.96.12,1.34.35c.38.23.68.56.89.99.21.42.32.92.32,1.49s-.11,1.05-.32,1.48c-.21.42-.51.75-.89.98-.38.23-.83.35-1.34.35ZM119.1,155.72c.33,0,.61-.09.82-.26.22-.17.38-.41.48-.7.11-.29.16-.61.16-.96s-.05-.67-.16-.96c-.1-.29-.27-.53-.48-.71-.22-.18-.49-.27-.82-.27s-.61.09-.83.27c-.22.18-.38.41-.49.71-.1.29-.16.61-.16.96s.05.67.16.96c.11.29.27.53.49.7.22.18.5.26.83.26ZM123.64,156.5l-1.61-5.46h1.1l1.07,4.01h.05l1.07-4.01h1.1l1.07,3.99h.05l1.06-3.99h1.1l-1.6,5.46h-1.08l-1.11-3.94h-.08l-1.11,3.94h-1.08ZM132.69,156.61c-.54,0-1-.12-1.39-.34-.39-.23-.68-.56-.9-.98-.21-.42-.31-.92-.31-1.48s.1-1.05.31-1.48c.21-.43.51-.76.88-1,.38-.24.82-.36,1.33-.36.31,0,.61.05.9.15s.55.26.78.48c.23.22.41.5.54.85.13.35.2.77.2,1.26v.38h-4.34v-.79h3.29c0-.28-.06-.53-.17-.74-.11-.22-.27-.39-.48-.51-.2-.13-.44-.19-.72-.19-.3,0-.56.07-.78.22-.22.14-.39.33-.51.57-.12.23-.18.48-.18.76v.62c0,.36.06.67.19.93.13.26.31.45.54.59.23.13.5.2.81.2.2,0,.38-.03.55-.09.17-.06.31-.15.43-.26.12-.12.21-.26.28-.43l1,.18c-.08.3-.22.56-.43.78-.21.22-.46.39-.78.51-.31.12-.67.18-1.06.18ZM136.01,156.5v-5.46h1.03v.87h.06c.1-.29.28-.52.53-.69.25-.17.54-.25.86-.25.07,0,.14,0,.23,0,.09,0,.17.01.22.02v1.01s-.12-.02-.23-.04c-.11-.02-.22-.02-.33-.02-.25,0-.48.05-.67.16-.19.1-.35.25-.46.44-.11.18-.17.4-.17.63v3.33h-1.06ZM143.74,152.38l-.96.17c-.04-.12-.1-.24-.19-.35-.09-.11-.2-.2-.35-.27-.15-.07-.33-.11-.55-.11-.3,0-.55.07-.75.2-.2.13-.3.3-.3.51,0,.18.07.33.2.44.14.11.35.2.65.27l.87.2c.5.12.88.29,1.12.54.25.24.37.56.37.94,0,.33-.1.62-.28.87-.19.25-.45.45-.79.6-.33.14-.72.22-1.16.22-.61,0-1.11-.13-1.5-.39-.39-.26-.62-.63-.71-1.12l1.03-.16c.06.27.19.47.39.61.2.13.46.2.78.2.35,0,.63-.07.83-.22.21-.15.31-.33.31-.54,0-.17-.06-.31-.19-.43-.13-.12-.32-.2-.58-.26l-.92-.2c-.51-.12-.89-.3-1.13-.55-.24-.25-.36-.57-.36-.96,0-.32.09-.6.27-.85.18-.24.43-.43.75-.57.32-.14.68-.21,1.09-.21.59,0,1.05.13,1.39.38.34.25.56.59.67,1.02ZM148.44,156.5l-1.6-5.46h1.1l1.07,4.01h.05l1.07-4.01h1.1l1.07,3.99h.05l1.06-3.99h1.1l-1.6,5.46h-1.08l-1.11-3.94h-.08l-1.11,3.94h-1.08ZM155.31,156.5v-5.46h1.06v5.46h-1.06ZM155.85,150.2c-.18,0-.34-.06-.48-.18-.13-.12-.2-.27-.2-.45s.07-.33.2-.45c.13-.12.29-.19.48-.19s.34.06.47.19c.13.12.2.27.2.45s-.07.32-.2.45c-.13.12-.29.18-.47.18ZM160.15,151.04v.85h-2.98v-.85h2.98ZM157.96,149.74h1.06v5.16c0,.21.03.36.09.47.06.1.14.17.24.21.1.04.21.05.32.05.09,0,.16,0,.22-.02.06-.01.11-.02.15-.03l.19.88c-.06.02-.15.05-.26.07-.11.03-.26.04-.43.04-.28,0-.54-.04-.78-.15-.24-.1-.44-.26-.59-.48-.15-.22-.22-.49-.22-.82v-5.38ZM162.3,153.26v3.24h-1.06v-7.27h1.05v2.71h.07c.13-.29.32-.53.59-.7.26-.17.61-.26,1.03-.26.37,0,.7.08.98.23.28.15.5.38.65.69.16.3.24.68.24,1.14v3.47h-1.06v-3.34c0-.4-.1-.71-.31-.93-.21-.22-.49-.33-.86-.33-.25,0-.47.05-.67.16-.2.11-.35.26-.46.47-.11.2-.17.45-.17.74ZM174.51,151.52c-.07-.22-.16-.41-.28-.58-.11-.17-.25-.32-.41-.44-.16-.12-.34-.22-.54-.28-.2-.06-.42-.1-.66-.1-.41,0-.78.11-1.11.32-.33.21-.59.52-.78.93-.19.4-.28.9-.28,1.49s.1,1.09.29,1.49c.19.41.45.72.79.93s.71.32,1.14.32c.39,0,.74-.08,1.03-.24.3-.16.53-.39.69-.68.16-.3.24-.64.24-1.04l.28.05h-2.08v-.91h2.86v.83c0,.61-.13,1.14-.39,1.59-.26.45-.62.79-1.07,1.04-.45.24-.98.37-1.56.37-.66,0-1.24-.15-1.73-.45-.5-.3-.88-.73-1.16-1.29-.28-.56-.41-1.22-.41-1.99,0-.58.08-1.1.24-1.56.16-.46.39-.85.68-1.18.29-.32.64-.57,1.03-.74.4-.17.83-.26,1.3-.26.39,0,.76.06,1.1.17.34.12.64.28.91.49.27.21.49.47.66.76.18.29.29.62.36.97h-1.13ZM176.79,156.5v-5.46h1.03v.87h.06c.1-.29.28-.52.53-.69.25-.17.54-.25.86-.25.07,0,.14,0,.24,0,.09,0,.16.01.22.02v1.01s-.12-.02-.23-.04c-.11-.02-.22-.02-.33-.02-.25,0-.47.05-.67.16-.19.1-.35.25-.46.44-.11.18-.17.4-.17.63v3.33h-1.06ZM181.97,156.62c-.35,0-.66-.06-.94-.19-.28-.13-.5-.32-.66-.57-.16-.25-.24-.55-.24-.9,0-.31.06-.56.18-.76.12-.2.28-.36.48-.47.2-.12.43-.2.67-.26.25-.06.5-.1.76-.14.33-.04.59-.07.8-.09.2-.03.35-.07.44-.12.09-.06.14-.15.14-.28v-.03c0-.31-.09-.55-.26-.72-.17-.17-.43-.26-.77-.26s-.64.08-.84.24c-.2.16-.35.33-.42.52l-1-.23c.12-.33.29-.6.52-.8.23-.21.49-.35.79-.45.3-.09.61-.14.94-.14.22,0,.45.03.69.08.25.05.48.14.69.28.22.13.39.33.53.58.14.25.21.57.21.97v3.62h-1.04v-.75h-.04c-.07.14-.17.27-.31.4-.14.13-.31.24-.53.33-.22.09-.47.13-.77.13ZM182.2,155.77c.29,0,.54-.06.75-.17.21-.12.37-.27.48-.45.11-.19.17-.39.17-.61v-.7s-.11.07-.22.11c-.11.03-.23.06-.37.08-.14.02-.27.04-.4.06-.13.02-.24.03-.33.04-.21.03-.4.07-.57.13-.17.06-.3.15-.4.27-.1.11-.15.27-.15.46,0,.26.1.46.29.6.19.13.44.2.74.2ZM185.87,156.5v-5.46h1.02v.89h.07c.11-.3.3-.54.56-.7.26-.17.57-.26.93-.26s.67.09.92.26c.25.17.43.4.55.7h.06c.13-.29.34-.52.62-.7.28-.18.62-.26,1.01-.26.5,0,.9.15,1.21.47.32.31.47.78.47,1.4v3.66h-1.06v-3.56c0-.37-.1-.64-.3-.8-.2-.17-.44-.25-.72-.25-.35,0-.61.11-.81.32-.19.21-.29.48-.29.81v3.48h-1.06v-3.63c0-.3-.09-.53-.28-.71-.18-.18-.42-.27-.72-.27-.2,0-.39.05-.56.16-.17.1-.3.25-.41.44-.1.19-.15.4-.15.65v3.36h-1.06ZM197.06,151.04v.85h-2.98v-.85h2.98ZM194.88,149.74h1.06v5.16c0,.21.03.36.09.47.06.1.14.17.24.21.1.04.21.05.32.05.09,0,.16,0,.22-.02.06-.01.11-.02.15-.03l.19.88c-.06.02-.15.05-.26.07-.11.03-.26.04-.43.04-.28,0-.54-.04-.78-.15-.24-.1-.44-.26-.59-.48s-.22-.49-.22-.82v-5.38ZM199.21,153.26v3.24h-1.06v-7.27h1.05v2.71h.07c.13-.29.32-.53.59-.7.26-.17.61-.26,1.03-.26.37,0,.7.08.98.23.28.15.5.38.65.69.16.3.23.68.23,1.14v3.47h-1.06v-3.34c0-.4-.1-.71-.31-.93-.21-.22-.49-.33-.86-.33-.25,0-.48.05-.68.16-.2.11-.35.26-.46.47-.11.2-.17.45-.17.74Z"/>
</svg>