<?xml version="1.0" encoding="UTF-8"?>
<svg id="Calque_1" xmlns="http://www.w3.org/2000/svg" xmlns:xlink="http://www.w3.org/1999/xlink" version="1.1" viewBox="0 0 272 161">
  <!-- Generator: Adobe Illustrator 29.8.0, SVG Export Plug-In . SVG Version: 2.1.1 Build 160)  -->
  <defs>
    <style>
      .st0, .st1, .st2 {
        fill: none;
      }

      .st3 {
        fill: #242429;
      }

      .st1 {
        stroke-opacity: .1;
      }

      .st1, .st2 {
        stroke: #fff;
      }

      .st4 {
        fill: #f97316;
      }

      .st5 {
        fill: #161518;
      }

      .st6 {
        fill: #fff;
      }

      .st2 {
        stroke-linecap: round;
        stroke-linejoin: round;
      }

      .st7 {
        clip-path: url(#clippath);
      }
    </style>
    <clipPath id="clippath">
      <rect class="st0" x="242" y="70" width="16" height="16"/>
    </clipPath>
  </defs>
  <rect class="st5" x=".67" y="0" width="271.33" height="28" rx="6" ry="6"/>
  <rect class="st1" x="1.17" y=".5" width="270.33" height="27" rx="5.5" ry="5.5"/>
  <path class="st6" d="M13.33,18l-2.42-8.73h1.38l1.7,6.76h.08l1.77-6.76h1.37l1.77,6.76h.08l1.7-6.76h1.39l-2.42,8.73h-1.33l-1.84-6.54h-.07l-1.84,6.54h-1.33ZM24.29,14.11v3.89h-1.27v-8.73h1.26v3.25h.08c.15-.35.39-.63.7-.84s.73-.31,1.24-.31c.45,0,.84.09,1.18.28.34.18.6.46.78.83.19.36.28.82.28,1.36v4.16h-1.27v-4.01c0-.48-.12-.85-.37-1.12-.25-.27-.59-.4-1.03-.4-.3,0-.57.06-.81.19-.24.13-.42.32-.56.56-.13.24-.2.54-.2.89ZM32.81,18.13c-.64,0-1.2-.14-1.67-.41-.46-.28-.82-.67-1.07-1.17-.25-.51-.38-1.1-.38-1.78s.12-1.26.38-1.77c.25-.51.61-.91,1.06-1.2.45-.29.99-.43,1.59-.43.37,0,.73.06,1.07.18.35.12.66.31.93.58.28.26.49.6.65,1.02.16.41.24.92.24,1.51v.45h-5.2v-.95h3.95c0-.34-.07-.63-.2-.89-.14-.26-.33-.47-.58-.62-.24-.15-.53-.23-.86-.23-.36,0-.67.09-.94.26-.26.17-.47.4-.61.68-.14.28-.21.58-.21.91v.75c0,.44.08.81.23,1.12.16.31.37.54.65.7.28.16.6.24.98.24.24,0,.46-.03.66-.1.2-.07.37-.18.52-.32.14-.14.26-.31.33-.52l1.21.22c-.1.36-.27.67-.52.93-.25.26-.56.47-.93.62-.37.14-.8.22-1.27.22ZM36.8,18v-6.55h1.23v1.04h.07c.12-.35.33-.63.63-.83.3-.2.65-.31,1.03-.31.08,0,.17,0,.28,0,.11,0,.2.01.26.02v1.22c-.05-.01-.14-.03-.27-.05-.13-.02-.26-.03-.39-.03-.3,0-.57.06-.81.19-.23.12-.42.3-.55.52-.14.22-.2.47-.2.76v4h-1.27ZM43.75,18.13c-.64,0-1.2-.14-1.67-.41-.46-.28-.82-.67-1.07-1.17-.25-.51-.38-1.1-.38-1.78s.12-1.26.38-1.77c.25-.51.61-.91,1.06-1.2.45-.29.99-.43,1.59-.43.37,0,.73.06,1.07.18.35.12.66.31.93.58.28.26.49.6.65,1.02.16.41.24.92.24,1.51v.45h-5.2v-.95h3.95c0-.34-.07-.63-.2-.89-.14-.26-.33-.47-.58-.62-.24-.15-.53-.23-.86-.23-.36,0-.67.09-.94.26-.26.17-.47.4-.61.68-.14.28-.21.58-.21.91v.75c0,.44.08.81.23,1.12.16.31.37.54.65.7.28.16.6.24.98.24.24,0,.46-.03.66-.1.2-.07.37-.18.52-.32.14-.14.26-.31.33-.52l1.21.22c-.1.36-.27.67-.52.93-.25.26-.56.47-.93.62-.37.14-.8.22-1.27.22ZM52.57,18.14c-.41,0-.79-.08-1.12-.23-.34-.16-.6-.38-.8-.68-.19-.3-.29-.66-.29-1.09,0-.37.07-.67.21-.91.14-.24.33-.43.58-.57.24-.14.51-.24.81-.32.3-.07.6-.12.91-.16.39-.05.71-.08.95-.11.24-.03.42-.08.53-.15.11-.07.17-.18.17-.33v-.03c0-.37-.11-.66-.32-.86-.21-.2-.52-.31-.93-.31s-.77.1-1.01.29c-.24.19-.41.4-.51.63l-1.2-.27c.14-.4.35-.72.62-.96.28-.25.59-.43.95-.54.36-.11.73-.17,1.13-.17.26,0,.54.03.83.09.3.06.57.17.83.33.26.16.47.39.63.69.16.3.25.69.25,1.16v4.35h-1.24v-.89h-.05c-.08.16-.21.33-.37.49s-.38.29-.63.4c-.26.11-.57.16-.93.16ZM52.85,17.12c.35,0,.65-.07.9-.21.25-.14.44-.32.58-.55.13-.23.2-.47.2-.73v-.84s-.13.09-.26.13c-.13.04-.27.07-.44.1-.16.03-.33.05-.48.07-.16.02-.29.04-.39.05-.25.03-.47.08-.68.16-.2.07-.36.18-.49.32-.12.14-.18.32-.18.55,0,.32.12.55.35.72.23.16.53.24.89.24ZM57.26,18v-6.55h1.22v1.07h.08c.14-.36.36-.64.67-.84.31-.2.68-.31,1.11-.31s.8.1,1.1.31c.3.2.52.49.66.84h.07c.16-.35.4-.63.75-.84.34-.21.75-.32,1.22-.32.59,0,1.08.19,1.45.56.38.37.57.93.57,1.68v4.39h-1.27v-4.27c0-.44-.12-.76-.36-.96-.24-.2-.53-.3-.87-.3-.41,0-.74.13-.97.38-.23.25-.35.58-.35.98v4.17h-1.27v-4.35c0-.36-.11-.64-.33-.86-.22-.22-.51-.32-.87-.32-.24,0-.46.06-.67.19-.2.12-.36.3-.49.52-.12.22-.18.48-.18.78v4.04h-1.27ZM71.98,9.27v8.73h-1.32v-8.73h1.32ZM79.23,20.59c-.52,0-.97-.07-1.34-.2-.37-.14-.68-.32-.91-.54-.24-.22-.41-.47-.53-.74l1.1-.45c.08.12.18.26.31.4.13.14.31.26.53.36.22.1.51.15.86.15.48,0,.88-.12,1.2-.35.32-.23.47-.61.47-1.12v-1.29h-.08c-.08.14-.19.29-.33.46-.14.17-.34.32-.59.44s-.58.19-.98.19c-.52,0-.98-.12-1.4-.36-.41-.24-.74-.6-.98-1.08-.24-.48-.36-1.06-.36-1.76s.12-1.29.35-1.79c.24-.5.57-.88.98-1.14.41-.27.88-.4,1.41-.4.41,0,.73.07.98.2.25.13.44.29.58.47.14.18.25.34.33.47h.09v-1.06h1.25v6.69c0,.56-.13,1.02-.39,1.38s-.62.63-1.06.8c-.44.17-.94.26-1.5.26ZM79.22,16.85c.37,0,.68-.09.93-.26.26-.17.45-.42.58-.74.13-.32.2-.71.2-1.16s-.07-.83-.2-1.16c-.13-.34-.32-.6-.58-.78-.25-.19-.57-.29-.94-.29s-.7.1-.96.3c-.26.2-.45.46-.58.8-.13.34-.19.72-.19,1.13s.07.81.2,1.13c.13.32.32.58.58.76.26.18.58.27.95.27ZM86.41,18.13c-.61,0-1.15-.14-1.61-.42-.46-.28-.81-.67-1.07-1.18-.25-.51-.38-1.1-.38-1.77s.13-1.27.38-1.78c.25-.51.61-.9,1.07-1.18.46-.28.99-.42,1.61-.42s1.15.14,1.61.42c.46.28.81.68,1.07,1.18.25.51.38,1.1.38,1.78s-.13,1.27-.38,1.77c-.25.51-.61.9-1.07,1.18-.46.28-.99.42-1.61.42ZM86.42,17.06c.4,0,.73-.11.99-.32.26-.21.45-.49.58-.84.13-.35.19-.73.19-1.15s-.06-.8-.19-1.15c-.12-.35-.32-.63-.58-.85-.26-.21-.59-.32-.99-.32s-.73.11-1,.32c-.26.21-.46.5-.58.85-.12.35-.19.73-.19,1.15s.06.81.19,1.15c.13.35.32.63.58.84.26.21.6.32,1,.32ZM90.65,18v-6.55h1.27v6.55h-1.27ZM91.29,10.44c-.22,0-.41-.07-.57-.22-.16-.15-.23-.33-.23-.54s.08-.39.23-.54c.16-.15.35-.23.57-.23s.41.08.57.23c.16.15.24.33.24.54s-.08.39-.24.54c-.16.15-.35.22-.57.22ZM94.67,14.11v3.89h-1.27v-6.55h1.22v1.07h.08c.15-.35.39-.62.71-.84.32-.21.73-.32,1.22-.32.45,0,.84.09,1.17.28.34.18.6.46.78.83.18.37.28.82.28,1.36v4.16h-1.27v-4.01c0-.47-.12-.85-.37-1.11-.25-.27-.59-.4-1.02-.4-.3,0-.56.06-.79.19-.23.13-.41.32-.54.56-.13.24-.2.54-.2.89ZM103.07,20.59c-.52,0-.97-.07-1.34-.2-.37-.14-.68-.32-.91-.54-.24-.22-.41-.47-.53-.74l1.1-.45c.08.12.18.26.31.4.13.14.31.26.53.36.22.1.51.15.86.15.48,0,.88-.12,1.2-.35.32-.23.47-.61.47-1.12v-1.29h-.08c-.08.14-.19.29-.33.46-.14.17-.34.32-.59.44s-.58.19-.98.19c-.52,0-.98-.12-1.4-.36-.41-.24-.74-.6-.98-1.08-.24-.48-.36-1.06-.36-1.76s.12-1.29.35-1.79c.24-.5.57-.88.98-1.14.41-.27.89-.4,1.41-.4.41,0,.74.07.99.2.25.13.44.29.58.47.14.18.25.34.33.47h.09v-1.06h1.25v6.69c0,.56-.13,1.02-.39,1.38-.26.36-.61.63-1.06.8-.44.17-.94.26-1.5.26ZM103.06,16.85c.37,0,.68-.09.93-.26.26-.17.45-.42.58-.74.13-.32.2-.71.2-1.16s-.07-.83-.2-1.16c-.13-.34-.32-.6-.58-.78-.25-.19-.57-.29-.94-.29s-.7.1-.96.3c-.26.2-.45.46-.58.8-.13.34-.19.72-.19,1.13s.06.81.2,1.13c.13.32.32.58.58.76.26.18.58.27.96.27ZM111.7,14.11v3.89h-1.28v-6.55h1.22v1.07h.08c.15-.35.39-.62.71-.84.32-.21.73-.32,1.22-.32.45,0,.84.09,1.17.28.33.18.6.46.78.83.18.37.28.82.28,1.36v4.16h-1.27v-4.01c0-.47-.12-.85-.37-1.11-.25-.27-.59-.4-1.02-.4-.29,0-.56.06-.79.19-.23.13-.41.32-.54.56-.13.24-.2.54-.2.89ZM120.18,18.13c-.64,0-1.2-.14-1.67-.41-.46-.28-.82-.67-1.07-1.17-.25-.51-.38-1.1-.38-1.78s.12-1.26.38-1.77c.25-.51.6-.91,1.06-1.2.46-.29.99-.43,1.59-.43.37,0,.73.06,1.07.18.35.12.66.31.93.58.28.26.49.6.65,1.02.16.41.24.92.24,1.51v.45h-5.2v-.95h3.95c0-.34-.07-.63-.2-.89-.14-.26-.33-.47-.58-.62-.24-.15-.53-.23-.86-.23-.36,0-.67.09-.94.26-.26.17-.47.4-.61.68-.14.28-.21.58-.21.91v.75c0,.44.08.81.23,1.12.16.31.37.54.65.7.28.16.6.24.98.24.24,0,.46-.03.66-.1.2-.07.37-.18.52-.32.14-.14.26-.31.33-.52l1.21.22c-.1.36-.27.67-.52.93-.25.26-.56.47-.93.62-.37.14-.8.22-1.27.22ZM125.02,11.45l1.44,2.55,1.46-2.55h1.39l-2.04,3.27,2.06,3.27h-1.39l-1.47-2.45-1.47,2.45h-1.4l2.04-3.27-2.01-3.27h1.4ZM133.43,11.45v1.02h-3.58v-1.02h3.58ZM130.82,9.89h1.27v6.19c0,.25.04.43.11.56.07.12.17.21.29.25.12.04.25.06.39.06.1,0,.19,0,.27-.02.08-.01.14-.03.18-.03l.23,1.05c-.07.03-.18.06-.32.09-.14.03-.31.05-.51.05-.34,0-.65-.05-.94-.18-.29-.12-.52-.32-.7-.58s-.27-.59-.27-.98v-6.46ZM136,15.49v-.08c0-.53.06-.95.16-1.26.1-.31.25-.57.43-.76.19-.19.41-.37.68-.53.17-.11.32-.23.46-.36.14-.13.24-.29.32-.46.08-.17.12-.37.12-.58,0-.25-.06-.47-.18-.66-.12-.18-.28-.33-.48-.43-.2-.1-.41-.15-.66-.15-.22,0-.43.05-.63.14-.2.09-.36.23-.49.43-.13.19-.21.44-.23.74h-1.3c.02-.51.15-.94.39-1.3.24-.36.55-.62.95-.81.4-.18.83-.27,1.31-.27.52,0,.98.1,1.37.29.39.19.7.46.91.81.22.35.33.75.33,1.21,0,.32-.05.61-.15.86-.1.25-.24.48-.43.68-.18.2-.4.38-.66.53-.24.15-.44.31-.59.47-.15.16-.26.35-.32.58-.07.22-.1.5-.11.82v.08h-1.22ZM136.64,18.08c-.23,0-.43-.08-.6-.25-.17-.17-.25-.37-.25-.61s.08-.43.25-.6c.17-.17.37-.25.6-.25s.43.08.6.25c.17.16.25.36.25.6,0,.16-.04.3-.12.43-.08.13-.18.23-.31.31s-.27.12-.43.12Z"/>
  <rect class="st3" x="8.67" y="32" width="259.33" height="28" rx="6" ry="6"/>
  <path class="st6" d="M22.45,50h-2.83v-8.73h2.91c.86,0,1.59.17,2.2.52.61.35,1.08.85,1.41,1.5.33.65.49,1.42.49,2.33s-.17,1.69-.5,2.34c-.33.65-.81,1.16-1.43,1.51-.62.35-1.38.52-2.27.52ZM20.94,48.85h1.44c.66,0,1.22-.12,1.66-.38.44-.25.77-.62.99-1.1.22-.48.33-1.07.33-1.76s-.11-1.27-.33-1.74c-.22-.48-.54-.84-.97-1.09-.43-.25-.96-.37-1.6-.37h-1.52v6.43ZM32.09,47.29v-3.83h1.28v6.55h-1.25v-1.13h-.07c-.15.35-.39.64-.72.87-.33.23-.74.35-1.23.35-.42,0-.79-.09-1.12-.28-.32-.19-.57-.46-.76-.83-.18-.37-.27-.82-.27-1.36v-4.16h1.27v4.01c0,.45.12.8.37,1.07.25.26.57.4.96.4.24,0,.48-.06.71-.18.24-.12.44-.3.59-.54.16-.24.24-.55.23-.92ZM34.94,50v-8.73h1.27v3.24h.08c.07-.14.18-.29.32-.47.14-.18.33-.34.58-.47.25-.14.57-.2.98-.2.53,0,1,.13,1.41.4.41.27.74.65.98,1.15.24.5.36,1.11.36,1.82s-.12,1.31-.35,1.82c-.24.5-.56.89-.97,1.16-.41.27-.88.4-1.41.4-.4,0-.72-.07-.98-.2-.25-.13-.45-.29-.59-.47-.14-.18-.25-.34-.33-.48h-.11v1.02h-1.24ZM36.19,46.73c0,.46.07.86.2,1.21.13.35.33.62.58.81.25.19.56.29.93.29s.7-.1.95-.3c.26-.2.45-.48.58-.83.13-.35.2-.74.2-1.18s-.07-.82-.2-1.16c-.13-.34-.32-.62-.58-.81-.26-.2-.58-.3-.96-.3s-.68.1-.94.29c-.25.19-.44.46-.58.8-.13.34-.2.74-.2,1.19ZM44.02,50.14c-.41,0-.79-.08-1.12-.23-.34-.16-.6-.38-.8-.68-.19-.3-.29-.66-.29-1.09,0-.37.07-.67.21-.91.14-.24.33-.43.58-.57.24-.14.51-.24.81-.32.3-.07.6-.12.91-.16.39-.05.71-.08.95-.11.24-.03.42-.08.53-.15.11-.07.17-.18.17-.33v-.03c0-.37-.11-.66-.32-.86-.21-.2-.52-.31-.93-.31s-.77.1-1.01.29c-.24.19-.41.4-.51.63l-1.2-.27c.14-.4.35-.72.62-.96.28-.25.59-.43.95-.54.36-.11.73-.17,1.13-.17.26,0,.54.03.83.09.3.06.57.17.83.33.26.16.47.39.63.69.16.3.25.69.25,1.16v4.35h-1.24v-.89h-.05c-.08.16-.21.33-.37.49-.16.16-.38.29-.63.4-.26.11-.57.16-.93.16ZM44.29,49.12c.35,0,.65-.07.9-.21.25-.14.44-.32.58-.55.13-.23.2-.47.2-.73v-.84s-.13.09-.26.13c-.13.04-.27.07-.44.1-.16.03-.33.05-.48.07-.16.02-.29.04-.39.05-.25.03-.47.08-.68.16-.2.07-.36.18-.49.32-.12.14-.18.32-.18.55,0,.32.12.55.35.72.23.16.53.24.89.24ZM48.7,50v-6.55h1.27v6.55h-1.27ZM48.09,42.43c-.2,0-.37-.07-.52-.22-.15-.15-.23-.32-.23-.52,0-.21.08-.39.23-.53.15-.14.33-.21.52-.21.21,0,.39.07.53.21.14.14.22.32.22.53,0,.2-.07.37-.22.52-.14.15-.32.22-.53.22ZM50.6,42.43c-.2,0-.37-.07-.52-.22-.15-.15-.23-.32-.23-.52,0-.21.08-.39.23-.53.15-.14.33-.21.52-.21.21,0,.39.07.53.21.14.14.22.32.22.53,0,.2-.07.37-.22.52-.14.15-.32.22-.53.22Z"/>
  <rect class="st4" x="8.67" y="64" width="259.33" height="28" rx="6" ry="6"/>
  <path class="st6" d="M19.19,74.41v-1.13h6.75v1.13h-2.72v7.59h-1.31v-7.59h-2.72ZM28.91,82.13c-.61,0-1.15-.14-1.61-.42-.46-.28-.81-.67-1.07-1.18-.25-.51-.38-1.1-.38-1.77s.13-1.27.38-1.78c.25-.51.61-.9,1.07-1.18.46-.28.99-.42,1.61-.42s1.15.14,1.61.42c.46.28.81.68,1.07,1.18.25.51.38,1.1.38,1.78s-.13,1.27-.38,1.77-.61.9-1.07,1.18c-.46.28-.99.42-1.61.42ZM28.91,81.06c.4,0,.73-.11.99-.32.26-.21.45-.49.58-.84.13-.35.19-.73.19-1.15s-.06-.8-.19-1.15c-.12-.35-.32-.64-.58-.85-.26-.21-.59-.32-.99-.32s-.73.11-1,.32c-.26.21-.46.5-.58.85-.12.35-.19.73-.19,1.15s.06.81.19,1.15c.13.35.32.63.58.84.26.21.6.32,1,.32ZM34.31,79.78v-1.56s.21,0,.21,0l2.61-2.77h1.53l-2.97,3.15h-.2l-1.17,1.17ZM33.14,82v-8.73h1.27v8.73h-1.27ZM37.27,82l-2.34-3.11.88-.89,3.03,4h-1.56ZM40.42,84.45c-.19,0-.36-.02-.52-.05-.16-.03-.27-.06-.35-.09l.31-1.04c.23.06.44.09.62.08.18,0,.34-.08.48-.2.14-.13.27-.34.38-.63l.16-.43-2.39-6.63h1.36l1.66,5.08h.07l1.66-5.08h1.37l-2.7,7.42c-.12.34-.28.63-.48.87-.19.24-.42.42-.69.54-.27.12-.58.18-.93.18ZM48.71,82.13c-.61,0-1.15-.14-1.61-.42-.46-.28-.81-.67-1.07-1.18-.25-.51-.38-1.1-.38-1.77s.13-1.27.38-1.78c.25-.51.61-.9,1.07-1.18.46-.28.99-.42,1.61-.42s1.15.14,1.61.42c.46.28.81.68,1.07,1.18.25.51.38,1.1.38,1.78s-.13,1.27-.38,1.77c-.25.51-.61.9-1.07,1.18-.46.28-.99.42-1.61.42ZM48.71,81.06c.4,0,.73-.11.99-.32.26-.21.45-.49.58-.84.13-.35.19-.73.19-1.15s-.06-.8-.19-1.15c-.12-.35-.32-.64-.58-.85-.26-.21-.59-.32-.99-.32s-.73.11-1,.32c-.26.21-.46.5-.58.85-.12.35-.19.73-.19,1.15s.06.81.19,1.15c.13.35.32.63.58.84.26.21.6.32,1,.32Z"/>
  <g class="st7">
    <path class="st2" d="M247,78l2,2,4-4M256.67,78c0,3.68-2.98,6.67-6.67,6.67s-6.67-2.98-6.67-6.67,2.99-6.67,6.67-6.67,6.67,2.98,6.67,6.67Z"/>
  </g>
  <rect class="st3" x="8.67" y="96" width="259.33" height="28" rx="6" ry="6"/>
  <path class="st6" d="M26.67,105.27v8.73h-1.21l-4.44-6.4h-.08v6.4h-1.32v-8.73h1.22l4.44,6.41h.08v-6.41h1.3ZM31.07,114.13c-.64,0-1.2-.14-1.67-.41-.46-.28-.82-.67-1.07-1.17-.25-.51-.38-1.1-.38-1.78s.12-1.26.38-1.77c.25-.51.61-.91,1.06-1.2.45-.29.99-.43,1.59-.43.37,0,.73.06,1.07.18.35.12.66.31.93.57.28.26.49.6.65,1.02.16.41.24.92.24,1.51v.45h-5.2v-.96h3.95c0-.33-.07-.63-.2-.89-.14-.26-.33-.47-.58-.62-.24-.15-.53-.23-.86-.23-.36,0-.67.09-.94.26-.26.17-.47.4-.61.68-.14.28-.21.58-.21.91v.75c0,.44.08.81.23,1.12.16.31.37.54.65.7.28.16.6.24.98.24.24,0,.46-.04.66-.1.2-.07.37-.18.52-.31.14-.14.26-.31.33-.52l1.21.22c-.1.36-.27.67-.52.93-.25.26-.56.47-.93.62-.37.14-.8.22-1.27.22ZM36.46,114l-1.93-6.54h1.32l1.28,4.81h.06l1.29-4.81h1.32l1.28,4.78h.06l1.27-4.78h1.32l-1.92,6.54h-1.3l-1.33-4.73h-.1l-1.33,4.73h-1.3ZM47.07,105.27h1.5l2.28,3.97h.09l2.28-3.97h1.5l-3.17,5.3v3.43h-1.31v-3.43l-3.17-5.3ZM57.29,114.13c-.61,0-1.15-.14-1.61-.42-.46-.28-.81-.67-1.07-1.18-.25-.51-.38-1.1-.38-1.77s.13-1.27.38-1.78c.25-.51.61-.9,1.07-1.18.46-.28.99-.42,1.61-.42s1.15.14,1.61.42c.46.28.81.68,1.07,1.18.25.51.38,1.1.38,1.78s-.13,1.27-.38,1.77c-.25.51-.61.9-1.07,1.18-.46.28-.99.42-1.61.42ZM57.3,113.06c.4,0,.73-.1.99-.31.26-.21.45-.49.58-.84.13-.35.19-.74.19-1.15s-.06-.8-.19-1.15c-.12-.35-.32-.63-.58-.85-.26-.21-.59-.32-.99-.32s-.73.11-1,.32c-.26.21-.46.5-.58.85-.12.35-.19.73-.19,1.15s.06.81.19,1.15c.13.35.32.63.58.84.26.21.6.31,1,.31ZM61.52,114v-6.54h1.23v1.04h.07c.12-.35.33-.63.63-.83.3-.2.65-.31,1.03-.31.08,0,.17,0,.28,0,.11,0,.2.01.26.02v1.22c-.05-.01-.14-.03-.27-.05-.13-.02-.26-.03-.39-.03-.3,0-.57.06-.81.19-.23.12-.42.3-.55.52-.14.22-.2.47-.2.76v4h-1.27ZM67.06,111.78v-1.56s.21,0,.21,0l2.61-2.77h1.53l-2.97,3.15h-.2l-1.17,1.17ZM65.89,114v-8.73h1.27v8.73h-1.27ZM70.02,114l-2.34-3.11.88-.89,3.03,4h-1.56Z"/>
  <rect class="st3" x="8.67" y="128" width="259.33" height="28" rx="6" ry="6"/>
  <path class="st6" d="M19.63,137.27h1.6l2.78,6.78h.1l2.78-6.78h1.6v8.73h-1.25v-6.32h-.08l-2.57,6.3h-1.04l-2.57-6.31h-.08v6.32h-1.25v-8.73ZM32.87,146.13c-.64,0-1.2-.14-1.67-.41-.46-.28-.82-.67-1.07-1.17-.25-.51-.38-1.1-.38-1.78s.12-1.26.38-1.77c.25-.51.61-.91,1.06-1.2.45-.29.99-.43,1.59-.43.37,0,.73.06,1.07.18.35.12.66.31.93.58.28.26.49.6.65,1.02.16.42.24.92.24,1.51v.45h-5.2v-.95h3.95c0-.34-.07-.63-.2-.89-.14-.26-.33-.47-.58-.62-.24-.15-.53-.23-.86-.23-.36,0-.67.09-.94.26-.26.17-.47.4-.61.68-.14.28-.21.58-.21.91v.74c0,.44.08.81.23,1.12.16.31.37.54.65.7.28.16.6.24.98.24.24,0,.46-.04.66-.1.2-.07.37-.18.52-.32.14-.14.26-.31.33-.52l1.21.22c-.1.35-.27.67-.52.93-.25.26-.56.47-.93.62-.37.15-.8.22-1.27.22ZM37.71,139.46l1.44,2.55,1.46-2.55h1.39l-2.04,3.27,2.06,3.27h-1.39l-1.47-2.45-1.47,2.45h-1.4l2.04-3.27-2.01-3.27h1.4ZM43.07,146v-6.54h1.27v6.54h-1.27ZM43.72,138.45c-.22,0-.41-.07-.57-.22-.16-.15-.23-.33-.23-.54s.08-.39.23-.54c.16-.15.35-.23.57-.23s.41.08.57.23c.16.15.24.33.24.54s-.08.39-.24.54c-.16.15-.35.22-.57.22ZM48.58,146.13c-.63,0-1.18-.14-1.64-.43-.45-.29-.8-.69-1.05-1.2-.24-.51-.37-1.09-.37-1.75s.12-1.25.38-1.76c.25-.51.6-.91,1.06-1.2.45-.29.99-.43,1.61-.43.5,0,.94.09,1.33.28.39.18.7.44.94.77.24.33.38.72.43,1.15h-1.24c-.07-.31-.22-.57-.47-.79-.24-.22-.57-.33-.97-.33-.36,0-.67.09-.93.28-.26.18-.47.45-.62.79-.15.34-.22.74-.22,1.21s.07.89.22,1.24c.14.35.35.62.61.81.27.19.58.29.94.29.24,0,.46-.04.66-.13.2-.09.37-.22.5-.39.14-.17.23-.37.29-.6h1.24c-.05.42-.18.8-.41,1.13-.23.33-.54.59-.92.79-.38.19-.83.29-1.35.29ZM55.15,146.13c-.61,0-1.15-.14-1.61-.42-.46-.28-.81-.67-1.07-1.18-.25-.51-.38-1.1-.38-1.77s.13-1.27.38-1.78c.25-.51.61-.9,1.07-1.18.46-.28.99-.42,1.61-.42s1.15.14,1.61.42c.46.28.81.68,1.07,1.18.25.51.38,1.1.38,1.78s-.13,1.27-.38,1.77c-.25.51-.61.9-1.07,1.18-.46.28-.99.42-1.61.42ZM55.15,145.06c.4,0,.73-.1.99-.32.26-.21.45-.49.58-.84.13-.35.19-.74.19-1.15s-.06-.8-.19-1.15c-.12-.35-.32-.64-.58-.85-.26-.21-.59-.32-.99-.32s-.73.11-1,.32c-.26.21-.46.5-.58.85-.12.35-.19.73-.19,1.15s.06.8.19,1.15c.13.35.32.63.58.84.26.21.6.32,1,.32Z"/>
</svg>