<?xml version="1.0" encoding="UTF-8"?>
<svg id="Calque_1" xmlns="http://www.w3.org/2000/svg" xmlns:xlink="http://www.w3.org/1999/xlink" version="1.1" viewBox="0 0 318 174">
  <!-- Generator: Adobe Illustrator 29.8.0, SVG Export Plug-In . SVG Version: 2.1.1 Build 160)  -->
  <defs>
    <style>
      .st0, .st1, .st2 {
        fill: none;
      }

      .st3 {
        fill: #171717;
      }

      .st1 {
        stroke: #f1f1f1;
      }

      .st4 {
        fill: #fff;
      }

      .st2 {
        stroke: #f97316;
      }

      .st5 {
        clip-path: url(#clippath);
      }
    </style>
    <clipPath id="clippath">
      <rect class="st0" y="0" width="318" height="174"/>
    </clipPath>
  </defs>
  <g class="st5">
    <g>
      <path class="st2" d="M10,0v76c0,6.63,5.37,12,12,12h265"/>
      <path class="st2" d="M308,174v-74c0-6.63-5.37-12-12-12h-71"/>
      <path class="st4" d="M44,63.5h25c13.53,0,24.5,10.97,24.5,24.5h0c0,13.53-10.97,24.5-24.5,24.5h-25c-13.53,0-24.5-10.97-24.5-24.5h0c0-13.53,10.97-24.5,24.5-24.5Z"/>
      <path class="st1" d="M44,63.5h25c13.53,0,24.5,10.97,24.5,24.5h0c0,13.53-10.97,24.5-24.5,24.5h-25c-13.53,0-24.5-10.97-24.5-24.5h0c0-13.53,10.97-24.5,24.5-24.5Z"/>
      <g>
        <path class="st4" d="M44,71h25c9.39,0,17,7.61,17,17h0c0,9.39-7.61,17-17,17h-25c-9.39,0-17-7.61-17-17h0c0-9.39,7.61-17,17-17Z"/>
        <path class="st3" d="M40.12,93v-10.18h3.63c.79,0,1.45.14,1.97.43.52.29.91.68,1.17,1.18.26.5.39,1.06.39,1.68s-.13,1.19-.39,1.69c-.26.5-.65.89-1.17,1.18-.52.29-1.17.43-1.96.43h-2.5v-1.3h2.36c.5,0,.91-.09,1.22-.26.31-.18.54-.41.69-.72.15-.3.22-.64.22-1.03s-.07-.73-.22-1.02c-.15-.3-.38-.53-.69-.7-.31-.17-.72-.25-1.23-.25h-1.93v8.86h-1.54ZM48.95,93v-7.64h1.44v1.21h.08c.14-.41.38-.73.74-.97.35-.24.76-.36,1.2-.36.09,0,.2,0,.33,0,.13,0,.23.01.3.02v1.42c-.06-.02-.17-.03-.32-.05-.15-.02-.3-.03-.46-.03-.35,0-.66.07-.94.22-.27.15-.49.35-.65.61-.16.26-.24.55-.24.88v4.66h-1.49ZM57.27,93.15c-.72,0-1.34-.16-1.87-.49-.53-.33-.95-.79-1.24-1.38-.3-.59-.44-1.28-.44-2.07s.15-1.48.44-2.08c.29-.59.71-1.05,1.24-1.38s1.16-.49,1.87-.49,1.34.16,1.87.49.95.79,1.24,1.38c.3.59.44,1.29.44,2.08s-.15,1.48-.44,2.07c-.29.59-.71,1.05-1.24,1.38-.53.33-1.16.49-1.87.49ZM57.28,91.91c.46,0,.85-.12,1.15-.37.3-.25.53-.57.68-.98.15-.41.22-.86.22-1.35s-.07-.93-.22-1.34c-.15-.41-.37-.74-.68-.99-.3-.25-.69-.37-1.15-.37s-.86.12-1.16.37c-.3.25-.53.58-.68.99-.15.41-.22.86-.22,1.34s.07.94.22,1.35c.15.41.38.73.68.98.31.25.7.37,1.16.37ZM66.12,85.36v1.19h-4.32v-1.19h4.32ZM62.99,93v-8.52c0-.48.1-.87.31-1.19.21-.32.49-.56.83-.71.34-.16.72-.24,1.12-.24.3,0,.55.02.77.07.21.05.37.09.47.13l-.35,1.2c-.07-.02-.16-.04-.27-.07-.11-.03-.24-.04-.4-.04-.36,0-.62.09-.78.27-.15.18-.23.44-.23.78v8.32h-1.49ZM67.66,93v-7.64h1.49v7.64h-1.49ZM68.41,84.19c-.26,0-.48-.09-.67-.26-.18-.18-.27-.38-.27-.63s.09-.45.27-.63c.19-.18.41-.26.67-.26s.48.09.66.26c.19.17.28.38.28.63s-.09.45-.28.63c-.18.17-.4.26-.66.26ZM72.63,82.82v10.18h-1.49v-10.18h1.49Z"/>
      </g>
      <path class="st4" d="M127,63.5h47c13.53,0,24.5,10.97,24.5,24.5h0c0,13.53-10.97,24.5-24.5,24.5h-47c-13.53,0-24.5-10.97-24.5-24.5h0c0-13.53,10.97-24.5,24.5-24.5Z"/>
      <path class="st1" d="M127,63.5h47c13.53,0,24.5,10.97,24.5,24.5h0c0,13.53-10.97,24.5-24.5,24.5h-47c-13.53,0-24.5-10.97-24.5-24.5h0c0-13.53,10.97-24.5,24.5-24.5Z"/>
      <g>
        <path class="st4" d="M127,71h47c9.39,0,17,7.61,17,17h0c0,9.39-7.61,17-17,17h-47c-9.39,0-17-7.61-17-17h0c0-9.39,7.61-17,17-17Z"/>
        <path class="st3" d="M123.12,93v-10.18h1.54v4.42h5.08v-4.42h1.54v10.18h-1.54v-4.44h-5.08v4.44h-1.54ZM135.61,93.17c-.48,0-.92-.09-1.31-.27-.39-.18-.7-.45-.93-.79-.22-.34-.34-.77-.34-1.27,0-.43.08-.79.25-1.06.16-.28.39-.5.67-.66.28-.16.6-.29.94-.37.35-.08.7-.15,1.06-.19.46-.05.83-.1,1.11-.13.28-.04.49-.09.62-.17.13-.08.19-.21.19-.39v-.03c0-.43-.12-.77-.37-1.01-.24-.24-.6-.36-1.08-.36s-.9.11-1.18.33c-.29.22-.48.46-.59.73l-1.4-.32c.16-.46.41-.84.72-1.12.32-.29.69-.5,1.11-.63.42-.13.86-.2,1.32-.2.31,0,.63.04.97.11.35.07.67.2.97.39.3.19.55.46.74.81.19.35.29.8.29,1.36v5.07h-1.45v-1.04h-.06c-.1.19-.24.38-.43.57s-.44.34-.74.46-.66.18-1.08.18ZM135.93,91.98c.41,0,.76-.08,1.05-.24.29-.16.52-.37.67-.64.15-.27.23-.55.23-.85v-.98c-.05.05-.16.1-.31.15-.15.04-.32.08-.51.11-.19.03-.38.06-.56.08-.18.02-.33.04-.46.06-.29.04-.55.1-.79.18-.24.09-.42.21-.57.37-.14.16-.21.37-.21.64,0,.37.14.65.41.84.27.19.62.28,1.04.28ZM147.08,87.23l-1.35.24c-.06-.17-.15-.34-.27-.49-.12-.16-.28-.28-.49-.38-.21-.1-.46-.15-.77-.15-.42,0-.77.09-1.05.28-.28.19-.42.43-.42.72,0,.26.09.46.28.62.19.16.49.28.91.38l1.21.28c.7.16,1.23.41,1.57.75.35.34.52.78.52,1.32,0,.46-.13.87-.4,1.22-.26.35-.63.63-1.1.84-.47.2-1.01.3-1.63.3-.85,0-1.55-.18-2.09-.55-.54-.37-.87-.89-.99-1.57l1.44-.22c.09.37.27.66.55.85.28.19.64.28,1.09.28.49,0,.88-.1,1.17-.3.29-.21.44-.46.44-.75,0-.24-.09-.44-.27-.6-.18-.16-.44-.28-.81-.37l-1.29-.28c-.71-.16-1.24-.42-1.58-.78-.34-.35-.51-.8-.51-1.35,0-.45.13-.85.38-1.18.25-.34.6-.6,1.04-.79.44-.19.95-.29,1.53-.29.83,0,1.48.18,1.95.54.47.35.79.83.94,1.43ZM150.35,88.47v4.53h-1.49v-10.18h1.47v3.79h.1c.18-.41.45-.74.82-.98.37-.24.85-.36,1.44-.36.52,0,.98.11,1.37.32.39.22.7.54.92.96.22.42.33.95.33,1.59v4.86h-1.49v-4.68c0-.56-.14-.99-.43-1.3-.29-.31-.69-.47-1.2-.47-.35,0-.67.07-.94.22-.28.15-.49.37-.65.66-.16.29-.23.63-.23,1.03ZM160.85,85.36v1.19h-4.17v-1.19h4.17ZM157.8,83.53h1.49v7.22c0,.29.04.51.13.65.09.14.2.24.33.29.14.05.29.07.45.07.12,0,.22,0,.31-.02.09-.02.16-.03.21-.04l.27,1.23c-.09.03-.21.07-.37.1-.16.04-.36.06-.6.06-.39,0-.76-.06-1.09-.21-.34-.15-.61-.37-.82-.68-.21-.3-.31-.69-.31-1.15v-7.53ZM164.72,93.17c-.48,0-.92-.09-1.31-.27-.39-.18-.7-.45-.93-.79-.23-.34-.34-.77-.34-1.27,0-.43.08-.79.25-1.06.17-.28.39-.5.67-.66.28-.16.6-.29.94-.37.35-.08.7-.15,1.06-.19.46-.05.83-.1,1.11-.13.29-.04.49-.09.62-.17.13-.08.19-.21.19-.39v-.03c0-.43-.12-.77-.37-1.01-.24-.24-.6-.36-1.08-.36s-.9.11-1.18.33c-.29.22-.48.46-.59.73l-1.4-.32c.17-.46.41-.84.73-1.12.32-.29.69-.5,1.11-.63.42-.13.86-.2,1.32-.2.31,0,.63.04.97.11.35.07.67.2.96.39.3.19.55.46.74.81.19.35.29.8.29,1.36v5.07h-1.45v-1.04h-.06c-.1.19-.24.38-.43.57-.19.19-.44.34-.74.46-.3.12-.66.18-1.08.18ZM165.04,91.98c.41,0,.76-.08,1.05-.24.29-.16.52-.37.67-.64.16-.27.23-.55.23-.85v-.98c-.05.05-.16.1-.31.15-.15.04-.32.08-.51.11-.19.03-.38.06-.56.08-.18.02-.33.04-.46.06-.29.04-.55.1-.79.18-.24.09-.42.21-.57.37-.14.16-.21.37-.21.64,0,.37.14.65.41.84.27.19.62.28,1.04.28ZM173.67,96.02c-.61,0-1.13-.08-1.57-.24-.43-.16-.79-.37-1.06-.63-.27-.26-.48-.55-.62-.86l1.28-.53c.09.15.21.3.36.46.15.17.36.31.62.42.26.12.6.17,1.01.17.56,0,1.03-.14,1.4-.41.37-.27.55-.71.55-1.3v-1.5h-.1c-.09.16-.22.34-.39.54-.17.2-.39.37-.69.52-.29.15-.67.22-1.14.22-.6,0-1.15-.14-1.63-.42-.48-.29-.86-.7-1.14-1.26-.28-.56-.42-1.24-.42-2.05s.14-1.51.41-2.09c.28-.58.66-1.02,1.14-1.33.48-.31,1.03-.47,1.65-.47.47,0,.86.08,1.15.24.29.16.52.34.68.55.17.21.29.39.38.55h.11v-1.24h1.46v7.81c0,.66-.15,1.19-.46,1.62-.31.42-.72.73-1.24.93-.52.2-1.1.3-1.75.3ZM173.65,91.65c.43,0,.79-.1,1.08-.3.3-.2.52-.49.68-.87.16-.38.23-.83.23-1.36s-.08-.97-.23-1.36c-.15-.39-.38-.7-.67-.91-.29-.22-.66-.33-1.09-.33s-.82.12-1.12.35c-.3.23-.52.54-.68.93-.15.39-.22.84-.22,1.32s.08.94.23,1.32c.15.38.38.67.68.88.3.21.67.32,1.11.32Z"/>
      </g>
      <path class="st4" d="M232,63.5h48c13.53,0,24.5,10.97,24.5,24.5h0c0,13.53-10.97,24.5-24.5,24.5h-48c-13.53,0-24.5-10.97-24.5-24.5h0c0-13.53,10.97-24.5,24.5-24.5Z"/>
      <path class="st1" d="M232,63.5h48c13.53,0,24.5,10.97,24.5,24.5h0c0,13.53-10.97,24.5-24.5,24.5h-48c-13.53,0-24.5-10.97-24.5-24.5h0c0-13.53,10.97-24.5,24.5-24.5Z"/>
      <g>
        <path class="st4" d="M232,71h48c9.39,0,17,7.61,17,17h0c0,9.39-7.61,17-17,17h-48c-9.39,0-17-7.61-17-17h0c0-9.39,7.61-17,17-17Z"/>
        <path class="st3" d="M228.12,93v-10.18h1.54v8.86h4.61v1.32h-6.15ZM239.12,93.15c-.72,0-1.34-.16-1.87-.49-.53-.33-.95-.79-1.24-1.38-.3-.59-.44-1.28-.44-2.07s.15-1.48.44-2.08c.29-.59.71-1.05,1.24-1.38s1.16-.49,1.87-.49,1.34.16,1.88.49c.53.33.95.79,1.24,1.38s.44,1.29.44,2.08-.15,1.48-.44,2.07c-.29.59-.71,1.05-1.24,1.38-.53.33-1.16.49-1.88.49ZM239.12,91.91c.46,0,.85-.12,1.15-.37.31-.25.53-.57.68-.98.15-.41.22-.86.22-1.35s-.07-.93-.22-1.34c-.15-.41-.37-.74-.68-.99-.3-.25-.69-.37-1.15-.37s-.85.12-1.16.37c-.31.25-.53.58-.68.99-.15.41-.22.86-.22,1.34s.07.94.22,1.35c.15.41.38.73.68.98.31.25.7.37,1.16.37ZM247.55,93.15c-.74,0-1.38-.17-1.91-.5-.53-.34-.94-.8-1.22-1.4-.29-.59-.43-1.27-.43-2.04s.15-1.46.44-2.05c.29-.6.7-1.06,1.23-1.4.53-.33,1.16-.5,1.87-.5.58,0,1.1.11,1.55.32.45.21.82.51,1.1.89.28.38.45.83.5,1.35h-1.45c-.08-.36-.26-.67-.55-.92-.28-.26-.66-.39-1.13-.39-.41,0-.78.11-1.09.33-.31.22-.55.52-.72.92-.17.4-.26.87-.26,1.41s.08,1.04.25,1.44c.17.4.41.72.72.94.31.22.68.33,1.1.33.28,0,.54-.05.76-.15.23-.11.43-.26.58-.45.16-.2.27-.43.33-.71h1.45c-.05.49-.21.93-.48,1.32-.27.39-.63.69-1.08.91-.45.22-.97.33-1.58.33ZM254.5,93.17c-.48,0-.92-.09-1.31-.27-.39-.18-.7-.45-.93-.79-.23-.34-.34-.77-.34-1.27,0-.43.08-.79.25-1.06.17-.28.39-.5.67-.66.28-.16.6-.29.95-.37.35-.08.7-.15,1.06-.19.46-.05.83-.1,1.11-.13.29-.04.49-.09.62-.17.13-.08.19-.21.19-.39v-.03c0-.43-.12-.77-.37-1.01-.24-.24-.6-.36-1.08-.36s-.9.11-1.18.33c-.29.22-.48.46-.59.73l-1.4-.32c.17-.46.41-.84.73-1.12.32-.29.69-.5,1.11-.63.42-.13.86-.2,1.32-.2.31,0,.63.04.97.11.34.07.67.2.96.39.3.19.55.46.74.81.19.35.29.8.29,1.36v5.07h-1.45v-1.04h-.06c-.1.19-.24.38-.43.57-.19.19-.44.34-.74.46-.3.12-.66.18-1.08.18ZM254.83,91.98c.41,0,.76-.08,1.05-.24.29-.16.52-.37.67-.64.16-.27.23-.55.23-.85v-.98c-.05.05-.16.1-.31.15-.15.04-.32.08-.51.11-.19.03-.38.06-.56.08-.18.02-.34.04-.46.06-.29.04-.55.1-.79.18-.24.09-.42.21-.57.37-.14.16-.21.37-.21.64,0,.37.14.65.41.84.27.19.62.28,1.04.28ZM263.82,85.36v1.19h-4.17v-1.19h4.17ZM260.76,83.53h1.49v7.22c0,.29.04.51.13.65.09.14.2.24.33.29.14.05.29.07.45.07.12,0,.22,0,.31-.02.09-.02.16-.03.21-.04l.27,1.23c-.09.03-.21.07-.37.1-.16.04-.36.06-.6.06-.39,0-.76-.06-1.09-.21-.34-.15-.61-.37-.82-.68-.21-.3-.31-.69-.31-1.15v-7.53ZM265.46,93v-7.64h1.49v7.64h-1.49ZM266.21,84.19c-.26,0-.48-.09-.67-.26-.18-.18-.27-.38-.27-.63s.09-.45.27-.63c.18-.18.41-.26.67-.26s.48.09.66.26c.19.17.28.38.28.63s-.09.45-.28.63c-.18.17-.4.26-.66.26ZM272.16,93.15c-.72,0-1.34-.16-1.87-.49-.53-.33-.95-.79-1.24-1.38-.29-.59-.44-1.28-.44-2.07s.15-1.48.44-2.08c.3-.59.71-1.05,1.24-1.38s1.16-.49,1.87-.49,1.34.16,1.87.49c.53.33.95.79,1.24,1.38s.44,1.29.44,2.08-.15,1.48-.44,2.07c-.3.59-.71,1.05-1.24,1.38-.53.33-1.16.49-1.87.49ZM272.17,91.91c.46,0,.85-.12,1.15-.37.3-.25.53-.57.68-.98.15-.41.22-.86.22-1.35s-.07-.93-.22-1.34c-.15-.41-.37-.74-.68-.99-.3-.25-.69-.37-1.15-.37s-.86.12-1.16.37c-.3.25-.53.58-.68.99-.15.41-.22.86-.22,1.34s.07.94.22,1.35c.15.41.38.73.68.98.31.25.7.37,1.16.37ZM278.87,88.47v4.53h-1.49v-7.64h1.43v1.24h.09c.18-.4.45-.73.83-.97.38-.25.85-.37,1.43-.37.52,0,.98.11,1.37.33.39.22.69.54.91.96.21.43.32.96.32,1.59v4.86h-1.49v-4.68c0-.55-.14-.99-.43-1.3-.29-.31-.68-.47-1.19-.47-.34,0-.65.07-.92.22-.27.15-.48.37-.63.66-.15.29-.23.63-.23,1.03Z"/>
      </g>
    </g>
  </g>
</svg>