<?xml version="1.0" encoding="UTF-8"?>
<svg id="Calque_1" xmlns="http://www.w3.org/2000/svg" xmlns:xlink="http://www.w3.org/1999/xlink" version="1.1" viewBox="0 0 318 174">
  <!-- Generator: Adobe Illustrator 29.8.0, SVG Export Plug-In . SVG Version: 2.1.1 Build 160)  -->
  <defs>
    <style>
      .st0, .st1 {
        fill: none;
      }

      .st2 {
        fill: #fff;
        stroke: #ccc;
        stroke-miterlimit: 10;
      }

      .st3, .st4 {
        isolation: isolate;
      }

      .st5 {
        fill: #696969;
      }

      .st4 {
        fill: #f97316;
        font-family: SFProDisplay-Semibold, 'SF Pro Display';
        font-size: 12px;
        font-weight: 600;
      }

      .st6 {
        fill: #cdcdcd;
      }

      .st1 {
        stroke: #696969;
        stroke-linecap: round;
        stroke-linejoin: round;
        stroke-width: 1.5px;
      }

      .st7 {
        fill: #f5f5f5;
      }

      .st8 {
        fill: #fbfbfb;
      }

      .st9 {
        clip-path: url(#clippath);
      }
    </style>
    <clipPath id="clippath">
      <rect class="st0" y="0" width="318" height="174"/>
    </clipPath>
  </defs>
  <g class="st9">
    <g>
      <path class="st5" d="M30.12,24.55h1.43v6.22c0,.66-.16,1.25-.47,1.76-.31.51-.75.91-1.31,1.2s-1.22.43-1.98.43-1.41-.14-1.98-.43c-.56-.29-1-.69-1.31-1.2-.31-.51-.47-1.1-.47-1.76v-6.22h1.43v6.1c0,.43.09.81.28,1.14s.46.59.81.78c.35.19.76.28,1.24.28s.89-.09,1.24-.28.62-.45.8-.78c.19-.33.28-.71.28-1.14v-6.1h0ZM38.83,28.64l-1.25.22c-.05-.16-.14-.31-.25-.46-.11-.14-.26-.26-.45-.36-.19-.09-.43-.14-.72-.14-.39,0-.72.09-.98.26s-.39.4-.39.67c0,.24.09.43.26.57.18.14.46.26.85.36l1.13.26c.65.15,1.14.38,1.46.7.32.31.48.72.48,1.22,0,.42-.12.8-.37,1.14-.24.33-.58.59-1.02.78-.43.19-.94.28-1.51.28-.79,0-1.44-.17-1.94-.51s-.81-.83-.92-1.45l1.33-.2c.08.35.25.61.51.79s.6.26,1.01.26c.45,0,.81-.09,1.08-.28s.41-.42.41-.7c0-.22-.08-.41-.25-.56-.16-.15-.41-.26-.75-.34l-1.2-.26c-.66-.15-1.15-.39-1.47-.72-.31-.33-.47-.75-.47-1.25,0-.42.12-.78.35-1.1.23-.31.56-.56.97-.73.41-.18.88-.27,1.42-.27.77,0,1.37.17,1.81.5.44.33.73.77.87,1.33h0ZM43.54,34.14c-.7,0-1.3-.15-1.81-.45-.5-.3-.89-.72-1.16-1.27s-.41-1.19-.41-1.93.14-1.37.41-1.92.66-.99,1.14-1.3c.49-.31,1.07-.47,1.73-.47.4,0,.79.07,1.16.2.38.13.71.34,1.01.62s.53.65.71,1.1c.17.45.26,1,.26,1.64v.49h-5.64v-1.03h4.28c0-.36-.07-.68-.22-.96-.15-.28-.36-.51-.62-.67s-.58-.24-.93-.24c-.39,0-.73.1-1.02.29s-.51.43-.66.74c-.15.3-.23.63-.23.98v.81c0,.47.08.88.25,1.21.17.33.4.59.71.76.3.17.65.26,1.06.26.26,0,.5-.04.72-.11.22-.08.4-.19.56-.34s.28-.34.36-.56l1.31.24c-.1.38-.29.72-.56,1.01-.27.29-.6.51-1.01.67-.4.16-.86.24-1.38.24h-.02,0ZM48.11,34v-7.09h1.33v1.13h.07c.13-.38.36-.68.68-.9.33-.22.7-.33,1.12-.33h.3c.12,0,.21.01.28.02v1.32c-.06-.02-.15-.03-.3-.05-.14-.02-.28-.03-.42-.03-.33,0-.62.07-.87.21s-.45.32-.6.57c-.15.24-.22.51-.22.82v4.33h-1.38,0ZM54.48,29.79v4.21h-1.38v-7.09h1.33v1.15h.09c.16-.38.42-.68.77-.9.35-.23.79-.34,1.32-.34.48,0,.91.1,1.27.3.36.2.64.5.84.9s.3.89.3,1.47v4.51h-1.38v-4.34c0-.51-.13-.92-.4-1.2-.27-.29-.64-.44-1.1-.44-.32,0-.6.07-.85.21s-.44.34-.59.61c-.14.26-.21.58-.21.96h-.01ZM62.93,34.16c-.45,0-.86-.08-1.22-.25s-.65-.41-.86-.73-.31-.71-.31-1.18c0-.4.08-.73.23-.99.15-.26.36-.46.62-.61.26-.15.55-.26.88-.34.32-.08.65-.14.99-.18.42-.05.77-.09,1.03-.12s.46-.09.58-.16.18-.19.18-.36v-.03c0-.4-.11-.72-.34-.94-.22-.22-.56-.33-1.01-.33s-.83.1-1.1.31c-.26.2-.45.43-.55.68l-1.3-.3c.15-.43.38-.78.67-1.04.3-.27.64-.46,1.03-.58s.8-.18,1.22-.18c.28,0,.58.03.9.1.32.06.62.18.9.36s.51.43.69.75.27.74.27,1.26v4.71h-1.35v-.97h-.06c-.09.18-.22.35-.4.53-.18.17-.41.32-.69.43-.28.11-.62.17-1.01.17h0ZM63.23,33.05c.38,0,.71-.08.98-.23.27-.15.48-.35.62-.59.14-.25.22-.51.22-.79v-.91s-.14.1-.29.14c-.14.04-.3.08-.48.11s-.35.05-.52.08c-.17.02-.31.04-.42.06-.27.03-.51.09-.73.17s-.39.2-.53.35c-.13.15-.19.34-.19.59,0,.34.13.6.38.78.25.17.57.26.96.26,0,0,0-.02,0-.02ZM68.27,34v-7.09h1.33v1.15h.09c.15-.39.39-.7.72-.91.34-.22.74-.33,1.2-.33s.87.11,1.19.33.56.53.72.91h.07c.17-.38.44-.68.81-.9.37-.23.81-.34,1.32-.34.64,0,1.17.2,1.57.6.41.4.61,1.01.61,1.82v4.75h-1.38v-4.63c0-.48-.13-.83-.39-1.04-.26-.22-.57-.32-.94-.32-.45,0-.8.14-1.05.42-.25.27-.37.63-.37,1.06v4.52h-1.38v-4.71c0-.38-.12-.69-.36-.93-.24-.23-.55-.35-.94-.35-.26,0-.5.07-.72.21s-.4.32-.53.57c-.13.24-.2.52-.2.84v4.37h-1.38s.01,0,.01,0ZM82.82,34.14c-.7,0-1.3-.15-1.81-.45-.5-.3-.89-.72-1.16-1.27-.27-.55-.41-1.19-.41-1.93s.14-1.37.41-1.92c.27-.55.66-.99,1.14-1.3.49-.31,1.07-.47,1.73-.47.4,0,.79.07,1.16.2.38.13.71.34,1.01.62s.53.65.71,1.1c.17.45.26,1,.26,1.64v.49h-5.64v-1.03h4.28c0-.36-.07-.68-.22-.96-.15-.28-.36-.51-.62-.67s-.58-.24-.93-.24c-.39,0-.73.1-1.02.29-.29.19-.51.43-.66.74-.15.3-.23.63-.23.98v.81c0,.47.08.88.25,1.21.17.33.4.59.71.76.3.17.65.26,1.06.26.26,0,.5-.04.72-.11.22-.08.4-.19.56-.34.16-.15.28-.34.36-.56l1.31.24c-.1.38-.29.72-.56,1.01-.27.29-.6.51-1.01.67-.4.16-.86.24-1.38.24h-.02Z"/>
      <g>
        <path class="st2" d="M39,45h240c8.84,0,16,7.16,16,16h0c0,8.84-7.16,16-16,16H39c-8.84,0-16-7.16-16-16h0c0-8.84,7.16-16,16-16Z"/>
        <path class="st8" d="M21.68,44.44h33.32v33.11H21.68v-33.11Z"/>
        <path class="st7" d="M54,44.44v33.11h1.64v-33.11s-1.64,0-1.64,0Z"/>
        <path class="st5" d="M39,54c-1.9,0-2.14,0-2.89.04-.75.03-1.25.15-1.7.33-.46.18-.85.42-1.24.81s-.63.78-.81,1.24c-.17.45-.29.95-.33,1.7-.03.75-.04.99-.04,2.89s0,2.14.04,2.89c.03.75.15,1.25.33,1.7.18.46.42.85.81,1.24.39.39.78.63,1.24.81.45.17.95.29,1.7.33.75.03.99.04,2.89.04s2.14,0,2.89-.04c.75-.03,1.25-.15,1.7-.33.46-.18.85-.42,1.24-.81.39-.39.63-.78.81-1.24.17-.45.29-.95.33-1.7.03-.75.04-.99.04-2.89s0-2.14-.04-2.89c-.03-.75-.15-1.25-.33-1.7-.18-.46-.42-.85-.81-1.24s-.78-.63-1.24-.81c-.45-.17-.95-.29-1.7-.33-.75-.03-.99-.04-2.89-.04ZM39,55.26c1.87,0,2.09,0,2.83.04.68.03,1.05.15,1.3.24.33.13.56.28.8.52.24.24.4.48.52.8.1.25.21.62.24,1.3.03.74.04.96.04,2.83s0,2.09-.04,2.83c-.03.68-.15,1.05-.24,1.3-.13.33-.28.56-.52.8-.24.24-.48.4-.8.52-.25.1-.62.21-1.3.24-.74.03-.96.04-2.83.04s-2.09,0-2.83-.04c-.68-.03-1.05-.15-1.3-.24-.33-.13-.56-.28-.8-.52-.24-.24-.4-.48-.52-.8-.1-.25-.21-.62-.24-1.3-.03-.74-.04-.96-.04-2.83s0-2.09.04-2.83c.03-.68.15-1.05.24-1.3.13-.33.28-.56.52-.8.24-.24.48-.4.8-.52.25-.1.62-.21,1.3-.24.74-.03.96-.04,2.83-.04"/>
        <path class="st5" d="M39,63.33c-1.29,0-2.33-1.04-2.33-2.33s1.04-2.33,2.33-2.33,2.33,1.04,2.33,2.33-1.04,2.33-2.33,2.33ZM39,57.41c-1.99,0-3.59,1.61-3.59,3.59s1.61,3.59,3.59,3.59,3.59-1.61,3.59-3.59-1.61-3.59-3.59-3.59h0ZM43.58,57.26c0,.46-.38.84-.84.84s-.84-.38-.84-.84.38-.84.84-.84.84.38.84.84"/>
        <g class="st3">
          <g class="st3">
            <text class="st4" transform="translate(68.62 63.33)"><tspan x="0" y="0">@lezard-agency</tspan></text>
          </g>
        </g>
      </g>
      <path class="st5" d="M24.04,110v-9.46h3.37c.74,0,1.34.13,1.83.4s.84.63,1.08,1.1c.24.46.36.98.36,1.56s-.12,1.1-.36,1.57c-.24.46-.6.83-1.09,1.1-.48.27-1.09.4-1.82.4h-2.32v-1.21h2.19c.46,0,.84-.08,1.13-.24.29-.16.5-.38.64-.67.14-.28.2-.6.2-.96s-.07-.67-.2-.95c-.14-.28-.35-.49-.64-.65-.29-.16-.67-.24-1.14-.24h-1.79v8.23h-1.43v.02h0ZM34.24,110.16c-.45,0-.86-.08-1.22-.25s-.65-.41-.86-.73-.31-.71-.31-1.18c0-.4.08-.73.23-.99.15-.26.36-.46.62-.61s.55-.26.88-.34c.32-.08.65-.14.99-.18.42-.05.77-.09,1.03-.12.26-.03.46-.09.58-.16.12-.07.18-.19.18-.36v-.03c0-.4-.11-.72-.34-.94-.22-.22-.56-.33-1.01-.33s-.83.1-1.1.31c-.26.2-.45.43-.55.68l-1.3-.3c.15-.43.38-.78.67-1.04.3-.27.64-.46,1.03-.58s.8-.18,1.22-.18c.28,0,.58.03.9.1s.62.18.9.36c.28.18.51.43.69.75s.27.74.27,1.26v4.71h-1.35v-.97h-.06c-.09.18-.22.35-.4.53-.18.17-.41.32-.69.43s-.62.17-1.01.17h0ZM34.54,109.05c.38,0,.71-.08.98-.23s.48-.35.62-.59c.14-.25.22-.51.22-.79v-.91c-.05.05-.14.1-.29.14-.14.04-.3.07-.48.11-.18.03-.35.05-.52.08-.17.02-.31.04-.42.06-.27.03-.51.09-.73.17s-.39.19-.53.35c-.13.15-.19.34-.19.59,0,.34.13.6.38.78.25.17.57.26.96.26,0,0,0-.02,0-.02ZM44.89,104.64l-1.25.22c-.05-.16-.14-.31-.25-.46-.11-.14-.26-.26-.45-.36-.19-.09-.43-.14-.72-.14-.39,0-.72.09-.98.26-.26.17-.39.39-.39.67,0,.24.09.43.26.57.18.14.46.26.85.36l1.13.26c.65.15,1.14.38,1.46.7.32.31.48.72.48,1.22,0,.43-.12.8-.37,1.14-.24.33-.58.59-1.02.78-.43.19-.94.28-1.51.28-.79,0-1.44-.17-1.94-.51-.5-.34-.81-.83-.92-1.45l1.33-.2c.08.35.25.61.51.79s.6.26,1.01.26c.45,0,.81-.09,1.08-.28s.41-.42.41-.7c0-.22-.08-.41-.25-.56-.16-.15-.41-.26-.75-.34l-1.2-.26c-.66-.15-1.15-.39-1.47-.72-.31-.33-.47-.75-.47-1.25,0-.42.12-.78.35-1.1.23-.31.56-.56.97-.73.41-.18.88-.27,1.42-.27.77,0,1.37.17,1.81.5.44.33.73.77.87,1.32h0ZM51.86,104.64l-1.25.22c-.05-.16-.14-.31-.25-.46-.11-.14-.26-.26-.45-.36-.19-.09-.43-.14-.72-.14-.39,0-.72.09-.98.26-.26.17-.39.39-.39.67,0,.24.09.43.26.57.18.14.46.26.85.36l1.13.26c.65.15,1.14.38,1.46.7.32.31.48.72.48,1.22,0,.43-.12.8-.37,1.14-.24.33-.58.59-1.02.78-.43.19-.94.28-1.51.28-.79,0-1.44-.17-1.94-.51-.5-.34-.81-.83-.92-1.45l1.33-.2c.08.35.25.61.51.79s.6.26,1.01.26c.45,0,.81-.09,1.08-.28s.41-.42.41-.7c0-.22-.08-.41-.25-.56-.16-.15-.41-.26-.75-.34l-1.2-.26c-.66-.15-1.15-.39-1.47-.72-.31-.33-.47-.75-.47-1.25,0-.42.12-.78.35-1.1.23-.31.56-.56.97-.73.41-.18.88-.27,1.42-.27.77,0,1.37.17,1.81.5.44.33.73.77.87,1.32h0ZM55.06,110l-2.09-7.09h1.43l1.39,5.21h.07l1.39-5.21h1.43l1.38,5.18h.07l1.38-5.18h1.43l-2.08,7.09h-1.41l-1.44-5.12h-.11l-1.44,5.12h-1.4ZM67.02,110.14c-.66,0-1.24-.15-1.74-.46s-.88-.73-1.15-1.28c-.27-.55-.41-1.19-.41-1.92s.14-1.38.41-1.93c.27-.55.66-.98,1.15-1.28.5-.31,1.08-.46,1.74-.46s1.24.15,1.74.46c.5.3.88.73,1.15,1.28.27.55.41,1.19.41,1.93s-.14,1.37-.41,1.92c-.27.55-.66.97-1.15,1.28-.5.31-1.08.46-1.74.46ZM67.02,108.98c.43,0,.79-.11,1.07-.34.28-.23.49-.53.63-.91.14-.38.21-.79.21-1.25s-.07-.87-.21-1.25-.34-.69-.63-.92c-.28-.23-.64-.35-1.07-.35s-.79.11-1.08.35c-.28.23-.49.54-.63.92s-.2.79-.2,1.25.07.87.2,1.25c.14.38.35.68.63.91.29.23.65.34,1.08.34ZM71.87,110v-7.09h1.33v1.13h.07c.13-.38.36-.68.68-.9.33-.22.7-.33,1.12-.33h.3c.12,0,.21.01.28.02v1.32c-.06-.02-.15-.03-.3-.05-.14-.02-.28-.03-.42-.03-.33,0-.62.07-.87.21s-.45.33-.6.57-.22.51-.22.82v4.33h-1.38,0ZM79.26,110.14c-.57,0-1.08-.15-1.53-.44-.45-.3-.8-.72-1.05-1.26-.25-.55-.38-1.21-.38-1.97s.13-1.42.38-1.97c.26-.54.61-.96,1.06-1.25s.96-.43,1.53-.43c.44,0,.79.07,1.06.22.27.14.48.31.63.51.15.19.27.37.35.51h.08v-3.51h1.38v9.46h-1.35v-1.1h-.12c-.08.15-.2.32-.36.52-.15.19-.37.36-.64.51-.27.14-.62.22-1.05.22v-.02h.01ZM79.56,108.96c.4,0,.73-.1,1.01-.31s.49-.51.63-.88c.14-.38.22-.81.22-1.31s-.07-.92-.21-1.29-.35-.66-.62-.86c-.27-.21-.61-.31-1.02-.31s-.76.11-1.04.32c-.28.22-.49.51-.63.88-.14.37-.21.79-.21,1.26s.07.9.21,1.28.35.68.63.9.62.33,1.03.33h0Z"/>
      <g>
        <path class="st2" d="M39,121h240c8.84,0,16,7.16,16,16h0c0,8.84-7.16,16-16,16H39c-8.84,0-16-7.16-16-16h0c0-8.84,7.16-16,16-16Z"/>
        <path class="st8" d="M21.98,120.44h33.99v33.06H21.98v-33.06Z"/>
        <path class="st7" d="M53.97,120.44v33.06h2v-33.06h-2Z"/>
        <path class="st1" d="M35.33,135.5h-.08v-1.5c0-2.07,1.68-3.75,3.75-3.75s3.75,1.68,3.75,3.75v1.5h-.08M39,138.5v1.5M44.25,139.25c0,2.9-2.35,5.25-5.25,5.25s-5.25-2.35-5.25-5.25,2.35-5.25,5.25-5.25,5.25,2.35,5.25,5.25Z"/>
        <circle class="st6" cx="65" cy="137" r="2"/>
        <circle class="st6" cx="75" cy="137" r="2"/>
        <circle class="st6" cx="85" cy="137" r="2"/>
        <circle class="st6" cx="95" cy="137" r="2"/>
        <circle class="st6" cx="105" cy="137" r="2"/>
        <circle class="st6" cx="115" cy="137" r="2"/>
        <circle class="st6" cx="125" cy="137" r="2"/>
      </g>
    </g>
  </g>
</svg>