<?xml version="1.0" encoding="UTF-8"?>
<svg id="Calque_1" xmlns="http://www.w3.org/2000/svg" xmlns:xlink="http://www.w3.org/1999/xlink" version="1.1" viewBox="0 0 318 174">
  <!-- Generator: Adobe Illustrator 29.8.0, SVG Export Plug-In . SVG Version: 2.1.1 Build 160)  -->
  <defs>
    <style>
      .st0, .st1, .st2 {
        fill: none;
      }

      .st1 {
        stroke: #f97316;
        stroke-linecap: round;
        stroke-linejoin: round;
        stroke-width: 2px;
      }

      .st3 {
        fill: url(#Dégradé_sans_nom_9);
      }

      .st4 {
        fill: #171717;
      }

      .st5 {
        fill: #f97316;
      }

      .st2 {
        stroke: #f1f1f1;
      }

      .st6 {
        fill: #fff;
      }

      .st7 {
        fill: url(#Dégradé_sans_nom_10);
      }

      .st8 {
        clip-path: url(#clippath);
      }
    </style>
    <clipPath id="clippath">
      <rect class="st0" y="0" width="318" height="174"/>
    </clipPath>
    <linearGradient id="Dégradé_sans_nom_9" data-name="Dégradé sans nom 9" x1="159" y1="198.89" x2="159" y2="141.89" gradientTransform="translate(0 173.89) scale(1 -1)" gradientUnits="userSpaceOnUse">
      <stop offset="0" stop-color="#fff" stop-opacity="0"/>
      <stop offset="1" stop-color="#fff"/>
    </linearGradient>
    <linearGradient id="Dégradé_sans_nom_10" data-name="Dégradé sans nom 10" x1="197" y1="173.89" x2="197" y2="117.15" gradientTransform="translate(0 173.89) scale(1 -1)" gradientUnits="userSpaceOnUse">
      <stop offset="0" stop-color="#fff"/>
      <stop offset="1" stop-color="#fff" stop-opacity="0"/>
    </linearGradient>
  </defs>
  <g class="st8">
    <g>
      <rect class="st6" x="81.5" y="44.5" width="154" height="85" rx="11.5" ry="11.5"/>
      <rect class="st2" x="81.5" y="44.5" width="154" height="85" rx="11.5" ry="11.5"/>
      <g>
        <rect class="st6" x="89" y="52" width="139" height="70" rx="12" ry="12"/>
        <path class="st4" d="M102.12,74v-10.18h6.31v1.32h-4.78v3.1h4.33v1.32h-4.33v4.44h-1.54ZM112.86,74.15c-.72,0-1.34-.16-1.87-.49-.53-.33-.95-.79-1.24-1.38-.29-.59-.44-1.28-.44-2.07s.15-1.48.44-2.08c.3-.59.71-1.05,1.24-1.38.53-.33,1.16-.49,1.87-.49s1.34.16,1.88.49c.53.33.95.79,1.24,1.38.3.59.44,1.29.44,2.08s-.15,1.48-.44,2.07c-.29.59-.71,1.05-1.24,1.38-.53.33-1.16.49-1.88.49ZM112.86,72.91c.46,0,.85-.12,1.15-.37.31-.25.53-.57.68-.98.15-.41.22-.86.22-1.35s-.07-.93-.22-1.34c-.15-.41-.37-.74-.68-.99-.31-.25-.69-.37-1.15-.37s-.85.12-1.16.37c-.31.25-.53.58-.68.99-.15.41-.22.86-.22,1.34s.07.94.22,1.35c.15.41.38.73.68.98.31.25.7.37,1.16.37ZM119.56,63.82v10.18h-1.49v-10.18h1.49ZM123.05,63.82v10.18h-1.49v-10.18h1.49ZM128.27,74.15c-.72,0-1.34-.16-1.88-.49-.53-.33-.95-.79-1.24-1.38-.29-.59-.44-1.28-.44-2.07s.15-1.48.44-2.08c.29-.59.71-1.05,1.24-1.38.53-.33,1.16-.49,1.88-.49s1.34.16,1.87.49c.53.33.95.79,1.24,1.38s.44,1.29.44,2.08-.15,1.48-.44,2.07c-.29.59-.71,1.05-1.24,1.38-.53.33-1.16.49-1.87.49ZM128.27,72.91c.46,0,.85-.12,1.15-.37.3-.25.53-.57.68-.98.15-.41.22-.86.22-1.35s-.07-.93-.22-1.34c-.15-.41-.37-.74-.68-.99-.31-.25-.69-.37-1.15-.37s-.86.12-1.16.37c-.31.25-.53.58-.68.99-.15.41-.22.86-.22,1.34s.07.94.22,1.35c.15.41.38.73.68.98.31.25.7.37,1.16.37ZM134.91,74l-2.25-7.64h1.54l1.5,5.61h.07l1.5-5.61h1.54l1.49,5.58h.07l1.49-5.58h1.54l-2.24,7.64h-1.52l-1.55-5.51h-.12l-1.55,5.51h-1.51ZM147.87,74.15c-.75,0-1.4-.16-1.94-.48-.54-.32-.96-.78-1.25-1.37-.29-.59-.44-1.28-.44-2.07s.15-1.47.44-2.07c.29-.6.71-1.06,1.23-1.4.53-.33,1.15-.5,1.86-.5.43,0,.85.07,1.25.21.4.14.77.37,1.09.67.32.31.57.7.76,1.19.18.48.28,1.07.28,1.76v.53h-6.07v-1.11h4.61c0-.39-.08-.74-.24-1.04-.16-.31-.38-.55-.67-.72-.29-.18-.62-.26-1-.26-.42,0-.78.1-1.09.31-.31.2-.55.47-.71.8-.17.32-.25.68-.25,1.06v.87c0,.51.09.94.27,1.3.18.36.44.63.76.82.32.19.7.28,1.14.28.28,0,.54-.04.77-.12.23-.08.43-.21.6-.37.17-.16.3-.36.39-.6l1.41.25c-.11.41-.32.78-.61,1.09-.29.31-.65.55-1.09.72-.43.17-.93.25-1.49.25ZM152.79,74v-7.64h1.44v1.21h.08c.14-.41.38-.73.74-.97.35-.24.76-.36,1.2-.36.09,0,.2,0,.33,0,.13,0,.23.01.3.02v1.42c-.06-.02-.17-.03-.32-.05-.15-.02-.31-.03-.46-.03-.35,0-.66.07-.94.22-.27.15-.49.35-.65.61-.16.26-.24.55-.24.88v4.66h-1.49ZM163.89,68.23l-1.35.24c-.06-.17-.14-.34-.27-.49-.12-.16-.28-.28-.49-.38-.21-.1-.46-.15-.77-.15-.42,0-.77.09-1.05.28-.28.19-.42.43-.42.72,0,.26.09.46.28.62s.49.28.91.38l1.21.28c.7.16,1.23.41,1.57.75.34.34.52.78.52,1.32,0,.46-.13.87-.4,1.22-.26.35-.63.63-1.1.84-.47.2-1.01.3-1.62.3-.85,0-1.55-.18-2.09-.55-.54-.37-.87-.89-1-1.57l1.44-.22c.09.37.27.66.55.85.28.19.64.28,1.09.28.49,0,.88-.1,1.17-.3.29-.21.44-.46.44-.75,0-.24-.09-.44-.27-.6-.18-.16-.45-.28-.81-.37l-1.29-.28c-.71-.16-1.24-.42-1.58-.78-.34-.35-.51-.8-.51-1.35,0-.45.13-.85.38-1.18.25-.34.6-.6,1.04-.79.44-.19.95-.29,1.53-.29.83,0,1.48.18,1.95.54.47.35.79.83.94,1.43Z"/>
        <path class="st4" d="M107.23,94.91v13.09h-1.98v-11.11h-.08l-3.13,2.05v-1.89l3.27-2.13h1.92ZM115.12,94.73c.58,0,1.16.11,1.73.32s1.08.55,1.53,1.02c.46.47.83,1.11,1.1,1.92.28.8.42,1.8.42,2.99,0,1.15-.11,2.17-.35,3.06-.23.89-.56,1.64-.99,2.26-.43.61-.94,1.08-1.55,1.4-.61.32-1.29.48-2.06.48s-1.47-.15-2.08-.46c-.6-.31-1.1-.73-1.48-1.27-.38-.55-.62-1.17-.71-1.88h1.95c.13.56.39,1.02.78,1.37.4.35.91.52,1.53.52.96,0,1.71-.42,2.24-1.25.54-.84.81-2.01.81-3.51h-.1c-.22.37-.5.68-.83.95-.33.26-.7.47-1.11.61-.41.14-.85.22-1.31.22-.75,0-1.44-.19-2.06-.56-.62-.37-1.11-.88-1.48-1.53-.37-.65-.55-1.39-.55-2.22s.19-1.58.56-2.25c.38-.67.91-1.21,1.58-1.6.68-.4,1.48-.59,2.4-.58ZM115.13,96.39c-.5,0-.95.12-1.35.37-.4.24-.71.57-.94.99-.23.41-.35.87-.35,1.38s.11.97.33,1.38c.23.41.53.74.92.98.39.24.84.36,1.34.36.38,0,.73-.07,1.05-.22.32-.15.61-.35.85-.6.24-.26.43-.55.57-.88.14-.33.21-.67.21-1.04,0-.48-.12-.93-.35-1.34-.23-.41-.54-.75-.93-1-.4-.26-.85-.38-1.36-.38ZM124.25,106.21l-.1.7c-.06.51-.17,1.04-.33,1.6-.15.56-.3,1.08-.47,1.55-.16.48-.29.86-.39,1.14h-1.36c.06-.26.13-.62.23-1.07.1-.45.19-.95.29-1.5.09-.55.16-1.12.21-1.69l.06-.72h1.84ZM130.9,108.18c-.92,0-1.73-.16-2.43-.47-.7-.32-1.25-.75-1.64-1.3-.4-.55-.59-1.18-.59-1.89,0-.55.11-1.06.34-1.53.24-.47.55-.86.95-1.17.4-.31.85-.51,1.34-.6v-.08c-.65-.16-1.17-.51-1.57-1.05-.39-.54-.59-1.16-.58-1.87,0-.67.17-1.27.53-1.79.36-.53.86-.94,1.49-1.25.63-.3,1.35-.45,2.15-.45s1.51.15,2.13.46c.63.3,1.13.72,1.49,1.25.36.52.55,1.12.55,1.78,0,.7-.2,1.33-.6,1.87-.4.54-.91.89-1.55,1.05v.08c.49.08.93.29,1.32.6.4.31.71.7.95,1.17.24.46.36.97.36,1.53,0,.71-.21,1.34-.6,1.89-.4.55-.95.99-1.65,1.3-.7.32-1.5.47-2.41.47ZM130.9,106.56c.54,0,1.01-.09,1.41-.27.4-.18.7-.44.92-.76.22-.33.33-.71.33-1.15,0-.46-.12-.86-.36-1.21-.23-.35-.54-.62-.94-.83-.4-.2-.85-.3-1.36-.3s-.97.1-1.37.3c-.4.2-.72.48-.95.83-.23.35-.34.75-.34,1.21,0,.44.1.82.31,1.15.22.32.53.58.93.76.4.18.87.27,1.42.27ZM130.9,100.47c.43,0,.82-.09,1.16-.26.34-.18.6-.42.79-.73.2-.31.3-.68.3-1.09,0-.41-.1-.77-.29-1.07-.19-.31-.45-.54-.79-.71-.34-.17-.73-.26-1.17-.26s-.85.09-1.19.26c-.34.17-.6.4-.79.71-.19.31-.28.66-.27,1.07,0,.42.09.78.28,1.09.19.31.46.55.79.73.34.18.73.26,1.18.26ZM137.85,108v-1.43l4.43-4.59c.47-.5.86-.94,1.17-1.31.31-.38.54-.74.7-1.08.15-.34.23-.7.23-1.09,0-.43-.1-.81-.31-1.12-.2-.32-.48-.56-.84-.74-.35-.17-.75-.26-1.19-.26-.47,0-.88.1-1.23.29-.35.19-.62.46-.8.81-.19.35-.28.76-.28,1.23h-1.89c0-.8.18-1.49.55-2.09.37-.6.87-1.06,1.51-1.39.64-.33,1.37-.5,2.18-.5s1.55.16,2.17.49c.63.32,1.12.77,1.48,1.33.35.56.53,1.19.53,1.89,0,.49-.09.96-.27,1.43-.18.46-.49.98-.94,1.55-.45.57-1.07,1.26-1.87,2.06l-2.6,2.72v.1h5.89v1.69h-8.62ZM148.89,108v-1.43l4.43-4.59c.47-.5.86-.94,1.17-1.31.31-.38.54-.74.7-1.08.15-.34.23-.7.23-1.09,0-.43-.1-.81-.31-1.12-.2-.32-.48-.56-.84-.74-.35-.17-.75-.26-1.2-.26-.47,0-.88.1-1.23.29-.35.19-.62.46-.81.81-.19.35-.28.76-.28,1.23h-1.89c0-.8.18-1.49.55-2.09.37-.6.87-1.06,1.51-1.39.64-.33,1.37-.5,2.18-.5s1.55.16,2.17.49c.63.32,1.12.77,1.48,1.33.35.56.53,1.19.53,1.89,0,.49-.09.96-.28,1.43-.18.46-.49.98-.94,1.55-.45.57-1.07,1.26-1.87,2.06l-2.6,2.72v.1h5.89v1.69h-8.62Z"/>
        <path class="st1" d="M177,107.83v-11.67M177,96.17l-5.83,5.83M177,96.17l5.83,5.83"/>
        <path class="st5" d="M193.84,96.82v10.18h-1.54v-8.64h-.06l-2.44,1.59v-1.47l2.54-1.66h1.5ZM199.96,107.14c-.62,0-1.18-.12-1.68-.36-.49-.24-.89-.57-1.18-.99-.29-.42-.45-.9-.47-1.44h1.49c.04.44.23.8.58,1.08.35.28.77.42,1.26.42.39,0,.74-.09,1.04-.27.3-.18.54-.43.72-.75.18-.32.26-.68.26-1.09s-.09-.78-.27-1.11c-.18-.32-.43-.58-.74-.77-.31-.18-.67-.28-1.07-.28-.31,0-.62.05-.93.16-.31.11-.56.25-.76.42l-1.41-.21.57-5.13h5.6v1.32h-4.32l-.32,2.85h.06c.2-.19.46-.35.79-.48.33-.13.69-.19,1.06-.19.62,0,1.17.15,1.65.44.49.29.87.7,1.15,1.21.28.51.42,1.09.42,1.75,0,.66-.15,1.25-.45,1.76-.3.52-.71.92-1.24,1.22-.53.29-1.13.44-1.82.44ZM210.59,105.09v-.54c0-.38.08-.74.24-1.05.16-.32.4-.58.71-.77.31-.19.69-.29,1.13-.29s.83.1,1.13.29c.3.19.54.45.69.77.16.32.24.67.24,1.06v.54c0,.38-.08.74-.24,1.06-.16.32-.39.57-.7.77-.3.19-.68.29-1.12.29s-.82-.1-1.13-.29c-.31-.19-.54-.45-.7-.77-.16-.32-.24-.68-.24-1.06ZM211.75,104.55v.54c0,.28.07.54.2.77.14.23.37.35.71.35s.57-.12.7-.35c.13-.23.2-.49.2-.77v-.54c0-.29-.06-.54-.19-.78-.13-.23-.36-.35-.71-.35s-.57.12-.71.35c-.14.23-.21.49-.21.78ZM205.47,99.26v-.54c0-.38.08-.74.24-1.06.16-.32.4-.58.71-.77.31-.19.69-.29,1.13-.29s.83.1,1.13.29c.3.19.54.45.69.77.16.32.23.67.23,1.06v.54c0,.38-.08.74-.24,1.06-.16.32-.39.58-.7.77-.31.19-.68.29-1.12.29s-.83-.1-1.14-.29c-.3-.2-.54-.45-.7-.77-.16-.32-.24-.67-.24-1.06ZM206.63,98.73v.54c0,.29.07.54.2.78.14.23.37.35.71.35s.56-.12.7-.35c.14-.23.2-.49.2-.78v-.54c0-.29-.06-.54-.19-.78-.13-.23-.36-.35-.71-.35s-.57.12-.71.35c-.14.23-.2.49-.2.78ZM205.94,107l7-10.18h1.19l-7,10.18h-1.19Z"/>
      </g>
      <rect class="st6" x="244.5" y="44.5" width="152" height="85" rx="11.5" ry="11.5"/>
      <rect class="st2" x="244.5" y="44.5" width="152" height="85" rx="11.5" ry="11.5"/>
      <g>
        <rect class="st6" x="252" y="52" width="137" height="70" rx="12" ry="12"/>
        <path class="st4" d="M270.67,66.49c-.05-.47-.27-.84-.66-1.09-.38-.26-.87-.39-1.45-.39-.42,0-.78.07-1.08.2-.31.13-.54.31-.71.54-.17.23-.25.48-.25.77,0,.24.06.45.17.63.12.18.27.32.45.44.19.12.39.21.61.29.21.08.42.14.62.19l.99.26c.32.08.66.19,1,.32.34.14.66.31.95.54.29.22.53.5.71.83.18.33.27.72.27,1.18,0,.58-.15,1.09-.45,1.54-.3.45-.72.8-1.29,1.06-.56.26-1.24.39-2.03.39s-1.42-.12-1.98-.36c-.56-.24-.99-.58-1.31-1.03-.32-.45-.49-.98-.52-1.59h1.54c.03.37.15.67.36.92.21.24.48.42.81.54.33.12.7.17,1.09.17.43,0,.82-.07,1.16-.2.34-.14.61-.33.8-.58.2-.25.29-.54.29-.87,0-.3-.09-.55-.26-.74-.17-.19-.4-.35-.69-.48-.29-.13-.61-.24-.98-.33l-1.2-.33c-.82-.22-1.46-.55-1.94-.98-.47-.43-.71-1-.71-1.71,0-.59.16-1.1.48-1.54.32-.44.75-.78,1.29-1.02.54-.25,1.16-.37,1.84-.37s1.3.12,1.82.36c.53.24.95.58,1.25,1,.3.42.46.9.48,1.45h-1.48ZM277.57,66.36v1.19h-4.17v-1.19h4.17ZM274.52,64.53h1.49v7.22c0,.29.04.51.13.65.09.14.2.24.33.29.14.05.29.07.45.07.12,0,.22,0,.31-.02.09-.02.16-.03.21-.04l.27,1.23c-.09.03-.21.07-.37.1-.16.04-.36.06-.6.06-.39,0-.75-.06-1.09-.21-.34-.15-.61-.37-.82-.68-.21-.3-.31-.69-.31-1.15v-7.53ZM282.35,74.15c-.72,0-1.34-.16-1.88-.49-.53-.33-.95-.79-1.24-1.38-.29-.59-.44-1.28-.44-2.07s.15-1.48.44-2.08c.3-.59.71-1.05,1.24-1.38.53-.33,1.16-.49,1.88-.49s1.34.16,1.87.49.95.79,1.24,1.38.44,1.29.44,2.08-.15,1.48-.44,2.07c-.3.59-.71,1.05-1.24,1.38-.53.33-1.16.49-1.87.49ZM282.36,72.91c.46,0,.85-.12,1.15-.37.31-.25.53-.57.68-.98.15-.41.22-.86.22-1.35s-.08-.93-.22-1.34c-.15-.41-.37-.74-.68-.99-.3-.25-.69-.37-1.15-.37s-.86.12-1.16.37c-.3.25-.53.58-.68.99-.15.41-.22.86-.22,1.34s.07.94.22,1.35c.15.41.38.73.68.98.31.25.7.37,1.16.37ZM287.57,74v-7.64h1.44v1.21h.08c.14-.41.38-.73.74-.97.35-.24.76-.36,1.2-.36.09,0,.2,0,.33,0,.13,0,.23.01.3.02v1.42c-.06-.02-.17-.03-.32-.05-.15-.02-.3-.03-.46-.03-.35,0-.67.07-.94.22-.27.15-.49.35-.65.61-.16.26-.24.55-.24.88v4.66h-1.49ZM294.12,76.86c-.22,0-.43-.02-.61-.05-.18-.03-.32-.07-.41-.11l.36-1.22c.27.07.51.1.73.09.21,0,.4-.09.56-.24.17-.15.31-.39.44-.73l.18-.51-2.79-7.74h1.59l1.93,5.93h.08l1.93-5.93h1.6l-3.15,8.66c-.15.4-.33.73-.56,1.01-.23.28-.49.49-.81.63-.31.14-.67.21-1.08.21ZM305.82,63.82l2.83,8.29h.11l2.83-8.29h1.66l-3.66,10.18h-1.77l-3.66-10.18h1.66ZM314.61,74v-7.64h1.49v7.64h-1.49ZM315.36,65.19c-.26,0-.48-.09-.67-.26-.18-.18-.27-.38-.27-.63s.09-.45.27-.63c.19-.18.41-.26.67-.26s.48.09.66.26c.19.17.28.38.28.63s-.09.45-.28.63c-.18.17-.4.26-.66.26ZM321.39,74.15c-.75,0-1.4-.16-1.94-.48-.54-.32-.96-.78-1.25-1.37-.29-.59-.44-1.28-.44-2.07s.15-1.47.44-2.07c.29-.6.71-1.06,1.23-1.4.53-.33,1.15-.5,1.86-.5.43,0,.85.07,1.25.21.4.14.77.37,1.09.67.32.31.58.7.76,1.19.19.48.28,1.07.28,1.76v.53h-6.07v-1.11h4.61c0-.39-.08-.74-.24-1.04-.16-.31-.38-.55-.67-.72-.29-.18-.62-.26-1-.26-.42,0-.78.1-1.09.31-.31.2-.55.47-.72.8-.17.32-.25.68-.25,1.06v.87c0,.51.09.94.27,1.3.18.36.44.63.76.82.32.19.7.28,1.14.28.28,0,.54-.04.77-.12.23-.08.43-.21.6-.37.17-.16.3-.36.39-.6l1.41.25c-.11.41-.32.78-.61,1.09-.29.31-.65.55-1.09.72-.43.17-.93.25-1.49.25ZM327.96,74l-2.25-7.64h1.54l1.5,5.61h.08l1.5-5.61h1.54l1.49,5.58h.07l1.49-5.58h1.54l-2.24,7.64h-1.52l-1.55-5.51h-.11l-1.55,5.51h-1.51ZM343.58,68.23l-1.35.24c-.06-.17-.15-.34-.27-.49-.12-.16-.28-.28-.49-.38-.21-.1-.46-.15-.77-.15-.42,0-.77.09-1.05.28-.28.19-.42.43-.42.72,0,.26.09.46.28.62s.49.28.92.38l1.21.28c.7.16,1.23.41,1.57.75.35.34.52.78.52,1.32,0,.46-.13.87-.4,1.22-.26.35-.63.63-1.1.84-.47.2-1.01.3-1.63.3-.85,0-1.55-.18-2.09-.55-.54-.37-.87-.89-.99-1.57l1.44-.22c.09.37.27.66.55.85.28.19.64.28,1.09.28.49,0,.88-.1,1.17-.3.29-.21.44-.46.44-.75,0-.24-.09-.44-.27-.6-.18-.16-.45-.28-.81-.37l-1.29-.28c-.71-.16-1.24-.42-1.58-.78-.34-.35-.51-.8-.51-1.35,0-.45.13-.85.38-1.18.25-.34.6-.6,1.04-.79.44-.19.95-.29,1.53-.29.82,0,1.47.18,1.95.54.47.35.79.83.94,1.43Z"/>
        <path class="st4" d="M270.23,94.91v13.09h-1.98v-11.11h-.08l-3.13,2.05v-1.89l3.27-2.13h1.92ZM273.77,108v-1.43l4.43-4.59c.47-.5.86-.94,1.17-1.31.31-.38.54-.74.7-1.08.15-.34.23-.7.23-1.09,0-.43-.1-.81-.31-1.12-.2-.32-.48-.56-.84-.74-.35-.17-.75-.26-1.19-.26-.47,0-.88.1-1.23.29-.35.19-.62.46-.81.81-.19.35-.28.76-.28,1.23h-1.89c0-.8.18-1.49.55-2.09.37-.6.87-1.06,1.51-1.39.64-.33,1.37-.5,2.18-.5s1.55.16,2.17.49c.63.32,1.12.77,1.48,1.33.35.56.53,1.19.53,1.89,0,.49-.09.96-.27,1.43-.18.46-.49.98-.94,1.55-.45.57-1.07,1.26-1.87,2.06l-2.6,2.72v.1h5.89v1.69h-8.62ZM287.32,106.21l-.1.7c-.06.51-.17,1.04-.33,1.6-.15.56-.3,1.08-.47,1.55-.16.48-.29.86-.39,1.14h-1.36c.05-.26.13-.62.23-1.07.1-.45.19-.95.29-1.5.09-.55.16-1.12.21-1.69l.06-.72h1.84ZM289.99,108v-1.43l4.43-4.59c.47-.5.86-.94,1.17-1.31.31-.38.54-.74.7-1.08.15-.34.23-.7.23-1.09,0-.43-.1-.81-.31-1.12-.2-.32-.48-.56-.84-.74-.35-.17-.75-.26-1.2-.26-.47,0-.88.1-1.23.29-.35.19-.62.46-.8.81-.19.35-.28.76-.28,1.23h-1.89c0-.8.18-1.49.55-2.09.37-.6.87-1.06,1.51-1.39.64-.33,1.37-.5,2.18-.5s1.55.16,2.17.49c.63.32,1.12.77,1.48,1.33.35.56.53,1.19.53,1.89,0,.49-.09.96-.27,1.43-.18.46-.49.98-.94,1.55-.45.57-1.07,1.26-1.87,2.06l-2.6,2.72v.1h5.89v1.69h-8.62ZM305.59,108.18c-.88,0-1.66-.15-2.35-.45-.69-.3-1.23-.72-1.63-1.26-.4-.54-.61-1.17-.64-1.88h2.01c.02.39.15.72.39,1.01.24.28.55.5.93.65.38.15.81.23,1.28.23.52,0,.97-.09,1.37-.27.4-.18.71-.43.94-.75.23-.32.34-.7.34-1.12s-.11-.83-.34-1.16c-.22-.34-.55-.6-.98-.79-.43-.19-.94-.29-1.55-.29h-1.11v-1.61h1.11c.49,0,.91-.09,1.28-.26.37-.18.66-.42.87-.73.21-.32.31-.68.31-1.11s-.09-.76-.27-1.05c-.18-.3-.43-.54-.77-.71-.33-.17-.72-.26-1.16-.26s-.83.08-1.2.24c-.37.15-.67.38-.9.66-.23.29-.35.63-.37,1.03h-1.91c.02-.71.23-1.33.63-1.87.4-.54.93-.96,1.58-1.26.66-.3,1.39-.45,2.19-.45s1.56.16,2.17.49c.61.32,1.09.76,1.42,1.3.34.54.5,1.13.5,1.78,0,.73-.2,1.36-.61,1.87-.41.51-.96.85-1.64,1.03v.1c.87.13,1.54.48,2.02,1.04.48.56.72,1.25.72,2.08,0,.72-.2,1.37-.6,1.94-.4.57-.95,1.02-1.64,1.35-.69.32-1.49.49-2.38.49ZM317.6,94.91v13.09h-1.98v-11.11h-.08l-3.13,2.05v-1.89l3.27-2.13h1.92Z"/>
      </g>
      <rect class="st6" x="-81.5" y="44.5" width="157" height="85" rx="11.5" ry="11.5"/>
      <rect class="st2" x="-81.5" y="44.5" width="157" height="85" rx="11.5" ry="11.5"/>
      <g>
        <rect class="st6" x="-74" y="52" width="142" height="70" rx="12" ry="12"/>
        <path class="st4" d="M-60.88,74v-10.18h6.31v1.32h-4.78v3.1h4.33v1.32h-4.33v4.44h-1.54ZM-50.14,74.15c-.72,0-1.34-.16-1.87-.49-.53-.33-.95-.79-1.24-1.38s-.44-1.28-.44-2.07.15-1.48.44-2.08c.3-.59.71-1.05,1.24-1.38s1.16-.49,1.87-.49,1.34.16,1.87.49.95.79,1.24,1.38c.29.59.44,1.29.44,2.08s-.15,1.48-.44,2.07-.71,1.05-1.24,1.38c-.53.33-1.16.49-1.87.49ZM-50.14,72.91c.46,0,.85-.12,1.15-.37.3-.25.53-.57.68-.98.15-.41.22-.86.22-1.35s-.07-.93-.22-1.34c-.15-.41-.37-.74-.68-.99-.31-.25-.69-.37-1.15-.37s-.86.12-1.16.37c-.3.25-.53.58-.68.99-.15.41-.22.86-.22,1.34s.07.94.22,1.35c.15.41.38.73.68.98.31.25.7.37,1.16.37ZM-43.44,63.82v10.18h-1.49v-10.18h1.49ZM-39.95,63.82v10.18h-1.49v-10.18h1.49ZM-34.73,74.15c-.72,0-1.34-.16-1.87-.49-.53-.33-.95-.79-1.24-1.38-.3-.59-.44-1.28-.44-2.07s.15-1.48.44-2.08c.29-.59.71-1.05,1.24-1.38s1.16-.49,1.87-.49,1.34.16,1.87.49.95.79,1.24,1.38.44,1.29.44,2.08-.15,1.48-.44,2.07c-.3.59-.71,1.05-1.24,1.38-.53.33-1.16.49-1.87.49ZM-34.73,72.91c.46,0,.85-.12,1.15-.37.3-.25.53-.57.68-.98.15-.41.22-.86.22-1.35s-.07-.93-.22-1.34c-.15-.41-.37-.74-.68-.99-.31-.25-.69-.37-1.15-.37s-.86.12-1.16.37c-.3.25-.53.58-.68.99-.15.41-.22.86-.22,1.34s.07.94.22,1.35c.15.41.38.73.68.98.31.25.7.37,1.16.37ZM-28.09,74l-2.25-7.64h1.54l1.5,5.61h.07l1.5-5.61h1.54l1.49,5.58h.07l1.49-5.58h1.54l-2.24,7.64h-1.52l-1.55-5.51h-.11l-1.55,5.51h-1.51ZM-15.14,74.15c-.75,0-1.4-.16-1.94-.48-.54-.32-.96-.78-1.25-1.37-.29-.59-.44-1.28-.44-2.07s.15-1.47.44-2.07c.29-.6.71-1.06,1.23-1.4.53-.33,1.15-.5,1.86-.5.43,0,.85.07,1.25.21.4.14.77.37,1.09.67.32.31.58.7.76,1.19.19.48.28,1.07.28,1.76v.53h-6.07v-1.11h4.61c0-.39-.08-.74-.24-1.04-.16-.31-.38-.55-.67-.72-.28-.18-.62-.26-1-.26-.42,0-.78.1-1.09.31-.31.2-.55.47-.72.8-.17.32-.25.68-.25,1.06v.87c0,.51.09.94.27,1.3.18.36.44.63.76.82.32.19.7.28,1.14.28.28,0,.54-.04.77-.12.23-.08.43-.21.6-.37.17-.16.3-.36.39-.6l1.41.25c-.11.41-.31.78-.61,1.09-.29.31-.65.55-1.09.72-.43.17-.93.25-1.49.25ZM-10.21,74v-7.64h1.44v1.21h.08c.14-.41.38-.73.74-.97.35-.24.76-.36,1.2-.36.09,0,.2,0,.33,0,.13,0,.23.01.3.02v1.42c-.06-.02-.17-.03-.32-.05-.15-.02-.3-.03-.46-.03-.35,0-.66.07-.94.22-.27.15-.49.35-.65.61-.16.26-.24.55-.24.88v4.66h-1.49ZM.89,68.23l-1.35.24c-.06-.17-.15-.34-.27-.49-.12-.16-.28-.28-.49-.38-.21-.1-.46-.15-.77-.15-.42,0-.77.09-1.05.28-.28.19-.42.43-.42.72,0,.26.09.46.28.62s.49.28.91.38l1.21.28c.7.16,1.23.41,1.57.75.34.34.52.78.52,1.32,0,.46-.13.87-.4,1.22-.26.35-.63.63-1.1.84-.47.2-1.01.3-1.63.3-.86,0-1.55-.18-2.09-.55-.54-.37-.87-.89-.99-1.57l1.44-.22c.09.37.27.66.55.85.28.19.64.28,1.09.28.49,0,.88-.1,1.17-.3.29-.21.44-.46.44-.75,0-.24-.09-.44-.27-.6-.18-.16-.45-.28-.81-.37l-1.29-.28c-.71-.16-1.24-.42-1.58-.78-.34-.35-.51-.8-.51-1.35,0-.45.13-.85.38-1.18.25-.34.6-.6,1.04-.79.44-.19.95-.29,1.53-.29.83,0,1.47.18,1.95.54.47.35.79.83.94,1.43Z"/>
        <path class="st1" d="M14,107.83v-11.67M14,96.17l-5.83,5.83M14,96.17l5.83,5.83"/>
        <path class="st5" d="M30.52,107.14c-.68,0-1.29-.12-1.83-.35-.53-.24-.96-.56-1.27-.98-.31-.42-.47-.91-.5-1.46h1.56c.02.3.12.56.3.79.19.22.43.39.73.51.3.12.63.18.99.18.4,0,.76-.07,1.06-.21.31-.14.56-.33.73-.58.18-.25.26-.54.26-.87s-.09-.64-.26-.9c-.17-.26-.43-.47-.76-.62-.33-.15-.73-.22-1.2-.22h-.86v-1.25h.86c.38,0,.71-.07.99-.2.29-.14.51-.32.68-.57.16-.25.24-.53.24-.86s-.07-.59-.21-.82c-.14-.24-.34-.42-.6-.55-.26-.13-.56-.2-.9-.2s-.64.06-.93.18c-.28.12-.52.29-.7.52-.18.22-.28.49-.29.8h-1.49c.02-.55.18-1.03.49-1.45.31-.42.72-.74,1.23-.98.51-.24,1.08-.35,1.7-.35s1.22.13,1.69.38c.48.25.85.59,1.1,1.01.26.42.39.88.39,1.38,0,.57-.16,1.05-.48,1.45-.32.4-.74.66-1.27.8v.08c.68.1,1.2.37,1.57.8.37.43.56.97.56,1.62,0,.56-.15,1.06-.47,1.51-.31.44-.74.79-1.28,1.05-.54.25-1.16.38-1.85.38ZM36,107v-1.11l3.45-3.57c.37-.39.67-.73.91-1.02.24-.29.42-.57.54-.84.12-.26.18-.55.18-.84,0-.34-.08-.63-.24-.88-.16-.25-.38-.44-.65-.57-.28-.14-.58-.2-.93-.2-.36,0-.68.07-.95.22-.27.15-.48.36-.63.63-.15.27-.22.59-.22.95h-1.47c0-.62.14-1.16.43-1.63.28-.46.68-.82,1.17-1.08.5-.26,1.06-.39,1.7-.39s1.2.13,1.69.38c.49.25.87.6,1.15,1.03.28.43.41.92.41,1.47,0,.38-.07.75-.21,1.11-.14.36-.38.76-.73,1.21-.35.44-.83.98-1.45,1.61l-2.02,2.12v.07h4.58v1.32h-6.7ZM49.9,105.09v-.54c0-.38.08-.74.24-1.05.16-.32.4-.58.71-.77.31-.19.69-.29,1.13-.29s.83.1,1.13.29c.3.19.54.45.69.77.16.32.24.67.24,1.06v.54c0,.38-.08.74-.24,1.06-.16.32-.39.57-.7.77-.3.19-.68.29-1.12.29s-.83-.1-1.13-.29c-.31-.19-.54-.45-.7-.77-.16-.32-.24-.68-.24-1.06ZM51.06,104.55v.54c0,.28.07.54.2.77.14.23.37.35.71.35s.57-.12.7-.35c.13-.23.2-.49.2-.77v-.54c0-.29-.06-.54-.19-.78-.13-.23-.36-.35-.71-.35s-.57.12-.71.35c-.14.23-.21.49-.21.78ZM44.78,99.26v-.54c0-.38.08-.74.24-1.06.16-.32.4-.58.71-.77.31-.19.69-.29,1.13-.29s.83.1,1.13.29c.31.19.54.45.69.77.16.32.23.67.23,1.06v.54c0,.38-.08.74-.24,1.06-.16.32-.39.58-.7.77-.3.19-.68.29-1.12.29s-.83-.1-1.14-.29c-.3-.2-.54-.45-.7-.77-.16-.32-.24-.67-.24-1.06ZM45.95,98.73v.54c0,.29.07.54.2.78.14.23.37.35.71.35s.56-.12.7-.35c.14-.23.2-.49.2-.78v-.54c0-.29-.06-.54-.19-.78-.13-.23-.36-.35-.71-.35s-.57.12-.71.35c-.14.23-.2.49-.2.78ZM45.26,107l7-10.18h1.19l-7,10.18h-1.19Z"/>
      </g>
      <rect class="st6" x="82.5" y="138.5" width="154" height="85" rx="11.5" ry="11.5"/>
      <rect class="st2" x="82.5" y="138.5" width="154" height="85" rx="11.5" ry="11.5"/>
      <g>
        <rect class="st6" x="90" y="146" width="139" height="70" rx="12" ry="12"/>
        <path class="st4" d="M103.12,168v-10.18h6.38v1.32h-4.85v3.1h4.51v1.32h-4.51v3.12h4.91v1.32h-6.44ZM112.92,163.47v4.53h-1.49v-7.64h1.43v1.24h.09c.18-.4.45-.73.82-.97.38-.25.85-.37,1.43-.37.52,0,.98.11,1.37.33.39.22.69.54.91.97.22.43.32.96.32,1.59v4.86h-1.49v-4.68c0-.55-.14-.99-.43-1.3-.29-.32-.68-.47-1.19-.47-.34,0-.65.07-.92.22-.26.15-.47.37-.63.66-.15.28-.23.63-.23,1.03ZM123,171.02c-.61,0-1.13-.08-1.57-.24-.44-.16-.79-.37-1.06-.63s-.48-.55-.62-.86l1.28-.53c.09.14.21.3.36.46.15.17.36.31.62.42.26.12.6.17,1.01.17.56,0,1.03-.14,1.4-.41.37-.27.55-.71.55-1.3v-1.5h-.1c-.09.16-.22.34-.39.54-.17.2-.39.37-.69.52-.29.15-.67.22-1.14.22-.6,0-1.15-.14-1.63-.42-.48-.29-.86-.7-1.14-1.26-.28-.56-.42-1.24-.42-2.05s.14-1.51.41-2.09c.28-.58.66-1.02,1.14-1.33.48-.31,1.03-.47,1.65-.47.47,0,.86.08,1.15.24.29.16.52.34.68.55.17.21.29.39.38.55h.11v-1.24h1.46v7.81c0,.66-.15,1.19-.46,1.62-.31.42-.72.73-1.24.93-.52.2-1.1.3-1.75.3ZM122.99,166.65c.43,0,.79-.1,1.08-.3.3-.2.52-.49.68-.87.16-.38.23-.83.23-1.36s-.08-.97-.23-1.36c-.15-.39-.38-.7-.67-.91-.29-.22-.66-.33-1.09-.33s-.82.12-1.12.35c-.3.23-.52.54-.68.93-.15.39-.22.84-.22,1.32s.08.94.23,1.32c.15.38.38.67.68.89.3.21.67.32,1.11.32ZM130.66,168.17c-.48,0-.92-.09-1.31-.27-.39-.18-.7-.45-.93-.79-.23-.35-.34-.77-.34-1.27,0-.43.08-.78.25-1.06.17-.28.39-.5.67-.66.28-.16.6-.29.95-.37.35-.08.7-.15,1.06-.19.46-.05.83-.1,1.11-.13.29-.04.49-.09.62-.17.13-.08.19-.21.19-.39v-.03c0-.44-.12-.77-.37-1.01-.24-.24-.6-.36-1.08-.36s-.9.11-1.18.33c-.29.22-.48.46-.59.73l-1.4-.32c.17-.46.41-.84.73-1.12.32-.29.69-.5,1.11-.63.42-.13.86-.2,1.32-.2.3,0,.63.04.97.11.35.07.67.2.96.39.3.19.55.46.74.81.19.35.29.8.29,1.36v5.07h-1.45v-1.04h-.06c-.1.19-.24.38-.43.57-.19.18-.44.34-.74.46-.3.12-.66.18-1.08.18ZM130.99,166.98c.41,0,.76-.08,1.05-.24.29-.16.52-.37.67-.64.16-.26.23-.55.23-.85v-.99c-.05.05-.16.1-.31.15-.15.04-.32.08-.51.11-.19.03-.38.06-.56.08-.18.02-.34.04-.46.06-.29.04-.55.1-.79.18-.24.09-.42.21-.57.37-.14.16-.21.37-.21.64,0,.37.14.65.41.84.27.19.62.28,1.04.28ZM139.62,171.02c-.61,0-1.13-.08-1.57-.24-.43-.16-.79-.37-1.06-.63s-.48-.55-.62-.86l1.28-.53c.09.14.21.3.36.46.15.17.36.31.62.42.26.12.6.17,1.01.17.56,0,1.03-.14,1.4-.41.37-.27.55-.71.55-1.3v-1.5h-.1c-.09.16-.22.34-.39.54-.17.2-.4.37-.69.52-.29.15-.67.22-1.14.22-.6,0-1.15-.14-1.63-.42-.48-.29-.86-.7-1.14-1.26-.28-.56-.42-1.24-.42-2.05s.14-1.51.41-2.09c.28-.58.66-1.02,1.14-1.33.48-.31,1.03-.47,1.65-.47.47,0,.86.08,1.15.24.29.16.52.34.68.55.16.21.29.39.38.55h.11v-1.24h1.46v7.81c0,.66-.15,1.19-.46,1.62-.3.42-.72.73-1.24.93-.52.2-1.1.3-1.75.3ZM139.6,166.65c.43,0,.79-.1,1.08-.3.3-.2.52-.49.68-.87.16-.38.23-.83.23-1.36s-.08-.97-.23-1.36c-.15-.39-.38-.7-.67-.91-.29-.22-.66-.33-1.09-.33s-.82.12-1.12.35c-.3.23-.52.54-.68.93-.15.39-.22.84-.22,1.32s.08.94.23,1.32c.15.38.38.67.68.89.3.21.67.32,1.11.32ZM148.35,168.15c-.75,0-1.4-.16-1.94-.48-.54-.32-.96-.78-1.25-1.37-.29-.59-.44-1.28-.44-2.07s.15-1.47.44-2.07c.29-.6.71-1.06,1.23-1.4.53-.33,1.15-.5,1.86-.5.43,0,.85.07,1.25.21.4.14.77.37,1.09.67.32.3.57.7.76,1.19.19.48.28,1.07.28,1.76v.53h-6.07v-1.11h4.61c0-.39-.08-.74-.24-1.04-.16-.31-.38-.55-.67-.72-.29-.18-.62-.26-1-.26-.42,0-.78.1-1.09.31-.31.2-.55.47-.72.8-.17.33-.25.68-.25,1.06v.87c0,.51.09.94.27,1.3.18.36.44.63.76.82.32.18.7.28,1.14.28.28,0,.54-.04.77-.12.23-.08.43-.21.6-.37.17-.16.3-.36.39-.6l1.41.25c-.11.41-.31.78-.61,1.09-.29.31-.65.55-1.09.72-.43.17-.93.25-1.49.25ZM153.27,168v-7.64h1.43v1.24h.09c.16-.42.42-.75.78-.99.36-.24.79-.36,1.3-.36s.94.12,1.28.36c.35.24.6.57.77.99h.08c.18-.41.47-.73.87-.97.4-.25.87-.37,1.42-.37.69,0,1.26.22,1.7.65.44.44.66,1.09.66,1.96v5.12h-1.49v-4.98c0-.52-.14-.89-.42-1.12-.28-.23-.62-.35-1.01-.35-.48,0-.86.15-1.13.45-.27.29-.4.68-.4,1.14v4.87h-1.48v-5.08c0-.41-.13-.75-.39-1-.26-.25-.59-.38-1.01-.38-.28,0-.54.07-.78.22-.24.15-.43.35-.57.61-.14.26-.21.57-.21.91v4.71h-1.49ZM168.93,168.15c-.75,0-1.4-.16-1.94-.48-.54-.32-.96-.78-1.25-1.37-.29-.59-.44-1.28-.44-2.07s.15-1.47.44-2.07c.29-.6.71-1.06,1.23-1.4.53-.33,1.15-.5,1.86-.5.43,0,.85.07,1.25.21.41.14.77.37,1.09.67.32.3.57.7.76,1.19.18.48.28,1.07.28,1.76v.53h-6.07v-1.11h4.61c0-.39-.08-.74-.24-1.04-.16-.31-.38-.55-.67-.72-.29-.18-.62-.26-1-.26-.42,0-.78.1-1.09.31-.31.2-.55.47-.72.8-.17.33-.25.68-.25,1.06v.87c0,.51.09.94.27,1.3.18.36.44.63.76.82.32.18.71.28,1.14.28.28,0,.54-.04.77-.12.23-.08.43-.21.6-.37.17-.16.3-.36.39-.6l1.41.25c-.11.41-.32.78-.61,1.09-.29.31-.65.55-1.09.72-.43.17-.93.25-1.49.25ZM175.35,163.47v4.53h-1.49v-7.64h1.43v1.24h.1c.18-.4.45-.73.82-.97.38-.25.85-.37,1.43-.37.52,0,.98.11,1.37.33.39.22.69.54.91.97.22.43.32.96.32,1.59v4.86h-1.49v-4.68c0-.55-.14-.99-.43-1.3-.29-.32-.68-.47-1.19-.47-.35,0-.65.07-.92.22-.26.15-.48.37-.63.66-.15.28-.23.63-.23,1.03ZM185.79,160.36v1.19h-4.17v-1.19h4.17ZM182.74,158.53h1.49v7.22c0,.29.04.51.13.65.09.14.2.24.33.29.14.05.29.07.45.07.12,0,.22,0,.31-.02.09-.02.16-.03.21-.04l.27,1.23c-.09.03-.21.07-.37.1-.16.04-.36.06-.6.06-.39,0-.76-.06-1.09-.21-.34-.15-.61-.37-.82-.68-.21-.3-.31-.69-.31-1.15v-7.53Z"/>
      </g>
      <rect class="st6" x="245.5" y="138.5" width="152" height="85" rx="11.5" ry="11.5"/>
      <rect class="st2" x="245.5" y="138.5" width="152" height="85" rx="11.5" ry="11.5"/>
      <g>
        <rect class="st6" x="253" y="146" width="137" height="70" rx="12" ry="12"/>
        <path class="st4" d="M271.67,160.49c-.05-.47-.27-.83-.66-1.09-.38-.26-.87-.39-1.45-.39-.42,0-.78.07-1.08.2-.31.13-.54.31-.71.54-.17.23-.25.48-.25.77,0,.24.06.45.17.63.12.18.27.32.45.44.19.12.39.21.61.29.21.08.42.14.62.19l.99.26c.32.08.66.19,1,.32.34.14.66.31.95.54.29.22.53.5.71.82.18.33.27.72.27,1.18,0,.58-.15,1.09-.45,1.54-.3.45-.72.8-1.29,1.06-.56.26-1.24.39-2.03.39s-1.42-.12-1.98-.36c-.56-.24-.99-.59-1.31-1.03-.32-.45-.49-.98-.52-1.59h1.54c.03.37.15.67.36.92.21.24.48.42.81.54.33.12.7.17,1.09.17.43,0,.82-.07,1.16-.2.34-.14.61-.33.8-.58.2-.25.29-.54.29-.87,0-.3-.09-.55-.26-.74-.17-.19-.4-.35-.69-.48-.29-.13-.61-.24-.98-.33l-1.2-.33c-.82-.22-1.46-.55-1.94-.98-.47-.43-.71-1-.71-1.71,0-.59.16-1.1.48-1.54.32-.44.75-.78,1.29-1.02.54-.24,1.16-.37,1.84-.37s1.3.12,1.82.36c.53.24.95.57,1.25,1,.3.42.46.9.48,1.45h-1.48ZM276.5,157.82v10.18h-1.49v-10.18h1.49ZM278.49,168v-7.64h1.49v7.64h-1.49ZM279.25,159.18c-.26,0-.48-.09-.67-.26-.18-.18-.27-.38-.27-.63s.09-.45.27-.63c.19-.18.41-.26.67-.26s.48.09.66.26c.19.17.28.38.28.63s-.09.45-.28.63c-.18.17-.4.26-.66.26ZM284.84,168.15c-.62,0-1.17-.16-1.65-.47-.48-.32-.86-.77-1.13-1.36-.27-.59-.41-1.3-.41-2.12s.14-1.53.41-2.12c.28-.59.66-1.04,1.14-1.35.48-.31,1.03-.47,1.65-.47.47,0,.85.08,1.14.24.29.16.52.34.68.55.16.21.29.39.38.55h.09v-3.78h1.49v10.18h-1.45v-1.19h-.12c-.09.16-.22.35-.39.56-.17.21-.39.39-.69.55-.29.16-.67.23-1.13.23ZM285.17,166.88c.43,0,.79-.11,1.08-.34.3-.23.52-.54.68-.95.16-.4.23-.88.23-1.41s-.08-1-.23-1.39c-.15-.4-.38-.71-.67-.93-.29-.22-.66-.33-1.09-.33s-.82.12-1.12.35c-.3.23-.52.55-.68.95-.15.4-.22.85-.22,1.36s.08.97.23,1.38c.15.41.38.73.68.97.3.24.67.35,1.11.35ZM294.04,168.15c-.75,0-1.4-.16-1.94-.48-.54-.32-.96-.78-1.25-1.37-.29-.59-.44-1.28-.44-2.07s.15-1.47.44-2.07c.3-.6.71-1.06,1.23-1.4.53-.33,1.15-.5,1.86-.5.43,0,.85.07,1.25.21.4.14.77.37,1.09.67.32.3.58.7.76,1.19.19.48.28,1.07.28,1.76v.53h-6.07v-1.11h4.61c0-.39-.08-.74-.24-1.04-.16-.31-.38-.55-.67-.72-.29-.18-.62-.26-1-.26-.42,0-.78.1-1.09.31-.31.2-.55.47-.72.8-.16.33-.25.68-.25,1.06v.87c0,.51.09.94.27,1.3.18.36.44.63.76.82.33.18.7.28,1.14.28.28,0,.54-.04.77-.12.23-.08.43-.21.6-.37.17-.16.3-.36.39-.6l1.41.25c-.11.41-.31.78-.61,1.09-.29.31-.65.55-1.09.72-.43.17-.93.25-1.49.25ZM298.96,168v-7.64h1.44v1.21h.08c.14-.41.38-.73.73-.97.36-.24.76-.36,1.2-.36.09,0,.2,0,.33.01.13,0,.23.01.3.02v1.42c-.06-.02-.17-.03-.32-.05-.15-.02-.3-.04-.46-.04-.35,0-.66.07-.94.22-.27.15-.49.35-.65.61-.16.26-.24.55-.24.89v4.66h-1.49ZM309.05,157.82l2.83,8.29h.11l2.83-8.29h1.66l-3.66,10.18h-1.77l-3.66-10.18h1.66ZM320.29,168.15c-.72,0-1.34-.16-1.87-.49-.53-.33-.95-.79-1.24-1.38-.3-.59-.44-1.28-.44-2.07s.15-1.49.44-2.08c.29-.59.71-1.05,1.24-1.38.53-.33,1.16-.49,1.87-.49s1.34.16,1.87.49c.53.33.95.79,1.24,1.38.29.59.44,1.29.44,2.08s-.15,1.48-.44,2.07c-.3.59-.71,1.05-1.24,1.38-.53.33-1.16.49-1.87.49ZM320.3,166.91c.46,0,.85-.12,1.15-.37.3-.24.53-.57.68-.98.15-.41.22-.86.22-1.35s-.07-.94-.22-1.34c-.15-.41-.37-.74-.68-.99-.3-.25-.69-.37-1.15-.37s-.86.12-1.16.37c-.3.25-.53.58-.68.99-.15.41-.22.85-.22,1.34s.07.94.22,1.35c.15.41.38.73.68.98.31.25.7.37,1.16.37ZM329.08,160.36v1.19h-4.17v-1.19h4.17ZM326.02,158.53h1.49v7.22c0,.29.04.51.13.65.09.14.2.24.33.29.14.05.29.07.45.07.12,0,.22,0,.31-.02.09-.02.16-.03.21-.04l.27,1.23c-.09.03-.21.07-.37.1-.16.04-.36.06-.6.06-.39,0-.76-.06-1.09-.21-.34-.15-.61-.37-.82-.68-.21-.3-.31-.69-.31-1.15v-7.53ZM333.93,168.15c-.75,0-1.4-.16-1.94-.48-.54-.32-.96-.78-1.25-1.37-.29-.59-.44-1.28-.44-2.07s.15-1.47.44-2.07c.29-.6.71-1.06,1.23-1.4.53-.33,1.15-.5,1.86-.5.43,0,.85.07,1.25.21.4.14.77.37,1.09.67.32.3.58.7.76,1.19.19.48.28,1.07.28,1.76v.53h-6.07v-1.11h4.61c0-.39-.08-.74-.24-1.04-.16-.31-.38-.55-.67-.72-.29-.18-.62-.26-1-.26-.42,0-.78.1-1.09.31-.31.2-.55.47-.72.8-.17.33-.25.68-.25,1.06v.87c0,.51.09.94.27,1.3.18.36.44.63.76.82.32.18.7.28,1.14.28.28,0,.54-.04.77-.12.23-.08.43-.21.6-.37s.3-.36.39-.6l1.41.25c-.11.41-.32.78-.61,1.09-.29.31-.65.55-1.09.72-.43.17-.93.25-1.49.25ZM344.58,162.23l-1.35.24c-.06-.17-.15-.34-.27-.49-.12-.15-.28-.28-.49-.38-.21-.1-.46-.15-.77-.15-.42,0-.77.1-1.05.28-.28.18-.42.43-.42.72,0,.25.09.46.28.62.19.16.49.28.92.38l1.21.28c.7.16,1.23.41,1.57.75.35.34.52.78.52,1.32,0,.46-.13.87-.4,1.22-.26.35-.63.63-1.1.83-.47.2-1.01.3-1.63.3-.85,0-1.55-.18-2.09-.55-.54-.37-.87-.89-.99-1.57l1.44-.22c.09.38.27.66.55.85.28.19.64.28,1.09.28.49,0,.88-.1,1.17-.3.29-.21.44-.46.44-.75,0-.24-.09-.44-.27-.6-.18-.16-.45-.29-.81-.37l-1.29-.28c-.71-.16-1.24-.42-1.58-.78-.34-.35-.51-.8-.51-1.35,0-.45.13-.85.38-1.18.25-.34.6-.6,1.04-.79.44-.19.95-.29,1.53-.29.82,0,1.47.18,1.95.54.47.36.79.83.94,1.43Z"/>
      </g>
      <rect class="st6" x="-80.5" y="138.5" width="157" height="85" rx="11.5" ry="11.5"/>
      <rect class="st2" x="-80.5" y="138.5" width="157" height="85" rx="11.5" ry="11.5"/>
      <g>
        <rect class="st6" x="-73" y="146" width="142" height="70" rx="12" ry="12"/>
        <path class="st4" d="M-54.33,160.49c-.05-.47-.27-.83-.66-1.09-.38-.26-.87-.39-1.45-.39-.42,0-.78.07-1.08.2-.3.13-.54.31-.71.54-.17.23-.25.48-.25.77,0,.24.06.45.17.63.12.18.27.32.45.44.19.12.39.21.61.29.22.08.42.14.62.19l.99.26c.32.08.66.19,1,.32.34.14.66.31.95.54.29.22.53.5.71.82.18.33.27.72.27,1.18,0,.58-.15,1.09-.45,1.54-.29.45-.72.8-1.29,1.06-.56.26-1.24.39-2.03.39s-1.42-.12-1.98-.36c-.56-.24-.99-.59-1.31-1.03-.31-.45-.49-.98-.52-1.59h1.54c.03.37.15.67.36.92.21.24.48.42.81.54.33.12.69.17,1.09.17.43,0,.82-.07,1.16-.2.34-.14.61-.33.81-.58.2-.25.29-.54.29-.87,0-.3-.09-.55-.26-.74-.17-.19-.4-.35-.69-.48-.29-.13-.61-.24-.98-.33l-1.2-.33c-.82-.22-1.46-.55-1.94-.98-.47-.43-.71-1-.71-1.71,0-.59.16-1.1.48-1.54.32-.44.75-.78,1.29-1.02.54-.24,1.16-.37,1.84-.37s1.3.12,1.82.36c.53.24.95.57,1.25,1,.3.42.46.9.48,1.45h-1.48ZM-46.15,164.83v-4.47h1.49v7.64h-1.46v-1.32h-.08c-.18.41-.46.75-.85,1.02-.38.27-.86.4-1.44.4-.49,0-.92-.11-1.3-.32-.37-.22-.67-.54-.88-.97-.21-.43-.32-.96-.32-1.59v-4.86h1.49v4.68c0,.52.14.93.43,1.24.29.31.66.46,1.12.46.28,0,.56-.07.83-.21.28-.14.51-.35.69-.63.19-.28.28-.64.27-1.07ZM-42.66,168v-7.64h1.44v1.21h.08c.14-.41.38-.73.74-.97.35-.24.76-.36,1.2-.36.09,0,.2,0,.33.01.13,0,.23.01.3.02v1.42c-.06-.02-.17-.03-.32-.05-.15-.02-.3-.04-.46-.04-.35,0-.66.07-.94.22-.27.15-.49.35-.65.61-.16.26-.24.55-.24.89v4.66h-1.49ZM-30.53,160.36l-2.77,7.64h-1.59l-2.77-7.64h1.6l1.93,5.88h.08l1.93-5.88h1.6ZM-26.1,168.15c-.75,0-1.4-.16-1.94-.48-.54-.32-.96-.78-1.25-1.37-.29-.59-.44-1.28-.44-2.07s.15-1.47.44-2.07c.3-.6.71-1.06,1.23-1.4.53-.33,1.15-.5,1.86-.5.43,0,.85.07,1.25.21.4.14.77.37,1.09.67.32.3.58.7.76,1.19.19.48.28,1.07.28,1.76v.53h-6.07v-1.11h4.61c0-.39-.08-.74-.24-1.04-.16-.31-.38-.55-.67-.72-.28-.18-.62-.26-1-.26-.42,0-.78.1-1.09.31-.31.2-.55.47-.72.8-.17.33-.25.68-.25,1.06v.87c0,.51.09.94.27,1.3.18.36.44.63.76.82.32.18.7.28,1.14.28.28,0,.54-.04.77-.12.23-.08.43-.21.6-.37.17-.16.3-.36.39-.6l1.41.25c-.11.41-.31.78-.61,1.09-.29.31-.65.55-1.09.72-.43.17-.93.25-1.49.25ZM-20.45,170.86c-.22,0-.42-.02-.61-.05-.18-.03-.32-.07-.41-.11l.36-1.22c.27.07.51.1.73.09.21-.01.4-.09.56-.24.17-.15.31-.39.44-.73l.18-.51-2.79-7.74h1.59l1.93,5.93h.08l1.93-5.93h1.6l-3.15,8.65c-.15.4-.33.73-.56,1.01-.23.28-.49.49-.81.63-.31.14-.67.21-1.08.21ZM-8.75,157.82l2.83,8.29h.11l2.83-8.29h1.66l-3.66,10.18h-1.77l-3.66-10.18h1.66ZM2.5,168.15c-.72,0-1.34-.16-1.87-.49-.53-.33-.95-.79-1.24-1.38-.29-.59-.44-1.28-.44-2.07s.15-1.49.44-2.08c.29-.59.71-1.05,1.24-1.38.53-.33,1.16-.49,1.87-.49s1.34.16,1.87.49c.53.33.95.79,1.24,1.38.29.59.44,1.29.44,2.08s-.15,1.48-.44,2.07-.71,1.05-1.24,1.38-1.16.49-1.87.49ZM2.5,166.91c.46,0,.85-.12,1.15-.37.3-.24.53-.57.68-.98.15-.41.22-.86.22-1.35s-.07-.94-.22-1.34c-.15-.41-.37-.74-.68-.99-.3-.25-.69-.37-1.15-.37s-.86.12-1.16.37c-.3.25-.53.58-.68.99-.15.41-.22.85-.22,1.34s.07.94.22,1.35c.15.41.38.73.68.98.31.25.7.37,1.16.37ZM11.28,160.36v1.19h-4.17v-1.19h4.17ZM8.23,158.53h1.49v7.22c0,.29.04.51.13.65.09.14.2.24.33.29.14.05.29.07.45.07.12,0,.22,0,.31-.02.09-.02.16-.03.21-.04l.27,1.23c-.09.03-.21.07-.37.1-.16.04-.36.06-.6.06-.39,0-.76-.06-1.09-.21-.34-.15-.61-.37-.82-.68-.21-.3-.31-.69-.31-1.15v-7.53ZM16.13,168.15c-.75,0-1.4-.16-1.94-.48-.54-.32-.96-.78-1.25-1.37-.29-.59-.44-1.28-.44-2.07s.15-1.47.44-2.07c.3-.6.71-1.06,1.23-1.4.53-.33,1.15-.5,1.86-.5.43,0,.85.07,1.25.21.4.14.77.37,1.09.67.32.3.58.7.76,1.19.19.48.28,1.07.28,1.76v.53h-6.07v-1.11h4.61c0-.39-.08-.74-.24-1.04-.16-.31-.38-.55-.67-.72-.28-.18-.62-.26-1-.26-.42,0-.78.1-1.09.31-.31.2-.55.47-.72.8-.17.33-.25.68-.25,1.06v.87c0,.51.09.94.27,1.3.18.36.44.63.76.82.32.18.7.28,1.14.28.28,0,.54-.04.77-.12.23-.08.43-.21.6-.37.17-.16.3-.36.39-.6l1.41.25c-.11.41-.31.78-.61,1.09-.29.31-.65.55-1.09.72-.43.17-.93.25-1.49.25ZM26.78,162.23l-1.35.24c-.06-.17-.15-.34-.27-.49-.12-.15-.28-.28-.49-.38-.21-.1-.46-.15-.77-.15-.42,0-.77.1-1.05.28-.28.18-.42.43-.42.72,0,.25.09.46.28.62.19.16.49.28.91.38l1.21.28c.7.16,1.23.41,1.57.75.34.34.52.78.52,1.32,0,.46-.13.87-.4,1.22-.26.35-.63.63-1.1.83-.47.2-1.01.3-1.63.3-.86,0-1.55-.18-2.09-.55-.54-.37-.87-.89-.99-1.57l1.44-.22c.09.38.27.66.55.85.28.19.64.28,1.09.28.49,0,.88-.1,1.17-.3.29-.21.44-.46.44-.75,0-.24-.09-.44-.27-.6-.18-.16-.45-.29-.81-.37l-1.29-.28c-.71-.16-1.24-.42-1.58-.78-.34-.35-.51-.8-.51-1.35,0-.45.13-.85.38-1.18s.6-.6,1.04-.79c.44-.19.95-.29,1.53-.29.83,0,1.47.18,1.95.54.47.36.79.83.94,1.43Z"/>
      </g>
      <rect class="st6" x="82.5" y="-49.5" width="154" height="85" rx="11.5" ry="11.5"/>
      <rect class="st2" x="82.5" y="-49.5" width="154" height="85" rx="11.5" ry="11.5"/>
      <g>
        <rect class="st6" x="90" y="-42" width="139" height="70" rx="12" ry="12"/>
        <path class="st4" d="M108.23.91v13.09h-1.98V2.89h-.08l-3.13,2.05v-1.89l3.27-2.13h1.92ZM116.12.73c.58,0,1.16.11,1.73.32.57.21,1.08.55,1.53,1.02.46.47.83,1.11,1.1,1.92.28.8.42,1.8.42,2.99,0,1.15-.11,2.17-.35,3.06-.23.89-.56,1.64-.99,2.26-.43.61-.94,1.08-1.55,1.4s-1.29.48-2.06.48-1.47-.15-2.08-.46c-.6-.31-1.1-.73-1.48-1.27-.38-.55-.62-1.17-.71-1.88h1.95c.13.56.39,1.02.78,1.37.4.35.91.52,1.53.52.96,0,1.71-.42,2.24-1.25.54-.84.81-2.01.81-3.52h-.1c-.22.37-.5.68-.83.95-.33.26-.7.47-1.11.61-.41.14-.85.22-1.31.22-.75,0-1.44-.19-2.06-.56-.62-.37-1.11-.88-1.48-1.53s-.55-1.39-.55-2.22.19-1.58.56-2.25c.38-.67.91-1.21,1.58-1.6.68-.4,1.48-.59,2.4-.58ZM116.13,2.39c-.5,0-.95.12-1.35.37-.4.24-.71.57-.94.99-.23.41-.35.87-.35,1.38s.11.97.33,1.38c.23.41.53.74.92.98.39.24.84.36,1.34.36.38,0,.73-.07,1.05-.22.32-.14.61-.35.85-.6.24-.26.43-.55.57-.88.14-.33.21-.67.21-1.04,0-.48-.12-.93-.35-1.34-.23-.41-.54-.75-.93-1-.4-.26-.85-.38-1.36-.38ZM125.25,12.21l-.1.7c-.06.51-.17,1.04-.33,1.6-.15.56-.3,1.08-.47,1.55-.16.48-.29.86-.39,1.14h-1.36c.06-.26.13-.62.23-1.07.1-.45.19-.95.29-1.5.09-.55.16-1.12.21-1.69l.06-.72h1.84ZM131.9,14.18c-.92,0-1.73-.16-2.43-.47-.7-.32-1.25-.75-1.64-1.3-.4-.55-.59-1.18-.59-1.89,0-.55.11-1.06.34-1.53.24-.47.55-.86.95-1.17.4-.32.85-.52,1.34-.6v-.08c-.65-.16-1.17-.51-1.57-1.05-.39-.54-.59-1.16-.58-1.87,0-.67.17-1.27.53-1.79.36-.53.86-.94,1.49-1.25.63-.3,1.35-.45,2.15-.45s1.51.15,2.13.46c.63.3,1.13.72,1.49,1.25.36.52.55,1.12.55,1.78,0,.7-.2,1.33-.6,1.87-.4.54-.91.89-1.55,1.05v.08c.49.09.93.29,1.32.6.4.31.71.7.95,1.17.24.46.36.97.36,1.53,0,.71-.21,1.34-.6,1.89-.4.55-.95.99-1.65,1.3-.7.32-1.5.47-2.41.47ZM131.9,12.56c.54,0,1.01-.09,1.41-.27.4-.18.7-.44.92-.76.22-.33.33-.71.33-1.15,0-.46-.12-.86-.36-1.21-.23-.35-.54-.62-.94-.82-.4-.2-.85-.3-1.36-.3s-.97.1-1.37.3c-.4.2-.72.48-.95.82-.23.35-.34.75-.34,1.21,0,.44.1.82.31,1.15.22.32.53.58.93.76.4.18.87.27,1.42.27ZM131.9,6.47c.43,0,.82-.09,1.16-.26.34-.17.6-.42.79-.73.2-.31.3-.68.3-1.09,0-.41-.1-.77-.29-1.07-.19-.31-.45-.54-.79-.71-.34-.17-.73-.26-1.17-.26s-.85.09-1.19.26c-.34.17-.6.4-.79.71-.19.31-.28.66-.27,1.07,0,.42.09.78.28,1.09.19.31.46.55.79.73.34.17.73.26,1.18.26ZM138.85,14v-1.43l4.43-4.59c.47-.5.86-.94,1.17-1.31.31-.38.54-.74.7-1.08.15-.34.23-.7.23-1.09,0-.43-.1-.81-.31-1.12-.2-.32-.48-.56-.84-.74-.35-.17-.75-.26-1.19-.26-.47,0-.88.1-1.23.29-.35.19-.62.46-.8.81-.19.35-.28.76-.28,1.23h-1.89c0-.8.18-1.49.55-2.09.37-.6.87-1.06,1.51-1.39.64-.33,1.37-.5,2.18-.5s1.55.16,2.17.49c.63.32,1.12.77,1.48,1.33.35.56.53,1.19.53,1.89,0,.49-.09.96-.27,1.43-.18.46-.49.98-.94,1.55-.45.57-1.07,1.25-1.87,2.06l-2.6,2.72v.1h5.89v1.69h-8.62ZM149.89,14v-1.43l4.43-4.59c.47-.5.86-.94,1.17-1.31.31-.38.54-.74.7-1.08.15-.34.23-.7.23-1.09,0-.43-.1-.81-.31-1.12-.2-.32-.48-.56-.84-.74-.35-.17-.75-.26-1.2-.26-.47,0-.88.1-1.23.29-.35.19-.62.46-.81.81-.19.35-.28.76-.28,1.23h-1.89c0-.8.18-1.49.55-2.09.37-.6.87-1.06,1.51-1.39.64-.33,1.37-.5,2.18-.5s1.55.16,2.17.49c.63.32,1.12.77,1.48,1.33.35.56.53,1.19.53,1.89,0,.49-.09.96-.28,1.43-.18.46-.49.98-.94,1.55-.45.57-1.07,1.25-1.87,2.06l-2.6,2.72v.1h5.89v1.69h-8.62Z"/>
        <path class="st1" d="M178,13.83V2.17M178,2.17l-5.83,5.83M178,2.17l5.83,5.83"/>
        <path class="st5" d="M194.84,2.82v10.18h-1.54V4.36h-.06l-2.44,1.59v-1.47l2.54-1.66h1.5ZM200.96,13.14c-.62,0-1.18-.12-1.68-.36-.49-.24-.89-.57-1.18-.99-.29-.42-.45-.9-.47-1.44h1.49c.04.44.23.8.58,1.08.35.28.77.42,1.26.42.39,0,.74-.09,1.04-.27.3-.18.54-.43.72-.75.18-.32.26-.68.26-1.09s-.09-.78-.27-1.11-.43-.58-.74-.77c-.31-.19-.67-.28-1.07-.28-.31,0-.62.05-.93.16-.31.11-.56.25-.76.42l-1.41-.21.57-5.13h5.6v1.32h-4.32l-.32,2.85h.06c.2-.19.46-.35.79-.48.33-.13.69-.19,1.06-.19.62,0,1.17.15,1.65.44.49.29.87.7,1.15,1.21.28.51.42,1.09.42,1.75,0,.66-.15,1.25-.45,1.76-.3.52-.71.92-1.24,1.22-.53.3-1.13.44-1.82.44ZM211.59,11.09v-.54c0-.38.08-.74.24-1.05.16-.32.4-.58.71-.77.31-.2.69-.29,1.13-.29s.83.1,1.13.29c.3.19.54.45.69.77.16.32.24.67.24,1.06v.54c0,.38-.08.74-.24,1.06-.16.32-.39.57-.7.77-.3.19-.68.29-1.12.29s-.82-.1-1.13-.29c-.31-.2-.54-.45-.7-.77-.16-.32-.24-.67-.24-1.06ZM212.75,10.55v.54c0,.28.07.54.2.78s.37.35.71.35.57-.12.7-.35c.13-.23.2-.49.2-.78v-.54c0-.29-.06-.54-.19-.78-.13-.23-.36-.35-.71-.35s-.57.12-.71.35c-.14.23-.21.49-.21.78ZM206.47,5.26v-.54c0-.38.08-.74.24-1.06.16-.32.4-.58.71-.77.31-.19.69-.29,1.13-.29s.83.1,1.13.29c.3.19.54.45.69.77.16.32.23.67.23,1.06v.54c0,.38-.08.74-.24,1.06-.16.32-.39.58-.7.77-.31.19-.68.29-1.12.29s-.83-.1-1.14-.29c-.3-.2-.54-.45-.7-.77-.16-.32-.24-.67-.24-1.06ZM207.63,4.73v.54c0,.29.07.54.2.78.14.23.37.35.71.35s.56-.12.7-.35c.14-.23.2-.49.2-.78v-.54c0-.29-.06-.54-.19-.78-.13-.23-.36-.35-.71-.35s-.57.12-.71.35c-.14.23-.2.49-.2.78ZM206.94,13l7-10.18h1.19l-7,10.18h-1.19Z"/>
      </g>
      <rect class="st6" x="245.5" y="-49.5" width="152" height="85" rx="11.5" ry="11.5"/>
      <rect class="st2" x="245.5" y="-49.5" width="152" height="85" rx="11.5" ry="11.5"/>
      <g>
        <rect class="st6" x="253" y="-42" width="137" height="70" rx="12" ry="12"/>
        <path class="st4" d="M271.23.91v13.09h-1.98V2.89h-.08l-3.13,2.05v-1.89l3.27-2.13h1.92ZM274.77,14v-1.43l4.43-4.59c.47-.5.86-.94,1.17-1.31.31-.38.54-.74.7-1.08.15-.34.23-.7.23-1.09,0-.43-.1-.81-.31-1.12-.2-.32-.48-.56-.84-.74-.35-.17-.75-.26-1.19-.26-.47,0-.88.1-1.23.29-.35.19-.62.46-.81.81-.19.35-.28.76-.28,1.23h-1.89c0-.8.18-1.49.55-2.09.37-.6.87-1.06,1.51-1.39.64-.33,1.37-.5,2.18-.5s1.55.16,2.17.49c.63.32,1.12.77,1.48,1.33.35.56.53,1.19.53,1.89,0,.49-.09.96-.27,1.43-.18.46-.49.98-.94,1.55-.45.57-1.07,1.25-1.87,2.06l-2.6,2.72v.1h5.89v1.69h-8.62ZM288.32,12.21l-.1.7c-.06.51-.17,1.04-.33,1.6-.15.56-.3,1.08-.47,1.55-.16.48-.29.86-.39,1.14h-1.36c.05-.26.13-.62.23-1.07.1-.45.19-.95.29-1.5.09-.55.16-1.12.21-1.69l.06-.72h1.84ZM290.99,14v-1.43l4.43-4.59c.47-.5.86-.94,1.17-1.31.31-.38.54-.74.7-1.08.15-.34.23-.7.23-1.09,0-.43-.1-.81-.31-1.12-.2-.32-.48-.56-.84-.74-.35-.17-.75-.26-1.2-.26-.47,0-.88.1-1.23.29-.35.19-.62.46-.8.81-.19.35-.28.76-.28,1.23h-1.89c0-.8.18-1.49.55-2.09.37-.6.87-1.06,1.51-1.39.64-.33,1.37-.5,2.18-.5s1.55.16,2.17.49c.63.32,1.12.77,1.48,1.33.35.56.53,1.19.53,1.89,0,.49-.09.96-.27,1.43-.18.46-.49.98-.94,1.55-.45.57-1.07,1.25-1.87,2.06l-2.6,2.72v.1h5.89v1.69h-8.62ZM306.59,14.18c-.88,0-1.66-.15-2.35-.45-.69-.3-1.23-.72-1.63-1.26-.4-.54-.61-1.17-.64-1.88h2.01c.02.39.15.72.39,1.01.24.28.55.5.93.65.38.15.81.23,1.28.23.52,0,.97-.09,1.37-.27.4-.18.71-.43.94-.75.23-.32.34-.7.34-1.12s-.11-.82-.34-1.16c-.22-.34-.55-.6-.98-.79-.43-.19-.94-.29-1.55-.29h-1.11v-1.61h1.11c.49,0,.91-.09,1.28-.26.37-.17.66-.42.87-.73.21-.32.31-.68.31-1.11s-.09-.76-.27-1.05c-.18-.3-.43-.54-.77-.71-.33-.17-.72-.26-1.16-.26s-.83.08-1.2.24c-.37.15-.67.38-.9.66-.23.29-.35.63-.37,1.03h-1.91c.02-.71.23-1.33.63-1.87.4-.54.93-.96,1.58-1.26.66-.3,1.39-.45,2.19-.45s1.56.16,2.17.49c.61.32,1.09.76,1.42,1.3.34.54.5,1.13.5,1.78,0,.73-.2,1.36-.61,1.87-.41.51-.96.85-1.64,1.03v.1c.87.13,1.54.48,2.02,1.04.48.56.72,1.25.72,2.08,0,.72-.2,1.37-.6,1.94-.4.57-.95,1.02-1.64,1.35-.69.32-1.49.49-2.38.49ZM318.6.91v13.09h-1.98V2.89h-.08l-3.13,2.05v-1.89l3.27-2.13h1.92Z"/>
      </g>
      <rect class="st6" x="-80.5" y="-49.5" width="157" height="85" rx="11.5" ry="11.5"/>
      <rect class="st2" x="-80.5" y="-49.5" width="157" height="85" rx="11.5" ry="11.5"/>
      <g>
        <rect class="st6" x="-73" y="-42" width="142" height="70" rx="12" ry="12"/>
        <path class="st1" d="M15,13.83V2.17M15,2.17l-5.83,5.83M15,2.17l5.83,5.83"/>
        <path class="st5" d="M31.52,13.14c-.68,0-1.29-.12-1.83-.35-.53-.24-.96-.56-1.27-.98-.31-.42-.47-.91-.5-1.46h1.56c.02.3.12.56.3.79.19.22.43.39.73.51s.63.18.99.18c.4,0,.76-.07,1.06-.21.31-.14.56-.33.73-.58.18-.25.26-.54.26-.87s-.09-.64-.26-.9c-.17-.26-.43-.47-.76-.62-.33-.15-.73-.22-1.2-.22h-.86v-1.25h.86c.38,0,.71-.07.99-.2.29-.14.51-.32.68-.57.16-.25.24-.53.24-.86s-.07-.59-.21-.82c-.14-.24-.34-.42-.6-.55-.26-.13-.56-.2-.9-.2s-.64.06-.93.18c-.28.12-.52.29-.7.52-.18.22-.28.49-.29.8h-1.49c.02-.55.18-1.03.49-1.45.31-.42.72-.74,1.23-.98.51-.24,1.08-.35,1.7-.35s1.22.13,1.69.38c.48.25.85.59,1.1,1.01.26.42.39.88.39,1.38,0,.57-.16,1.05-.48,1.45-.32.4-.74.66-1.27.8v.08c.68.1,1.2.37,1.57.81.37.43.56.97.56,1.62,0,.56-.15,1.06-.47,1.51-.31.44-.74.79-1.28,1.05-.54.25-1.16.38-1.85.38ZM37,13v-1.11l3.45-3.57c.37-.39.67-.73.91-1.02.24-.29.42-.58.54-.84.12-.27.18-.55.18-.85,0-.34-.08-.63-.24-.88-.16-.25-.38-.44-.65-.57-.28-.14-.58-.2-.93-.2-.36,0-.68.07-.95.22-.27.15-.48.36-.63.63-.15.27-.22.59-.22.95h-1.47c0-.62.14-1.16.43-1.63.28-.46.68-.82,1.17-1.08.5-.26,1.06-.39,1.7-.39s1.2.13,1.69.38c.49.25.87.6,1.15,1.03.28.43.41.92.41,1.47,0,.38-.07.75-.21,1.11-.14.36-.38.76-.73,1.21-.35.44-.83.98-1.45,1.61l-2.02,2.12v.07h4.58v1.32h-6.7ZM50.9,11.09v-.54c0-.38.08-.74.24-1.05.16-.32.4-.58.71-.77.31-.2.69-.29,1.13-.29s.83.1,1.13.29c.3.19.54.45.69.77.16.32.24.67.24,1.06v.54c0,.38-.08.74-.24,1.06-.16.32-.39.57-.7.77-.3.19-.68.29-1.12.29s-.83-.1-1.13-.29c-.31-.2-.54-.45-.7-.77-.16-.32-.24-.67-.24-1.06ZM52.06,10.55v.54c0,.28.07.54.2.78.14.23.37.35.71.35s.57-.12.7-.35c.13-.23.2-.49.2-.78v-.54c0-.29-.06-.54-.19-.78-.13-.23-.36-.35-.71-.35s-.57.12-.71.35c-.14.23-.21.49-.21.78ZM45.78,5.26v-.54c0-.38.08-.74.24-1.06.16-.32.4-.58.71-.77.31-.19.69-.29,1.13-.29s.83.1,1.13.29c.31.19.54.45.69.77.16.32.23.67.23,1.06v.54c0,.38-.08.74-.24,1.06-.16.32-.39.58-.7.77-.3.19-.68.29-1.12.29s-.83-.1-1.14-.29c-.3-.2-.54-.45-.7-.77-.16-.32-.24-.67-.24-1.06ZM46.95,4.73v.54c0,.29.07.54.2.78.14.23.37.35.71.35s.56-.12.7-.35c.14-.23.2-.49.2-.78v-.54c0-.29-.06-.54-.19-.78-.13-.23-.36-.35-.71-.35s-.57.12-.71.35c-.14.23-.2.49-.2.78ZM46.26,13l7-10.18h1.19l-7,10.18h-1.19Z"/>
      </g>
      <rect class="st3" y="-25" width="318" height="57"/>
      <path class="st7" d="M38.5,32.26h317v56.74H38.5v-56.74Z"/>
    </g>
  </g>
</svg>