<?xml version="1.0" encoding="UTF-8"?>
<svg id="Calque_1" xmlns="http://www.w3.org/2000/svg" xmlns:xlink="http://www.w3.org/1999/xlink" version="1.1" viewBox="0 0 276 163">
  <!-- Generator: Adobe Illustrator 29.8.0, SVG Export Plug-In . SVG Version: 2.1.1 Build 160)  -->
  <defs>
    <style>
      .st0, .st1, .st2, .st3, .st4 {
        fill: none;
      }

      .st5 {
        fill: #242429;
      }

      .st1 {
        stroke: #fff;
      }

      .st1, .st2 {
        stroke-opacity: .1;
      }

      .st6 {
        fill: #f97316;
      }

      .st2 {
        stroke: url(#Dégradé_sans_nom);
      }

      .st7 {
        clip-path: url(#clippath-1);
      }

      .st8 {
        clip-path: url(#clippath-3);
      }

      .st9 {
        clip-path: url(#clippath-4);
      }

      .st10 {
        clip-path: url(#clippath-2);
      }

      .st11 {
        clip-path: url(#clippath-5);
      }

      .st12 {
        fill: #fff;
      }

      .st3 {
        stroke: #f97316;
      }

      .st4 {
        stroke: url(#Dégradé_sans_nom_5);
      }

      .st13 {
        clip-path: url(#clippath);
      }
    </style>
    <clipPath id="clippath">
      <rect class="st0" y="0" width="275.33" height="163"/>
    </clipPath>
    <linearGradient id="Dégradé_sans_nom" data-name="Dégradé sans nom" x1="51" y1="50.14" x2="109" y2="50.14" gradientTransform="translate(0 163.89) scale(1 -1)" gradientUnits="userSpaceOnUse">
      <stop offset="0" stop-color="#fff"/>
      <stop offset="1" stop-color="#999"/>
    </linearGradient>
    <clipPath id="clippath-1">
      <path class="st0" d="M51,56h0c13.81,0,25,11.19,25,25s-11.19,25-25,25-25-11.19-25-25,11.19-25,25-25Z"/>
    </clipPath>
    <clipPath id="clippath-2">
      <path class="st0" d="M109,56h0c13.81,0,25,11.19,25,25s-11.19,25-25,25-25-11.19-25-25,11.19-25,25-25Z"/>
    </clipPath>
    <clipPath id="clippath-3">
      <path class="st0" d="M167,56h0c13.81,0,25,11.19,25,25s-11.19,25-25,25-25-11.19-25-25,11.19-25,25-25Z"/>
    </clipPath>
    <clipPath id="clippath-4">
      <path class="st0" d="M225,56h0c13.81,0,25,11.19,25,25s-11.19,25-25,25-25-11.19-25-25,11.19-25,25-25Z"/>
    </clipPath>
    <linearGradient id="Dégradé_sans_nom_5" data-name="Dégradé sans nom 5" x1="199.83" y1="116.3" x2="251.2" y2="48.11" gradientTransform="translate(0 163.89) scale(1 -1)" gradientUnits="userSpaceOnUse">
      <stop offset="0" stop-color="#55d7f1"/>
      <stop offset="1" stop-color="#0186c8"/>
    </linearGradient>
    <clipPath id="clippath-5">
      <path class="st0" d="M225,56h0c13.81,0,25,11.19,25,25s-11.19,25-25,25-25-11.19-25-25,11.19-25,25-25Z"/>
    </clipPath>
  </defs>
  <g class="st13">
    <g>
      <path class="st2" d="M51,105.55v14.45c0,1.11.9,2,2,2h54c1.11,0,2-.89,2-2v-15"/>
      <path class="st1" d="M167,106.55v14.45c0,1.11.9,2,2,2h54c1.1,0,2-.89,2-2v-15"/>
      <path class="st1" d="M167,55.45v-14.45c0-1.1-.9-2-2-2h-54c-1.11,0-2,.9-2,2v15"/>
      <g class="st7">
        <g>
          <path class="st5" d="M51,56h0c13.81,0,25,11.19,25,25h0c0,13.81-11.19,25-25,25h0c-13.81,0-25-11.19-25-25h0c0-13.81,11.19-25,25-25Z"/>
          <path class="st0" d="M51,34h0c19.88,0,36,16.12,36,36h0c0,19.88-16.12,36-36,36h0c-19.88,0-36-16.12-36-36h0c0-19.88,16.12-36,36-36Z"/>
        </g>
      </g>
      <path class="st3" d="M51,56.5h0c13.53,0,24.5,10.97,24.5,24.5h0c0,13.53-10.97,24.5-24.5,24.5h0c-13.53,0-24.5-10.97-24.5-24.5h0c0-13.53,10.97-24.5,24.5-24.5Z"/>
      <g class="st10">
        <g>
          <path class="st5" d="M109,56h0c13.81,0,25,11.19,25,25h0c0,13.81-11.19,25-25,25h0c-13.81,0-25-11.19-25-25h0c0-13.81,11.19-25,25-25Z"/>
          <rect class="st0" x="84" y="56" width="50" height="50"/>
        </g>
      </g>
      <path class="st3" d="M109,56.5h0c13.53,0,24.5,10.97,24.5,24.5h0c0,13.53-10.97,24.5-24.5,24.5h0c-13.53,0-24.5-10.97-24.5-24.5h0c0-13.53,10.97-24.5,24.5-24.5Z"/>
      <g class="st8">
        <g>
          <path class="st5" d="M167,56h0c13.81,0,25,11.19,25,25h0c0,13.81-11.19,25-25,25h0c-13.81,0-25-11.19-25-25h0c0-13.81,11.19-25,25-25Z"/>
          <rect class="st0" x="142" y="56" width="50" height="50"/>
        </g>
      </g>
      <path class="st3" d="M167,56.5h0c13.53,0,24.5,10.97,24.5,24.5h0c0,13.53-10.97,24.5-24.5,24.5h0c-13.53,0-24.5-10.97-24.5-24.5h0c0-13.53,10.97-24.5,24.5-24.5Z"/>
      <g class="st9">
        <g>
          <path class="st5" d="M225,56h0c13.81,0,25,11.19,25,25h0c0,13.81-11.19,25-25,25h0c-13.81,0-25-11.19-25-25h0c0-13.81,11.19-25,25-25Z"/>
          <rect class="st0" x="201" y="56" width="50" height="50"/>
        </g>
      </g>
      <path class="st4" d="M225,56.5h0c13.53,0,24.5,10.97,24.5,24.5h0c0,13.53-10.97,24.5-24.5,24.5h0c-13.53,0-24.5-10.97-24.5-24.5h0c0-13.53,10.97-24.5,24.5-24.5Z"/>
      <g class="st11">
        <g>
          <path class="st5" d="M225,56h0c13.81,0,25,11.19,25,25h0c0,13.81-11.19,25-25,25h0c-13.81,0-25-11.19-25-25h0c0-13.81,11.19-25,25-25Z"/>
          <rect class="st0" x="201" y="56" width="50" height="50"/>
        </g>
      </g>
      <path class="st3" d="M225,56.5h0c13.53,0,24.5,10.97,24.5,24.5h0c0,13.53-10.97,24.5-24.5,24.5h0c-13.53,0-24.5-10.97-24.5-24.5h0c0-13.53,10.97-24.5,24.5-24.5Z"/>
      <g>
        <rect class="st6" x="137" y="0" width="138" height="28" rx="6" ry="6"/>
        <path class="st12" d="M148.37,16.6v-5.9h1.34v5.9h-1.34ZM146.09,14.32v-1.34h5.9v1.34h-5.9ZM157.4,9.27v8.73h-1.58v-7.19h-.05l-2.04,1.3v-1.45l2.17-1.39h1.5ZM162.65,18.12c-.57,0-1.08-.11-1.53-.32-.45-.22-.8-.51-1.07-.89-.26-.38-.4-.8-.42-1.29h1.53c.03.36.18.65.46.88.28.22.62.34,1.01.34.31,0,.59-.07.83-.21.24-.14.43-.34.57-.59.14-.25.21-.54.21-.86,0-.33-.07-.62-.21-.88s-.34-.46-.58-.6c-.25-.15-.53-.22-.85-.22-.26,0-.52.05-.77.14-.25.1-.45.23-.6.39l-1.43-.23.46-4.5h5.06v1.32h-3.76l-.25,2.31h.05c.16-.19.39-.35.69-.47.3-.13.62-.19.97-.19.53,0,1,.12,1.41.38.41.25.74.59.98,1.02.24.43.36.93.36,1.49s-.13,1.09-.4,1.54c-.26.45-.63.8-1.1,1.06-.47.26-1.01.38-1.63.38ZM170.51,18l3.71-7.35v-.06h-4.31v-1.32h5.94v1.35l-3.71,7.38h-1.64ZM180.15,18.12c-.57,0-1.08-.11-1.53-.32-.45-.22-.8-.51-1.07-.89-.26-.38-.4-.8-.42-1.29h1.53c.03.36.18.65.46.88.28.22.62.34,1.01.34.31,0,.59-.07.83-.21.24-.14.43-.34.57-.59.14-.25.21-.54.21-.86,0-.33-.07-.62-.21-.88s-.34-.46-.58-.6c-.25-.15-.53-.22-.85-.22-.26,0-.52.05-.77.14-.25.1-.45.23-.6.39l-1.43-.23.46-4.5h5.06v1.32h-3.76l-.25,2.31h.05c.16-.19.39-.35.69-.47.3-.13.62-.19.97-.19.53,0,1,.12,1.42.38.41.25.74.59.98,1.02.24.43.36.93.36,1.49s-.13,1.09-.4,1.54c-.26.45-.63.8-1.1,1.06-.47.26-1.01.38-1.63.38ZM187.93,18.17c-.7,0-1.3-.18-1.81-.53-.5-.36-.88-.87-1.15-1.55-.27-.68-.4-1.49-.4-2.44,0-.95.14-1.76.4-2.43.27-.67.65-1.18,1.15-1.53.5-.35,1.1-.53,1.8-.53s1.3.18,1.8.53c.5.35.89.86,1.15,1.53.27.67.4,1.48.4,2.43s-.13,1.77-.4,2.45c-.27.67-.65,1.19-1.15,1.54-.5.36-1.1.53-1.8.53ZM187.93,16.83c.55,0,.98-.27,1.29-.81.32-.54.48-1.33.48-2.38,0-.69-.07-1.28-.22-1.75-.14-.47-.35-.83-.61-1.07-.26-.24-.58-.36-.94-.36-.54,0-.97.27-1.29.81-.32.54-.47,1.33-.48,2.37,0,.7.07,1.28.21,1.76.14.47.35.83.61,1.07.26.24.58.36.94.36ZM196.94,9.27l2.27,6.87h.09l2.27-6.87h1.74l-3.08,8.73h-1.95l-3.07-8.73h1.74ZM204.39,18v-6.55h1.54v6.55h-1.54ZM205.16,10.53c-.24,0-.46-.08-.63-.24-.18-.16-.26-.36-.26-.59s.09-.43.26-.59c.18-.16.39-.25.63-.25s.46.08.63.25c.18.16.26.36.26.59s-.09.43-.26.59c-.17.16-.38.24-.63.24ZM210.41,18.13c-.66,0-1.22-.14-1.7-.41-.47-.28-.84-.66-1.1-1.17-.26-.51-.38-1.1-.38-1.79s.13-1.26.38-1.77c.26-.51.62-.91,1.08-1.19.46-.29,1.01-.43,1.63-.43.4,0,.78.07,1.14.2.36.13.68.33.96.6.28.27.5.61.66,1.03.16.41.24.91.24,1.48v.47h-5.37v-1.04h3.89c0-.3-.07-.56-.19-.79-.12-.23-.3-.42-.52-.55-.22-.13-.48-.2-.78-.2-.32,0-.59.08-.83.23-.24.15-.42.35-.56.6-.13.24-.2.51-.2.81v.91c0,.38.07.71.21.98.14.27.33.48.58.62.25.14.54.21.88.21.22,0,.43-.03.61-.09.18-.07.34-.16.47-.29.13-.12.23-.28.3-.46l1.44.16c-.09.38-.26.71-.52,1-.25.28-.58.5-.97.66-.4.15-.85.23-1.36.23ZM215.94,18l-1.85-6.55h1.57l1.15,4.6h.06l1.18-4.6h1.55l1.18,4.58h.06l1.13-4.58h1.58l-1.85,6.55h-1.61l-1.23-4.42h-.09l-1.23,4.42h-1.61ZM229.81,13.18l-1.41.15c-.04-.14-.11-.28-.21-.4-.1-.12-.23-.23-.39-.3-.16-.08-.37-.11-.61-.11-.32,0-.59.07-.81.21-.22.14-.32.32-.32.54,0,.19.07.35.21.46.15.12.38.22.72.29l1.12.24c.62.13,1.08.35,1.38.64.3.29.46.67.46,1.14,0,.41-.12.78-.36,1.09-.24.31-.56.56-.98.73-.42.18-.9.26-1.45.26-.8,0-1.45-.17-1.93-.5-.49-.34-.78-.81-.87-1.41l1.5-.14c.07.3.21.52.43.67.22.15.51.23.87.23s.66-.08.88-.23c.22-.15.34-.34.34-.56,0-.19-.07-.34-.22-.46-.14-.12-.36-.22-.66-.28l-1.12-.23c-.63-.13-1.09-.35-1.39-.66-.3-.31-.45-.71-.45-1.18,0-.4.11-.75.33-1.05.22-.3.54-.53.93-.69.4-.16.86-.25,1.38-.25.77,0,1.37.16,1.81.49.44.33.72.77.82,1.33ZM237.47,11.45v1.19h-3.76v-1.19h3.76ZM234.63,9.89h1.54v6.14c0,.21.03.37.09.48.07.11.15.18.26.22.1.04.22.06.35.06.1,0,.18,0,.26-.02.08-.01.14-.03.19-.04l.26,1.21c-.08.03-.2.06-.35.09-.15.03-.34.05-.55.06-.39.01-.73-.05-1.04-.17-.31-.13-.55-.33-.74-.61-.18-.27-.27-.61-.26-1.02v-6.4ZM241.54,18.13c-.64,0-1.19-.14-1.66-.42-.47-.28-.83-.67-1.09-1.18-.26-.51-.38-1.1-.38-1.77s.13-1.27.38-1.78c.26-.51.62-.9,1.09-1.18.47-.28,1.02-.42,1.66-.42s1.19.14,1.66.42c.47.28.83.68,1.09,1.18.26.51.39,1.1.39,1.78s-.13,1.27-.39,1.77c-.26.51-.62.9-1.09,1.18-.47.28-1.02.42-1.66.42ZM241.55,16.89c.35,0,.64-.1.87-.29.23-.19.41-.45.52-.78.12-.32.18-.68.18-1.08s-.06-.76-.18-1.09c-.11-.33-.29-.59-.52-.78s-.52-.29-.87-.29-.65.1-.89.29c-.23.19-.41.45-.52.78-.11.32-.17.69-.17,1.09s.06.76.17,1.08c.12.32.29.58.52.78.24.19.53.29.89.29ZM248.42,18.12c-.51,0-.98-.13-1.38-.4-.41-.26-.73-.65-.96-1.15-.24-.5-.35-1.11-.35-1.83s.12-1.34.36-1.84c.24-.5.57-.88.98-1.14.41-.26.87-.39,1.37-.39.38,0,.7.07.95.2.25.13.44.28.59.46.15.18.26.35.34.51h.06v-3.26h1.55v8.73h-1.52v-1.03h-.09c-.08.16-.2.33-.35.51-.15.18-.35.33-.6.45-.25.12-.56.19-.93.19ZM248.85,16.85c.33,0,.6-.09.84-.26.23-.18.4-.43.52-.75.12-.32.18-.69.18-1.11s-.06-.79-.18-1.1c-.12-.31-.29-.56-.52-.73-.23-.17-.51-.26-.84-.26s-.63.09-.86.27c-.23.18-.4.43-.52.74-.12.32-.17.68-.17,1.08s.06.77.17,1.1c.12.32.29.57.52.75.23.18.52.27.86.27ZM255.43,18.13c-.41,0-.79-.07-1.12-.22-.33-.15-.59-.37-.78-.66-.19-.29-.28-.65-.28-1.08,0-.37.07-.67.2-.92.14-.24.32-.43.56-.58.24-.14.5-.25.8-.33.3-.08.61-.13.93-.17.38-.04.7-.08.93-.11.24-.03.41-.09.52-.15.11-.07.17-.18.17-.33v-.03c0-.32-.1-.57-.28-.75-.19-.18-.47-.26-.82-.26-.38,0-.68.08-.9.25-.22.16-.37.36-.44.58l-1.44-.2c.11-.4.3-.73.56-1,.26-.27.58-.47.96-.61.38-.14.8-.2,1.25-.2.32,0,.63.04.94.11.31.07.6.2.86.37.26.17.47.4.62.69.16.29.24.65.24,1.09v4.38h-1.48v-.9h-.05c-.09.18-.23.35-.4.51-.17.16-.38.28-.63.38-.25.09-.55.14-.89.14ZM255.83,17c.31,0,.58-.06.8-.18.23-.12.4-.29.52-.49.12-.2.19-.43.19-.67v-.77s-.13.08-.25.11c-.11.03-.24.06-.38.09-.14.03-.28.05-.42.07-.14.02-.26.04-.36.05-.23.03-.44.08-.62.15-.18.07-.32.17-.43.3-.11.12-.16.29-.16.49,0,.28.1.5.31.64.21.14.47.22.79.22ZM261.16,20.45c-.21,0-.4-.02-.58-.05-.18-.03-.32-.07-.42-.11l.36-1.2c.22.07.42.1.6.09.18,0,.33-.06.46-.17.14-.11.25-.28.35-.53l.13-.35-2.37-6.68h1.64l1.51,4.94h.07l1.51-4.94h1.64l-2.62,7.34c-.12.35-.28.64-.49.89-.2.25-.45.44-.74.57-.29.13-.64.2-1.04.2Z"/>
      </g>
    </g>
  </g>
</svg>